<svg id="Calque_1" data-name="Calque 1" xmlns="http://www.w3.org/2000/svg" viewBox="0 0 383.26 384"><defs><style>.cls-1{fill:#b5b5b5;}</style></defs><path class="cls-1" d="M721.62,276.18h6c5.79,3.12,11.76,6,17.36,9.39q82.56,50.51,165,101.1c3.54,2.16,5.5,5.17,7,8.76V526.68c-2.65,2.76-5.11,5.73-8,8.21a126.55,126.55,0,0,1-10.24,7.53q-81.24,56.39-162.53,112.72c-2.72,1.89-5.73,3.37-8.61,5h-3.75c-2.53-1.28-5.27-2.26-7.57-3.88-22.23-15.65-44.27-31.56-66.59-47.09-31.62-22-63.5-43.67-95.11-65.72a147.23,147.23,0,0,1-17-14.56c-1.89-1.81-3.64-4.86-3.65-7.35-.23-41-.16-82-.16-123,0-4.54,1.59-8.28,5.49-10.85,3-2,5.95-4.12,9-6Q612.59,342.87,676.93,304C691.93,294.9,706.73,285.46,721.62,276.18Zm-8.23,33.36L567.68,398.43c24.67,17.19,48.73,33.91,72.7,50.75,2.15,1.51,3.42.39,5-.55,21.66-13.32,43.27-26.69,65-39.93a5.68,5.68,0,0,0,3.14-5.62c-.1-29.73-.06-59.46-.06-89.18Zm24,0v4.3c0,29.74,0,59.48-.07,89.22a5.66,5.66,0,0,0,3.2,5.57q32.79,19.86,65.45,39.92c2.05,1.26,3.46,1.36,5.56-.11q34.13-24,68.41-47.77c.94-.66,1.84-1.39,3.06-2.32Zm0,315.71L882.84,523.8a13.46,13.46,0,0,0-1.09-.94q-34.93-21.35-69.86-42.73c-2.08-1.28-3.31-.55-4.93.58q-33.42,23.35-67,46.58c-2.15,1.48-2.72,3.06-2.72,5.51q.11,44.06.05,88.09ZM567.69,523.64,713.38,625.18c0-31.85,0-62.83-.11-93.81,0-1.34-1.36-3.08-2.58-3.94-22.24-15.63-44.58-31.12-66.82-46.75-2.06-1.44-3.44-1.51-5.58-.19-14.51,9-29.12,17.84-43.7,26.73ZM663.5,465.2c20.42,14.23,40.28,28,60.07,41.94,2,1.43,3.16.26,4.56-.72l56.46-39.37c.76-.53,1.44-1.19,2.24-1.86a12.91,12.91,0,0,0-1.08-.88q-29.19-17.85-58.44-35.58a5,5,0,0,0-4.24.23c-10.39,6.16-20.68,12.51-31,18.81ZM558,420.89v80.16l61.92-37Zm273.22,43,61.64,37.59V420.88Z" transform="translate(-533.73 -276.18)"/></svg>