<?xml version="1.0" encoding="utf-8"?>
<!-- Generator: Adobe Illustrator 25.4.1, SVG Export Plug-In . SVG Version: 6.00 Build 0)  -->
<svg version="1.1" id="Calque_1" xmlns="http://www.w3.org/2000/svg" xmlns:xlink="http://www.w3.org/1999/xlink" x="0px" y="0px"
	 viewBox="0 0 256 256" style="enable-background:new 0 0 256 256;" xml:space="preserve">
<style type="text/css">
	.st0{fill-rule:evenodd;clip-rule:evenodd;fill:#B5B5B5;}
</style>
<g>
	<path class="st0" d="M17.6,85.5c-23.5,23.5-23.5,61.5,0,84.9l67.9,67.9c23.5,23.5,61.5,23.5,84.9,0l67.9-67.9
		c23.5-23.5,23.5-61.5,0-84.9l-67.9-67.9C147-5.9,109-5.9,85.5,17.6L17.6,85.5z M157.7,157.7c16.4-16.4,16.4-43,0-59.5
		c-16.4-16.4-43-16.4-59.4,0c-16.4,16.4-16.4,43,0,59.5C114.7,174.1,141.3,174.1,157.7,157.7L157.7,157.7z"/>
</g>
</svg>
