<svg id="Calque_1" data-name="Calque 1" xmlns="http://www.w3.org/2000/svg" viewBox="0 0 1363.11 768"><defs><style>.cls-1{fill:#fff;}</style></defs><path d="M1118.89,0h11.36c-.84,4.61-1.46,9.3-2.54,13.83a113.7,113.7,0,0,0,3.1,64.91c9.84,28.42,14.61,58.19,16.59,88.77,1.87,29.08,8.64,56.18,23.82,79.8,7.59,11.81,14.43,24.3,21.53,36.54,12.51,21.56,19.34,44.71,14.68,71.42-4.11,23.57-4.08,47.45-3.47,71.44a324.47,324.47,0,0,1-1.83,41.11c-4.09,40.06-9.33,80-13,120.06-2.71,29.81-3.45,59.86-5.53,89.75a190.32,190.32,0,0,1-4.36,27.19c-4.57,20.9-4.06,42-2.43,63.18h-14.77c-3.12-23.94-4.36-47.77-1.3-72,4-31.43,5.94-63.21,10.09-94.6,6.83-51.57,10.88-103.4,12.86-155.49,1-26.34-.5-53.1,2.9-79,4.14-31.48-2.29-57.21-19.34-80.66-8.67-11.91-16.51-24.7-24.42-37.36-9.54-15.25-16.23-32.08-17.87-51.25-1.48-17.28-2.93-34.58-3.87-51.91-1.21-22.32-2.45-44.58-7.57-66.25a122.76,122.76,0,0,1,1.24-62C1116.36,11.77,1117.53,5.85,1118.89,0Z"/><path d="M1154.1,768h-14.77a21.69,21.69,0,0,0-.2-2.69c-9.81-51.89-7.21-103.49,2.18-155,3.93-21.56,8.38-43.13,10.46-65,1.74-18.26.09-36.95.43-55.44.65-35,1.64-69.92,2.49-104.88.72-30.21-4.79-57.52-21.19-82.07-14.22-21.28-26.07-44.84-38.52-67.74-5.92-10.88-9.82-23.12-10-36.26q-.36-24,.68-48c.87-20.92,4.57-42,3.07-62.63-2.27-31.32,3.13-60,13.13-88.23h11.36c-1.65,6.23-3.2,12.5-5,18.68a133.31,133.31,0,0,0-3.37,60.68,178.42,178.42,0,0,1,2.8,23.42c1,24.54,1.93,49.11,2.15,73.68.28,31.2,8.23,58.79,24.63,83.16,11.12,16.53,22.35,33.05,32.31,50.56a71.8,71.8,0,0,1,8.86,27.95c1.18,13.28-.7,26.93-1,40.43-.76,30.88-1,61.8-2.15,92.66-1.37,36.25-1.31,72.67-7.36,108.48-5.48,32.5-11.51,64.91-12.69,98.18-.73,20.45-1.59,40.92-1.52,61.38C1150.9,748.85,1153,758.42,1154.1,768Z"/><path d="M1131.38,768h-14.76c-2.53-24.14-5.5-48.22-7.45-72.43-1.8-22.22-2.84-44.62.85-66.76,2.94-17.68,6.91-35.13,9.54-52.86,2-13.69,4.57-27.85,3.59-41.47-2.15-30,.73-59.36,4.19-88.88,4.43-37.92-.3-73.74-19.06-105.88-2.7-4.62-5.12-9.49-7.43-14.4-15.12-32.25-28.7-65.52-46.3-96.13-7.45-12.95-9-28-6.19-43.54,1-5.5,2.19-11,3.3-16.44,5.43-26.9,13.26-53.25,12.69-81.51a209.47,209.47,0,0,1,.59-22.28c2-23.25,10.75-44,17.6-65.42H1095c-1.23,4.25-2.27,8.6-3.71,12.75a204.25,204.25,0,0,0-11,76c.56,14-1.47,28.26-2.8,42.34-1.51,15.89-3.28,31.77-5.42,47.56-3.07,22.64,1.77,42.76,12.16,61.63,14.23,25.82,28,52,42.23,77.8a136.48,136.48,0,0,1,16.56,49.86c3.29,26.5,2.62,53,1.46,79.65-1.08,24.73-2,49.53-1.75,74.27.24,21.85-1,43.23-6.22,64.21-11.38,45.56-14.44,92.1-10.77,139.26C1126.91,739.61,1129.48,753.77,1131.38,768Z"/><path d="M777,768H754.25c-8.34-19.67-14.35-40.17-15.58-62.36A65.42,65.42,0,0,0,719.4,662c-7.32-7.48-14.64-15-21.86-22.6a75.68,75.68,0,0,1-20.65-44.65c-2.58-23-4.82-46.08-7-69.15a117.36,117.36,0,0,1,6.93-52.21c7.08-19.13,14.13-38.39,22.7-56.59,9.24-19.59,14.81-39.87,14.78-62.31,0-16,2.05-31.5,7.11-46.29a191,191,0,0,0,10.05-76.09c-1.29-18.51,2.63-35.73,9.92-52,5.78-12.93,11.5-25.91,17-39,7.44-17.82,7.29-35.7-.91-53.13a218.53,218.53,0,0,0-12.08-22.85C733.21,45.68,726.75,24.47,729.26,0h25c.07,1.56.22,3.13.2,4.69-.26,19.65,2.1,38.65,9.31,56.58C767.44,70.41,771,79.65,774.19,89a71,71,0,0,1-1.07,50.56c-3.32,8.34-6.72,16.7-10.75,24.58-13.36,26.12-20.79,53.75-18.31,84.88,1.45,18.21-3.21,35.68-7.16,53.16C733.57,317,731.12,332,728.72,347c-1,5.94-.79,12.14-1,18.22-.94,23.94-9.31,44.69-18.76,65.27-12.36,27-21.89,55.5-20.68,86.81.79,20.4,4.08,40.7,6.84,60.93,2.67,19.55,11.11,35.27,24.32,47.31,5.71,5.21,11.54,10.22,17.16,15.57s11.28,10.66,16.46,16.56c8.07,9.18,11.9,20.71,11.57,34.08-.12,4.74-.16,9.49-.54,14.2a97.74,97.74,0,0,0,7,45.32C773.3,756.73,775,762.43,777,768Z"/><path d="M1135.93,0h12.49a124.74,124.74,0,0,0,8.89,74.66c12,27,22.13,54.84,26.09,85.38,2.9,22.3,10.11,42.73,18.56,62.85,10.23,24.37,19.33,49.42,28.67,74.31,6.13,16.33,7.28,33.58,4.79,51.06a318.15,318.15,0,0,0-2.93,64.7,204,204,0,0,1-6.24,64.79c-2.64,10.1-4.52,20.49-6.67,30.77-6.22,29.81-9.39,60-5,90.52,5.84,41,3,80.73-9.45,119.68-5,15.73-6.42,32.42-5.54,49.28h-14.77c-1.58-17.63-2.14-35.43,2.51-52.37,8.57-31.2,10.08-63.33,9.66-95.6a666.82,666.82,0,0,1,10.74-130.36c4.37-23.67,8.42-47.23,6.49-71.65-1.71-21.51-.2-42.83,3.06-64,3.07-20,1.76-39.24-6.77-57.08-9.07-19-18.22-38-28.12-56.34a182,182,0,0,1-21.07-65.09c-1.46-12.05-2.77-24.14-4.39-36.16-3.26-24.06-11.48-46.19-19.31-68.43a101.46,101.46,0,0,1-4.37-51.68C1134.28,12.88,1135,6.42,1135.93,0Z"/><path d="M767.89,0H790.6c-.06,1.8-.05,3.62-.2,5.41-2.33,27.41-1.34,54.41,5.49,81,5.28,20.57,3.06,40.63-5.19,59.72-3.55,8.22-7,16.49-10.82,24.54-11.09,23.53-17.5,48.28-15.49,75.69a121.91,121.91,0,0,1-.73,23.62c-4.7,38.11-14.53,75.08-17,113.75-1.43,22.11-10.72,41.59-17.77,61.77-8.71,24.94-15.1,50.58-12.16,78.21,3.7,34.82,14.32,64.72,40.49,84.36,8.78,6.59,17,14.29,25.11,22.08,15.7,15.16,22.79,34.88,18.75,58.75a154,154,0,0,0,4.51,71.86c.68,2.25.66,4.81,1,7.22H788.33c-.72-2.32-1.26-4.76-2.19-7a119.63,119.63,0,0,1-8.41-67.59c3-18.35-2.58-34-14.62-45.77-9.78-9.58-19.91-18.72-30.22-27.5C717,606.67,707.28,588.72,703.41,566c-4.68-27.51-9.1-54.88-2.74-83,4.56-20.15,10.48-39.54,19.08-57.74,9.57-20.22,14.1-42,15.58-65.15,1-15.65,2.79-31.53,6.36-46.59,6.54-27.63,10.54-55.35,9.26-84.12a85.06,85.06,0,0,1,6.57-36.71c6.16-14.74,12.39-29.44,19.06-43.85,10.1-21.82,11.42-44,3.42-67-1.16-3.34-2.1-6.78-3.26-10.11C768.76,48.63,766.25,24.68,767.89,0Z"/><path d="M898.52,768H883.75a40.86,40.86,0,0,1,.71-5.26c5.31-19.94,5.75-40.33,4.4-61-.55-8.3-1.39-16.8-.52-25,1.9-17.84,4.16-35.7,7.48-53.22,4.09-21.57.64-40.19-12-56.38-4-5.12-8-10.21-11.86-15.5-11-15.18-22.1-30.27-32.8-45.75-9.65-14-13.58-30.23-13.47-48.39.08-13.94-.24-28.09-2.18-41.78a154.2,154.2,0,0,1,11.61-85.27c12.33-28,16-56.66,9.64-87.65-7.37-35.77-4.85-70.53,9.28-104,9.86-23.39,13-48.78,12.67-74.93-.17-15.08.54-30.19,1.2-45.26.27-6.25,1.44-12.44,2.2-18.65h14.77c-4.17,19.89-4.11,40.13-4,60.46,0,11-.21,22.4-2.57,32.9-4.29,19.06-9.73,37.83-15.68,56.27-6.17,19.09-9.84,38.3-7.38,58.8,1.45,12,2,24.3,4.17,36.16,5.57,30.78,2.47,59.82-9.3,88-11.33,27.16-13.73,55.4-5.25,84.63a177.57,177.57,0,0,1,6.12,29.5c3.21,28.52,14.7,51.68,30.77,72.33,9,11.57,17.68,23.49,26.29,35.46,14.19,19.73,16.16,41.55,7.17,64.94-10.68,27.78-14.85,56.51-10.25,87,2.34,15.44,1.95,31-2.16,46.18C901.39,757.76,899.94,762.87,898.52,768Z"/><path d="M1108.66,768H1093.9c-2.5-24.85-4.16-49.87-7.68-74.52-5.11-35.79-4.11-70.92,4-105.89a213.55,213.55,0,0,0,4.75-65.71,181.51,181.51,0,0,1,4-55c9.45-41.69,3.9-78.83-21.29-111.22-12.11-15.57-20.06-34.35-25.18-54.75A196,196,0,0,0,1033,253,231.3,231.3,0,0,1,1021.25,229a66,66,0,0,1-2.69-43.43c2.32-8.56,5.33-16.86,8.15-25.22,7.69-22.8,13.28-46.1,11.76-71-1.21-19.88,2.51-38.43,9.7-56.31,4.33-10.76,7.8-22,11.65-33h14.77c-2.81,9.08-5.21,18.37-8.51,27.18a167.58,167.58,0,0,0-10.53,65.15c.19,5.83.2,11.91-1,17.5-4.31,20.75-9.2,41.33-13.73,62-1.81,8.26-3.9,16.54-4.73,25-1.56,15.91,4,29.57,11.33,42.25a406.82,406.82,0,0,1,27.31,56.81c6.9,17.93,15.78,34.79,23.88,52.07,4.79,10.21,10.59,19.86,14.49,30.52,9.55,26.07,8.24,53.37,3.93,80.49-3.61,22.72-6,45.34-3.9,68.53,1.77,19.29-.64,38.19-4.84,56.89-5.23,23.36-9.72,47-9,71.34.69,22.74,2.44,45.46,4.26,68.12C1104.8,738.62,1107,753.28,1108.66,768Z"/><path d="M1200.67,0H1220c5.64,13.21,10.55,27,17.07,39.51,12,23.12,23.23,46.61,29.46,72.91,5.68,24,14.62,45.81,28.1,65.05,10.1,14.42,14.36,31.39,14.2,50.2-.18,20.53-.37,41.09.4,61.58.65,17.46.74,34.76-2.59,51.83-4.63,23.68-6.65,47.51-5,71.86,1.79,26.62-.16,52.78-9.26,77.63-10.28,28.06-9.22,55.62,2.09,83,5.32,12.86,8.65,26.53,8.46,41.05-.6,46.35-8,90.51-29.36,130.27-3.94,7.35-7,15.4-10.4,23.12h-13.63c2.53-7,4.45-14.37,7.69-20.84,13-25.94,20.41-54.12,25.75-83.43,5.24-28.69,5.14-56.24-7.1-82.82a96.7,96.7,0,0,1-7-24.86c-3.56-22.46.19-44.09,7.52-64.79,8.8-24.84,12.18-50.56,10.85-77.38-1.09-22.13-.77-44.2,3.41-66,3.71-19.38,3.71-38.79,1.23-58.5a386.74,386.74,0,0,1-3.45-48.45c0-23.53-5.59-43.93-17.14-63.09a187.91,187.91,0,0,1-18.38-40.92c-8-25.9-16.88-51.19-28.2-75.27-5.83-12.4-11.6-24.86-16.75-37.66C1204.85,16.37,1203.05,8,1200.67,0Z"/><path d="M1283.6,768H1270c2-4.34,3.73-8.89,6-13a262.48,262.48,0,0,0,33.48-113.49c1.88-29.17,2.5-57.42-8.59-84.7-8.34-20.5-8.09-42-.92-63.09,9-26.56,11-54.05,9-82.37-1.28-18.46-.88-36.94,2.78-55.16a298.11,298.11,0,0,0,6.21-65.67,472.55,472.55,0,0,1,1.42-51.34c2.36-27.14-2.82-50.88-18.27-71.36-11.62-15.4-18.74-33.69-23.24-53.59C1272.07,88.36,1263.44,64,1250.28,42a216.35,216.35,0,0,1-11.44-21.78c-2.94-6.46-5-13.46-7.5-20.23h22.72c5.27,11.19,9.8,23,16,33.44,11.91,20.26,20.12,42.24,25.24,66.1,3.34,15.52,6.83,31.12,14.81,44.38,5.61,9.34,12.1,17.93,17.84,27.16,10.19,16.39,15,34.53,12.81,55.24-2.6,24.59-4.44,49.3-6.86,73.92-1.49,15.21-2.56,30.59-5.39,45.47-4.27,22.43-6.69,44.88-5,67.79,2,27.23.89,54-5.84,80.37a77.07,77.07,0,0,0,3.73,50c6.82,16.32,7.75,33.71,6,51.52-1.87,19-4.37,38-5.22,57.17-1.4,31.58-10.79,59.71-23.84,86.53C1293.51,748.79,1288.49,758.35,1283.6,768Z"/><path d="M1221.12,768h-14.77c.82-23.07,6.78-44.61,13.05-66.22,9-31,11.93-62.7,5.52-95.18-4.13-21-6.7-42.32-3.51-63.74,2.73-18.4,6-36.77,10.41-54.69,5.89-24.16,11.64-48.17,9.57-73.69-1.93-23.78.7-47.2,2.79-70.79,1.09-12.3,1.28-25.92-2-37.35-9.37-32.55-20.15-64.59-31.56-96.22-6.13-17-12.86-33.63-15.95-51.9A275.1,275.1,0,0,0,1174,90.48c-4-8.92-7.5-18.2-11.31-27.27-7.13-17-9.82-34.94-8.77-53.8.18-3.13.15-6.27.21-9.41h13.63a110.63,110.63,0,0,0,7.11,42.77c6.15,16.45,13.16,32.45,19.41,48.85,6,15.77,12.57,31.4,16.94,47.82a368,368,0,0,0,22.39,62.63c5.37,11.39,8.59,24.41,11.72,37.07,4.31,17.48,7.13,35.48,11.48,52.95a142.6,142.6,0,0,1,3.32,54.78c-1,7.34-2.14,14.7-2.51,22.1-.54,11-1.29,22.16-.5,33.1,2.27,31.49-2.71,61.33-11.71,90.78-11.53,37.72-14.45,75.79-1.43,114.24,5.89,17.4,5.64,35.63,2.78,54-3.89,25-10.74,48.74-18.18,72.44C1225.08,744.55,1223.54,756.47,1221.12,768Z"/><path d="M875.8,768H861c.76-7.15,1.91-14.28,2.2-21.47q2.14-52.71,3.82-105.45a124.25,124.25,0,0,0-1-20.87C863.74,604,855.29,592,845.59,581.35a368.79,368.79,0,0,1-46.2-63.05c-10.6-18.23-13.23-37.51-9.33-59.16,3.08-17.12,4.36-34.71,6.19-52.12.89-8.5.84-17.13,1.82-25.61,2.8-24.39,10.22-47.09,18.77-69.28a103.94,103.94,0,0,0,5.77-56.1c-6-34.91-5.84-69.08,7.95-101.72,11.6-27.48,16.19-56.37,14.31-87.16A257.72,257.72,0,0,1,849.67,0H863.3a303.18,303.18,0,0,0-4.17,66.64c1.1,27.64-3.29,54-13.5,78.75-13,31.38-14.68,63.89-8.85,97.65,2.66,15.43,6.09,31.22,2.52,46.89a283.06,283.06,0,0,1-11.65,37.26c-10.14,26.74-16.43,54.09-14.32,83.9,1,14.3,1.28,29-.37,43.18-2.64,22.73,2.33,42.1,14.4,59.12,14.16,20,28.42,39.85,43.3,59,13.11,16.89,18.09,35.86,14.6,58.45-3.3,21.32-5.89,42.77-4.83,64.57C881.62,719.88,881.08,744.15,875.8,768Z"/><path d="M800.83,0H819c-1.46,17-3.72,34-4.14,51.09-.32,13,1.29,26.07,2.75,39,2.9,25.74-4.12,48.5-14.11,70.45-13.36,29.37-18.59,60.36-16.17,93.89,1.06,14.74-1,30.12-3.39,44.82-3,18.32-8.89,36-11.43,54.37-5.31,38.3-10.86,76.34-22.75,112.79a103.42,103.42,0,0,0-3.91,46c3.33,24.38,13.72,44.38,28.64,60.79,11.93,13.12,25,24.76,37.41,37.29,11.28,11.38,18.67,25.59,19.39,43.53.44,10.77-.26,21.61-.51,32.42-.43,18.21-1.21,36.42-1.25,54.63,0,9,1.27,17.95,2,26.93H815.59a56.47,56.47,0,0,0-.69-6c-5.54-24.48-7-48.93-3.11-74.23,4.62-29.89-4.32-54-25.65-71.28-8.43-6.86-16.47-14.4-24.7-21.6-22.86-20-33.07-48.06-35.45-80.61-1.93-26.37,5.21-50.78,13.88-74.47A289.67,289.67,0,0,0,755.3,375c2.5-20.48,5.25-41,9.34-61.11,5.35-26.29,8.57-52.56,7.19-79.67a95.82,95.82,0,0,1,5.91-39.63q9.13-23.62,18.89-46.9c8-19.26,11.19-39.24,6.66-60.34-5-23.48-5.67-47.22-3.54-71.18C800.23,10.79,800.47,5.39,800.83,0Z"/><path d="M741.76,768H719c-1.13-4-2.13-8.13-3.41-12.09-15-46.56-8.59-49.34-48.39-99.15-12.2-15.28-17.73-34.21-18.85-55.26-1.38-26.08-3.22-52.14-5-78.19-.91-13.28-.12-26.43,4.62-38.44,9.16-23.24,18.16-46.68,28.93-68.85,9.82-20.21,16.88-40.59,16.47-64.31-.25-14.76,1.49-29.45,7.13-42.78,11-26,14.44-53.27,11.4-82.09a92.35,92.35,0,0,1,5.58-41.65c4.93-13.41,10.08-26.74,15.66-39.77,9.72-22.68,7.08-43-7-61.71-6.83-9-13.84-17.92-20.39-27.24C694.18,40,691,20.89,694.05,0h22.72c-2.54,21.64,1.43,41.11,13.13,58.29,6.07,8.92,11.88,18.14,17.31,27.63,10.15,17.7,11.29,36.42,3.18,55.7-4.92,11.69-9.77,23.43-15,34.91a117.92,117.92,0,0,0-10.43,60c2,23-1.34,44.91-8.88,66.06-5.68,15.95-9.21,32.49-8.9,49.91.44,24.83-7,46.31-17.2,67.57-9.71,20.26-17.29,42-25,63.53-4.67,13-5.6,27-4.34,41.22,2,22.65,4.11,45.29,5.67,68,1.55,22.48,9.13,41.13,23.09,56.26,6,6.52,11.78,13.38,17.77,19.93,10.87,11.9,16.47,26.88,20,43.79s8.81,33.43,13.31,50.11C740.91,764.6,741.33,766.3,741.76,768Z"/><path d="M1241.57,768h-13.63c3-11.13,5.94-22.32,9.14-33.39,4.55-15.75,9.52-31.34,13.94-47.15,9.61-34.38,10.62-68.24-3-102a82.57,82.57,0,0,1-4.39-43.8c2.89-17.65,5.6-35.57,10.59-52.45,8.34-28.14,12.35-56.49,10.63-86.34a218.11,218.11,0,0,1,1.51-41.12c3.42-25.71,4.81-50.87-2-76.27a245.55,245.55,0,0,1-7.22-41.63c-1.82-20.32-8-38.07-16.68-55.47-6.89-13.84-11.76-29.15-17.13-44-6-16.74-11.26-33.92-17.55-50.53-7.46-19.72-15.9-38.91-23.5-58.56-4.29-11.08-7.53-22.68-6.64-35.26h15.91c1.78,7.53,2.72,15.55,5.51,22.5,9,22.38,18.82,44.25,27.93,66.54,4.88,11.94,9.65,24.06,13.24,36.59,6.34,22.15,14.18,43.19,25.89,62.14,8,13,12.06,27.75,13.09,44,1.19,18.84,2.59,37.77,5.42,56.33a209.21,209.21,0,0,1,.29,61.15c-2.26,16.15-4.28,32.83-3.37,49a265.32,265.32,0,0,1-13.69,101.88c-7,20.7-9.65,42.89-4.89,65.06,2.23,10.4,6.16,20.32,9.7,30.26,4.82,13.51,8,27.38,6.62,42.11a347,347,0,0,1-16.16,78.62C1255.31,733.82,1248.15,750.77,1241.57,768Z"/><path d="M854.22,768H839.45c0-26.13-.07-52.26.16-78.38.08-10.14,1-20.26,1.35-30.4.88-22.75-6.27-41.32-20.71-56.07-10.64-10.85-21.51-21.41-31.7-32.83-6.3-7.06-11.78-15.24-17.17-23.36-16.62-25-19.49-52.88-11.84-83.05,4.76-18.74,10-37.51,12.76-56.72,4.64-32,8.33-64.2,17.87-94.86C797,290.45,798.23,268,795.8,245c-2-19-1.24-38,4.52-56.07,4.76-14.94,10.22-29.57,15.8-44.11,7.35-19.18,9.72-38.94,8-60C822.88,68.55,823,52,823.49,35.6c.34-11.9,2.25-23.74,3.46-35.6h14.77c-3.33,24.76-6.35,49.67-4.19,74.71,2.45,28.43-2.65,54.65-13.24,79.77-12.76,30.28-16.58,62-11.1,95.31a126.32,126.32,0,0,1-6.51,66c-10,26.73-15.8,54.79-18.38,84A483.72,483.72,0,0,1,779.57,459c-5.61,26.13-2.5,49.16,11,71a332.72,332.72,0,0,0,45.08,57.85c17.49,17.88,24,40.16,22.54,67.4C856.12,692.72,855.47,730.38,854.22,768Z"/><path d="M1033.69,0h17c-3.89,11.2-7.18,22.77-11.8,33.52-8.23,19.12-10.93,39-9.38,60.31.64,8.87.78,18.41-1.25,26.83-4.47,18.55-9.85,36.87-16,54.74-7.47,21.81-6.9,42.6,2.47,63.15,2.52,5.55,5.1,11.09,8,16.37A187.23,187.23,0,0,1,1041.12,302a164.55,164.55,0,0,0,28.42,61c1.12,1.52,2.1,3.2,3.26,4.69,20.87,26.94,25.58,58.43,18.31,93.19a229.86,229.86,0,0,0-4.68,65.09,206.35,206.35,0,0,1-4.59,61,276.78,276.78,0,0,0-3.37,105.84c4,24.71,5.09,50.09,7.48,75.18h-14.77c-2.42-24.63-3.28-49.67-7.65-73.8-6-33.05-5.77-65.21,1.37-97.72,5.21-23.69,8-47.82,6-72.39a250.58,250.58,0,0,1,3.2-65.94c5.25-29.06.11-55-16.62-77.47-4.78-6.4-9.14-13.24-13.67-19.9-8.76-12.93-15.08-27.36-20-42.94-7-22.09-15-43.77-22.58-65.61-2.09-6-4.43-12-6.32-18.1-6.2-20.2-6-40.21,1.64-59.91,1.89-4.92,3.73-9.87,5.69-14.74,8.1-20.14,12.78-41.22,10-63.56-3.19-25.53,1.19-48.7,12.06-70.74C1028.13,17.3,1030.58,8.42,1033.69,0Z"/><path d="M923.51,768h-17c8.44-21.41,9.87-43.61,6.21-66.75-2.54-16-3.39-32.48.72-48.33A234.63,234.63,0,0,1,924.68,619c11.1-25.68,9.56-49.56-5.62-71.94-8.09-11.92-16.68-23.35-25.12-34.93-12-16.53-21.87-34.49-27.19-55.71-3.74-14.9-7.5-29.84-12-44.41-8-25.78-6.67-50.84,2.39-75.73,8.07-22.15,14.17-44.84,11.72-69.49-1.49-15-2.94-30-5.05-44.94-3.65-25.71-3.43-50.84,6.41-74.79,14-34,19-70,18.43-107.68-.19-13.1,2.73-26.27,4.23-39.41h14.77c-1.72,15.36-4.3,30.66-5,46.08-1.5,33.62-5.73,66.3-18,97-7.85,19.74-11.91,40.33-8.79,62.37,1.16,8.22,1.83,16.53,2.85,24.78,4.66,37.9,5.27,75.26-6.73,111.92-6.65,20.34-5,41.23,1.75,61.46,2.09,6.29,4.44,12.45,6.46,18.77,11.92,37.23,28.13,71.32,51.15,100.54A111.82,111.82,0,0,1,941,538c12.38,22.38,14.83,45.95,5.08,70.59-4.19,10.59-9,20.82-13.21,31.43-5.65,14.38-8.14,29.49-6.2,45.41.27,2.23.25,4.53.67,6.71C932.37,717.87,933.9,743.36,923.51,768Z"/><path d="M1063.23,768h-17c0-24.63-1.08-49.13-6.28-73.11-4.74-21.88-7-43.82-2.43-66.2,2.5-12.26,4.5-24.67,7-36.93,4.93-24.09,6.74-48.2,4.1-73.07-2.27-21.38-3.09-43.07-3.32-64.64-.21-20.09-4-38.38-13.87-54.7-5.74-9.51-11.53-19-17.56-28.25a150.62,150.62,0,0,1-20.11-47.34c-2.67-11-6.37-21.7-9.29-32.65-4.4-16.52-8.94-33-12.67-49.76-6.09-27.39-6.23-54.42,5.55-80.2,9.19-20.11,12.15-41.8,9.59-64.21-3.24-28.35,2.26-54.08,13.8-78.59,2.74-5.82,4.6-12.22,6.87-18.35h17c-3.89,10-7.42,20.16-11.73,29.84-8.22,18.44-12.73,37.63-10,58.61a141,141,0,0,1-11.82,78.43c-10.7,23.49-10.87,47.9-3.53,72.71,1.76,5.95,3.69,11.83,5.62,17.72,6.47,19.73,13.5,39.23,19.31,59.23,5.21,17.93,12.13,34.45,22.19,49.14,6.1,8.92,12,18,17.94,27.1,11.51,17.82,15,38,12.42,60.05-1.1,9.38-2.56,18.79-2.75,28.21-.28,13.28-.31,26.69,1,39.85,2.94,30.75-2.45,60.26-8.32,89.68a198.75,198.75,0,0,0-.12,78.36c3.23,16.4,4.49,33.36,6.31,50.12C1062.15,748.65,1062.54,758.35,1063.23,768Z"/><path d="M1038.24,768h-18.18a320,320,0,0,0-6.39-75.16,136,136,0,0,1,1.55-62.1c4.17-16.62,7.39-33.58,11-50.38a140.62,140.62,0,0,0-2.33-69.28c-4-14.07-8-28.3-10.37-42.83-4.92-30.49-14.57-58.19-30.19-83-7.87-12.53-14.42-26-17.11-41.6-6.74-39-16.75-77.19-18.92-117.42-1.27-23.34-2.05-45.93,6.84-67.49,7.87-19.09,10.49-39.32,9.93-60.45-.53-20.15.49-40.24,6.43-59.39,4.06-13.1,8.77-25.92,13.19-38.86h15.91c-3,7.54-5.79,15.18-9,22.6-9.58,22.45-14.15,46-11.86,71.28,2.2,24.35-.91,47.53-10.37,69.57-6.57,15.31-9.74,31.86-7.94,49.16,1.56,15,2.85,30.15,5.93,44.73,4.43,20.94,11.14,41.19,15.49,62.15,5,24,13.76,45.21,26.79,64.2,3.1,4.53,5.75,9.51,8.57,14.31,10.58,18,15.9,37.86,16.93,60,.89,19.05,3.4,38.07,6.15,56.91,3,20.49,3.79,40.77,0,61.14-2.7,14.52-5,29.18-8.42,43.48-5.88,24.93-6.82,49.67-.79,74.73a149.33,149.33,0,0,1,3.78,22.52C1036.33,733.82,1037.16,750.93,1038.24,768Z"/><path d="M263.53,768H249.9c1.18-9.35,2.43-18.68,3.52-28,2.78-23.87,4.44-48,8.52-71.56s6.18-46.64,4.08-70.47c-1.57-17.72-3-35.48-3.71-53.27-2.05-50.36-6.15-100.33-17.43-149.14-4.89-21.16-4.38-42.28,3-62.33,11.44-31,18.18-63.42,24.46-96.24,4.32-22.59,11.08-44.49,16.42-66.82,6.33-26.46,5.53-52.59-3.52-78.16-3-8.51-5.72-17.18-8.65-25.74a104.28,104.28,0,0,1-3-58.33c.6-2.57.83-5.26,1.23-7.9h18.18c-.39,1.72-.87,3.42-1.14,5.16-3.16,20.11.82,38.82,7.32,57.28,4.15,11.8,8.21,23.87,10.65,36.28,4.28,21.72.5,43.15-4.88,64-7.73,29.94-15.89,59.64-19.66,90.86-3.26,26.9-11,52.43-20,77.36A115.39,115.39,0,0,0,260.28,391c8.48,49.23,16.46,98.58,24.25,148,5.66,35.94,7.06,72.29-4.53,106.75C266.69,685.32,267.11,726.91,263.53,768Z"/><path d="M662.24,0h20.45c-3.24,24.63,2.5,45.93,16.67,64.12,6.7,8.59,13.61,16.95,20,25.84,11,15.26,13.41,32.41,6.64,51-3.84,10.55-7.71,21.09-11.85,31.46-7.65,19.19-11.42,39.19-8.88,60.41,2.87,23.95.2,46.72-9.12,68.31-7.26,16.82-10,34.86-10,53.62.06,18.27-4.3,34.9-11.77,50.87-11,23.61-21.33,47.71-31.85,71.66-6.69,15.24-8.53,31.49-7.37,48.56,1.65,24.48,3.26,49,4,73.51.77,24.09,6.46,45.63,19.69,64.09,4.66,6.51,9.18,13.19,14,19.56,18.38,24.39,26.5,54.7,34.76,85H686.1c-2.92-9.72-5.57-19.56-8.8-29.13-7.43-22-19.14-40.92-31.32-59.38-15.05-22.83-22.6-48.38-22.81-77.61-.18-26.11-1.7-52.23-3-78.31-.92-17.63,1.75-34.06,8.89-49.56,11-23.91,21.8-48,32.88-71.85,6.24-13.46,10.61-27.61,10.51-43.06-.15-24.2,4.24-46.84,13.6-68.38,6.62-15.23,8.42-31.77,6.12-48.74-3.6-26.58-1.11-52.12,8.43-76.64,2.14-5.51,3.56-11.42,5.58-17,8.13-22.47,4.81-42.07-9.66-59.45a301.94,301.94,0,0,1-19.63-26.23A89.92,89.92,0,0,1,662.24,0Z"/><path d="M243.09,768h-15.9c1.9-7.29,4.52-14.43,5.57-21.89,3-21.34,5.16-42.85,8.07-64.21,2.8-20.46,3.63-40.71-.61-61.1a419.71,419.71,0,0,1-8-104.79c1.58-34.59-.14-68.4-8-101.86A185.49,185.49,0,0,1,227.34,317c3.44-11.44,6.87-23,8.94-34.88a625.47,625.47,0,0,1,20.55-84.32c7.29-22.68,9.53-45.85,3.3-69.57-4.41-16.78-8.64-33.63-12.93-50.45-6.79-26.69-4.71-52.58,5-77.78h14.76c-.28,1.3-.48,2.64-.85,3.9a114.45,114.45,0,0,0,1.72,72c3,8.74,5.54,17.73,8.42,26.55a135.41,135.41,0,0,1,2.43,76.89c-6.67,26.3-13.83,52.46-19.48,79.08-4.56,21.44-8.82,42.86-16.34,63.17-9.93,26.84-11.49,54.23-4.57,82.54,9.78,39.95,12.12,81,13,122.43.6,27.43,3.09,54.84,5.3,82.19,1.26,15.52,2.72,30.86.68,46.47C252.37,692.76,247.79,730.39,243.09,768Z"/><path d="M412.34,768H391.89c-4.54-34.48,2.69-65.46,18.31-94.64,9-16.88,16.37-35.06,24.36-52.73a83.88,83.88,0,0,0,6.38-49.14c-3-18.46-5.82-37.08-.08-55.43,10.32-33,15.21-67.4,19.92-101.94,4.4-32.33,4.16-63.42-9-93.64a106.53,106.53,0,0,1-8.3-38.21c-.77-26.65-3.56-52.5-11.21-77.61s-5.53-49.3,5.32-73a146.9,146.9,0,0,0,11.06-35.27c5.6-32,10-64.23,14.81-96.38H476a378.37,378.37,0,0,0-11.14,81.2c-.5,18.08-3,35.55-9.95,51.65-10.92,25.41-11.19,50.9-2.31,77.11a173.73,173.73,0,0,1,9.4,55.38,149.56,149.56,0,0,0,13.64,62.84c8.92,19.38,10.65,40,6.32,61-7.85,38.07-15.78,76.16-25.2,113.71-5.5,21.91-7.34,43-1.93,65C459.46,587,457,605.34,449.49,623c-6.73,15.87-13.51,31.77-19.34,48.13C419.15,702,410.44,733.67,412.34,768Z"/><path d="M1267.69,0h23.86c4.22,9.28,8,18.88,12.77,27.78a176.12,176.12,0,0,1,17,48.35c2.52,12.43,4.56,25.62,9.68,36.55,9.62,20.51,21.33,39.64,32.16,59.34v81.27c-1.53,8.33-3.47,16.59-4.5,25-3.28,26.74-5.43,53.7-9.51,80.26-3.43,22.38-5.07,44.51-3.4,67.22,1.22,16.58,1.5,33.32,1.28,50s-.67,33.1,5.18,48.52c7.49,19.76,6.92,39.18.46,59.08a250.07,250.07,0,0,0-12.73,75.19,146.25,146.25,0,0,1-12,56.54q-11.31,26.48-22.7,52.91h-13.63c4.45-9.37,9-18.64,13.32-28.13C1315.16,717,1325,694,1327.5,667.48c2.63-28,6.08-55.86,9.47-83.74,1.77-14.56,2.3-29-3.5-42.38-8-18.42-8.17-37.16-5.15-57.2,2.52-16.72,3.2-34,3-51.06-.19-22.76-2.42-45.5,1.47-68.14,2.72-15.9,6-31.76,7.49-47.84,2.65-29.61,4.32-59.3,10.18-88.4,3.92-19.49.21-37.68-8.63-54.38a155.46,155.46,0,0,0-12.43-20.13A121.61,121.61,0,0,1,1306.93,104c-5.83-29.77-15.31-57.45-30.52-82.34C1272.51,15.33,1270.55,7.28,1267.69,0Z"/><path d="M1009.84,768H990.53c4.23-19.55,2.75-39.25-.91-58.36-6.09-31.72-4.78-62,6.94-91.72,3.9-9.88,5.64-21,8.25-31.57,7.12-28.91,3.72-55.89-9.27-81.84-7-14.08-12.29-29.44-18.52-44.12-9-21.29-17.91-42.69-27.46-63.65-6-13.15-12.16-26.1-13.49-41.27-2.48-28.24-4.87-56.51-7-84.79-1.37-18.18-1.37-36.54-3.46-54.58-2.74-23.57-.32-45.74,8.1-67.23,6-15.31,8.32-31.65,9.4-48.48a491.84,491.84,0,0,1,5.35-50.27C951.33,33.19,956,16.69,959.86,0h15.9c-12.42,31.48-19.61,64.41-19.07,99.39a152.58,152.58,0,0,1-10.12,57.77c-5.5,14.31-8.88,29.37-7.86,45.28,1.42,22.27,2.46,44.63,5,66.72,2.44,21,7.53,41.49,9.82,62.47,2.41,22.1,9.22,41.38,19.2,60A334.61,334.61,0,0,1,994.5,441.2c8.68,25.44,15.57,51.74,23.26,77.67a111.13,111.13,0,0,1,2.71,54.63c-4.14,20.13-8.55,40.21-13.61,60s-6.11,39.34-2.19,59.41c1.38,7,2.65,14.11,3.5,21.24C1010.3,732,1012.44,749.92,1009.84,768Z"/><path d="M675.88,768H653.16c-.51-2.36-.64-5-1.58-7-10.23-22.85-20.11-46-31.06-68.32A184.53,184.53,0,0,1,601.09,607c.42-28.59-.49-57.23-1.53-85.81-.7-19.12,2.69-36.56,10.73-53.08,10.16-20.86,19.77-42.1,29.84-63,7.9-16.39,12.68-33.74,12.36-52.77-.4-22.74,3.28-44.27,11.76-64.79,5.75-13.89,7-28.82,5.1-44.24-2.23-17.66-3.8-35.43-.9-53.21,2.1-12.83,4.31-25.65,6.85-38.36,4.15-20.84,1.32-39.76-9.69-56.92-5.17-8-10-16.4-14.9-24.72C638.4,49.06,630,26.56,632.71,0H652c-.15,6.07-.79,12.18-.37,18.19,1.42,20.33,9.22,37.44,19.89,52.88,6.5,9.4,13.38,18.42,19.75,27.94,8.53,12.74,10.59,27.15,6.55,42.72-2.18,8.4-4.15,16.91-6.8,25.09a160.34,160.34,0,0,0-6.54,73.09c2.56,18,.84,35.65-6.39,52-8.76,19.83-12.59,40.9-12.44,63.22.11,17.09-4.13,32.8-11.14,47.67C643.59,426,633,449.44,622.17,472.7c-7.49,16.06-10.25,33.06-9.2,51.45,1.36,23.6,2.84,47.31,2.29,70.91-.82,34.38,6.53,65,24,92.38A304.14,304.14,0,0,1,675.88,768Z"/><path d="M443,768H423.7c-.09-4-.68-8.15-.2-12.08,5.16-42.1,12-83.81,29.51-121.47,11.41-24.46,15-49.1,7.74-76-4-14.73-3.42-29.75.31-44.67,8.92-35.66,17.06-71.61,26.6-107,8.14-30.24,9.19-59-5.13-87.27-7-13.91-10.42-29.7-10.56-45.91-.23-25.89-5.14-50.43-12.5-74.58-5.44-17.87-5.29-36.21,1.19-53.56,9.07-24.26,12-49.41,12-75.77,0-23.67,2.86-47.22,10.1-69.63h11.36c-7.45,27.71-9.27,56.13-6.63,84.88a141.21,141.21,0,0,1-6.14,56.47c-7.27,22.76-6.68,45-.17,68.08,4,14.14,5.58,29.33,7.5,44.19,1.47,11.33.29,23.39,2.94,34.21,3.89,15.88,9.82,31.1,15.48,46.29,6,16.12,8,32.33,3.23,49.3-2.1,7.48-4.26,14.94-6.4,22.41-8.75,30.47-17.93,60.77-26.1,91.46-5.82,21.82-6.93,44-1.13,66.58,5.27,20.51,4.64,41.2-4,60.52-11.35,25.47-17.57,52.45-20.29,81.09C450.44,726.48,446.23,747.17,443,768Z"/><path d="M281.71,768h-12.5c1.06-12.1,3.14-24.21,3-36.28-.41-30.92,6-59.68,16.17-87.81,12.74-35.16,16.83-71.66,7.78-109.06-11.08-45.78-18.06-92.63-26.42-139.13-4.13-23-2.93-44.52,4.63-66.15A444,444,0,0,0,295,244c2.62-18.85,6.21-37.55,10.17-56.06,3.18-14.84,7.95-29.17,11.34-44,4.75-20.67,7.25-41.65,1.28-62.65-2.79-9.82-6-19.46-9.35-29C302.66,35.44,300,18.16,302.16,0h19.31c.68,18.07,5.15,35,10.87,51.55a123.36,123.36,0,0,1,2.55,74.69c-1.58,5.79-3.05,11.62-4.63,17.41-5.75,21.2-12.36,42.15-17,63.7-3,14.05-2.21,29.26-5,43.45-5,25.85-11,51.45-17.34,76.91-4.08,16.53-8.83,32.93-6.36,50.32,3.78,26.66,7.26,53.49,12.91,79.61,4.89,22.6,12.41,44.42,19.18,66.4,9.34,30.36,9.95,60.44-1.5,90.14-5.76,14.93-11.91,29.67-18.32,44.22a152.78,152.78,0,0,0-12.84,61C283.86,735.62,282.52,751.8,281.71,768Z"/><path d="M229.46,0h14.76c-11.72,30.17-12,61-4.07,92.46,3.21,12.74,5.72,25.74,9,38.43a117.16,117.16,0,0,1-.75,63.18c-2.45,8.53-5.56,16.84-7.55,25.51-6.73,29.35-12.18,59.16-19.83,88.14-10.43,39.53-11.6,78.94-2.69,118.74,5.75,25.68,6.47,51.55,5,77.88-2.23,40.54.21,80.75,8.79,120.2,4.06,18.65,5.1,37.26,2.17,56.29-2.6,16.85-4.27,33.92-7.08,50.72-2.06,12.29-5.32,24.31-8.05,36.45h-15.9c7.13-18.6,10.17-38.5,13.32-58.42,3.69-23.33,8.1-46.66,2.11-70.26-5.62-22.14-8.56-44.71-10.5-67.7-2.41-28.57-4.11-56.89-1.94-85.71a216.77,216.77,0,0,0-2.52-50.37,359.64,359.64,0,0,1-2.45-100.35c5.23-43.94,11-87.91,24.56-129.72a124.86,124.86,0,0,0,2.82-67.77c-1.8-7.81-3.27-15.77-4.44-23.76-3.43-23.32-8.26-46.73-4.94-70.46C221.41,28.72,226,14.48,229.46,0Z"/><path d="M641.8,768h-25c-.39-2.4-.45-5-1.22-7.18-3.77-10.81-7.35-21.75-11.7-32.23-16.39-39.45-26.49-80-22.91-125.08,2.07-25.89,1.17-52.3-.16-78.35-1.15-22.45,1.74-42.83,11.69-62.11,9.7-18.8,18.48-38.29,27.83-57.36,9.57-19.55,13.38-40.5,11.73-63-1.44-19.58.29-38.69,6.1-57.25,4.45-14.19,5.41-28.85,4.12-44-1.07-12.55-1.55-25.22-1.55-37.83,0-21,.76-41.95.89-62.92A124.23,124.23,0,0,0,629,85.24c-5.85-12.12-11.62-24.3-17-36.7C605.28,33.22,603,17,606.58,0h17c-3,19.91,1.45,38.07,9.64,55.13,4.88,10.16,9.78,20.44,15.68,29.77,14.79,23.38,18.8,49,13.83,77.39a268.42,268.42,0,0,0-2,82.74,84,84,0,0,1-5,42.31c-7.71,19.63-10.8,40.25-10.13,61.81a116.18,116.18,0,0,1-11.79,55c-10,20.7-19.45,41.81-29.75,62.3-9.46,18.82-12.23,38.72-10.81,60.37,1.27,19.5,1.27,39.16,1.16,58.75-.15,26.36-2.88,53.19,5.61,78.3,6.76,20,15.69,38.95,23.55,58.43C629.77,737.47,635.75,752.75,641.8,768Z"/><path d="M950.77,768H932.6c2.33-9.25,6.33-18.42,6.61-27.76a232.93,232.93,0,0,0-2.94-42.86c-3.67-23.42-1.73-45.28,8.35-66,3.13-6.43,5.89-13.12,8.78-19.72a92.58,92.58,0,0,0,6.46-53.19c-2.63-16.13-10.38-29-19.18-40.86-25.1-33.8-41.76-73.39-56.26-114.52A108.88,108.88,0,0,1,881,340.19c2-8.23,3.82-16.54,5.26-24.92,5.68-33.16,1.72-66.2-2.24-99-3.06-25.32-2.22-49.3,7.36-72.57,11.54-28,15.53-58.29,17.64-89,1.27-18.4.88-37.07,6.56-54.71h14.76c-2.62,16.8-5.81,33.5-7.74,50.42-4.07,35.54-7.32,71.16-20.78,104.11-6.47,15.82-7.07,32.95-5.28,50.34,1.69,16.55,3,33.17,4.07,49.8,1.63,25.66,3.39,51.48-1.32,76.87-5.39,29-1.31,55.74,10.29,81.67,15.67,35.05,30.94,70.32,51.86,101.55,2.59,3.86,4.81,8.1,7.09,12.25,8,14.6,10.4,30.54,9.06,47.83C976.14,593.3,970.76,610,963,625.63c-11.73,23.55-14.8,48.09-9.36,74.8C958.24,723.07,959.62,746,950.77,768Z"/><path d="M382.81,768h-17c-.53-6.72-1.17-13.42-1.57-20.15-1.63-27.13,3.65-51.51,17.92-73.53,10-15.47,18.05-32.77,27-49.22,10.5-19.32,13.13-40.45,10.66-62.94a146.58,146.58,0,0,1,4.65-56.75c3-10.64,6.32-21.59,7.06-32.64,1.43-21.3.76-42.78,1.63-64.15a189.89,189.89,0,0,0-14.76-81.75,99.24,99.24,0,0,1-7.76-46.57,224.16,224.16,0,0,0-4.37-65.77c-3.38-15.78-6.55-32.06-2.8-48.12a222.88,222.88,0,0,1,12.5-36.79c7.27-17,13.33-34.23,16.05-53.21,3.66-25.55,8.08-50.95,12.17-76.41h12.49c-.26,2-.46,4-.79,6-2.79,16.58-6.3,33-8.24,49.75-3.5,30.17-8.91,59.33-22.06,86-7,14.23-8.88,30.15-6,46.51,1.44,8.16,2.82,16.39,5,24.31a213.54,213.54,0,0,1,7.59,62.62,115.25,115.25,0,0,0,7.48,44.75c.39,1,.69,2.1,1.13,3.1,11,25.47,14.19,52.37,11.73,80.79-3,35-4.82,70.21-15.76,103.48a108.91,108.91,0,0,0-4.06,53.85c4.59,25.5.56,48.63-11.07,70.5-9.83,18.47-18.89,37.52-28.51,56.14C380.1,712.85,378.36,739.83,382.81,768Z"/><path d="M937.14,0h14.77a10.86,10.86,0,0,1-.1,2.63c-7.67,25-11.62,51-13.61,77.28-2.15,28.54-6.94,55.92-16.31,82.54-3.86,11-4.92,24.27-4.45,36.35,1.23,31.75,4.14,63.39,6.11,95.11.88,14.15,1.07,28.37,1.64,42.56.37,9,.41,18.07,1.38,27,1.57,14.62,7.73,27.16,13.55,39.88,18,39.38,35.79,78.92,53.64,118.42a82,82,0,0,1,6.07,49.85c-3.3,17.29-6.66,34.94-12.68,51-9.75,26-12.41,51.91-7.42,79.76,3.86,21.61,6.39,43.68.57,65.62H961c4.11-14.71,6.23-29.72,4.39-45.22-1.2-10-2.42-20.09-4.08-30-3.44-20.64-1.74-40.35,6.53-59.13,2.9-6.59,5.72-13.24,8.2-20.06,12.59-34.63,15.74-68.44-5.14-100.9-22.1-34.35-37.6-73.43-54.72-111.32A109,109,0,0,1,907,343.1c4.76-40.62,2.36-81.21-1.81-121.4-3-28.93-1.89-55.84,8.94-82.28,4-9.77,6.27-20.83,7.94-31.61,2.9-18.83,4.48-37.95,7.08-56.85C931.46,33.91,934.44,17,937.14,0Z"/><path d="M603.18,768H577.05c-3.11-19-5.35-38.22-9.52-56.86-6.45-28.86-9.84-57.61-6.57-87.57a512.1,512.1,0,0,0,1.4-101.94c-2.18-24.16,3-45.78,14.09-66.07,8.36-15.26,15.4-31.54,23.25-47.22,11.85-23.68,14.49-48.83,9.73-75.62-3.34-18.85-4.19-37.82-1.4-57.12,2.34-16.15,4.23-32.62,4.32-49,.15-27.71-1.43-55.44-2-83.17-.56-26.7-6.24-51.58-17.27-74.86a226.38,226.38,0,0,1-9.61-24.47c-4.92-14.51-5.8-29.3-.73-44.13H597.5c-4.9,25,2.8,46.5,13.12,67.28,1.06,2.14,1.94,4.41,3,6.5,12,22.6,16.81,47.43,17,74,.24,32.71,1.37,65.41,1.66,98.13.08,9.62,0,19.75-2.36,28.81-6.13,23.81-7.21,47.8-5,72.29a106.88,106.88,0,0,1-10.4,56.56c-9,18.83-17.69,37.83-27.26,56.21-9.93,19.09-15,39.17-12.78,61.73,3.17,32.23.85,64.44-.39,96.67-.53,13.48-.9,27.18.52,40.5,2.85,26.6,11.62,51.2,20,75.91C598.32,745.34,600.39,756.84,603.18,768Z"/><path d="M194.24,768h-15.9c8.34-22.12,13.84-45.24,17.65-69a145.75,145.75,0,0,0-1.82-54.9c-3.5-16.07-5.63-32.6-7.74-49-2.25-17.58-3.2-35.41-5.76-52.92-2.65-18.15-4.58-36.18-2-54.47,2.94-20.63,2.92-41.29,1.57-62.09-.67-10.32-.54-20.74-.34-31.11.34-17.82,1.45-35.63,1.49-53.45.09-44.86,2.53-89.22,14.74-132.21,5.74-20.21,5.79-41.12,3.13-62.27-2.22-17.59-3.64-35.38-4.59-53.15-1.73-32.1.49-63.62,12-93.36h14.77c-.58,2.12-1,4.31-1.74,6.35a160,160,0,0,0-9.19,67.44c1.71,20.61,3.46,41.38,7.17,61.56,4.9,26.66,4.28,52.28-3.9,77.75-2.36,7.35-4.33,14.93-6,22.55a670.72,670.72,0,0,0-14.52,116.88c-1.05,26.52-2.13,53.24,2.13,79.63,3.25,20.12,2.85,40.23,1.58,60.62-1.08,17.41-.14,35.07.67,52.57.63,13.71,2,27.42,3.82,41,2.22,16.65,4.62,33.33,8.09,49.65s5.67,32.73,3.23,49.49C208.77,713.65,205.41,742.09,194.24,768Z"/><path d="M471.41,768H453.23c.25-2.68.36-5.39.75-8,3-20.63,7.12-41.13,8.93-61.91,2-22.5,5.33-44.26,14.35-64.25,11-24.43,12.08-49.5,6.4-76.08-2.47-11.57-3.79-24.41-2.3-36.06A430.82,430.82,0,0,1,493.69,460c6.79-24.11,15.73-47.36,23.92-70.89,6.95-20,5.67-39.38-2.9-58a181.94,181.94,0,0,1-17.07-76.21,180.59,180.59,0,0,0-6.12-44.43c-6.22-23.34-6.76-45.88,0-68.94,5.5-18.65,6.09-37.79,4-57.43-3-28.35-3.76-56.74,5.36-84.11h12.5c-1.54,5.79-3.44,11.49-4.55,17.39-3.72,19.85-1.63,39.71,1.81,59.12,4.63,26.16,4.62,51.85-.91,77.73-2.83,13.27-3.6,27-.71,40.27,5.63,25.81,7.29,51.92,6.58,78.48-.39,14.48,3.59,27.94,9,40.86,3.51,8.49,6.87,17.09,9.92,25.83,5.49,15.73,5.78,31.73,0,47.38-7.21,19.38-14.52,38.72-22.38,57.73-15.33,37.1-20.71,75.78-13.37,116.39,4.68,25.93,2.63,50.57-7,74.49-7.93,19.64-10.5,40.61-11.45,62.31-.78,17.67-3.9,35.2-6.09,52.77C473.44,756.54,472.34,762.25,471.41,768Z"/><path d="M128.36,0h17a19.89,19.89,0,0,0-.93,3.15q-4.08,31.77-8.08,63.55c-2.64,21.06-4.2,42.1,0,63.22,1.55,7.89,2.6,16,3.36,24,2.43,25.51-.87,50.51-6.18,75-4.74,21.85-4.69,43.17.77,64.7,7.06,27.85,8.52,56.22,5.4,85-3.07,28.27-5.39,57.11-18.66,81.58-14.84,27.34-16.27,54.15-4.15,83.07,7.13,17,8.52,35.48,4.82,54.16-4.46,22.47-2,43.83,6.32,64.53a127.69,127.69,0,0,1,6,19c6.76,29.22,3.16,58.15-2.25,87H120.41c6.09-39.37,1.93-76.68-14.93-111.8-8.59-17.91-9.78-37.18-5-57a94,94,0,0,0-4.18-58c-1.45-3.67-2.67-7.47-3.9-11.26-6.16-19-5.71-37.39,3.51-55.11,7-13.4,15.36-26.23,20.06-40.73,14.74-45.47,19.92-92.19,5.28-139.33a133.65,133.65,0,0,1-2.6-72.27c7.8-33,9.08-65.94.43-99.37-2.69-10.4-2.68-22.47-1.59-33.45C120.45,59.7,124.65,29.88,128.36,0Z"/><path d="M149.94,768H138.58c.28-2.21.43-4.45.85-6.61,7.06-36.35,10.68-72.39-3.3-108-5.91-15-6.3-31.24-4.7-47.77,1.27-13.12,2.36-26.63,1-39.62-1.14-11.39-5.15-22.57-8.88-33.36-7.08-20.47-7.09-40.26,1.71-60,9.35-20.94,14.42-43.43,17.44-66.82,4.68-36.17,7.08-72.3-.95-108.13-5.49-24.51-4.7-48.37.72-72.73,5.67-25.45,8.38-51.68,4.54-77.78-4.2-28.52-5.7-56.81-1.63-85.4,2.94-20.63,6-41.23,9.06-61.85h17c-.54,3.05-1,6.12-1.66,9.13-8.31,38.53-12.89,77.76-8.31,117.24,4.55,39.19,2.87,77.29-6.11,115.16-3.73,15.69-4,31.65-1.77,47.61,4.86,34.71,6,69.49,2.13,104.44-2.85,25.66-3.17,51.94-11.48,76.32-8.18,24-7.79,47.31.93,70.86,6.9,18.6,8.59,38.27,6.64,58.31-1.9,19.43.24,38.08,5.32,56.62A144.23,144.23,0,0,1,162.48,686C163.93,714.42,156.91,741.26,149.94,768Z"/><path d="M104.51,0h14.76a45.39,45.39,0,0,1,.17,6.68c-2.69,22.76-4.69,45.68-8.48,68.17-3.52,20.89-3.81,41,2.09,61.28s6.06,41.15,1.91,62.05c-1.74,8.77-3.07,17.69-5.13,26.35-5.43,22.79-4.68,45.06,3.42,66.78,16,42.94,10.89,86,.38,129-4.37,17.83-14.41,32.1-23.12,47.08-12.89,22.16-16.23,45.55-6,70.18,8.88,21.31,10.46,42.89,4.77,65.62a76.37,76.37,0,0,0,4.42,50.5c4.39,10,8.77,20,12.56,30.32a160.59,160.59,0,0,1,7.29,84H102.23c.68-20.38.72-40.84-6-60a388,388,0,0,0-17.87-43C67.74,643.79,64.67,622,71,598.28a83.27,83.27,0,0,0-3.86-54.6c-.83-2-1.41-4.18-2.18-6.24-5.68-15.28-4.95-30.69-.91-46.26,4.68-18.07,15-32.18,23.21-47.8,24.73-46.9,32.45-96.62,12.32-148.44-10.46-26.91-11.82-53-4-80.66a284.48,284.48,0,0,0,6.56-30.77c3-18-1.19-34.91-6.28-51.58A90,90,0,0,1,94.12,86C100.12,57.8,106.27,29.57,104.51,0Z"/><path d="M357.82,768H343.05c0-11.5.33-23,.07-34.5-.54-24.47,5.55-45.94,18.39-65.22,8.56-12.86,15.87-26.91,23.73-40.43,12.11-20.82,17.27-43.79,15.68-69.11-1.36-21.79,1-43.2,5.4-64.38a115.45,115.45,0,0,0,.75-43.61c-1.42-8.17-3-16.34-3.85-24.6-3-29.15-6.29-58.1-17.17-85.07-8-19.94-9.37-41.05-6-62.81,2.91-18.74,3.77-37.68.63-56.54-4.9-29.43-.88-57.37,11.51-83,15.26-31.54,23.29-65.34,26.24-101.26,1-12.53,2.74-25,4.13-37.48H436.2c-1.53,12-3,24-4.58,36C427,70.77,422.12,105.32,406,136.08c-12.67,24.18-14.65,50.73-9.22,78.29,3.92,19.9,5.58,40,3.18,60.42a118,118,0,0,0,8.62,60.36c7.55,18.09,12.72,37.11,13.64,57.53.77,17.11,1.85,34.2,2.63,51.31.74,16.06.75,32.21-3.7,47.56a212.26,212.26,0,0,0-7.65,78.58,88.86,88.86,0,0,1-10.08,50.42q-14.9,27.93-30.67,55.21c-6.38,11-13.3,22.19-14.2,35.65C357.3,730.18,358,749.13,357.82,768Z"/><path d="M59.07,0H73.84c.84,8.7,3.19,17.65,2.22,26.05-2,17.55-4.59,35.29-9.19,52.08-6.21,22.67-7.38,44.33.6,66.57,6.74,18.8,6,37.75-.6,56.61-3.33,9.57-6.17,19.4-8.92,29.24a75.23,75.23,0,0,0,3,50.6c3.72,8.87,7.8,17.53,11.69,26.31a93.5,93.5,0,0,1,7.77,45.72C78.2,382,70.93,408.69,58.23,433.41c-10.72,20.87-18.64,43.27-24.66,66.69-3.5,13.63-4,27.32.2,40.54,7.29,22.73,7.34,45.1.9,68.13-6.09,21.78-3.05,42.81,6.33,62.59,4.56,9.62,9.41,19,14.1,28.58C65.45,721,71.75,743.36,71.56,768H52.25c-.92-8.47-1.35-17.07-2.86-25.38-3.93-21.5-13-40.4-22.74-58.67-12.82-24-15.55-49.09-7.16-75.6a113.07,113.07,0,0,0,1.62-64.89,85.37,85.37,0,0,1,1.14-47.21c5.44-18,10.8-36.09,16.53-54,6.74-21,14.78-41.56,20.55-63,7.45-27.62,6-54.76-8.21-79.7a165,165,0,0,1-7.44-16,72.65,72.65,0,0,1-2.56-53c2.12-6.51,4-13.2,6.58-19.43,10-23.92,11.72-48.21,3.08-73.19-.36-1-.6-2.14-.87-3.21-3.06-11.88-3.92-24-1.27-36,2.1-9.59,4.83-19,7.13-28.5C61.36,47.18,66.33,24,59.07,0Z"/><path d="M170.39,768H156.76c2.4-9,5-18,7.18-27.07,7.3-29.79,12-59.7,2.71-90.27a136.52,136.52,0,0,1-5.4-48.61,187.51,187.51,0,0,0-8.59-69c-4.68-14.82-6.62-30.32-2.72-45.8,6.83-27.21,8.94-55.16,11.2-83.26,2.84-35.39,4-70.67.25-106a194.77,194.77,0,0,1,4.16-66.26c6.24-26.46,9.88-53.42,6.69-80.92a452,452,0,0,1-1.83-89.71C172.14,40.2,174.88,19.57,181.75,0h17c-.78,2-1.65,4.05-2.32,6.14C183.16,47.22,184,89.82,188.29,132.36c3.05,29.93,4.2,59.27-3.84,88.36-2.07,7.48-3.13,15.34-4.89,22.95-5.11,22.08-4.3,44.63-4.43,67.21-.25,40.15-1.12,80.29-2.24,120.42-.49,17.3-1.59,34.65-3.59,51.79A183,183,0,0,0,171,536.78c3.22,18.24,5.93,36.82,6.77,55.38.9,19.78,3.05,39,8,57.84,4.15,15.79,4.37,31.84,2.07,48.19A349.34,349.34,0,0,1,170.39,768Z"/><path d="M519.12,0h13.63c-4.28,12.08-6.53,24.68-4.66,37.66,1.91,13.31,4.54,26.49,7.25,39.6,5.13,24.84,9.1,49.63,7.37,75.57-1.15,17.21-.06,34.63-.12,51.95-.05,17.09.75,34.31-.73,51.23-1.69,19.36-.94,37.74,6.2,55.47,2.78,6.9,5.18,14,7.77,21,8,21.76,8,43.28-1.29,64.56-6.58,15-12.85,30.17-19.7,45-8.38,18.08-16.72,36.31-17.42,57.37a347.89,347.89,0,0,0,1.36,49.3c3.55,32.33,3,63.71-7.5,94.45-5.7,16.7-7.16,34.62-5.83,52.59,1.83,24.68-1.54,48.56-6.78,72.24H480.5c.45-2.88.73-5.82,1.4-8.63,5-21.2,7.79-42.7,7.25-64.81a158.74,158.74,0,0,1,10.37-59.83c8.85-23.67,10.47-48,6.47-73.43-6.81-43.33-2.64-84.76,16.32-123.59,7.12-14.57,12.54-30.32,18.69-45.56,7.73-19.15,7.36-38.36.09-57.54-2.73-7.19-5.47-14.38-8.43-21.44a109.19,109.19,0,0,1-8.34-49.79c1.29-20.12.8-40.12-2.94-59.92a146.38,146.38,0,0,1-.33-50.41c3.27-20.8,4.05-41.62.18-62.51-2-10.79-3.45-21.72-5.3-32.55A132,132,0,0,1,519.12,0Z"/><path d="M299.88,768H288.53c.47-15.09,1.42-30.18,1.3-45.26a147.78,147.78,0,0,1,16-68.74c8.2-16.4,15.38-33.61,22.05-51a97.12,97.12,0,0,0,4.94-54.26,344.69,344.69,0,0,0-13.42-49.34c-14.49-39.78-21.46-81.63-26-124.23-2.08-19.76,3.57-38.28,8.13-56.92,6.73-27.44,14.68-54.59,15.23-83.67a204.62,204.62,0,0,1,9.55-57.45c4.49-14.36,8.55-28.93,13.41-43.11,10.63-31,11.57-61.87,1.37-93.55C337,27.62,335.52,13.53,332.83,0h21.58c2.07,10.76,3.79,21.63,6.28,32.25,7.44,31.86,6.23,62.84-5.47,93.07-3,7.78-5.39,15.88-8.16,23.79-8.82,25.24-17.4,50.56-16.86,78.66.43,22.33-3.62,43.76-8,65.33-4.47,22-9.43,44.48-10.24,66.94-1.22,34,5.88,67,15.82,99,7.34,23.63,15.23,47.13,20.95,71.33,6.64,28.06,4.63,56-7.77,81.88-7.59,15.83-15.39,31.57-23.91,46.7-10.59,18.81-15.78,39.08-15.65,61.73C301.49,736.46,300.43,752.23,299.88,768Z"/><path d="M336.23,768H323.74c.4-12.59,1.48-25.22,1.07-37.78-.87-26.76,6.08-49.74,19.93-70.75,9.42-14.3,17.39-30,25.5-45.48,8.23-15.69,11.58-33.16,11.45-51.62-.15-19.63.3-39.28-.49-58.86-.56-13.86-.86-28.41-4.6-41.28-9.32-32.08-15.46-65-22-97.9-5.45-27.5-6.32-54.83-.64-82.36a216.6,216.6,0,0,0,3.75-58.44A173,173,0,0,1,357.3,204c1.15-23.67,8.46-45.21,17.2-66,10.69-25.53,20.93-51.18,21.57-80.43.41-19.15.26-38.31.37-57.47h17c-.43,9.22-.76,18.46-1.29,27.67-2.2,38.16-8.53,74.72-25.05,108.47-13.27,27.09-19.18,56.69-14.51,88.49,2.61,17.78,1.35,35.63-1.76,53.14-4.51,25.32-2,49.5,5.31,73.73,5,16.45,8.3,33.67,11.75,50.72,3.33,16.42,5.73,33.1,8.81,49.6,2.49,13.33,4,26.71,1.83,40.24a388.14,388.14,0,0,0-4.13,72.77c.63,20-3.62,38.52-12.78,55.2-8.9,16.21-17.91,32.38-27.64,47.88-10.68,17-17.07,35.39-17.07,56.84C337,739.16,336.49,753.58,336.23,768Z"/><path d="M81.79,0H96.55c2.62,23.32-.3,46.12-6.29,68.11-7.17,26.32-8.57,51.74,1,77.74,5.83,15.81,5.15,32.61,1,49.11-2,8-3.94,16-6.22,23.92-7.15,24.74-6.5,48.72,4.3,71.94,2,4.33,3.54,9,5.3,13.47a113.65,113.65,0,0,1,7.73,50c-2.34,34.33-9.19,66.44-27.53,94.41-7.46,11.38-13,24.87-18,38.19C51.18,505,50,524,57.56,542.57,65.5,562,66.35,582,61,602.47c-5.51,21.07-3.11,40.87,6,60,6.82,14.31,13.58,28.72,19.37,43.63,7.6,19.57,10.75,40.3,7.92,61.94H79.51A90.81,90.81,0,0,0,75,726.86,486,486,0,0,0,53.38,676.4c-12.13-24.23-16.49-49-8.78-76.36,5.08-18,4-35.95-2-53.6-5.89-17.17-6-34.35-.88-52.15A295.33,295.33,0,0,1,66.77,433.8c9.62-17.61,15.65-36.71,19.24-57.39,5.16-29.66,3.16-57.38-10.93-83.21a117.15,117.15,0,0,1-4.91-11.44,79.14,79.14,0,0,1-3.47-51.32q4-15.51,8.82-30.72c5.9-18.57,6.35-37.13-.2-55.43-7.92-22.14-7.54-43.88-1.06-66.56C81.43,52.66,86.54,26.9,81.79,0Z"/><path d="M563.42,768H539.56c3.34-21,3.87-42,.18-63.15-3.76-21.6-4.62-43.56-.12-65.14,7.58-36.27,7.64-73,4.37-109.64-2.88-32.27,3.39-60.37,18.56-86.93,8.26-14.45,14.62-30.51,21.35-46.14,7.46-17.34,9-35.71,4.68-54.58-2.29-10-4.48-20.07-7.42-29.8-5.51-18.27-5.2-36.36-1.85-55.22a287.78,287.78,0,0,0,4.32-46.87c.26-23.66-1-47.34-1.77-71-.12-4.28-.38-8.57-.9-12.8-2.82-23.19-9.49-45-17.32-66.31C556.43,40.74,553.5,20.8,560,0h14.77a69.3,69.3,0,0,0-.27,43c2.79,8.85,5.92,17.59,9.49,26,9.33,22,15.53,45,16.3,69.81.36,11.95,1.05,23.88,1.46,35.82.91,26.13,4,52.63-1.29,78.23-5.91,28.85-4.25,56.68,1.85,84.82a101,101,0,0,1-7.78,66.61c-8.43,17.62-16.59,35.45-25.6,52.64-10.43,19.91-14.72,40.94-12.84,64.45,2.75,34.43,3,69-1.71,103.26-3.72,27.13-3.35,54,2.67,80.51C561.75,725.78,564.33,746.61,563.42,768Z"/><path d="M318.06,768H306.7c.28-13.06,1.35-26.17.69-39.16-1.47-29.21,6.24-54.21,21-77.28,8.19-12.84,14.64-27.32,21.41-41.38,8.84-18.36,11.41-38.42,10.35-59.4-1.53-30.13-8.69-58.51-18.57-86-20.13-56.09-26.62-113.44-12-172.89,5.65-22.91,7.46-46.25,7.79-70.12.2-14.62,2.87-29.56,6.4-43.65,4-15.91,9.64-31.33,15.54-46.41,10.87-27.76,17.49-56.22,13.12-87.11C370.34,29.7,368,14.86,365.77,0h20.44c.58,6.5,1.32,13,1.72,19.49,1.8,29.85,2.4,59.62-7.71,87.93-4.67,13.06-9.92,25.82-14.84,38.75-10.45,27.42-17.49,55.43-14.94,86.34,1.06,12.77-1.05,26-2.54,38.93-2,16.95-6.1,33.67-6.9,50.64-1.86,39.47,5.61,77.49,15.74,114.78,3.95,14.57,10.11,28.6,12.23,43.48,3.28,23,4.06,46.57,5.69,69.91,1.84,26.38-3.71,50.58-16,72.53-8.19,14.61-16.51,29.13-25.07,43.43a101.6,101.6,0,0,0-14.54,52.41C318.91,735.08,318.4,751.54,318.06,768Z"/><path d="M528.21,768H508.89c.57-3.77.92-7.6,1.72-11.29a175.41,175.41,0,0,0,3.51-54.35c-2-20.67-.73-41,4.63-60.88,6.07-22.47,10.48-45.14,8.44-69.11-1.39-16.37-1.42-32.92-2.89-49.28-2.37-26.45,2.86-50.42,14.05-73.17,8-16.32,15.19-33.26,22.77-49.91,10.3-22.63,10.49-45.66,2-69.06-1.42-3.94-2.69-8-4.25-11.81-7.87-19.38-11.75-39.41-7.8-61,3.25-17.77,3.28-35.73,2.33-53.88-.85-16.38-.26-32.88-.42-49.32-.1-10.81.87-21.92-.88-32.36-3.73-22.29-8.6-44.34-13.6-66.3-4.33-19-5.75-37.69,1-56.29H553.2a73.55,73.55,0,0,0-2.69,41.71c2.1,9.11,4.69,18.09,7.47,26.94,9.78,31.11,16.55,62.76,14.54,96.44-.55,9.18,0,18.5.57,27.72,1.27,22.18,1.13,44.21-3.6,65.89-3.63,16.64-3.35,33,1.92,49.15,2.6,8,4.66,16.21,7.16,24.24,7.56,24.23,6.62,47.75-4,70.47-8.31,17.7-16.51,35.48-25.1,53-8.2,16.73-13.41,34.31-12.62,53.93.64,16.23,1.15,32.47,2.12,48.67,1.47,24.7.88,49.11-4.71,73.17a198.18,198.18,0,0,0-3,75.71C534.37,727.62,532.5,747.91,528.21,768Z"/><path d="M40.89,768H17c-.77-4.64-1.58-9.27-2.31-13.92C11.59,734.15,8.66,714.14,0,696.21V600c6.2-15,6.75-30.74,4-46.81-3.13-18.32-4.48-36.6-.22-55,9.17-39.52,18-79.16,27.61-118.52,6-24.52,4.48-47.62-5.71-70-2.53-5.55-4.94-11.17-7.56-16.66-9.75-20.36-10.52-41-1.64-62.05,2-4.84,3.71-9.89,5.76-14.71C33,191.23,36.83,165.56,28.9,138a79.88,79.88,0,0,1-.64-40.09c2.31-10,5-19.85,7.31-29.85,5.22-22.69,8.89-45.41-.36-68H51.12a84.6,84.6,0,0,1,2.74,44.52C51.05,58.76,48,73,44.14,86.87c-5.3,19-5.52,37.69.12,56.38,5.92,19.62,5.8,38.86-1.35,58-2,5.36-3.4,11.08-5.74,16.2-13,28.46-11.34,55.77,4,82.2.21.37.37.78.58,1.16,14.48,25.64,15.6,53.22,7.53,81.63q-14.73,51.9-30.55,103.37C12,507.53,10.67,529.14,16,551.46a91.16,91.16,0,0,1-1.92,49.19c-1.59,5.07-2.88,10.27-4.34,15.4C3.22,638.9,4.39,660.81,15,681.79c4.29,8.5,8.37,17.19,12,26.1C34.75,726.86,40.58,746.54,40.89,768Z"/><path class="cls-1" d="M1154.1,768c-1.14-9.58-3.2-19.15-3.23-28.74-.07-20.46.79-40.93,1.52-61.38,1.18-33.27,7.21-65.68,12.69-98.18,6.05-35.81,6-72.23,7.36-108.48,1.16-30.86,1.39-61.78,2.15-92.66.33-13.5,2.21-27.15,1-40.43a71.8,71.8,0,0,0-8.86-27.95c-10-17.51-21.19-34-32.31-50.56-16.4-24.37-24.35-52-24.63-83.16-.22-24.57-1.17-49.14-2.15-73.68a178.42,178.42,0,0,0-2.8-23.42,133.31,133.31,0,0,1,3.37-60.68c1.77-6.18,3.32-12.45,5-18.68h5.68c-1.36,5.85-2.53,11.77-4.12,17.53a122.76,122.76,0,0,0-1.24,62c5.12,21.67,6.36,43.93,7.57,66.25.94,17.33,2.39,34.63,3.87,51.91,1.64,19.17,8.33,36,17.87,51.25,7.91,12.66,15.75,25.45,24.42,37.36,17,23.45,23.48,49.18,19.34,80.66-3.4,25.86-1.89,52.62-2.9,79-2,52.09-6,103.92-12.86,155.49-4.15,31.39-6.13,63.17-10.09,94.6-3.06,24.25-1.82,48.08,1.3,72Z"/><path class="cls-1" d="M1131.38,768c-1.9-14.23-4.47-28.39-5.58-42.71-3.67-47.16-.61-93.7,10.77-139.26,5.23-21,6.46-42.36,6.22-64.21-.28-24.74.67-49.54,1.75-74.27,1.16-26.63,1.83-53.15-1.46-79.65A136.48,136.48,0,0,0,1126.52,318c-14.24-25.8-28-52-42.23-77.8-10.39-18.87-15.23-39-12.16-61.63,2.14-15.79,3.91-31.67,5.42-47.56,1.33-14.08,3.36-28.31,2.8-42.34a204.25,204.25,0,0,1,11-76c1.44-4.15,2.48-8.5,3.71-12.75h6.82c-10,28.21-15.4,56.91-13.13,88.23,1.5,20.61-2.2,41.71-3.07,62.63q-1,24-.68,48c.19,13.14,4.09,25.38,10,36.26,12.45,22.9,24.3,46.46,38.52,67.74,16.4,24.55,21.91,51.86,21.19,82.07-.85,35-1.84,69.92-2.49,104.88-.34,18.49,1.31,37.18-.43,55.44-2.08,21.86-6.53,43.43-10.46,65-9.39,51.54-12,103.14-2.18,155a21.69,21.69,0,0,1,.2,2.69Z"/><path class="cls-1" d="M1135.93,0c-.9,6.42-1.65,12.88-2.73,19.25a101.46,101.46,0,0,0,4.37,51.68c7.83,22.24,16,44.37,19.31,68.43,1.62,12,2.93,24.11,4.39,36.16a182,182,0,0,0,21.07,65.09c9.9,18.37,19.05,37.35,28.12,56.34,8.53,17.84,9.84,37.09,6.77,57.08-3.26,21.16-4.77,42.48-3.06,64,1.93,24.42-2.12,48-6.49,71.65A666.82,666.82,0,0,0,1196.94,620c.42,32.27-1.09,64.4-9.66,95.6-4.65,16.94-4.09,34.74-2.51,52.37h-8c-1.63-21.19-2.14-42.28,2.43-63.18a190.32,190.32,0,0,0,4.36-27.19c2.08-29.89,2.82-59.94,5.53-89.75,3.66-40.1,8.9-80,13-120.06a324.47,324.47,0,0,0,1.83-41.11c-.61-24-.64-47.87,3.47-71.44,4.66-26.71-2.17-49.86-14.68-71.42-7.1-12.24-13.94-24.73-21.53-36.54-15.18-23.62-22-50.72-23.82-79.8-2-30.58-6.75-60.35-16.59-88.77a113.7,113.7,0,0,1-3.1-64.91c1.08-4.53,1.7-9.22,2.54-13.83Z"/><path class="cls-1" d="M767.89,0c-1.64,24.68.87,48.63,8.85,71.63,1.16,3.33,2.1,6.77,3.26,10.11,8,23,6.68,45.23-3.42,67.05-6.67,14.41-12.9,29.11-19.06,43.85A85.06,85.06,0,0,0,751,229.35c1.28,28.77-2.72,56.49-9.26,84.12-3.57,15.06-5.37,30.94-6.36,46.59-1.48,23.14-6,44.93-15.58,65.15-8.6,18.2-14.52,37.59-19.08,57.74-6.36,28.12-1.94,55.49,2.74,83,3.87,22.77,13.6,40.72,29.48,54.24,10.31,8.78,20.44,17.92,30.22,27.5,12,11.8,17.59,27.42,14.62,45.77a119.63,119.63,0,0,0,8.41,67.59c.93,2.19,1.47,4.63,2.19,7H777c-1.94-5.57-3.67-11.27-5.87-16.69a97.74,97.74,0,0,1-7-45.32c.38-4.71.42-9.46.54-14.2.33-13.37-3.5-24.9-11.57-34.08-5.18-5.9-10.85-11.22-16.46-16.56s-11.45-10.36-17.16-15.57c-13.21-12-21.65-27.76-24.32-47.31-2.76-20.23-6.05-40.53-6.84-60.93-1.21-31.31,8.32-59.85,20.68-86.81,9.45-20.58,17.82-41.33,18.76-65.27.24-6.08.08-12.28,1-18.22,2.4-15,4.85-30.07,8.18-44.82,4-17.48,8.61-35,7.16-53.16-2.48-31.13,5-58.76,18.31-84.88,4-7.88,7.43-16.24,10.75-24.58A71,71,0,0,0,774.19,89c-3.2-9.39-6.75-18.63-10.43-27.77-7.21-17.93-9.57-36.93-9.31-56.58,0-1.56-.13-3.13-.2-4.69Z"/><path class="cls-1" d="M1108.66,768c-1.71-14.72-3.86-29.38-5.05-44.16-1.82-22.66-3.57-45.38-4.26-68.12-.74-24.31,3.75-48,9-71.34,4.2-18.7,6.61-37.6,4.84-56.89-2.13-23.19.29-45.81,3.9-68.53,4.31-27.12,5.62-54.42-3.93-80.49-3.9-10.66-9.7-20.31-14.49-30.52-8.1-17.28-17-34.14-23.88-52.07a406.82,406.82,0,0,0-27.31-56.81c-7.29-12.68-12.89-26.34-11.33-42.25.83-8.43,2.92-16.71,4.73-25,4.53-20.69,9.42-41.27,13.73-62,1.16-5.59,1.15-11.67,1-17.5a167.58,167.58,0,0,1,10.53-65.15c3.3-8.81,5.7-18.1,8.51-27.18h8c-6.85,21.44-15.6,42.17-17.6,65.42a209.47,209.47,0,0,0-.59,22.28c.57,28.26-7.26,54.61-12.69,81.51-1.11,5.48-2.28,10.94-3.3,16.44-2.85,15.5-1.26,30.59,6.19,43.54,17.6,30.61,31.18,63.88,46.3,96.13,2.31,4.91,4.73,9.78,7.43,14.4,18.76,32.14,23.49,68,19.06,105.88-3.46,29.52-6.34,58.86-4.19,88.88,1,13.62-1.56,27.78-3.59,41.47-2.63,17.73-6.6,35.18-9.54,52.86-3.69,22.14-2.65,44.54-.85,66.76,1.95,24.21,4.92,48.29,7.45,72.43Z"/><path class="cls-1" d="M741.76,768c-.43-1.7-.85-3.4-1.3-5.09-4.5-16.68-9.75-33.14-13.31-50.11s-9.14-31.89-20-43.79c-6-6.55-11.75-13.41-17.77-19.93-14-15.13-21.54-33.78-23.09-56.26-1.56-22.7-3.67-45.34-5.67-68-1.26-14.18-.33-28.23,4.34-41.22,7.74-21.5,15.32-43.27,25-63.53,10.2-21.26,17.64-42.74,17.2-67.57-.31-17.42,3.22-34,8.9-49.91,7.54-21.15,10.89-43,8.88-66.06a117.92,117.92,0,0,1,10.43-60c5.23-11.48,10.08-23.22,15-34.91,8.11-19.28,7-38-3.18-55.7C741.78,76.43,736,67.21,729.9,58.29,718.2,41.11,714.23,21.64,716.77,0h12.49c-2.51,24.47,4,45.68,16.1,65.09a218.53,218.53,0,0,1,12.08,22.85c8.2,17.43,8.35,35.31.91,53.13-5.47,13.11-11.19,26.09-17,39-7.29,16.3-11.21,33.52-9.92,52a191,191,0,0,1-10.05,76.09c-5.06,14.79-7.13,30.33-7.11,46.29,0,22.44-5.54,42.72-14.78,62.31C691,435,683.9,454.27,676.82,473.4a117.36,117.36,0,0,0-6.93,52.21c2.18,23.07,4.42,46.14,7,69.15a75.68,75.68,0,0,0,20.65,44.65c7.22,7.62,14.54,15.12,21.86,22.6a65.42,65.42,0,0,1,19.27,43.63c1.23,22.19,7.24,42.69,15.58,62.36Z"/><path class="cls-1" d="M875.8,768c5.28-23.85,5.82-48.12,4.63-72.56-1.06-21.8,1.53-43.25,4.83-64.57,3.49-22.59-1.49-41.56-14.6-58.45-14.88-19.18-29.14-39.07-43.3-59-12.07-17-17-36.39-14.4-59.12,1.65-14.16,1.38-28.88.37-43.18-2.11-29.81,4.18-57.16,14.32-83.9a283.06,283.06,0,0,0,11.65-37.26c3.57-15.67.14-31.46-2.52-46.89-5.83-33.76-4.12-66.27,8.85-97.65,10.21-24.74,14.6-51.11,13.5-78.75A303.18,303.18,0,0,1,863.3,0h6.82c-.76,6.21-1.93,12.4-2.2,18.65-.66,15.07-1.37,30.18-1.2,45.26.29,26.15-2.81,51.54-12.67,74.93-14.13,33.49-16.65,68.25-9.28,104,6.38,31,2.69,59.63-9.64,87.65a154.2,154.2,0,0,0-11.61,85.27c1.94,13.69,2.26,27.84,2.18,41.78-.11,18.16,3.82,34.43,13.47,48.39,10.7,15.48,21.8,30.57,32.8,45.75,3.84,5.29,7.86,10.38,11.86,15.5,12.63,16.19,16.08,34.81,12,56.38-3.32,17.52-5.58,35.38-7.48,53.22-.87,8.17,0,16.67.52,25,1.35,20.64.91,41-4.4,61a40.86,40.86,0,0,0-.71,5.26Z"/><path class="cls-1" d="M1154.1,0c-.06,3.14,0,6.28-.21,9.41-1.05,18.86,1.64,36.83,8.77,53.8,3.81,9.07,7.28,18.35,11.31,27.27a275.1,275.1,0,0,1,20.69,67.74c3.09,18.27,9.82,34.88,15.95,51.9,11.41,31.63,22.19,63.67,31.56,96.22,3.29,11.43,3.1,25.05,2,37.35-2.09,23.59-4.72,47-2.79,70.79,2.07,25.52-3.68,49.53-9.57,73.69-4.37,17.92-7.68,36.29-10.41,54.69-3.19,21.42-.62,42.78,3.51,63.74,6.41,32.48,3.47,64.19-5.52,95.18-6.27,21.61-12.23,43.15-13.05,66.22h-6.81c-.88-16.86.51-33.55,5.54-49.28,12.46-39,15.29-78.67,9.45-119.68-4.34-30.53-1.17-60.71,5-90.52,2.15-10.28,4-20.67,6.67-30.77a204,204,0,0,0,6.24-64.79,318.15,318.15,0,0,1,2.93-64.7c2.49-17.48,1.34-34.73-4.79-51.06-9.34-24.89-18.44-49.94-28.67-74.31-8.45-20.12-15.66-40.55-18.56-62.85-4-30.54-14.11-58.42-26.09-85.38A124.74,124.74,0,0,1,1148.42,0Z"/><path class="cls-1" d="M800.83,0c-.36,5.39-.6,10.79-1.08,16.17-2.13,24-1.51,47.7,3.54,71.18,4.53,21.1,1.38,41.08-6.66,60.34q-9.74,23.28-18.89,46.9a95.82,95.82,0,0,0-5.91,39.63c1.38,27.11-1.84,53.38-7.19,79.67C760.55,334,757.8,354.52,755.3,375a289.67,289.67,0,0,1-15.43,64.81c-8.67,23.69-15.81,48.1-13.88,74.47,2.38,32.55,12.59,60.64,35.45,80.61,8.23,7.2,16.27,14.74,24.7,21.6,21.33,17.32,30.27,41.39,25.65,71.28-3.91,25.3-2.43,49.75,3.11,74.23a56.47,56.47,0,0,1,.69,6h-9.08c-.3-2.41-.28-5-1-7.22A154,154,0,0,1,801,688.92c4-23.87-3-43.59-18.75-58.75-8.08-7.79-16.33-15.49-25.11-22.08-26.17-19.64-36.79-49.54-40.49-84.36-2.94-27.63,3.45-53.27,12.16-78.21,7-20.18,16.34-39.66,17.77-61.77,2.51-38.67,12.34-75.64,17-113.75a121.91,121.91,0,0,0,.73-23.62c-2-27.41,4.4-52.16,15.49-75.69,3.79-8.05,7.27-16.32,10.82-24.54,8.25-19.09,10.47-39.15,5.19-59.72-6.83-26.61-7.82-53.61-5.49-81,.15-1.79.14-3.61.2-5.41Z"/><path class="cls-1" d="M1231.34,0c2.47,6.77,4.56,13.77,7.5,20.23A216.35,216.35,0,0,0,1250.28,42c13.16,22,21.79,46.35,27.65,72.23,4.5,19.9,11.62,38.19,23.24,53.59,15.45,20.48,20.63,44.22,18.27,71.36a472.55,472.55,0,0,0-1.42,51.34,298.11,298.11,0,0,1-6.21,65.67c-3.66,18.22-4.06,36.7-2.78,55.16,2,28.32,0,55.81-9,82.37-7.17,21.11-7.42,42.59.92,63.09,11.09,27.28,10.47,55.53,8.59,84.7A262.48,262.48,0,0,1,1276,755c-2.31,4.1-4,8.65-6,13h-6.82c3.44-7.72,6.46-15.77,10.4-23.12,21.35-39.76,28.76-83.92,29.36-130.27.19-14.52-3.14-28.19-8.46-41.05-11.31-27.37-12.37-54.93-2.09-83,9.1-24.85,11.05-51,9.26-77.63-1.65-24.35.37-48.18,5-71.86,3.33-17.07,3.24-34.37,2.59-51.83-.77-20.49-.58-41.05-.4-61.58.16-18.81-4.1-35.78-14.2-50.2-13.48-19.24-22.42-41-28.1-65-6.23-26.3-17.45-49.79-29.46-72.91C1230.53,27,1225.62,13.21,1220,0Z"/><path class="cls-1" d="M892.84,0c-1.5,13.14-4.42,26.31-4.23,39.41.55,37.68-4.46,73.67-18.43,107.68-9.84,23.95-10.06,49.08-6.41,74.79,2.11,14.89,3.56,29.93,5.05,44.94,2.45,24.65-3.65,47.34-11.72,69.49C848,361.2,846.68,386.26,854.71,412c4.54,14.57,8.3,29.51,12,44.41,5.32,21.22,15.16,39.18,27.19,55.71,8.44,11.58,17,23,25.12,34.93,15.18,22.38,16.72,46.26,5.62,71.94a234.63,234.63,0,0,0-11.28,33.89c-4.11,15.85-3.26,32.28-.72,48.33,3.66,23.14,2.23,45.34-6.21,66.75h-8c1.42-5.13,2.87-10.24,4.26-15.38,4.11-15.17,4.5-30.74,2.16-46.18-4.6-30.44-.43-59.17,10.25-87,9-23.39,7-45.21-7.17-64.94-8.61-12-17.29-23.89-26.29-35.46-16.07-20.65-27.56-43.81-30.77-72.33a177.57,177.57,0,0,0-6.12-29.5c-8.48-29.23-6.08-57.47,5.25-84.63,11.77-28.22,14.87-57.26,9.3-88-2.15-11.86-2.72-24.11-4.17-36.16-2.46-20.5,1.21-39.71,7.38-58.8,5.95-18.44,11.39-37.21,15.68-56.27,2.36-10.5,2.61-21.91,2.57-32.9-.07-20.33-.13-40.57,4-60.46Z"/><path class="cls-1" d="M1241.57,768c6.58-17.23,13.74-34.18,19.6-51.76a347,347,0,0,0,16.16-78.62c1.34-14.73-1.8-28.6-6.62-42.11-3.54-9.94-7.47-19.86-9.7-30.26-4.76-22.17-2.14-44.36,4.89-65.06a265.32,265.32,0,0,0,13.69-101.88c-.91-16.21,1.11-32.89,3.37-49a209.21,209.21,0,0,0-.29-61.15c-2.83-18.56-4.23-37.49-5.42-56.33-1-16.27-5.06-31-13.09-44-11.71-19-19.55-40-25.89-62.14C1234.68,113.1,1229.91,101,1225,89c-9.11-22.29-19-44.16-27.93-66.54-2.79-6.95-3.73-15-5.51-22.5h9.08c2.38,8,4.18,16.37,7.25,24,5.15,12.8,10.92,25.26,16.75,37.66,11.32,24.08,20.19,49.37,28.2,75.27a187.91,187.91,0,0,0,18.38,40.92c11.55,19.16,17.17,39.56,17.14,63.09a386.74,386.74,0,0,0,3.45,48.45c2.48,19.71,2.48,39.12-1.23,58.5-4.18,21.79-4.5,43.86-3.41,66,1.33,26.82-2,52.54-10.85,77.38-7.33,20.7-11.08,42.33-7.52,64.79a96.7,96.7,0,0,0,7,24.86c12.24,26.58,12.34,54.13,7.1,82.82-5.34,29.31-12.79,57.49-25.75,83.43-3.24,6.47-5.16,13.87-7.69,20.84Z"/><path class="cls-1" d="M1175.68,0c-.89,12.58,2.35,24.18,6.64,35.26,7.6,19.65,16,38.84,23.5,58.56,6.29,16.61,11.5,33.79,17.55,50.53,5.37,14.86,10.24,30.17,17.13,44,8.65,17.4,14.86,35.15,16.68,55.47a245.55,245.55,0,0,0,7.22,41.63c6.82,25.4,5.43,50.56,2,76.27a218.11,218.11,0,0,0-1.51,41.12c1.72,29.85-2.29,58.2-10.63,86.34-5,16.88-7.7,34.8-10.59,52.45a82.57,82.57,0,0,0,4.39,43.8c13.57,33.78,12.56,67.64,3,102-4.42,15.81-9.39,31.4-13.94,47.15-3.2,11.07-6.11,22.26-9.14,33.39h-6.82c2.42-11.53,4-23.45,7.43-34.5,7.44-23.7,14.29-47.49,18.18-72.44,2.86-18.34,3.11-36.57-2.78-54-13-38.45-10.1-76.52,1.43-114.24,9-29.45,14-59.29,11.71-90.78-.79-10.94,0-22.08.5-33.1.37-7.4,1.5-14.76,2.51-22.1a142.6,142.6,0,0,0-3.32-54.78c-4.35-17.47-7.17-35.47-11.48-52.95-3.13-12.66-6.35-25.68-11.72-37.07a368,368,0,0,1-22.39-62.63c-4.37-16.42-10.94-32-16.94-47.82-6.25-16.4-13.26-32.4-19.41-48.85A110.63,110.63,0,0,1,1167.73,0Z"/><path class="cls-1" d="M854.22,768c1.25-37.62,1.9-75.28,3.95-112.84,1.49-27.24-5-49.52-22.54-67.4a332.72,332.72,0,0,1-45.08-57.85c-13.48-21.8-16.59-44.83-11-71a483.72,483.72,0,0,0,8.73-59.08c2.58-29.25,8.38-57.31,18.38-84a126.32,126.32,0,0,0,6.51-66c-5.48-33.29-1.66-65,11.1-95.31,10.59-25.12,15.69-51.34,13.24-79.77-2.16-25,.86-49.95,4.19-74.71h7.95a257.72,257.72,0,0,0-4.8,67.15c1.88,30.79-2.71,59.68-14.31,87.16-13.79,32.64-14,66.81-7.95,101.72a103.94,103.94,0,0,1-5.77,56.1c-8.55,22.19-16,44.89-18.77,69.28-1,8.48-.93,17.11-1.82,25.61-1.83,17.41-3.11,35-6.19,52.12-3.9,21.65-1.27,40.93,9.33,59.16a368.79,368.79,0,0,0,46.2,63.05C855.29,592,863.74,604,866,620.21a124.25,124.25,0,0,1,1,20.87q-1.65,52.74-3.82,105.45c-.29,7.19-1.44,14.32-2.2,21.47Z"/><path class="cls-1" d="M827,0c-1.21,11.86-3.12,23.7-3.46,35.6-.47,16.4-.61,32.95.68,49.25,1.67,21.05-.7,40.81-8,60-5.58,14.54-11,29.17-15.8,44.11-5.76,18.07-6.53,37-4.52,56.07,2.43,23,1.18,45.43-5.63,67.31-9.54,30.66-13.23,62.84-17.87,94.86-2.79,19.21-8,38-12.76,56.72-7.65,30.17-4.78,58,11.84,83.05,5.39,8.12,10.87,16.3,17.17,23.36,10.19,11.42,21.06,22,31.7,32.83,14.44,14.75,21.59,33.32,20.71,56.07-.39,10.14-1.27,20.26-1.35,30.4-.23,26.12-.13,52.25-.16,78.38h-8c-.7-9-2-18-2-26.93,0-18.21.82-36.42,1.25-54.63.25-10.81,1-21.65.51-32.42-.72-17.94-8.11-32.15-19.39-43.53-12.41-12.53-25.48-24.17-37.41-37.29-14.92-16.41-25.31-36.41-28.64-60.79a103.42,103.42,0,0,1,3.91-46c11.89-36.45,17.44-74.49,22.75-112.79,2.54-18.37,8.47-36.05,11.43-54.37,2.38-14.7,4.45-30.08,3.39-44.82-2.42-33.53,2.81-64.52,16.17-93.89,10-22,17-44.71,14.11-70.45-1.46-12.94-3.07-26-2.75-39C815.28,34,817.54,17,819,0Z"/><path class="cls-1" d="M1267.69,0c2.86,7.28,4.82,15.33,8.72,21.7,15.21,24.89,24.69,52.57,30.52,82.34a121.61,121.61,0,0,0,22.52,50.17,155.46,155.46,0,0,1,12.43,20.13c8.84,16.7,12.55,34.89,8.63,54.38-5.86,29.1-7.53,58.79-10.18,88.4-1.45,16.08-4.77,31.94-7.49,47.84-3.89,22.64-1.66,45.38-1.47,68.14.15,17-.53,34.34-3,51.06-3,20-2.83,38.78,5.15,57.2,5.8,13.39,5.27,27.82,3.5,42.38-3.39,27.88-6.84,55.76-9.47,83.74-2.49,26.53-12.34,49.5-22.63,72.39-4.27,9.49-8.87,18.76-13.32,28.13h-8c4.89-9.65,9.91-19.21,14.66-29,13-26.82,22.44-54.95,23.84-86.53.85-19.12,3.35-38.13,5.22-57.17,1.74-17.81.81-35.2-6-51.52a77.07,77.07,0,0,1-3.73-50c6.73-26.34,7.81-53.14,5.84-80.37-1.65-22.91.77-45.36,5-67.79,2.83-14.88,3.9-30.26,5.39-45.47,2.42-24.62,4.26-49.33,6.86-73.92,2.19-20.71-2.62-38.85-12.81-55.24-5.74-9.23-12.23-17.82-17.84-27.16-8-13.26-11.47-28.86-14.81-44.38-5.12-23.86-13.33-45.84-25.24-66.1-6.15-10.45-10.68-22.25-16-33.44Z"/><path class="cls-1" d="M1086,768c-2.39-25.09-3.48-50.47-7.48-75.18A276.78,276.78,0,0,1,1081.84,587a206.35,206.35,0,0,0,4.59-61,229.86,229.86,0,0,1,4.68-65.09c7.27-34.76,2.56-66.25-18.31-93.19-1.16-1.49-2.14-3.17-3.26-4.69a164.55,164.55,0,0,1-28.42-61,187.23,187.23,0,0,0-18.33-47.08c-2.89-5.28-5.47-10.82-8-16.37-9.37-20.55-9.94-41.34-2.47-63.15,6.12-17.87,11.5-36.19,16-54.74,2-8.42,1.89-18,1.25-26.83-1.55-21.27,1.15-41.19,9.38-60.31,4.62-10.75,7.91-22.32,11.8-33.52h9.09c-3.85,11-7.32,22.28-11.65,33-7.19,17.88-10.91,36.43-9.7,56.31,1.52,24.94-4.07,48.24-11.76,71-2.82,8.36-5.83,16.66-8.15,25.22a66,66,0,0,0,2.69,43.43A231.3,231.3,0,0,0,1033,253a196,196,0,0,1,19.45,47.93c5.12,20.4,13.07,39.18,25.18,54.75,25.19,32.39,30.74,69.53,21.29,111.22a181.51,181.51,0,0,0-4,55,213.55,213.55,0,0,1-4.75,65.71c-8.06,35-9.06,70.1-4,105.89,3.52,24.65,5.18,49.67,7.68,74.52Z"/><path class="cls-1" d="M707.68,768c-8.26-30.25-16.38-60.56-34.76-85-4.8-6.37-9.32-13-14-19.56-13.23-18.46-18.92-40-19.69-64.09-.78-24.53-2.39-49-4-73.51-1.16-17.07.68-33.32,7.37-48.56,10.52-23.95,20.82-48.05,31.85-71.66,7.47-16,11.83-32.6,11.77-50.87-.06-18.76,2.7-36.8,10-53.62,9.32-21.59,12-44.36,9.12-68.31-2.54-21.22,1.23-41.22,8.88-60.41,4.14-10.37,8-20.91,11.85-31.46,6.77-18.63,4.35-35.78-6.64-51-6.4-8.89-13.31-17.25-20-25.84C685.19,45.93,679.45,24.63,682.69,0h11.36c-3.1,20.89.13,40,11.7,56.47,6.55,9.32,13.56,18.19,20.39,27.24,14.11,18.67,16.75,39,7,61.71-5.58,13-10.73,26.36-15.66,39.77a92.35,92.35,0,0,0-5.58,41.65c3,28.82-.39,56.06-11.4,82.09-5.64,13.33-7.38,28-7.13,42.78.41,23.72-6.65,44.1-16.47,64.31-10.77,22.17-19.77,45.61-28.93,68.85-4.74,12-5.53,25.16-4.62,38.44,1.79,26.05,3.63,52.11,5,78.19,1.12,21,6.65,40,18.85,55.26,39.8,49.81,33.36,52.59,48.39,99.15,1.28,4,2.28,8.06,3.41,12.09Z"/><path class="cls-1" d="M1063.23,768c-.69-9.65-1.08-19.35-2.12-29-1.82-16.76-3.08-33.72-6.31-50.12a198.75,198.75,0,0,1,.12-78.36c5.87-29.42,11.26-58.93,8.32-89.68-1.26-13.16-1.23-26.57-1-39.85.19-9.42,1.65-18.83,2.75-28.21,2.58-22-.91-42.23-12.42-60.05-5.89-9.12-11.84-18.18-17.94-27.1-10.06-14.69-17-31.21-22.19-49.14-5.81-20-12.84-39.5-19.31-59.23-1.93-5.89-3.86-11.77-5.62-17.72-7.34-24.81-7.17-49.22,3.53-72.71a141,141,0,0,0,11.82-78.43c-2.76-21,1.75-40.17,10-58.61,4.31-9.68,7.84-19.88,11.73-29.84h9.08c-3.11,8.42-5.56,17.3-9.45,25.18-10.87,22-15.25,45.21-12.06,70.74,2.78,22.34-1.9,43.42-10,63.56-2,4.87-3.8,9.82-5.69,14.74-7.59,19.7-7.84,39.71-1.64,59.91,1.89,6.13,4.23,12.06,6.32,18.1,7.58,21.84,15.54,43.52,22.58,65.61,5,15.58,11.28,30,20,42.94,4.53,6.66,8.89,13.5,13.67,19.9,16.73,22.46,21.87,48.41,16.62,77.47a250.58,250.58,0,0,0-3.2,65.94c2.07,24.57-.77,48.7-6,72.39-7.14,32.51-7.36,64.67-1.37,97.72,4.37,24.13,5.23,49.17,7.65,73.8Z"/><path class="cls-1" d="M1038.24,768c-1.08-17.07-1.91-34.18-3.33-51.21a149.33,149.33,0,0,0-3.78-22.52c-6-25.06-5.09-49.8.79-74.73,3.38-14.3,5.72-29,8.42-43.48,3.8-20.37,3-40.65,0-61.14-2.75-18.84-5.26-37.86-6.15-56.91-1-22.15-6.35-42-16.93-60-2.82-4.8-5.47-9.78-8.57-14.31-13-19-21.81-40.24-26.79-64.2-4.35-21-11.06-41.21-15.49-62.15-3.08-14.58-4.37-29.75-5.93-44.73-1.8-17.3,1.37-33.85,7.94-49.16,9.46-22,12.57-45.22,10.37-69.57-2.29-25.28,2.28-48.83,11.86-71.28,3.17-7.42,6-15.06,9-22.6h8c-2.27,6.13-4.13,12.53-6.87,18.35-11.54,24.51-17,50.24-13.8,78.59,2.56,22.41-.4,44.1-9.59,64.21-11.78,25.78-11.64,52.81-5.55,80.2,3.73,16.75,8.27,33.24,12.67,49.76,2.92,10.95,6.62,21.62,9.29,32.65a150.62,150.62,0,0,0,20.11,47.34c6,9.25,11.82,18.74,17.56,28.25,9.87,16.32,13.66,34.61,13.87,54.7.23,21.57,1,43.26,3.32,64.64,2.64,24.87.83,49-4.1,73.07-2.5,12.26-4.5,24.67-7,36.93-4.55,22.38-2.31,44.32,2.43,66.2,5.2,24,6.31,48.48,6.28,73.11Z"/><path class="cls-1" d="M243.09,768c4.7-37.61,9.28-75.24,14.18-112.81,2-15.61.58-31-.68-46.47-2.21-27.35-4.7-54.76-5.3-82.19-.9-41.42-3.24-82.48-13-122.43-6.92-28.31-5.36-55.7,4.57-82.54,7.52-20.31,11.78-41.73,16.34-63.17,5.65-26.62,12.81-52.78,19.48-79.08a135.41,135.41,0,0,0-2.43-76.89c-2.88-8.82-5.39-17.81-8.42-26.55a114.45,114.45,0,0,1-1.72-72c.37-1.26.57-2.6.85-3.9h7.95c-.4,2.64-.63,5.33-1.23,7.9a104.28,104.28,0,0,0,3,58.33c2.93,8.56,5.63,17.23,8.65,25.74,9.05,25.57,9.85,51.7,3.52,78.16-5.34,22.33-12.1,44.23-16.42,66.82-6.28,32.82-13,65.27-24.46,96.24-7.41,20.05-7.92,41.17-3,62.33,11.28,48.81,15.38,98.78,17.43,149.14.73,17.79,2.14,35.55,3.71,53.27,2.1,23.83,0,47-4.08,70.47s-5.74,47.69-8.52,71.56c-1.09,9.36-2.34,18.69-3.52,28Z"/><path class="cls-1" d="M1009.84,768c2.6-18.08.46-36-1.67-53.82-.85-7.13-2.12-14.21-3.5-21.24-3.92-20.07-2.85-39.69,2.19-59.41s9.47-39.9,13.61-60a111.13,111.13,0,0,0-2.71-54.63c-7.69-25.93-14.58-52.23-23.26-77.67a334.61,334.61,0,0,0-21.74-49.56c-10-18.63-16.79-37.91-19.2-60-2.29-21-7.38-41.51-9.82-62.47-2.57-22.09-3.61-44.45-5-66.72-1-15.91,2.36-31,7.86-45.28a152.58,152.58,0,0,0,10.12-57.77c-.54-35,6.65-67.91,19.07-99.39h8c-4.42,12.94-9.13,25.76-13.19,38.86-5.94,19.15-7,39.24-6.43,59.39.56,21.13-2.06,41.36-9.93,60.45-8.89,21.56-8.11,44.15-6.84,67.49,2.17,40.23,12.18,78.39,18.92,117.42,2.69,15.58,9.24,29.07,17.11,41.6,15.62,24.85,25.27,52.55,30.19,83,2.34,14.53,6.38,28.76,10.37,42.83a140.62,140.62,0,0,1,2.33,69.28c-3.63,16.8-6.85,33.76-11,50.38a136,136,0,0,0-1.55,62.1,320,320,0,0,1,6.39,75.16Z"/><path class="cls-1" d="M302.16,0c-2.21,18.16.5,35.44,6.31,52.26,3.31,9.58,6.56,19.22,9.35,29,6,21,3.47,42-1.28,62.65-3.39,14.78-8.16,29.11-11.34,44-4,18.51-7.55,37.21-10.17,56.06a444,444,0,0,1-20.67,85.61c-7.56,21.63-8.76,43.19-4.63,66.15,8.36,46.5,15.34,93.35,26.42,139.13,9.05,37.4,5,73.9-7.78,109.06C278.18,672,271.79,700.8,272.2,731.72c.15,12.07-1.93,24.18-3,36.28h-5.68c3.58-41.09,3.16-82.68,16.47-122.23C291.59,611.31,290.19,575,284.53,539c-7.79-49.4-15.77-98.75-24.25-148a115.39,115.39,0,0,1,5.12-60.14c9-24.93,16.7-50.46,20-77.36,3.77-31.22,11.93-60.92,19.66-90.86,5.38-20.81,9.16-42.24,4.88-64-2.44-12.41-6.5-24.48-10.65-36.28-6.5-18.46-10.48-37.17-7.32-57.28.27-1.74.75-3.44,1.14-5.16Z"/><path class="cls-1" d="M482.77,0c-7.24,22.41-10.06,46-10.1,69.63,0,26.36-2.94,51.51-12,75.77-6.48,17.35-6.63,35.69-1.19,53.56,7.36,24.15,12.27,48.69,12.5,74.58.14,16.21,3.51,32,10.56,45.91,14.32,28.25,13.27,57,5.13,87.27-9.54,35.42-17.68,71.37-26.6,107-3.73,14.92-4.3,29.94-.31,44.67,7.3,26.93,3.67,51.57-7.74,76-17.55,37.66-24.35,79.37-29.51,121.47-.48,3.93.11,8.05.2,12.08H412.34c-1.9-34.33,6.81-66,17.81-96.86,5.83-16.36,12.61-32.26,19.34-48.13,7.5-17.67,10-36,5.29-55.06-5.41-22.05-3.57-43.13,1.93-65,9.42-37.55,17.35-75.64,25.2-113.71,4.33-21,2.6-41.64-6.32-61A149.56,149.56,0,0,1,462,265.34a173.73,173.73,0,0,0-9.4-55.38c-8.88-26.21-8.61-51.7,2.31-77.11,6.92-16.1,9.45-33.57,9.95-51.65A378.37,378.37,0,0,1,476,0Z"/><path class="cls-1" d="M915.56,0c-5.68,17.64-5.29,36.31-6.56,54.71-2.11,30.74-6.1,61-17.64,89C881.78,167,880.94,191,884,216.31c4,32.76,7.92,65.8,2.24,99C884.8,323.65,883,332,881,340.19a108.88,108.88,0,0,0,3.44,62.88c14.5,41.13,31.16,80.72,56.26,114.52,8.8,11.86,16.55,24.73,19.18,40.86a92.58,92.58,0,0,1-6.46,53.19c-2.89,6.6-5.65,13.29-8.78,19.72-10.08,20.74-12,42.6-8.35,66a232.93,232.93,0,0,1,2.94,42.86c-.28,9.34-4.28,18.51-6.61,27.76h-9.09c10.39-24.64,8.86-50.13,3.83-75.89-.42-2.18-.4-4.48-.67-6.71-1.94-15.92.55-31,6.2-45.41,4.17-10.61,9-20.84,13.21-31.43,9.75-24.64,7.3-48.21-5.08-70.59a111.82,111.82,0,0,0-9.66-15c-23-29.22-39.23-63.31-51.15-100.54-2-6.32-4.37-12.48-6.46-18.77-6.74-20.23-8.4-41.12-1.75-61.46,12-36.66,11.39-74,6.73-111.92-1-8.25-1.69-16.56-2.85-24.78-3.12-22,.94-42.63,8.79-62.37,12.24-30.74,16.47-63.42,18-97,.69-15.42,3.27-30.72,5-46.08Z"/><path class="cls-1" d="M675.88,768a304.14,304.14,0,0,0-36.64-80.56c-17.45-27.39-24.8-58-24-92.38.55-23.6-.93-47.31-2.29-70.91-1.05-18.39,1.71-35.39,9.2-51.45,10.84-23.26,21.42-46.7,32.36-69.89,7-14.87,11.25-30.58,11.14-47.67-.15-22.32,3.68-43.39,12.44-63.22,7.23-16.36,8.95-34,6.39-52A160.34,160.34,0,0,1,691,166.82c2.65-8.18,4.62-16.69,6.8-25.09,4-15.57,2-30-6.55-42.72-6.37-9.52-13.25-18.54-19.75-27.94-10.67-15.44-18.47-32.55-19.89-52.88-.42-6,.22-12.12.37-18.19h10.22a89.92,89.92,0,0,0,14.6,62.65,301.94,301.94,0,0,0,19.63,26.23c14.47,17.38,17.79,37,9.66,59.45-2,5.59-3.44,11.5-5.58,17-9.54,24.52-12,50.06-8.43,76.64,2.3,17,.5,33.51-6.12,48.74-9.36,21.54-13.75,44.18-13.6,68.38.1,15.45-4.27,29.6-10.51,43.06C650.81,426,640,450.1,629,474c-7.14,15.5-9.81,31.93-8.89,49.56,1.35,26.08,2.87,52.2,3,78.31.21,29.23,7.76,54.78,22.81,77.61,12.18,18.46,23.89,37.37,31.32,59.38,3.23,9.57,5.88,19.41,8.8,29.13Z"/><path class="cls-1" d="M382.81,768c-4.45-28.17-2.71-55.15,10.24-80.22,9.62-18.62,18.68-37.67,28.51-56.14,11.63-21.87,15.66-45,11.07-70.5a108.91,108.91,0,0,1,4.06-53.85c10.94-33.27,12.74-68.47,15.76-103.48,2.46-28.42-.72-55.32-11.73-80.79-.44-1-.74-2.07-1.13-3.1a115.25,115.25,0,0,1-7.48-44.75,213.54,213.54,0,0,0-7.59-62.62c-2.14-7.92-3.52-16.15-5-24.31-2.89-16.36-1-32.28,6-46.51,13.15-26.7,18.56-55.86,22.06-86C449.55,39,453.06,22.53,455.85,6c.33-2,.53-4,.79-5.95h6.82c-4.85,32.15-9.21,64.42-14.81,96.38a146.9,146.9,0,0,1-11.06,35.27c-10.85,23.71-13,47.77-5.32,73s10.44,51,11.21,77.61a106.53,106.53,0,0,0,8.3,38.21c13.16,30.22,13.4,61.31,9,93.64-4.71,34.54-9.6,68.95-19.92,101.94-5.74,18.35-3,37,.08,55.43a83.88,83.88,0,0,1-6.38,49.14c-8,17.67-15.33,35.85-24.36,52.73-15.62,29.18-22.85,60.16-18.31,94.64Z"/><path class="cls-1" d="M641.8,768c-6-15.25-12-30.53-18.17-45.73-7.86-19.48-16.79-38.43-23.55-58.43-8.49-25.11-5.76-51.94-5.61-78.3.11-19.59.11-39.25-1.16-58.75-1.42-21.65,1.35-41.55,10.81-60.37,10.3-20.49,19.74-41.6,29.75-62.3a116.18,116.18,0,0,0,11.79-55c-.67-21.56,2.42-42.18,10.13-61.81a84,84,0,0,0,5-42.31,268.42,268.42,0,0,1,2-82.74c5-28.38,1-54-13.83-77.39-5.9-9.33-10.8-19.61-15.68-29.77C625.07,38.07,620.65,19.91,623.62,0h9.09c-2.73,26.56,5.69,49.06,18,70.11,4.87,8.32,9.73,16.67,14.9,24.72,11,17.16,13.84,36.08,9.69,56.92-2.54,12.71-4.75,25.53-6.85,38.36-2.9,17.78-1.33,35.55.9,53.21,1.94,15.42.65,30.35-5.1,44.24-8.48,20.52-12.16,42.05-11.76,64.79.32,19-4.46,36.38-12.36,52.77-10.07,20.93-19.68,42.17-29.84,63-8,16.52-11.43,34-10.73,53.08,1,28.58,2,57.22,1.53,85.81a184.53,184.53,0,0,0,19.43,85.6c11,22.36,20.83,45.47,31.06,68.32.94,2.08,1.07,4.68,1.58,7Z"/><path class="cls-1" d="M219.23,768c2.73-12.14,6-24.16,8.05-36.45,2.81-16.8,4.48-33.87,7.08-50.72,2.93-19,1.89-37.64-2.17-56.29-8.58-39.45-11-79.66-8.79-120.2,1.45-26.33.73-52.2-5-77.88-8.91-39.8-7.74-79.21,2.69-118.74,7.65-29,13.1-58.79,19.83-88.14,2-8.67,5.1-17,7.55-25.51a117.16,117.16,0,0,0,.75-63.18c-3.33-12.69-5.84-25.69-9-38.43C232.25,61,232.5,30.17,244.22,0h8c-9.69,25.2-11.77,51.09-5,77.78,4.29,16.82,8.52,33.67,12.93,50.45,6.23,23.72,4,46.89-3.3,69.57a625.47,625.47,0,0,0-20.55,84.32c-2.07,11.85-5.5,23.44-8.94,34.88a185.49,185.49,0,0,0-3.06,97.15c7.82,33.46,9.54,67.27,8,101.86a419.71,419.71,0,0,0,8,104.79c4.24,20.39,3.41,40.64.61,61.1-2.91,21.36-5.06,42.87-8.07,64.21-1,7.46-3.67,14.6-5.57,21.89Z"/><path class="cls-1" d="M603.18,768c-2.79-11.16-4.86-22.66-8.5-33.4-8.37-24.71-17.14-49.31-20-75.91-1.42-13.32-1.05-27-.52-40.5,1.24-32.23,3.56-64.44.39-96.67-2.21-22.56,2.85-42.64,12.78-61.73,9.57-18.38,18.31-37.38,27.26-56.21A106.88,106.88,0,0,0,625,347c-2.23-24.49-1.15-48.48,5-72.29,2.33-9.06,2.44-19.19,2.36-28.81-.29-32.72-1.42-65.42-1.66-98.13-.2-26.58-5-51.41-17-74-1.11-2.09-2-4.36-3-6.5C600.3,46.5,592.6,25,597.5,0h9.08c-3.57,17-1.3,33.22,5.36,48.54,5.4,12.4,11.17,24.58,17,36.7a124.23,124.23,0,0,1,12.67,55.48c-.13,21-.89,41.94-.89,62.92,0,12.61.48,25.28,1.55,37.83,1.29,15.11.33,29.77-4.12,44-5.81,18.56-7.54,37.67-6.1,57.25,1.65,22.51-2.16,43.46-11.73,63-9.35,19.07-18.13,38.56-27.83,57.36-10,19.28-12.84,39.66-11.69,62.11,1.33,26.05,2.23,52.46.16,78.35-3.58,45,6.52,85.63,22.91,125.08,4.35,10.48,7.93,21.42,11.7,32.23.77,2.21.83,4.78,1.22,7.18Z"/><path class="cls-1" d="M980.3,768c5.82-21.94,3.29-44-.57-65.62-5-27.85-2.33-53.73,7.42-79.76,6-16.07,9.38-33.72,12.68-51a82,82,0,0,0-6.07-49.85c-17.85-39.5-35.63-79-53.64-118.42-5.82-12.72-12-25.26-13.55-39.88-1-8.92-1-18-1.38-27-.57-14.19-.76-28.41-1.64-42.56-2-31.72-4.88-63.36-6.11-95.11-.47-12.08.59-25.37,4.45-36.35,9.37-26.62,14.16-54,16.31-82.54,2-26.3,5.94-52.3,13.61-77.28a10.86,10.86,0,0,0,.1-2.63h8c-3.87,16.69-8.53,33.19-11.39,50.12a491.84,491.84,0,0,0-5.35,50.27c-1.08,16.83-3.4,33.17-9.4,48.48-8.42,21.49-10.84,43.66-8.1,67.23,2.09,18,2.09,36.4,3.46,54.58,2.12,28.28,4.51,56.55,7,84.79,1.33,15.17,7.49,28.12,13.49,41.27,9.55,21,18.43,42.36,27.46,63.65,6.23,14.68,11.47,30,18.52,44.12,13,26,16.39,52.93,9.27,81.84-2.61,10.59-4.35,21.69-8.25,31.57-11.72,29.75-13,60-6.94,91.72,3.66,19.11,5.14,38.81.91,58.36Z"/><path class="cls-1" d="M500.94,0c-9.12,27.37-8.33,55.76-5.36,84.11,2.06,19.64,1.47,38.78-4,57.43-6.79,23.06-6.25,45.6,0,68.94a180.59,180.59,0,0,1,6.12,44.43,181.94,181.94,0,0,0,17.07,76.21c8.57,18.61,9.85,38,2.9,58-8.19,23.53-17.13,46.78-23.92,70.89a430.82,430.82,0,0,0-12.33,61.66c-1.49,11.65-.17,24.49,2.3,36.06,5.68,26.58,4.62,51.65-6.4,76.08-9,20-12.39,41.75-14.35,64.25C461.1,718.83,457,739.33,454,760c-.39,2.65-.5,5.36-.75,8H443c3.22-20.83,7.43-41.52,9.43-62.52,2.72-28.64,8.94-55.62,20.29-81.09,8.62-19.32,9.25-40,4-60.52-5.8-22.56-4.69-44.76,1.13-66.58,8.17-30.69,17.35-61,26.1-91.46,2.14-7.47,4.3-14.93,6.4-22.41,4.75-17,2.78-33.18-3.23-49.3-5.66-15.19-11.59-30.41-15.48-46.29C489,277,490.16,265,488.69,253.62c-1.92-14.86-3.5-30.05-7.5-44.19-6.51-23.06-7.1-45.32.17-68.08a141.21,141.21,0,0,0,6.14-56.47c-2.64-28.75-.82-57.17,6.63-84.88Z"/><path class="cls-1" d="M937.14,0c-2.7,17-5.68,33.91-8,51-2.6,18.9-4.18,38-7.08,56.85-1.67,10.78-3.93,21.84-7.94,31.61-10.83,26.44-11.93,53.35-8.94,82.28,4.17,40.19,6.57,80.78,1.81,121.4a109,109,0,0,0,9.21,58.23c17.12,37.89,32.62,77,54.72,111.32,20.88,32.46,17.73,66.27,5.14,100.9-2.48,6.82-5.3,13.47-8.2,20.06-8.27,18.78-10,38.49-6.53,59.13,1.66,10,2.88,20,4.08,30,1.84,15.5-.28,30.51-4.39,45.22H950.77c8.85-22,7.47-44.93,2.86-67.57-5.44-26.71-2.37-51.25,9.36-74.8,7.77-15.61,13.15-32.33,14.58-50.79,1.34-17.29-1.09-33.23-9.06-47.83-2.28-4.15-4.5-8.39-7.09-12.25-20.92-31.23-36.19-66.5-51.86-101.55-11.6-25.93-15.68-52.66-10.29-81.67,4.71-25.39,3-51.21,1.32-76.87-1.06-16.63-2.38-33.25-4.07-49.8-1.79-17.39-1.19-34.52,5.28-50.34C915.26,121.58,918.51,86,922.58,50.42,924.51,33.5,927.7,16.8,930.32,0Z"/><path class="cls-1" d="M194.24,768c11.17-25.91,14.53-54.35,18.62-82.52,2.44-16.76.25-33.08-3.23-49.49s-5.87-33-8.09-49.65c-1.81-13.57-3.19-27.28-3.82-41-.81-17.5-1.75-35.16-.67-52.57,1.27-20.39,1.67-40.5-1.58-60.62-4.26-26.39-3.18-53.11-2.13-79.63a670.72,670.72,0,0,1,14.52-116.88c1.66-7.62,3.63-15.2,6-22.55,8.18-25.47,8.8-51.09,3.9-77.75-3.71-20.18-5.46-40.95-7.17-61.56a160,160,0,0,1,9.19-67.44c.72-2,1.16-4.23,1.74-6.35h8c-3.46,14.48-8.05,28.72-10.11,43.48-3.32,23.73,1.51,47.14,4.94,70.46,1.17,8,2.64,15.95,4.44,23.76a124.86,124.86,0,0,1-2.82,67.77c-13.58,41.81-19.33,85.78-24.56,129.72a359.64,359.64,0,0,0,2.45,100.35,216.77,216.77,0,0,1,2.52,50.37c-2.17,28.82-.47,57.14,1.94,85.71,1.94,23,4.88,45.56,10.5,67.7,6,23.6,1.58,46.93-2.11,70.26-3.15,19.92-6.19,39.82-13.32,58.42Z"/><path class="cls-1" d="M332.83,0c2.69,13.53,4.18,27.62,8.32,40.48,10.2,31.68,9.26,62.5-1.37,93.55-4.86,14.18-8.92,28.75-13.41,43.11a204.62,204.62,0,0,0-9.55,57.45c-.55,29.08-8.5,56.23-15.23,83.67-4.56,18.64-10.21,37.16-8.13,56.92,4.49,42.6,11.46,84.45,26,124.23a344.69,344.69,0,0,1,13.42,49.34A97.12,97.12,0,0,1,327.89,603c-6.67,17.38-13.85,34.59-22.05,51a147.78,147.78,0,0,0-16,68.74c.12,15.08-.83,30.17-1.3,45.26h-6.82c.81-16.2,2.15-32.38,2.31-48.59a152.78,152.78,0,0,1,12.84-61c6.41-14.55,12.56-29.29,18.32-44.22,11.45-29.7,10.84-59.78,1.5-90.14-6.77-22-14.29-43.8-19.18-66.4-5.65-26.12-9.13-52.95-12.91-79.61-2.47-17.39,2.28-33.79,6.36-50.32,6.3-25.46,12.33-51.06,17.34-76.91,2.75-14.19,1.92-29.4,5-43.45,4.65-21.55,11.26-42.5,17-63.7,1.58-5.79,3.05-11.62,4.63-17.41a123.36,123.36,0,0,0-2.55-74.69C326.62,35,322.15,18.07,321.47,0Z"/><path class="cls-1" d="M357.82,768c.15-18.87-.52-37.82.73-56.59.9-13.46,7.82-24.6,14.2-35.65q15.75-27.27,30.67-55.21a88.86,88.86,0,0,0,10.08-50.42,212.26,212.26,0,0,1,7.65-78.58c4.45-15.35,4.44-31.5,3.7-47.56-.78-17.11-1.86-34.2-2.63-51.31-.92-20.42-6.09-39.44-13.64-57.53A118,118,0,0,1,400,274.79c2.4-20.4.74-40.52-3.18-60.42-5.43-27.56-3.45-54.11,9.22-78.29C422.12,105.32,427,70.77,431.62,36c1.59-12,3.05-24,4.58-36h7.95c-4.09,25.46-8.51,50.86-12.17,76.41-2.72,19-8.78,36.21-16.05,53.21a222.88,222.88,0,0,0-12.5,36.79c-3.75,16.06-.58,32.34,2.8,48.12a224.16,224.16,0,0,1,4.37,65.77,99.24,99.24,0,0,0,7.76,46.57,189.89,189.89,0,0,1,14.76,81.75c-.87,21.37-.2,42.85-1.63,64.15-.74,11.05-4,22-7.06,32.64a146.58,146.58,0,0,0-4.65,56.75c2.47,22.49-.16,43.62-10.66,62.94-8.95,16.45-17,33.75-27,49.22-14.27,22-19.55,46.4-17.92,73.53.4,6.73,1,13.43,1.57,20.15Z"/><path class="cls-1" d="M40.89,768c-.31-21.46-6.14-41.14-13.9-60.11-3.65-8.91-7.73-17.6-12-26.1-10.58-21-11.75-42.89-5.23-65.74,1.46-5.13,2.75-10.33,4.34-15.4A91.16,91.16,0,0,0,16,551.46c-5.33-22.32-4-43.93,2.75-65.67q15.9-51.42,30.55-103.37c8.07-28.41,7-56-7.53-81.63-.21-.38-.37-.79-.58-1.16-15.36-26.43-17-53.74-4-82.2,2.34-5.12,3.74-10.84,5.74-16.2,7.15-19.12,7.27-38.36,1.35-58-5.64-18.69-5.42-37.4-.12-56.38C48,73,51.05,58.76,53.86,44.52A84.6,84.6,0,0,0,51.12,0h8c7.26,24,2.29,47.18-3.3,70.3-2.3,9.52-5,18.91-7.13,28.5-2.65,12.08-1.79,24.15,1.27,36,.27,1.07.51,2.17.87,3.21,8.64,25,6.94,49.27-3.08,73.19-2.61,6.23-4.46,12.92-6.58,19.43a72.65,72.65,0,0,0,2.56,53,165,165,0,0,0,7.44,16c14.2,24.94,15.66,52.08,8.21,79.7-5.77,21.4-13.81,41.92-20.55,63-5.73,17.9-11.09,36-16.53,54a85.37,85.37,0,0,0-1.14,47.21,113.07,113.07,0,0,1-1.62,64.89C11.1,634.86,13.83,660,26.65,684c9.77,18.27,18.81,37.17,22.74,58.67,1.51,8.31,1.94,16.91,2.86,25.38Z"/><path class="cls-1" d="M154.49,0c-3,20.62-6.12,41.22-9.06,61.85-4.07,28.59-2.57,56.88,1.63,85.4,3.84,26.1,1.13,52.33-4.54,77.78-5.42,24.36-6.21,48.22-.72,72.73,8,35.83,5.63,72,.95,108.13-3,23.39-8.09,45.88-17.44,66.82-8.8,19.7-8.79,39.49-1.71,60,3.73,10.79,7.74,22,8.88,33.36,1.31,13,.22,26.5-1,39.62-1.6,16.53-1.21,32.72,4.7,47.77,14,35.58,10.36,71.62,3.3,108-.42,2.16-.57,4.4-.85,6.61h-6.81c5.41-28.82,9-57.75,2.25-87a127.69,127.69,0,0,0-6-19c-8.35-20.7-10.78-42.06-6.32-64.53,3.7-18.68,2.31-37.12-4.82-54.16-12.12-28.92-10.69-55.73,4.15-83.07,13.27-24.47,15.59-53.31,18.66-81.58,3.12-28.83,1.66-57.2-5.4-85-5.46-21.53-5.51-42.85-.77-64.7,5.31-24.53,8.61-49.53,6.18-75-.76-8-1.81-16.11-3.36-24-4.17-21.12-2.61-42.16,0-63.22s5.36-42.37,8.08-63.55A19.89,19.89,0,0,1,145.4,0Z"/><path d="M0,486.26V380.61c4.07-14.44,4.76-28.89,0-43.34V215.37c9.8-20,13.81-41.49,9.5-64.19-4.84-25.46-4.82-50.42,1.87-75.36,1.43-5.34,2.36-10.9,3.31-16.41C18.23,38.89,16,19.13,9.09,0H27.26c5.08,15.61,7.4,31.68,4.48,48.24C29.65,60.12,27.22,72,24.19,83.57c-5.07,19.42-6.73,38.9-1.78,58.58,6.29,25,2.77,48.56-6.75,71.4-2.95,7.06-5.67,14.26-8.61,21.33-8,19.33-8.06,38.55.24,57.81,3.45,8,6.75,16.13,10,24.27,8.21,20.66,9.31,41.64,3.89,63.8-4.33,17.67-6.53,36.06-10.09,54C7.65,452,3.71,469.11,0,486.26Z"/><path class="cls-1" d="M563.42,768c.91-21.39-1.67-42.22-6.36-62.85-6-26.53-6.39-53.38-2.67-80.51,4.69-34.28,4.46-68.83,1.71-103.26-1.88-23.51,2.41-44.54,12.84-64.45,9-17.19,17.17-35,25.6-52.64a101,101,0,0,0,7.78-66.61c-6.1-28.14-7.76-56-1.85-84.82,5.24-25.6,2.2-52.1,1.29-78.23-.41-11.94-1.1-23.87-1.46-35.82C599.53,114,593.33,91,584,69c-3.57-8.43-6.7-17.17-9.49-26a69.3,69.3,0,0,1,.27-43h8c-5.07,14.83-4.19,29.62.73,44.13a226.38,226.38,0,0,0,9.61,24.47c11,23.28,16.71,48.16,17.27,74.86.58,27.73,2.16,55.46,2,83.17-.09,16.35-2,32.82-4.32,49-2.79,19.3-1.94,38.27,1.4,57.12,4.76,26.79,2.12,51.94-9.73,75.62-7.85,15.68-14.89,32-23.25,47.22-11.12,20.29-16.27,41.91-14.09,66.07A512.1,512.1,0,0,1,561,623.57c-3.27,30,.12,58.71,6.57,87.57,4.17,18.64,6.41,37.89,9.52,56.86Z"/><path class="cls-1" d="M113.59,768a160.59,160.59,0,0,0-7.29-84c-3.79-10.32-8.17-20.34-12.56-30.32a76.37,76.37,0,0,1-4.42-50.5c5.69-22.73,4.11-44.31-4.77-65.62-10.27-24.63-6.93-48,6-70.18,8.71-15,18.75-29.25,23.12-47.08,10.51-42.95,15.63-86.05-.38-129-8.1-21.72-8.85-44-3.42-66.78,2.06-8.66,3.39-17.58,5.13-26.35,4.15-20.9,4-41.69-1.91-62.05S107.44,95.74,111,74.85c3.79-22.49,5.79-45.41,8.48-68.17A45.39,45.39,0,0,0,119.27,0h9.09c-3.71,29.88-7.91,59.7-10.88,89.69-1.09,11-1.1,23,1.59,33.45,8.65,33.43,7.37,66.39-.43,99.37a133.65,133.65,0,0,0,2.6,72.27c14.64,47.14,9.46,93.86-5.28,139.33-4.7,14.5-13.08,27.33-20.06,40.73-9.22,17.72-9.67,36.09-3.51,55.11,1.23,3.79,2.45,7.59,3.9,11.26a94,94,0,0,1,4.18,58c-4.77,19.81-3.58,39.08,5,57,16.86,35.12,21,72.43,14.93,111.8Z"/><path class="cls-1" d="M170.39,768a349.34,349.34,0,0,0,17.5-69.81c2.3-16.35,2.08-32.4-2.07-48.19-5-18.86-7.11-38.06-8-57.84C177,573.6,174.26,555,171,536.78a183,183,0,0,1-1.74-53.69c2-17.14,3.1-34.49,3.59-51.79,1.12-40.13,2-80.27,2.24-120.42.13-22.58-.68-45.13,4.43-67.21,1.76-7.61,2.82-15.47,4.89-22.95,8-29.09,6.89-58.43,3.84-88.36C184,89.82,183.16,47.22,196.47,6.14,197.14,4.05,198,2,198.79,0h8c-11.55,29.74-13.77,61.26-12,93.36,1,17.77,2.37,35.56,4.59,53.15,2.66,21.15,2.61,42.06-3.13,62.27-12.21,43-14.65,87.35-14.74,132.21,0,17.82-1.15,35.63-1.49,53.45-.2,10.37-.33,20.79.34,31.11,1.35,20.8,1.37,41.46-1.57,62.09-2.61,18.29-.68,36.32,2,54.47,2.56,17.51,3.51,35.34,5.76,52.92,2.11,16.44,4.24,33,7.74,49A145.75,145.75,0,0,1,196,699c-3.81,23.79-9.31,46.91-17.65,69Z"/><path class="cls-1" d="M519.12,0a132,132,0,0,0-3.19,58c1.85,10.83,3.3,21.76,5.3,32.55,3.87,20.89,3.09,41.71-.18,62.51a146.38,146.38,0,0,0,.33,50.41c3.74,19.8,4.23,39.8,2.94,59.92a109.19,109.19,0,0,0,8.34,49.79c3,7.06,5.7,14.25,8.43,21.44,7.27,19.18,7.64,38.39-.09,57.54-6.15,15.24-11.57,31-18.69,45.56C503.35,476.54,499.18,518,506,561.3c4,25.48,2.38,49.76-6.47,73.43a158.74,158.74,0,0,0-10.37,59.83c.54,22.11-2.25,43.61-7.25,64.81-.67,2.81-.95,5.75-1.4,8.63h-9.09c.93-5.75,2-11.46,2.76-17.25,2.19-17.57,5.31-35.1,6.09-52.77.95-21.7,3.52-42.67,11.45-62.31,9.66-23.92,11.71-48.56,7-74.49-7.34-40.61-2-79.29,13.37-116.39,7.86-19,15.17-38.35,22.38-57.73,5.82-15.65,5.53-31.65,0-47.38-3-8.74-6.41-17.34-9.92-25.83-5.36-12.92-9.34-26.38-9-40.86.71-26.56-.95-52.67-6.58-78.48-2.89-13.29-2.12-27,.71-40.27,5.53-25.88,5.54-51.57.91-77.73-3.44-19.41-5.53-39.27-1.81-59.12,1.11-5.9,3-11.6,4.55-17.39Z"/><path class="cls-1" d="M181.75,0c-6.87,19.57-9.61,40.2-11.34,61.14a452,452,0,0,0,1.83,89.71c3.19,27.5-.45,54.46-6.69,80.92A194.77,194.77,0,0,0,161.39,298c3.79,35.3,2.59,70.58-.25,106-2.26,28.1-4.37,56.05-11.2,83.26-3.9,15.48-2,31,2.72,45.8a187.51,187.51,0,0,1,8.59,69,136.52,136.52,0,0,0,5.4,48.61c9.32,30.57,4.59,60.48-2.71,90.27C161.71,750,159.16,759,156.76,768h-6.82c7-26.74,14-53.58,12.54-82a144.23,144.23,0,0,0-5.27-30.31c-5.08-18.54-7.22-37.19-5.32-56.62,2-20,.26-39.71-6.64-58.31-8.72-23.55-9.11-46.88-.93-70.86,8.31-24.38,8.63-50.66,11.48-76.32,3.88-34.95,2.73-69.73-2.13-104.44-2.23-16-2-31.92,1.77-47.61,9-37.87,10.66-76,6.11-115.16-4.58-39.48,0-78.71,8.31-117.24.65-3,1.12-6.08,1.66-9.13Z"/><path class="cls-1" d="M336.23,768c.26-14.42.73-28.84.72-43.25,0-21.45,6.39-39.84,17.07-56.84,9.73-15.5,18.74-31.67,27.64-47.88,9.16-16.68,13.41-35.18,12.78-55.2a388.14,388.14,0,0,1,4.13-72.77c2.13-13.53.66-26.91-1.83-40.24-3.08-16.5-5.48-33.18-8.81-49.6-3.45-17.05-6.76-34.27-11.75-50.72-7.34-24.23-9.82-48.41-5.31-73.73,3.11-17.51,4.37-35.36,1.76-53.14-4.67-31.8,1.24-61.4,14.51-88.49C403.66,102.39,410,65.83,412.19,27.67c.53-9.21.86-18.45,1.29-27.67h9.08c-1.39,12.49-3.09,25-4.13,37.48-2.95,35.92-11,69.72-26.24,101.26-12.39,25.62-16.41,53.56-11.51,83,3.14,18.86,2.28,37.8-.63,56.54-3.37,21.76-2,42.87,6,62.81,10.88,27,14.17,55.92,17.17,85.07.85,8.26,2.43,16.43,3.85,24.6a115.45,115.45,0,0,1-.75,43.61c-4.4,21.18-6.76,42.59-5.4,64.38,1.59,25.32-3.57,48.29-15.68,69.11-7.86,13.52-15.17,27.57-23.73,40.43-12.84,19.28-18.93,40.75-18.39,65.22.26,11.49,0,23-.07,34.5Z"/><path class="cls-1" d="M318.06,768c.34-16.46.85-32.92,1-49.38a101.6,101.6,0,0,1,14.54-52.41c8.56-14.3,16.88-28.82,25.07-43.43,12.29-21.95,17.84-46.15,16-72.53-1.63-23.34-2.41-46.88-5.69-69.91-2.12-14.88-8.28-28.91-12.23-43.48-10.13-37.29-17.6-75.31-15.74-114.78.8-17,4.93-33.69,6.9-50.64,1.49-12.9,3.6-26.16,2.54-38.93-2.55-30.91,4.49-58.92,14.94-86.34,4.92-12.93,10.17-25.69,14.84-38.75,10.11-28.31,9.51-58.08,7.71-87.93-.4-6.51-1.14-13-1.72-19.49h10.23c-.11,19.16,0,38.32-.37,57.47-.64,29.25-10.88,54.9-21.57,80.43-8.74,20.84-16.05,42.38-17.2,66a173,173,0,0,0,.42,19.58A216.6,216.6,0,0,1,354,282c-5.68,27.53-4.81,54.86.64,82.36,6.53,32.9,12.67,65.82,22,97.9,3.74,12.87,4,27.42,4.6,41.28.79,19.58.34,39.23.49,58.86.13,18.46-3.22,35.93-11.45,51.62-8.11,15.46-16.08,31.18-25.5,45.48-13.85,21-20.8,44-19.93,70.75.41,12.56-.67,25.19-1.07,37.78Z"/><path class="cls-1" d="M81.79,0c4.75,26.9-.36,52.66-7.53,77.73-6.48,22.68-6.86,44.42,1.06,66.56,6.55,18.3,6.1,36.86.2,55.43q-4.81,15.18-8.82,30.72a79.14,79.14,0,0,0,3.47,51.32,117.15,117.15,0,0,0,4.91,11.44C89.17,319,91.17,346.75,86,376.41c-3.59,20.68-9.62,39.78-19.24,57.39a295.33,295.33,0,0,0-25.09,60.49c-5.11,17.8-5,35,.88,52.15,6.06,17.65,7.12,35.58,2,53.6-7.71,27.33-3.35,52.13,8.78,76.36A486,486,0,0,1,75,726.86,90.81,90.81,0,0,1,79.51,768h-8c.19-24.64-6.11-47-16.46-68.06-4.69-9.53-9.54-19-14.1-28.58-9.38-19.78-12.42-40.81-6.33-62.59,6.44-23,6.39-45.4-.9-68.13-4.24-13.22-3.7-26.91-.2-40.54,6-23.42,13.94-45.82,24.66-66.69,12.7-24.72,20-51.39,22.15-80.23a93.5,93.5,0,0,0-7.77-45.72c-3.89-8.78-8-17.44-11.69-26.31a75.23,75.23,0,0,1-3-50.6c2.75-9.84,5.59-19.67,8.92-29.24,6.57-18.86,7.34-37.81.6-56.61-8-22.24-6.81-43.9-.6-66.57C71.47,61.34,74,43.6,76.06,26.05c1-8.4-1.38-17.35-2.22-26Z"/><path class="cls-1" d="M94.28,768c2.83-21.64-.32-42.37-7.92-61.94C80.57,691.15,73.81,676.74,67,662.43c-9.11-19.09-11.51-38.89-6-60C66.35,582,65.5,562,57.56,542.57,50,524,51.18,505,57.92,486.88c4.94-13.32,10.49-26.81,18-38.19,18.34-28,25.19-60.08,27.53-94.41a113.65,113.65,0,0,0-7.73-50c-1.76-4.49-3.29-9.14-5.3-13.47-10.8-23.22-11.45-47.2-4.3-71.94C88.35,211,90.27,203,92.29,195c4.16-16.5,4.84-33.3-1-49.11-9.61-26-8.21-51.42-1-77.74,6-22,8.91-44.79,6.29-68.11h8c1.76,29.57-4.39,57.8-10.39,86a90,90,0,0,0,1.71,45.9c5.09,16.67,9.24,33.61,6.28,51.58a284.48,284.48,0,0,1-6.56,30.77c-7.79,27.65-6.43,53.75,4,80.66C119.71,346.76,112,396.48,87.26,443.38,79,459,68.73,473.11,64.05,491.18c-4,15.57-4.77,31,.91,46.26.77,2.06,1.35,4.22,2.18,6.24A83.27,83.27,0,0,1,71,598.28c-6.33,23.76-3.26,45.51,7.31,66.78a388,388,0,0,1,17.87,43c6.77,19.12,6.73,39.58,6,60Z"/><path class="cls-1" d="M365.77,0c2.23,14.86,4.57,29.7,6.67,44.59,4.37,30.89-2.25,59.35-13.12,87.11-5.9,15.08-11.55,30.5-15.54,46.41-3.53,14.09-6.2,29-6.4,43.65-.33,23.87-2.14,47.21-7.79,70.12-14.66,59.45-8.17,116.8,12,172.89,9.88,27.5,17,55.88,18.57,86,1.06,21-1.51,41-10.35,59.4-6.77,14.06-13.22,28.54-21.41,41.38-14.73,23.07-22.44,48.07-21,77.28.66,13-.41,26.1-.69,39.16h-6.82c.55-15.77,1.61-31.54,1.53-47.3-.13-22.65,5.06-42.92,15.65-61.73,8.52-15.13,16.32-30.87,23.91-46.7,12.4-25.86,14.41-53.82,7.77-81.88-5.72-24.2-13.61-47.7-20.95-71.33-9.94-32-17-65-15.82-99,.81-22.46,5.77-44.89,10.24-66.94,4.37-21.57,8.42-43,8-65.33-.54-28.1,8-53.42,16.86-78.66,2.77-7.91,5.16-16,8.16-23.79,11.7-30.23,12.91-61.21,5.47-93.07C358.2,21.63,356.48,10.76,354.41,0Z"/><path class="cls-1" d="M539.56,0c-6.8,18.6-5.38,37.27-1,56.29,5,22,9.87,44,13.6,66.3,1.75,10.44.78,21.55.88,32.36.16,16.44-.43,32.94.42,49.32,1,18.15.92,36.11-2.33,53.88-4,21.58-.07,41.61,7.8,61,1.56,3.85,2.83,7.87,4.25,11.81,8.48,23.4,8.29,46.43-2,69.06-7.58,16.65-14.73,33.59-22.77,49.91-11.19,22.75-16.42,46.72-14.05,73.17,1.47,16.36,1.5,32.91,2.89,49.28,2,24-2.37,46.64-8.44,69.11-5.36,19.87-6.6,40.21-4.63,60.88a175.41,175.41,0,0,1-3.51,54.35c-.8,3.69-1.15,7.52-1.72,11.29H498.67c5.24-23.68,8.61-47.56,6.78-72.24-1.33-18,.13-35.89,5.83-52.59,10.5-30.74,11.05-62.12,7.5-94.45a347.89,347.89,0,0,1-1.36-49.3c.7-21.06,9-39.29,17.42-57.37,6.85-14.79,13.12-30,19.7-45,9.33-21.28,9.32-42.8,1.29-64.56-2.59-7-5-14.15-7.77-21-7.14-17.73-7.89-36.11-6.2-55.47,1.48-16.92.68-34.14.73-51.23.06-17.32-1-34.74.12-51.95,1.73-25.94-2.24-50.73-7.37-75.57C532.63,64.15,530,51,528.09,37.66c-1.87-13,.38-25.58,4.66-37.66Z"/><path class="cls-1" d="M528.21,768c4.29-20.09,6.16-40.38,3-61a198.18,198.18,0,0,1,3-75.71c5.59-24.06,6.18-48.47,4.71-73.17-1-16.2-1.48-32.44-2.12-48.67-.79-19.62,4.42-37.2,12.62-53.93,8.59-17.51,16.79-35.29,25.1-53,10.65-22.72,11.59-46.24,4-70.47-2.5-8-4.56-16.26-7.16-24.24-5.27-16.17-5.55-32.51-1.92-49.15,4.73-21.68,4.87-43.71,3.6-65.89-.53-9.22-1.12-18.54-.57-27.72,2-33.68-4.76-65.33-14.54-96.44-2.78-8.85-5.37-17.83-7.47-26.94A73.55,73.55,0,0,1,553.2,0H560c-6.51,20.8-3.58,40.74,3.63,60.41,7.83,21.33,14.5,43.12,17.32,66.31.52,4.23.78,8.52.9,12.8.72,23.67,2,47.35,1.77,71a287.78,287.78,0,0,1-4.32,46.87c-3.35,18.86-3.66,37,1.85,55.22,2.94,9.73,5.13,19.8,7.42,29.8,4.31,18.87,2.78,37.24-4.68,54.58-6.73,15.63-13.09,31.69-21.35,46.14C547.38,469.7,541.11,497.8,544,530.07c3.27,36.6,3.21,73.37-4.37,109.64-4.5,21.58-3.64,43.54.12,65.14C543.43,726,542.9,747,539.56,768Z"/><path class="cls-1" d="M0,486.26C3.71,469.11,7.65,452,11.07,434.78c3.56-18,5.76-36.35,10.09-54,5.42-22.16,4.32-43.14-3.89-63.8-3.23-8.14-6.53-16.26-10-24.27C-1,273.43-1,254.21,7.05,234.88c2.94-7.07,5.66-14.27,8.61-21.33,9.52-22.84,13-46.37,6.75-71.4-4.95-19.68-3.29-39.16,1.78-58.58,3-11.59,5.46-23.45,7.55-35.33,2.92-16.56.6-32.63-4.48-48.24h8c9.25,22.6,5.58,45.32.36,68-2.3,10-5,19.86-7.31,29.85A79.88,79.88,0,0,0,28.9,138c7.93,27.61,4.09,53.28-6.65,78.39-2.05,4.82-3.73,9.87-5.76,14.71-8.88,21.06-8.11,41.69,1.64,62.05,2.62,5.49,5,11.11,7.56,16.66,10.19,22.38,11.7,45.48,5.71,70-9.62,39.36-18.44,79-27.61,118.52-4.26,18.35-2.91,36.63.22,55C6.75,569.3,6.2,585,0,600Z"/><path class="cls-1" d="M1305.18,768q11.35-26.44,22.7-52.91a146.25,146.25,0,0,0,12-56.54,250.07,250.07,0,0,1,12.73-75.19c6.46-19.9,7-39.32-.46-59.08-5.85-15.42-5.39-32-5.18-48.52s-.06-33.4-1.28-50c-1.67-22.71,0-44.84,3.4-67.22,4.08-26.56,6.23-53.52,9.51-80.26,1-8.42,3-16.68,4.5-25v73.14c-1.73,9.86-3.32,19.76-5.21,29.58-4.2,21.81-6.92,43.65-5,66.22,1.73,19.9,2.4,39.93,3.31,59.92.61,13.56,2,26.85,6.86,39.33v54.18c-10.55,25.58-17.27,52.31-17.36,81.08-.07,19.68-3.43,38.46-10.86,56.15-7.71,18.33-15.27,36.74-22.9,55.11Z"/><path d="M1304,0h22.72c2.2,4.19,4.12,8.64,6.65,12.53a129.52,129.52,0,0,1,21.18,62.2c.81,10.88,2.77,21.76,8.52,30.92v44.7c-3.37-5.71-6.68-11.49-10.14-17.12a147.56,147.56,0,0,1-21.12-58.45c-2.59-19.5-9.18-37-18.24-53.45C1309.92,14.62,1307.2,7.13,1304,0Z"/><path d="M1312,768c7.63-18.37,15.19-36.78,22.9-55.11,7.43-17.69,10.79-36.47,10.86-56.15.09-28.77,6.81-55.5,17.36-81.08v36.57c-5.55,13.54-6.31,28.2-6.51,42.83-.24,17.76-1.78,35.09-7.89,51.53q-9.54,25.67-18.87,51.44c-1.18,3.25-2.06,6.64-3.08,10Z"/><path class="cls-1" d="M1304,0c3.16,7.13,5.88,14.62,9.57,21.33,9.06,16.43,15.65,34,18.24,53.45A147.56,147.56,0,0,0,1353,133.23c3.46,5.63,6.77,11.41,10.14,17.12V172c-10.83-19.7-22.54-38.83-32.16-59.34-5.12-10.93-7.16-24.12-9.68-36.55a176.12,176.12,0,0,0-17-48.35c-4.73-8.9-8.55-18.5-12.77-27.78Z"/><path class="cls-1" d="M9.09,0C16,19.13,18.23,38.89,14.68,59.41c-.95,5.51-1.88,11.07-3.31,16.41-6.69,24.94-6.71,49.9-1.87,75.36,4.31,22.7.3,44.19-9.5,64.19V193.69c5.42-17.61,4.32-35.21,0-52.82V90.75C2.32,76.46,5.47,62.27,6.74,47.84A86.84,86.84,0,0,0,0,5.42V0Z"/><path d="M1363.11,521.48c-4.82-12.48-6.25-25.77-6.86-39.33-.91-20-1.58-40-3.31-59.92-2-22.57.76-44.41,5-66.22,1.89-9.82,3.48-19.72,5.21-29.58Z"/><path class="cls-1" d="M1363.11,105.65c-5.75-9.16-7.71-20-8.52-30.92a129.52,129.52,0,0,0-21.18-62.2c-2.53-3.89-4.45-8.34-6.65-12.53h12.5l23.85,43.34Z"/><path d="M1363.11,642v74.5a55.59,55.59,0,0,0-2.78,6.39c-4.43,15-8.76,30.05-13.12,45.08h-13.63c6.22-18.33,12.11-36.84,18.77-54.94a156,156,0,0,0,9.71-57.07C1362,651.35,1362.74,646.68,1363.11,642Z"/><path class="cls-1" d="M1363.11,642c-.37,4.65-1.12,9.32-1,14a156,156,0,0,1-9.71,57.07c-6.66,18.1-12.55,36.61-18.77,54.94h-6.82c1-3.33,1.9-6.72,3.08-10q9.38-25.75,18.87-51.44c6.11-16.44,7.65-33.77,7.89-51.53.2-14.63,1-29.29,6.51-42.83Z"/><path class="cls-1" d="M0,696.21c8.66,17.93,11.59,37.94,14.73,57.87.73,4.65,1.54,9.28,2.31,13.92H0Z"/><path d="M1363.11,43.34,1339.26,0h23.85Z"/><path d="M0,5.42A86.84,86.84,0,0,1,6.74,47.84C5.47,62.27,2.32,76.46,0,90.75Z"/><path class="cls-1" d="M1347.21,768c4.36-15,8.69-30.08,13.12-45.08a55.59,55.59,0,0,1,2.78-6.39v20.32L1355.16,768Z"/><path d="M1355.16,768l7.95-31.15V768Z"/><path d="M0,140.87c4.32,17.61,5.42,35.21,0,52.82Z"/><path class="cls-1" d="M0,337.27c4.76,14.45,4.07,28.9,0,43.34Z"/></svg>