<svg id="Calque_1" data-name="Calque 1" xmlns="http://www.w3.org/2000/svg" viewBox="0 0 1366 768"><defs><style>.cls-1{fill:#f7e61e;}</style></defs><path class="cls-1" d="M1366,376.16v14.56c-13.42.93-27,1.27-40.25,2.93-26.6,3.31-53,7.8-79.59,10.93-24.43,2.86-49.1,3.57-73.53-.48-28.35-4.71-38.89-17.12-33.11-39.22,3-11.65,7.55-23.08,10.14-34.79,4.52-20.52,8.58-41,16-61.13,5.4-14.54.57-28-11.8-39.7-11.3-10.72-25.68-17.56-42.68-20.94-28.1-5.58-56.42-4.31-84.63-.68-46.4,6-90.14,18.53-132,34.9-37.11,14.51-72.8,31.33-110.37,45-62.66,22.83-123,48.74-182.46,76.33C562.59,382.06,521.6,397.64,478.29,409c-22.09,5.79-44.52,10.09-68.22,7.57-20-2.14-33.33-11.54-35.71-27.22-1.45-9.56-1.19-19.32-1.08-29,.29-24.61-12.58-40.38-41.75-49.11-13.45-4-27.56-6.66-41.23-10.28-31.91-8.43-56.21-23.56-68.57-49a89,89,0,0,0-5.28-8.54C208.2,230.51,195,222.87,177,220.33c-22.93-3.23-45.29-.7-67.39,4.17-34.38,7.59-64.9,21.46-95,36-4.21,2-9.66,2.49-14.54,3.68V241.82c6.18-1.66,12.81-2.68,18.47-5.11,16.63-7.12,32.43-15.5,49.35-22.13,42.42-16.63,86.9-26.35,135-22.08,31.78,2.83,45.18,12.79,47.8,37.83,2.49,23.88,18.61,39.1,45.48,48.42,2.59.9,5.23,1.76,7.93,2.44,14.39,3.66,29,6.8,43.16,11,25.44,7.53,43.06,21.2,47.67,42.86,2.17,10.21,1.77,20.79,2.1,31.21.74,23.09,15.5,35,44.9,34.27a188,188,0,0,0,38.33-5c55.31-13.17,105.93-34,153.22-60,30.56-16.77,61.85-32.39,96.16-44.19q53-18.24,105.09-38.07c38.1-14.55,75.64-30,115.72-41.1,50.33-13.91,101.47-24.19,155.54-19.59,39.51,3.37,68.74,19.1,86.87,46.84,12,18.32,8.75,37.17.58,55.9-8.29,19-17.3,37.84-24.22,57.15-7.2,20.1,2.87,31.86,28.95,36.23,27.29,4.56,54.33,1.46,81-3.21C1307.74,380.46,1336.57,376.74,1366,376.16Z"/><path class="cls-1" d="M0,316.83V290c4-1,8.24-1.63,11.79-3.23,28.22-12.66,56.39-25.41,88-32.17,37.66-8.06,72.15-5.95,98.39,20.27,25,25,57.61,40.4,96,49.18a181.44,181.44,0,0,1,31.3,10.36c13.6,5.89,22.13,15.33,23.24,27.78,1,11.33.65,22.72,1.26,34.07C351,414,362,426.31,381.14,429.5a160.43,160.43,0,0,0,31.7,1.92c27.05-1,52.36-7.84,77.21-15.75,46.85-14.91,91-34.05,135.7-52.49,53.06-21.92,106.85-42.75,159.94-64.62,35.87-14.78,70.62-31.27,106.71-45.7,49.86-19.94,101.92-35,158.59-37.3,20.51-.85,40.79.29,59.84,7,24.06,8.51,34.46,24.83,29.37,45.13-3.88,15.49-8.11,30.93-11.12,46.53-2.13,11-2,22.28-3.74,33.37-1.49,9.78-4.3,19.43-6.14,29.18-3.06,16.21,4.91,27.43,24.4,33a162.9,162.9,0,0,0,29.58,5.42c39.3,3.48,77.84-1.41,116.39-6.93,25.3-3.62,50.94-5.77,76.43-8.58V412c-16.4,1.75-33,2.73-49.18,5.4-51.9,8.57-104.1,14.16-157.17,10.06a256.3,256.3,0,0,1-44.72-7.86c-16.27-4.26-24.74-14.95-24.67-28,.13-22.15.9-44.4,3.8-66.41,2-15.62,8.17-30.89,12.28-46.35,6.85-25.79-5.17-40.42-37.92-46.09-26.32-4.56-52.33-1.76-78.05,3-47.21,8.66-90.57,24.79-132.57,43.37C820.24,295.67,783.34,313.3,745,328.74c-54.14,21.81-109.24,42.15-164.08,62.86-38.81,14.66-77.53,29.53-116.94,43.13-32.41,11.18-66.89,15.93-102.43,15.42-13.67-.2-23.61-4.85-29.44-14.58-2-3.35-4.21-6.84-4.89-10.44-2.65-14.15-5.08-28.33-6.92-42.56-1.9-14.62-10.89-25.14-27.47-31.66a121,121,0,0,0-14.36-4.81c-28.44-7.28-54.25-18.48-78.54-32q-14.2-7.94-28.93-15.27a116.32,116.32,0,0,0-42.24-12.36c-26-2.28-50.38,3-73.95,10.68C36.28,303.15,18.26,310.22,0,316.83Z"/><path class="cls-1" d="M0,227.27v-19c8-2,16.78-2.9,23.84-6.14,25.2-11.59,50.73-22.54,78.4-30,46.3-12.55,93.56-18.68,142.44-11.93,19.57,2.71,38,7.93,53.54,18.13,13.14,8.63,16.15,17.08,11,29.83-.57,1.42-1.16,2.83-1.81,4.23-4.61,9.8-3.16,19.32,6.1,26.52,8.1,6.3,17.88,11.53,27.79,16s21.09,7.57,31.62,11.4c26.6,9.68,43.9,25.76,51.24,48,3.37,10.22,5.18,20.79,6.95,31.29,2.42,14.36,9.7,23.2,23.81,25.63,7.5,1.28,15.83,2.14,23.16.89,17-2.91,34.14-6.22,50.35-11.13,43.23-13.08,80.59-33.58,114.51-58.25,23.07-16.79,50-28.5,79.61-37,32.68-9.34,64.81-19.86,97.12-30,46.58-14.6,92.58-30.47,139.8-43.64,49.49-13.81,100.62-22.31,153.87-18.65,32.93,2.27,61.26,12,84.33,30.84,30.62,25,46,54.44,40.24,89.42-1.92,11.76-6.13,23.29-9.21,34.93-4.83,18.25,3.14,27.68,26.78,29.68a149,149,0,0,0,33.85-.89c25.41-3.76,50.78-7.07,76.71-7v17.92c-24.83,2.54-49.78,4.53-74.46,7.79s-49.27,7.29-74.66,4.61c-26.61-2.81-37.28-14.75-30.55-35.14a77.25,77.25,0,0,1,4-10.12c5.18-10.4,10.86-20.65,15.78-31.12,7-14.9,10.76-30.49,6.64-46.12-9.37-35.51-37.66-58.4-81.13-68.77-35.57-8.49-71.8-4.9-107.63.44-44.88,6.7-87.47,18.93-129,33.63-51.15,18.12-101.61,37.54-153.44,54.36-38.5,12.49-74.34,27.73-106.91,48C598.16,348.65,557.4,365.58,514.21,379c-21.42,6.64-43.31,12.14-66.75,11.65-21.42-.45-33.89-9.47-36.23-26.23a184.73,184.73,0,0,1-1.44-19.51c-1.08-32.71-20.42-53.9-59.51-65.09-14-4-28.33-7.43-41.87-12.24-23.45-8.34-43.19-23.37-35.67-52.09,3-11.56-2.36-21.18-15.41-27.2a108.11,108.11,0,0,0-23.33-7.9c-33.15-6.81-66.25-4.15-99.15,1.6-40.77,7.14-77.34,21.75-112.54,39C15.74,224.14,7.48,225.21,0,227.27Z"/><path class="cls-1" d="M0,362.73V339.22c15.17-4.7,30.33-9.44,45.53-14.08,45-13.74,89.18-13.9,132.11,5.15,30.11,13.35,60,26.93,92.48,36.69,13.4,4,22.18,12.26,25.76,23.13s5.33,21.9,8.77,32.7c3.77,11.85,7.39,23.86,13.24,35.11,4.89,9.4,15.53,12.5,28.29,10.86,52.11-6.69,102.27-18.18,149.64-36.92,46.54-18.41,92.77-37.41,140.25-54.2,75-26.53,149.14-54,219-88.51,44.81-22.14,93.24-38.9,146.19-45.69,19-2.44,38.17-3.13,57,1.57,19.81,5,30.13,14.92,28.6,31.09-1.2,12.67-4.85,25.32-8.91,37.67-7.61,23.12-15,46.17-13.67,70.35,1.25,23.43,16.79,39.94,45.58,45.41A363.82,363.82,0,0,0,1161,435.3c35.75,1.62,71.57.9,107.07-3.18,32.72-3.77,65.33-8.17,98-12.29v13.43c-1.88.18-3.76.32-5.63.56-24,3.11-47.93,7.22-72.11,9.15-61.42,4.92-123,6.06-184.44.2-26.21-2.5-50.74-8.92-71.12-23.11-14-9.76-18.61-21.18-11.56-35.1q9.08-17.88,18.22-35.75c8.27-16.26,15.76-32.65,18.78-50.17,3.55-20.66-8-34.32-33.7-38.34-20-3.11-39.63-.83-59,3-43.62,8.62-83.58,24-121.45,42.59-51,25-103.46,47.33-159.22,65.12-37.91,12.09-75.78,24.67-112,39.53-76.91,31.52-155.73,59.55-236,85.13-1.76.55-3.53,1.11-5.34,1.53-11.87,2.76-21.93.43-28.56-7.77a53,53,0,0,1-9.46-16.69c-4-12.6-6.34-25.55-10.32-38.17-6.32-20.07-16.73-38-42.59-47.53-19.71-7.29-38.88-15.46-58.34-23.17-27.66-10.95-56.51-18.21-88-17.09-21.42.76-42.14,4.45-62.65,9.17C21.07,358.76,10.49,360.62,0,362.73Z"/><path class="cls-1" d="M0,647.09V623.58a21,21,0,0,0,3.49-.31c37.45-9.33,74.19-6.58,109.34,6,19.76,7.06,38.25,16.38,57,25.14,40.56,19,84,30.67,131.28,32.89,59.22,2.78,117.27-3.32,174-16.38,84.83-19.53,169.17-40.38,256.8-51.32,35.48-4.43,70.49-11.24,106-15.34,30.59-3.53,59.62.5,85.45,16a92.91,92.91,0,0,0,33.9,11.89,273,273,0,0,0,54.37,2.07c34.4-2.32,68.56-6.79,102.88-10a379.1,379.1,0,0,1,84.31,1.15c36.63,4.81,73.15,10.19,109.9,14.3,18.91,2.12,38.21,2,57.33,2.93v23.51c-20.36-.72-40.77-1-61.07-2.25-44.14-2.82-88.33-5.4-132.29-9.53-47.91-4.5-95.45-3.28-143.16,1.11-29.86,2.74-59.82,5.13-89.82,6.37-28.64,1.17-57-1.29-82.53-13a121.56,121.56,0,0,0-52.33-10.68q-38.71.41-77.41,2.13a940.61,940.61,0,0,0-170.92,23.22C493.62,678,430.92,692.94,365.07,697c-37.27,2.28-74.26,1.76-111.12-3.44-38.12-5.38-73.5-16.78-108-30.15C99.55,645.36,51.31,637.8,0,647.09Z"/><path class="cls-1" d="M0,191.44V175.77c2.81-.27,5.88,0,8.37-.89,12.34-4.17,24.65-8.44,36.76-13,64.78-24.57,132.28-38.29,204.73-30.84,43.44,4.47,81.54,18.73,114.17,41.71,11.26,7.94,18.89,17.94,20,30,1.31,14.06,8.78,25.15,22.18,34.34q35.43,24.3,53,58.75c3.18,6.22,6.32,12.47,9.88,18.55,7.4,12.63,19.67,19,37.8,18.31,15.5-.59,29.59-4.67,43.39-9.69,26.81-9.73,48.06-25.07,67.72-41.93,28.47-24.42,62.18-42,102.79-51.84,78.89-19,157.43-38.89,236.26-58,52.24-12.69,105.33-21.63,160.55-18.92,33.44,1.63,64.26,9.19,90.36,26.24,32.83,21.45,55.36,48.78,71.52,79.56,5.87,11.18,10.88,22.68,17.44,33.6,7.44,12.38,20.61,17.36,37.93,16,10.36-.82,20.76-1.36,31.15-2v29.11c-17.88,1.45-35.73,3.14-53.65,4.24-10.08.62-20.38,1.06-30.36.13-14.43-1.34-21.7-8-22.89-19.37a96.09,96.09,0,0,1-.11-15.08c1.24-23.06-2.55-45.51-15.44-66.38-20.65-33.44-50.41-59.6-97.76-69.9-31.85-6.93-64.32-5.81-96.66-2.25-43.27,4.75-85,14.42-125.88,26.24C858.86,211,794.9,230.59,729.86,247.66c-40.67,10.67-75.71,26.83-105.33,50.86-25.08,20.33-54.24,36.06-87.53,46.89-18.44,6-37.23,11.13-57.72,9.7-14.21-1-23.89-6.72-28.16-17.52-2.24-5.68-4.14-11.45-5.79-17.25-9.06-31.83-29.37-57.06-67.39-72.21a126.26,126.26,0,0,1-18.49-9.39C340.78,227.45,339.4,219.46,345,206c4.09-9.87,1.29-18.94-7.2-26.62a97.69,97.69,0,0,0-16.63-12.13c-29.07-16.76-62.43-23.84-97.85-24.93-58.47-1.79-113.43,9.25-166,29C38.43,178.34,21.78,189.46,0,191.44Z"/><path class="cls-1" d="M0,693V670.6c22.2-.54,44.46-2.17,66.57-1.37,31.9,1.15,62.31,8.68,92.17,17.2,63.94,18.23,129.79,25.05,197.53,21a912.29,912.29,0,0,0,140.12-19.62c60.66-13.21,121.39-25.88,185-26.75,34.28-.46,68.34.39,101.38,8.08,41.07,9.55,82.83,14.27,125.56,12.37q44.31-2,88.5-5.67c54.37-4.47,108.69-4.24,163.24-1.83,68.58,3,137.28,4.51,205.93,6.67v22.39c-9.47-.19-18.93-.42-28.4-.56q-93.86-1.34-187.71-2.65c-39.82-.54-79.65-1.91-119.44-1.31-51.41.79-102.76,3.76-154.16,4.65-30,.52-60.26,0-90.16-2.19-40.75-3-81.22-8.28-121.91-11.87-27.83-2.47-56-3.17-83.7.3-32.19,4-64.23,8.93-96.11,14.28-48.91,8.22-98.11,14.44-148.14,16.13-63,2.12-124.64-4.33-185.7-16.1C101.14,694.23,51.14,688.3,0,693Z"/><path class="cls-1" d="M1366,600.07v28c-3.31-.15-6.68,0-9.92-.49-32.37-4.43-64.91-8.27-97-13.62-38.71-6.44-77.48-10.57-117-7.2-34.34,2.93-68.59,6.53-102.93,9.44-28.67,2.43-56.57-.2-81.74-12-28.44-13.27-59-20.88-91.6-23.87s-64.1-1.64-94.43,9.82a429,429,0,0,1-51.58,15.71c-54.25,13-109,24.74-163.16,37.91C494,659,431.89,675.56,365.83,678.94c-36.53,1.87-72.87,1.38-108.71-5.54-34.93-6.74-64.92-21-94.16-36.86C143.49,626,124,615,102.82,607c-33.18-12.56-68-15.3-102.82-2.43V581a12,12,0,0,0,2.67-.58c18.32-9,38.3-9.9,59-7.57,19.49,2.2,36.7,9,52.43,17.67,26.17,14.45,51.82,29.51,77.29,44.72C227.67,657,268.89,667.54,314,669.35a581.38,581.38,0,0,0,129.68-9.55c51.39-9.56,101.31-22.87,150.77-37.21,25.94-7.52,51.47-16,76.69-24.92,16.19-5.73,27.46-15.56,31.83-29.74,3-9.58,11.65-15.3,23.3-17.87,6.77-1.5,14-2.8,20.95-2.47,19.58.93,39.23,2,58.6,4.35,55.17,6.61,110.2,14.16,163.36,27.93,45.57,11.8,91.57,13.22,138.86,8.42,32.09-3.26,64.65-4.89,97-5C1259.49,583.13,1312.42,593.9,1366,600.07Z"/><path class="cls-1" d="M0,729.94V708.66c3-.36,6-.87,9.06-1,46.93-2.73,93,2.86,139.22,8.21,38.6,4.47,77.26,9.4,116.12,11.43,72.69,3.79,144.63-2.78,216.07-13.5,26.22-3.93,52.68-7.52,79.24-9.27,49.3-3.24,98.51.6,147.53,4.63,45.3,3.72,90.65,6.39,136.19,5.8,39.33-.5,78.64-2.35,118-2.71,57.34-.53,114.7-.46,172-.29,77.52.24,155,.81,232.55,1.23v22.39c-123-.43-246-1.71-369.06-1-128.47.69-256.89,1.83-385.24-4.23-30-1.41-60.26-1.88-90.23-.5-45.58,2.1-91,6.24-136.51,9.43-49.88,3.49-99.89,4.49-149.83,1.62-55.71-3.21-111.28-8-167-11.13C45.54,728.4,22.72,729.77,0,729.94Z"/><path class="cls-1" d="M0,162.33V148.9c7.94-1.71,16.33-2.62,23.74-5.25,48.14-17.08,97.72-29.86,150.54-34.33,35.89-3,71.39-2.41,106.5,4.46,43.33,8.48,81.68,25.44,119.15,43.79,19.54,9.57,34.59,22.53,45.83,38.29,7.41,10.4,14.49,21,22.45,31.11,10.06,12.82,19.76,26,31.65,37.71,14.47,14.26,33.79,16.9,55,9.44a82.05,82.05,0,0,0,17.07-7.92c11-7.09,21.8-14.41,31.86-22.28,48-37.55,105.88-60,172.36-67.86,63.42-7.51,126.36-16.42,188.51-29,50.74-10.28,102.11-17.85,154.95-16.07,23.79.8,47,4,69.31,10.68,33.4,10.06,59.67,27.72,83.84,47.84,15.94,13.28,32.12,26.42,49.06,38.88,12.14,8.93,26.74,14.12,44.18,11.2V281c-4.26.07-8.59-.23-12.77.27-14.06,1.68-25.81-1.78-35.27-9.8A139.26,139.26,0,0,1,1304,257.38c-17-19.26-33-39.17-51-57.84-36.12-37.43-84.51-56-144.55-56.48-46.62-.38-91.79,6.12-136.5,15.53-45.62,9.59-91.14,19.47-136.73,29.15-39.45,8.37-79.19,16-118.34,25.13-35.66,8.36-67.36,22.74-93.64,43.88-10.77,8.66-21.37,17.48-32.47,25.87-16.41,12.41-34.71,22.54-57.33,26.8-21.23,4-36.25-.4-48.82-14.45-3.53-3.94-6.41-8.26-9.55-12.42-9.77-13-18.79-26.37-29.47-38.86-13-15.21-25.17-30.59-33.65-47.78-6-12.22-16.92-21.93-30-30-20.78-12.86-43.59-23.08-67.71-31.48-54.8-19.08-111.58-19.09-169.2-10.65-41.22,6-80,17.63-117.58,32C19,159,9.21,160.2,0,162.33Z"/><path class="cls-1" d="M0,406.39v-19c13.8-2.49,27.62-4.92,41.4-7.48C85,371.77,128,372.23,169.18,387.5c20.54,7.61,40.45,16.29,60.6,24.54,14,5.71,24.69,14.18,30.58,25.56,5.23,10.1,8.85,20.74,12.87,31.21,5,13,8,26.55,14.8,38.88,10.64,19.34,32.2,22.71,53.3,9.82,1.49-.92,2.86-2,4.43-2.81,11.78-6.19,23.08-13.11,35.51-18.37,35.86-15.17,72.27-29.55,108.3-44.47,60.54-25.08,121.1-50.09,185.17-69.32,55-16.5,107.83-36.37,157.73-61.1C863.55,306,896,292.53,930.86,283c22.5-6.15,45.36-10.43,69.51-8.79,23.26,1.57,36.77,12.81,37,31a65,65,0,0,1-9.7,35.19c-11.77,19.27-24.78,38.08-37.74,56.89-13.87,20.11-10.8,27.19,15.89,36.56,33.81,11.86,69.5,17.06,106.12,18.23q50.77,1.63,101.65,1.22c29.81-.29,59.68-1.36,89.37-3.39,21.13-1.45,42-5.07,63-7.72v14.55c-28,2.25-55.91,5.29-84,6.5-25.53,1.11-51.2.51-76.79.17-70.07-.95-140.36,1.88-210-6.75-15.37-1.9-30.94-3.74-45.75-7.32C934,445.62,930,436.07,937.92,425c4.75-6.6,11.12-12.49,16.91-18.61,12-12.69,25-24.88,35.91-38.11,10.76-13,17.71-27.56,18.62-43.45s-8.21-26.37-26.71-29.94c-14.18-2.73-28.26-1.22-42.19,1.27-31.72,5.67-60.62,16.78-88.79,29.11-40.56,17.76-81,35.72-124,49.68-37.8,12.28-76.29,23.39-113.42,36.82-73.67,26.65-145,56.69-211.36,93.76-17.07,9.54-34.48,18.41-47.08,31.94-2.47,2.66-5.91,4.86-9.25,6.91a41.9,41.9,0,0,1-31.32,5.49c-22.11-4.42-36-16.1-44.38-31.92a151.08,151.08,0,0,1-11.8-29.78c-7.15-25.45-21.86-45.57-51.51-59.92-53.84-26.07-110-38.09-172.72-26.49C23.4,403.88,11.62,404.88,0,406.39Z"/><path class="cls-1" d="M1366,172.41v39.18c-18.39,1.67-34.14-3.69-48.13-12.22-14.4-8.78-28.5-18-41.92-27.66-47.62-34.45-103.71-51.09-168.22-50.64-43.29.31-85.82,5.52-127.91,12.87-66.64,11.64-133.73,20.22-202,23-33.35,1.38-65.27,8-95.22,20.33-30.41,12.52-58.21,27.91-85.15,44.48a233.91,233.91,0,0,1-34.89,18.13c-19.28,7.77-37.32,4.74-52.47-7.43A85.86,85.86,0,0,1,498,220.81c-6.39-7.62-12.25-15.52-18.24-23.34A148.58,148.58,0,0,0,415,148.57c-16.92-6.71-34-13.27-50.59-20.38-73.92-31.58-152-37.44-233.51-24.44-36.8,5.87-71.95,15.54-106.93,25.89C16.29,131.9,8,132.81,0,134.34V119.79c6.69-.93,13.63-1.25,20-2.9C71.52,103.59,123.23,91.25,177.75,88,226.7,85.13,275,87.34,321,101.47c38.32,11.75,75.83,25.15,113.74,37.76a197.73,197.73,0,0,1,62.78,34c8.09,6.56,16.25,13.06,24.64,19.37,11.59,8.71,25.85,11.69,40.78,8a210.35,210.35,0,0,0,38.09-13.26c22.25-10.29,43.62-21.73,65.4-32.64,16.1-8.07,33-15.3,52.1-17,28.2-2.43,56.57-4.81,84.88-4.86a1091.84,1091.84,0,0,0,140.67-9c51.54-6.78,102.93-14.55,155.38-15.8,40.08-1,79.33,2.5,117.22,13.58,30,8.78,56.67,22.34,83.85,35.22C1320.67,166.43,1341.54,174.15,1366,172.41Z"/><path class="cls-1" d="M1366,118.67V154.5c-19.39,1.2-37.64-2.15-55.08-8.62-10.71-4-21.55-7.77-32-12.15-48-20.14-98.77-31.9-153.33-32.88-43.5-.79-86.46,3.73-129.41,8.31-29.76,3.18-59.49,6.58-89.31,9.39-36.83,3.48-73.81,2.29-110.79,1.88-25.07-.28-50.2.49-75.26,1.54-23.5,1-44.2,8.4-63.92,18.36-21.28,10.75-42.87,21.29-65.35,30.35-22.85,9.21-45.91,7.29-67.24-4.44-3.88-2.13-7.91-4.1-11.81-6.23-20.1-11-41.06-20.64-64-27.56-30.48-9.18-61.15-18-91-28.32-66.54-22.9-135.57-28.86-207-21.17-37.1,4-73.19,11.39-109.15,19.37-13.56,3-27.5,5-41.27,7.38V95.16c4.66-.59,9.37-1,14-1.8,52.61-9,104.69-20.1,158.75-23.25C226.42,67,279.61,68.82,330.38,83.53c60.88,17.64,122.62,32.76,185.25,45.88,22.1,4.63,44.15,8.62,67.2,5,19.76-3.07,36.56-11,52.68-20,19.61-11,41.43-17.87,65.36-18.09,33.59-.31,67.2,1.23,100.81,1.53,41.68.37,83.46,1.77,125,0,52.91-2.25,105.59-7.55,158.44-10.9,39.83-2.52,79.72-1.44,118.74,5.51,30.6,5.45,60.59,13,90.81,19.72C1318,117.45,1341.46,121.85,1366,118.67Z"/><path class="cls-1" d="M0,78.37V61.57c10.83-.82,21.71-1.36,32.48-2.53,52-5.66,103.91-11.95,156.51-13.61,45-1.41,89.46,1,133.3,9,34.76,6.34,69.06,14.42,104,19.74,46.17,7,92.57,5.85,137.63-5.58C609.7,57,656,49.75,704.26,52.65,726.45,54,748.59,55.88,770.79,57c31.68,1.6,63.37,3.32,95.09,3.86q60.75,1,121.55.16c37.18-.59,74.32-2.57,111.48-3.82,68.71-2.32,136.53,6.1,204.7,10.33,20.66,1.28,41.59-.16,62.39-.35V97.4c-33.4,1.54-66.12-2-98.38-8.5-79.77-16.09-160.62-16.66-242-11-31.14,2.17-62.36,4-93.59,4.85-69.76,2-139.23-2.58-208.68-7-40.76-2.61-79.89,1.46-116.25,17.12-20.48,8.82-42.52,12.61-65.62,12.29-57.69-.79-113.82-8.36-168.18-24C323.88,66.91,273.12,57.9,220.17,57.39c-54.76-.54-108.47,6-162.09,13.66C38.79,73.8,19.36,76,0,78.37Z"/><path class="cls-1" d="M0,43.66V25.75q77.36-3.45,154.72-6.92c71-3.3,141.63.17,211.9,8.38,48.76,5.71,97.22,4.29,145.76-1.84,29.9-3.78,59.93-7.18,90.06-9.49C647,12.47,691.5,15.48,736,17,804,19.25,872,22.43,940,23.15c101.94,1.07,203.91.36,305.87.39q60.09,0,120.18,0V48.14c-30.57-.22-61.16,0-91.7-.78-44.53-1.2-89-4.07-133.53-4.56-43.35-.47-86.74,1.63-130.12,1.74q-74.32.2-148.65-1.25c-34.33-.71-68.62-2.84-102.92-4.51-30.74-1.5-61.43-4-92.19-4.71-44.83-1.08-88.57,5.79-132,13.61-49.63,8.93-99.25,10.14-149.35,2C341.76,42.48,298,35.19,253.14,33.23c-58-2.53-115.54,1-173.13,5.34C53.38,40.58,26.67,42,0,43.66Z"/><path d="M1366,399.67c-25.49,2.81-51.13,5-76.43,8.58-38.55,5.52-77.09,10.41-116.39,6.93a162.9,162.9,0,0,1-29.58-5.42c-19.49-5.53-27.46-16.75-24.4-33,1.84-9.75,4.65-19.4,6.14-29.18,1.7-11.09,1.61-22.36,3.74-33.37,3-15.6,7.24-31,11.12-46.53,5.09-20.3-5.31-36.62-29.37-45.13-19-6.74-39.33-7.88-59.84-7-56.67,2.35-108.73,17.36-158.59,37.3-36.09,14.43-70.84,30.92-106.71,45.7-53.09,21.87-106.88,42.7-159.94,64.62-44.66,18.44-88.85,37.58-135.7,52.49-24.85,7.91-50.16,14.79-77.21,15.75a160.43,160.43,0,0,1-31.7-1.92C362,426.31,351,414,350.07,396.22c-.61-11.35-.25-22.74-1.26-34.07-1.11-12.45-9.64-21.89-23.24-27.78A181.44,181.44,0,0,0,294.27,324c-38.44-8.78-71.07-24.22-96-49.18C172,248.61,137.49,246.5,99.83,254.56c-31.65,6.76-59.82,19.51-88,32.17C8.24,288.33,4,288.91,0,290V264.21c4.88-1.19,10.33-1.64,14.54-3.68,30.13-14.57,60.65-28.44,95-36,22.1-4.87,44.46-7.4,67.39-4.17,18,2.54,31.24,10.18,39.49,23.08a89,89,0,0,1,5.28,8.54c12.36,25.46,36.66,40.59,68.57,49,13.67,3.62,27.78,6.26,41.23,10.28,29.17,8.73,42,24.5,41.75,49.11-.11,9.67-.37,19.43,1.08,29,2.38,15.68,15.73,25.08,35.71,27.22,23.7,2.52,46.13-1.78,68.22-7.57,43.31-11.36,84.3-26.94,123.45-45.12,59.42-27.59,119.8-53.5,182.46-76.33,37.57-13.68,73.26-30.5,110.37-45,41.88-16.37,85.62-28.93,132-34.9,28.21-3.63,56.53-4.9,84.63.68,17,3.38,31.38,10.22,42.68,20.94,12.37,11.73,17.2,25.16,11.8,39.7-7.46,20.09-11.52,40.61-16,61.13-2.59,11.71-7.1,23.14-10.14,34.79-5.78,22.1,4.76,34.51,33.11,39.22,24.43,4,49.1,3.34,73.53.48,26.63-3.13,53-7.62,79.59-10.93,13.28-1.66,26.83-2,40.25-2.93Z"/><path class="cls-1" d="M0,436.62V419.83c1.64-.18,3.28-.33,4.91-.53,25.67-3.12,51.22-7.88,77-9,42.35-1.83,80.28,10,115.4,28.1,25.36,13.06,42.25,30.57,49.06,54a140,140,0,0,0,8.34,20.74c9.47,19.91,24.28,36.56,50.18,44.79,29.77,9.46,49.54,5,66.22-14.33a90.57,90.57,0,0,1,18.61-16.76c22.79-14.88,45.06-30.54,69.67-43.35,62.93-32.79,129.89-59.94,199.88-82.2,53.08-16.89,106.37-33.26,157.19-54.24,29.11-12,58.8-23.22,88.75-33.87a149,149,0,0,1,52.46-8.6c26.7.44,40.13,13.48,36,34.24a71.7,71.7,0,0,1-18,35.48c-12.12,13-26.11,25-39.19,37.49-6.61,6.32-13.9,12.35-19.27,19.28-8.88,11.45-5,21.13,10.54,26.48,8.32,2.87,17.5,5.23,26.47,5.73,36.37,2,72.8,4.08,109.24,4.62,63.75.95,127.53,1,191.3,1,24.14,0,48.3-1,72.41-2,13-.57,25.84-2.22,38.76-3.38V475.8a42.72,42.72,0,0,1-4.72,1c-40.82,4.38-81.81,3.71-122.76,2-57.38-2.44-114.65-.63-171.94,1.8-40.68,1.73-81.35,4.83-122.12,1.84-18.7-1.37-37.09-4.2-53.39-12.15-17.18-8.37-20.27-19.82-8.31-32.56,5.87-6.25,13.07-11.79,20.08-17.31,10.21-8.05,21.28-15.44,31.1-23.76,13.35-11.29,24-24,28.47-39.39,5.49-18.68-6-30.28-30.42-30.57-1.18,0-2.37,0-3.56,0-22.5.55-43,7-63.15,13.91-40.57,13.87-80.4,29.19-121.48,42-66.86,20.91-134.1,41-196.28,69.94-25.86,12-52.94,23.14-76,38-30.91,19.91-57.21,44-80.89,69.48-9.24,9.95-20.46,16.13-36.06,17.72-31.32,3.17-58.4-4.37-82.38-19.8-21-13.5-32.61-32.11-44.5-50.64-7.77-12.11-15.25-24.54-25.1-35.59-25.42-28.48-61.43-42.73-105.25-45.34C64,424.46,32,430.39,0,436.62Z"/><path class="cls-1" d="M0,558.65V538.5c6.52-3,12.94-6.16,19.59-9,11.36-4.81,23.06-5.65,35.63-2.58,19.17,4.69,35.67,13.13,51.14,22.62,34.57,21.2,68.57,43,102.66,64.68,18,11.43,36.8,21.53,59,27.41,40.57,10.76,82.12,10.14,123.69,6.16,50.32-4.81,98.39-16.49,145-32,16.81-5.61,33.33-11.75,47.16-21.47,12.17-8.56,17.49-19.25,15.67-32-.73-5.18-1.72-10.34-2.81-15.49-2.32-11.06-3.88-22.38,6.07-31.56,18.73-17.29,42-28.27,71.85-28.37,15.39-.06,29,5,42.57,9.9C758.78,511.65,801,525.14,845.46,534,895.29,544,945.89,550.3,997,554.41c39.53,3.18,79,2.57,118.57.63,29.07-1.43,58.18-4.09,87.23-3.83,38.58.33,77.11,3.11,115.68,4.55,15.81.6,31.67.45,47.51.65v23.51c-31.78-2.68-63.63-5-95.33-8.12-51.86-5.14-103.58-3.65-155.32.65-37.65,3.13-75.34,3.71-112.62-1.8-80.84-11.95-161.51-24.57-241-41.57-24-5.13-48.18-9.77-73.45-8.52-30.12,1.49-44.07,13.75-42.16,37.28a13.45,13.45,0,0,0,.16,1.68c3.75,17.72-5.8,30.34-24.48,39.44-3.62,1.77-7.22,3.6-11,5.16-36,14.94-74.29,25.12-112.88,34.73-60.88,15.15-122.74,25-187.16,20.63-37.14-2.5-71.45-10.92-101.19-29.1-23.21-14.19-46-28.75-69.24-43-21.89-13.41-44-26.62-69.92-35.06-21.06-6.87-41.87-7.36-62,2.32C5.68,556,2.83,557.32,0,558.65Z"/><path d="M0,191.44c21.78-2,38.43-13.1,57.3-20.18,52.59-19.72,107.55-30.76,166-29,35.42,1.09,68.78,8.17,97.85,24.93a97.69,97.69,0,0,1,16.63,12.13C346.29,187,349.09,196.1,345,206c-5.6,13.49-4.22,21.48,14.45,32.77a126.26,126.26,0,0,0,18.49,9.39c38,15.15,58.33,40.38,67.39,72.21,1.65,5.8,3.55,11.57,5.79,17.25,4.27,10.8,13.95,16.53,28.16,17.52,20.49,1.43,39.28-3.7,57.72-9.7,33.29-10.83,62.45-26.56,87.53-46.89,29.62-24,64.66-40.19,105.33-50.86,65-17.07,129-36.7,193.39-55.29,40.93-11.82,82.61-21.49,125.88-26.24,32.34-3.56,64.81-4.68,96.66,2.25,47.35,10.3,77.11,36.46,97.76,69.9,12.89,20.87,16.68,43.32,15.44,66.38a96.09,96.09,0,0,0,.11,15.08c1.19,11.37,8.46,18,22.89,19.37,10,.93,20.28.49,30.36-.13,17.92-1.1,35.77-2.79,53.65-4.24v15.67c-25.93,0-51.3,3.27-76.71,7a149,149,0,0,1-33.85.89c-23.64-2-31.61-11.43-26.78-29.68,3.08-11.64,7.29-23.17,9.21-34.93,5.72-35-9.62-64.39-40.24-89.42-23.07-18.86-51.4-28.57-84.33-30.84-53.25-3.66-104.38,4.84-153.87,18.65-47.22,13.17-93.22,29-139.8,43.64-32.31,10.12-64.44,20.64-97.12,30-29.61,8.46-56.54,20.17-79.61,37-33.92,24.67-71.28,45.17-114.51,58.25-16.21,4.91-33.33,8.22-50.35,11.13-7.33,1.25-15.66.39-23.16-.89-14.11-2.43-21.39-11.27-23.81-25.63-1.77-10.5-3.58-21.07-6.95-31.29-7.34-22.21-24.64-38.29-51.24-48-10.53-3.83-21.64-6.84-31.62-11.4s-19.69-9.75-27.79-16c-9.26-7.2-10.71-16.72-6.1-26.52.65-1.4,1.24-2.81,1.81-4.23,5.19-12.75,2.18-21.2-11-29.83-15.54-10.2-34-15.42-53.54-18.13-48.88-6.75-96.14-.62-142.44,11.93-27.67,7.49-53.2,18.44-78.4,30C16.78,205.33,8,206.25,0,208.23Z"/><path class="cls-1" d="M0,466.85V452.29c9.78-2.1,19.54-4.23,29.33-6.29,23.71-5,47.81-8.34,72.31-5.63,29.89,3.31,53.45,15.48,71,34.69,20.48,22.4,40.41,45.11,61.09,67.39,31.74,34.18,74,51.3,128.51,47.52,22.26-1.54,41.22-7.68,52.86-24.14,3.75-5.3,9.6-9.67,14.27-14.6,7.77-8.18,16.33-16,22.85-24.79,14.17-19,31.78-35.36,55.9-46.77,27.8-13.16,55.76-26.13,84.06-38.61,39.73-17.52,81.84-30.89,124.45-43.43,49.83-14.67,99.09-30.53,149-45a199.69,199.69,0,0,1,45.51-7.44c20.56-1,30,10.22,24.33,25.89-3.73,10.27-10.7,19.19-20,26.71-11.24,9.06-23.73,17.16-35,26.23-9,7.29-18,14.87-25.14,23.29s-5.08,17.08,4.23,23.8a87.08,87.08,0,0,0,21,11.13,216.06,216.06,0,0,0,80.19,12.27c54.63-1.73,109.15-5.62,163.77-7.86,30.5-1.25,61.12-1.83,91.65-1.22,50,1,99.86,4.73,149.75-.68v12.31c-32.55,3.74-65.23,2.39-97.92,1.77-35.29-.68-70.69-2.51-105.87-1.12-49.15,1.95-98.12,6.7-147.22,9.7-42,2.56-83.81.95-124.86-7.19-19.56-3.89-38.7-9-54.55-19.37-15.48-10.18-17.82-22.08-6-35,6.31-6.91,14.11-13,21.8-19.08,10.22-8,21.51-15.25,31.33-23.56a52.93,52.93,0,0,0,12.53-16c4.56-8.86-.11-15.95-12-16.71-11.32-.72-23.41-.31-34.27,2.1-32.74,7.26-65,16-97.52,23.7C669.14,415.88,593.38,446,522.27,483.68c-23.32,12.37-39.25,28.59-47.18,50-2.77,7.5-8.27,14.57-13.79,21.18a185.67,185.67,0,0,1-22.51,23c-6.82,5.75-14.66,11.35-23.42,14.94-21.47,8.82-45.13,11-69,10.23-46.51-1.58-85.8-15.72-116.44-43.63-29.74-27.09-59.8-54-88.53-81.74-23.48-22.67-52.66-30.08-87.86-23.5C35.44,457.61,17.83,462.59,0,466.85Z"/><path class="cls-1" d="M0,525.06V508.27c7.3-3,14.69-5.81,21.88-8.94,21.5-9.33,42-9,61.31,3.67,2.37,1.55,5,2.85,7.36,4.4,22,14.45,44.35,28.65,66,43.46,24.51,16.75,48.11,34.33,72.68,51,22.91,15.58,49.77,25,79.72,28.67,31.92,4,63.81,3,95.46-1.52,34.4-4.91,67.67-12.77,97.91-27.06,30.61-14.46,45.48-35,39.41-63.74-3.45-16.32,3-30.16,19.57-40.81,38.06-24.54,79.48-44.65,126.32-56.91,14.83-3.88,30.78-5.75,46.42-6.88,11.52-.83,15.92,4.27,15.35,13.45-.31,4.83-.85,9.72-.17,14.49,2,14.42,13.91,23.69,28.18,31.35,23.32,12.54,49.26,20.57,76.26,26.59,38.41,8.55,77.75,12.55,117.49,14.85,41.27,2.38,82.41,1.42,123.6-1,31.89-1.84,63.8-4.37,95.73-4.73,36.47-.42,73,1.38,109.47,1.91,22,.32,44,.06,66.06.06v16.79c-35-1-70.07-2.28-105.12-3-29.36-.57-58.76-1.18-88.1-.5-30.76.72-61.45,3.44-92.21,4.45a1013.09,1013.09,0,0,1-175.39-9.82c-72.28-10.2-141.26-26.54-198.75-64.87-10-6.67-22.11-8.36-34.84-6.15a186.84,186.84,0,0,0-88.16,40.55c-5.18,4.26-8.94,11-9.7,16.85-1.12,8.72.22,17.8,1.95,26.55,3.79,19.1-2.56,34.84-23.09,46a213.88,213.88,0,0,1-28.7,13.32A535.35,535.35,0,0,1,363.4,643.46c-23.68,1.08-47.29.32-70.68-3.58-34.57-5.77-62.17-20.89-88.38-38.6q-48.27-32.6-98-63.85c-13-8.2-27.58-15.06-42-21.78-14.18-6.59-28.95-5.83-43.31.42C14,519.11,7,522.07,0,525.06Z"/><path class="cls-1" d="M0,492.59V478c2.21-.61,4.42-1.21,6.62-1.84,14.21-4,28.18-8.8,42.7-12,27.16-5.92,51.1-1.44,69.95,16,3.37,3.13,6.94,6.12,10.53,9.1,32.66,27,64.85,54.41,98.28,80.83A186.86,186.86,0,0,0,269,594.91c43.13,18.72,89.1,19.77,136.44,11.27,41.24-7.4,64.34-30.12,82.52-57.53a19.63,19.63,0,0,0,3-8.54c2.84-26.17,20.52-44.53,48.28-57.86,19.6-9.42,38.77-19.4,58.45-28.71,59.34-28.08,124-45.75,190.64-59.33,18.48-3.77,37.37-6.44,56.23-8.79,7.5-.93,16.62-.83,20.7,5.75,3.92,6.34-1.64,11.57-6.64,16-7.07,6.26-15,11.87-22.33,18-8.08,6.79-16.67,13.35-23.5,20.88-12.09,13.32-10,26.05,5.76,36.68A121,121,0,0,0,843,495c26.7,10.17,55.48,14.77,84.66,17.57,54.7,5.25,109.22,2.12,163.73-2.54,25.88-2.21,51.86-4.37,77.85-4.89,32.42-.64,64.89.71,97.33.71,33.14,0,66.28-.6,99.42-.94v14.55c-1.41,0-2.82-.1-4.23-.11q-54.7-.2-109.42-.39c-28.2-.1-56.46-1.23-84.58-.1-46.34,1.85-92.55,5.93-138.89,7.65-55.34,2.06-110.28-1.45-164-12.82-25.26-5.34-49.69-12.58-70.39-25.65-21.22-13.39-24.05-27.36-9.87-45.6,4.7-6,10.19-11.69,14.78-17.78,6.58-8.72,3.35-13.65-9.65-13.58a229.78,229.78,0,0,0-33.83,2.53C675.83,426,606.46,456.16,542.23,494.53c-13.11,7.82-21.72,18.18-23.45,31.4a119.77,119.77,0,0,0-.85,16.17,40.89,40.89,0,0,1-7.63,24.12,98.83,98.83,0,0,1-45.82,36.36c-36.48,14.55-75.3,20.24-116,20.11-49.82-.16-92.19-13.56-128-41-41.07-31.47-83-62.24-124.62-93.29C86,481,74.51,475.23,60.49,476.18c-10.43.71-20.88,3.13-30.83,5.88C19.47,484.88,9.86,489,0,492.59Z"/><path d="M1366,680.68c-68.65-2.16-137.35-3.65-205.93-6.67-54.55-2.41-108.87-2.64-163.24,1.83q-44.15,3.63-88.5,5.67c-42.73,1.9-84.49-2.82-125.56-12.37-33-7.69-67.1-8.54-101.38-8.08-63.61.87-124.34,13.54-185,26.75a912.29,912.29,0,0,1-140.12,19.62c-67.74,4.05-133.59-2.77-197.53-21-29.86-8.52-60.27-16-92.17-17.2-22.11-.8-44.37.83-66.57,1.37V647.09c51.31-9.29,99.55-1.73,146,16.28,34.47,13.37,69.85,24.77,108,30.15,36.86,5.2,73.85,5.72,111.12,3.44,65.85-4,128.55-19,191.4-33.43a940.61,940.61,0,0,1,170.92-23.22q38.67-1.66,77.41-2.13a121.56,121.56,0,0,1,52.33,10.68c25.54,11.67,53.89,14.13,82.53,13,30-1.24,60-3.63,89.82-6.37,47.71-4.39,95.25-5.61,143.16-1.11,44,4.13,88.15,6.71,132.29,9.53,20.3,1.3,40.71,1.53,61.07,2.25Z"/><path d="M1366,442.22c-21,2.65-41.88,6.27-63,7.72-29.69,2-59.56,3.1-89.37,3.39q-50.82.5-101.65-1.22c-36.62-1.17-72.31-6.37-106.12-18.23-26.69-9.37-29.76-16.45-15.89-36.56,13-18.81,26-37.62,37.74-56.89a65,65,0,0,0,9.7-35.19c-.26-18.2-13.77-29.44-37-31-24.15-1.64-47,2.64-69.51,8.79-34.87,9.51-67.31,23-98.39,38.42-49.9,24.73-102.74,44.6-157.73,61.1-64.07,19.23-124.63,44.24-185.17,69.32-36,14.92-72.44,29.3-108.3,44.47-12.43,5.26-23.73,12.18-35.51,18.37-1.57.83-2.94,1.89-4.43,2.81-21.1,12.89-42.66,9.52-53.3-9.82-6.78-12.33-9.82-25.92-14.8-38.88-4-10.47-7.64-21.11-12.87-31.21-5.89-11.38-16.62-19.85-30.58-25.56-20.15-8.25-40.06-16.93-60.6-24.54C128,372.23,85,371.77,41.4,379.88c-13.78,2.56-27.6,5-41.4,7.48V362.73c10.49-2.11,21.07-4,31.45-6.37C52,351.64,72.68,348,94.1,347.19c31.45-1.12,60.3,6.14,88,17.09,19.46,7.71,38.63,15.88,58.34,23.17C266.26,397,276.67,414.91,283,435c4,12.62,6.28,25.57,10.32,38.17a53,53,0,0,0,9.46,16.69c6.63,8.2,16.69,10.53,28.56,7.77,1.81-.42,3.58-1,5.34-1.53C417,470.5,495.8,442.47,572.71,411c36.24-14.86,74.11-27.44,112-39.53C740.49,353.63,793,331.27,844,306.3c37.87-18.55,77.83-34,121.45-42.59,19.41-3.84,39.09-6.12,59-3,25.74,4,37.25,17.68,33.7,38.34-3,17.52-10.51,33.91-18.78,50.17q-9.1,17.88-18.22,35.75c-7,13.92-2.46,25.34,11.56,35.1,20.38,14.19,44.91,20.61,71.12,23.11,61.44,5.86,123,4.72,184.44-.2,24.18-1.93,48.08-6,72.11-9.15,1.87-.24,3.75-.38,5.63-.56Z"/><path d="M0,43.66C26.67,42,53.38,40.58,80,38.57c57.59-4.34,115.16-7.87,173.13-5.34,44.89,2,88.62,9.25,132.37,16.4,50.1,8.19,99.72,7,149.35-2,43.46-7.82,87.2-14.69,132-13.61,30.76.74,61.45,3.21,92.19,4.71,34.3,1.67,68.59,3.8,102.92,4.51q74.29,1.55,148.65,1.25c43.38-.11,86.77-2.21,130.12-1.74,44.53.49,89,3.36,133.53,4.56,30.54.82,61.13.56,91.7.78v19c-20.8.19-41.73,1.63-62.39.35-68.17-4.23-136-12.65-204.7-10.33-37.16,1.25-74.3,3.23-111.48,3.82q-60.75,1-121.55-.16c-31.72-.54-63.41-2.26-95.09-3.86-22.2-1.11-44.34-3-66.53-4.34C656,49.75,609.7,57,564,68.58,518.91,80,472.51,81.17,426.34,74.16c-35-5.32-69.29-13.4-104-19.74-43.84-8-88.33-10.4-133.3-9-52.6,1.66-104.5,8-156.51,13.61C21.71,60.21,10.83,60.75,0,61.57Z"/><path d="M0,134.34c8-1.53,16.29-2.44,23.94-4.7,35-10.35,70.13-20,106.93-25.89,81.53-13,159.59-7.14,233.51,24.44C381,135.3,398.05,141.86,415,148.57a148.58,148.58,0,0,1,64.78,48.9c6,7.82,11.85,15.72,18.24,23.34a85.86,85.86,0,0,0,12.08,11.68c15.15,12.17,33.19,15.2,52.47,7.43a233.91,233.91,0,0,0,34.89-18.13c26.94-16.57,54.74-32,85.15-44.48C712.53,165,744.45,158.36,777.8,157c68.29-2.82,135.38-11.4,202-23,42.09-7.35,84.62-12.56,127.91-12.87,64.51-.45,120.6,16.19,168.22,50.64,13.42,9.7,27.52,18.88,41.92,27.66,14,8.53,29.74,13.89,48.13,12.22v28c-17.44,2.92-32-2.27-44.18-11.2-16.94-12.46-33.12-25.6-49.06-38.88-24.17-20.12-50.44-37.78-83.84-47.84-22.33-6.72-45.52-9.88-69.31-10.68-52.84-1.78-104.21,5.79-154.95,16.07-62.15,12.59-125.09,21.5-188.51,29-66.48,7.87-124.35,30.31-172.36,67.86-10.06,7.87-20.89,15.19-31.86,22.28a82.05,82.05,0,0,1-17.07,7.92c-21.21,7.46-40.53,4.82-55-9.44C488,253,478.27,239.79,468.21,227c-8-10.14-15-20.71-22.45-31.11-11.24-15.76-26.29-28.72-45.83-38.29-37.47-18.35-75.82-35.31-119.15-43.79-35.11-6.87-70.61-7.5-106.5-4.46-52.82,4.47-102.4,17.25-150.54,34.33-7.41,2.63-15.8,3.54-23.74,5.25Z"/><path d="M0,729.94c22.72-.17,45.54-1.54,68.12-.27,55.73,3.11,111.3,7.92,167,11.13,49.94,2.87,99.95,1.87,149.83-1.62,45.51-3.19,90.93-7.33,136.51-9.43,30-1.38,60.24-.91,90.23.5,128.35,6.06,256.77,4.92,385.24,4.23,123-.66,246,.62,369.06,1v15.68c-2.34-.16-4.69-.45-7-.45-276.61-.33-553.21-1.06-829.81-.65-67.23.1-134.43,4.72-201.68,5.84-50.19.84-100.45-.24-150.66-1.14-30.3-.55-60.55-2.86-90.85-3.51-28.64-.62-57.31-.11-86-.09Z"/><path d="M1366,419.83c-32.65,4.12-65.26,8.52-98,12.29-35.5,4.08-71.32,4.8-107.07,3.18a363.82,363.82,0,0,1-51.12-5.75c-28.79-5.47-44.33-22-45.58-45.41-1.29-24.18,6.06-47.23,13.67-70.35,4.06-12.35,7.71-25,8.91-37.67C1088.36,260,1078,250,1058.23,245c-18.79-4.7-37.92-4-57-1.57-52.95,6.79-101.38,23.55-146.19,45.69-69.87,34.52-144,62-219,88.51-47.48,16.79-93.71,35.79-140.25,54.2-47.37,18.74-97.53,30.23-149.64,36.92-12.76,1.64-23.4-1.46-28.29-10.86-5.85-11.25-9.47-23.26-13.24-35.11-3.44-10.8-5.23-21.93-8.77-32.7S283.52,371,270.12,367c-32.45-9.76-62.37-23.34-92.48-36.69-42.93-19.05-87.11-18.89-132.11-5.15-15.2,4.64-30.36,9.38-45.53,14.08V316.83c18.26-6.61,36.28-13.68,54.83-19.72,23.57-7.68,47.91-13,74-10.68A116.32,116.32,0,0,1,171,298.79q14.7,7.35,28.93,15.27c24.29,13.56,50.1,24.76,78.54,32a121,121,0,0,1,14.36,4.81c16.58,6.52,25.57,17,27.47,31.66,1.84,14.23,4.27,28.41,6.92,42.56.68,3.6,2.89,7.09,4.89,10.44C338,445.3,347.9,450,361.57,450.15c35.54.51,70-4.24,102.43-15.42,39.41-13.6,78.13-28.47,116.94-43.13,54.84-20.71,109.94-41.05,164.08-62.86,38.32-15.44,75.22-33.07,112.78-49.69,42-18.58,85.36-34.71,132.57-43.37,25.72-4.72,51.73-7.52,78.05-3,32.75,5.67,44.77,20.3,37.92,46.09-4.11,15.46-10.23,30.73-12.28,46.35-2.9,22-3.67,44.26-3.8,66.41-.07,13.07,8.4,23.76,24.67,28a256.3,256.3,0,0,0,44.72,7.86c53.07,4.1,105.27-1.49,157.17-10.06,16.16-2.67,32.78-3.65,49.18-5.4Z"/><path d="M0,558.65c2.83-1.33,5.68-2.62,8.48-4,20.13-9.68,40.94-9.19,62-2.32,25.91,8.44,48,21.65,69.92,35.06,23.19,14.21,46,28.77,69.24,43,29.74,18.18,64.05,26.6,101.19,29.1C375.25,663.83,437.11,654,498,638.85c38.59-9.61,76.93-19.79,112.88-34.73,3.76-1.56,7.36-3.39,11-5.16,18.68-9.1,28.23-21.72,24.48-39.44a13.45,13.45,0,0,1-.16-1.68c-1.91-23.53,12-35.79,42.16-37.28,25.27-1.25,49.47,3.39,73.45,8.52,79.44,17,160.11,29.62,241,41.57,37.28,5.51,75,4.93,112.62,1.8,51.74-4.3,103.46-5.79,155.32-.65,31.7,3.14,63.55,5.44,95.33,8.12v20.15c-53.58-6.17-106.51-16.94-161-16.77-32.36.1-64.92,1.73-97,5-47.29,4.8-93.29,3.38-138.86-8.42C916,566.1,860.94,558.55,805.77,551.94c-19.37-2.32-39-3.42-58.6-4.35-6.91-.33-14.18,1-20.95,2.47-11.65,2.57-20.35,8.29-23.3,17.87-4.37,14.18-15.64,24-31.83,29.74-25.22,8.93-50.75,17.4-76.69,24.92C544.94,636.93,495,650.24,443.63,659.8A581.38,581.38,0,0,1,314,669.35c-45.06-1.81-86.28-12.38-122.6-34.07-25.47-15.21-51.12-30.27-77.29-44.72-15.73-8.68-32.94-15.47-52.43-17.67-20.66-2.33-40.64-1.44-59,7.57A12,12,0,0,1,0,581Z"/><path d="M0,78.37C19.36,76,38.79,73.8,58.08,71.05c53.62-7.64,107.33-14.2,162.09-13.66,53,.51,103.71,9.52,153.11,23.73,54.36,15.63,110.49,23.2,168.18,24,23.1.32,45.14-3.47,65.62-12.29,36.36-15.66,75.49-19.73,116.25-17.12,69.45,4.46,138.92,9,208.68,7,31.23-.9,62.45-2.68,93.59-4.85,81.4-5.65,162.25-5.08,242,11,32.26,6.51,65,10,98.38,8.5v21.27c-24.54,3.18-48-1.22-71.31-6.41-30.22-6.72-60.21-14.27-90.81-19.72-39-7-78.91-8-118.74-5.51-52.85,3.35-105.53,8.65-158.44,10.9-41.56,1.76-83.34.36-125,0-33.61-.3-67.22-1.84-100.81-1.53-23.93.22-45.75,7.14-65.36,18.09-16.12,9-32.92,16.89-52.68,20-23.05,3.59-45.1-.4-67.2-5C453,116.29,391.26,101.17,330.38,83.53,279.61,68.82,226.42,67,172.73,70.11,118.67,73.26,66.59,84.33,14,93.36c-4.61.79-9.32,1.21-14,1.8Z"/><path d="M0,162.33c9.21-2.13,19-3.31,27.52-6.57,37.61-14.36,76.36-25.94,117.58-32,57.62-8.44,114.4-8.43,169.2,10.65,24.12,8.4,46.93,18.62,67.71,31.48,13.06,8.08,23.94,17.79,30,30,8.48,17.19,20.65,32.57,33.65,47.78,10.68,12.49,19.7,25.87,29.47,38.86,3.14,4.16,6,8.48,9.55,12.42,12.57,14,27.59,18.45,48.82,14.45,22.62-4.26,40.92-14.39,57.33-26.8,11.1-8.39,21.7-17.21,32.47-25.87,26.28-21.14,58-35.52,93.64-43.88,39.15-9.16,78.89-16.76,118.34-25.13,45.59-9.68,91.11-19.56,136.73-29.15,44.71-9.41,89.88-15.91,136.5-15.53,60,.47,108.43,19.05,144.55,56.48,18,18.67,34,38.58,51,57.84A139.26,139.26,0,0,0,1318,271.47c9.46,8,21.21,11.48,35.27,9.8,4.18-.5,8.51-.2,12.77-.27v24.63c-10.39.67-20.79,1.21-31.15,2-17.32,1.37-30.49-3.61-37.93-16-6.56-10.92-11.57-22.42-17.44-33.6-16.16-30.78-38.69-58.11-71.52-79.56-26.1-17-56.92-24.61-90.36-26.24-55.22-2.71-108.31,6.23-160.55,18.92-78.83,19.15-157.37,39-236.26,58C680.18,239,646.47,256.65,618,281.07c-19.66,16.86-40.91,32.2-67.72,41.93-13.8,5-27.89,9.1-43.39,9.69-18.13.69-30.4-5.68-37.8-18.31-3.56-6.08-6.7-12.33-9.88-18.55q-17.58-34.36-53-58.75c-13.4-9.19-20.87-20.28-22.18-34.34-1.12-12.08-8.75-22.08-20-30-32.63-23-70.73-37.24-114.17-41.71-72.45-7.45-140,6.27-204.73,30.84-12.11,4.59-24.42,8.86-36.76,13-2.49.85-5.56.62-8.37.89Z"/><path d="M1366,23.51q-60.09,0-120.18,0c-102,0-203.93.68-305.87-.39C872,22.43,804,19.25,736,17c-44.52-1.49-89.07-4.5-133.58-1.09-30.13,2.31-60.16,5.71-90.06,9.49-48.54,6.13-97,7.55-145.76,1.84C296.35,19,225.75,15.53,154.72,18.83Q77.37,22.42,0,25.75V5.6c48.77-.88,97.55-1.35,146.29-2.74C221,.74,295.37,3.61,369.78,8.18c26.61,1.64,53.5,1.93,80.17,1.07,29.27-.95,58.44-3.86,87.64-6,12-.89,23.9-2.12,35.85-3.2H725.69a55.35,55.35,0,0,0,6.24.86C794,2.79,856,5.56,918,6.36c86.73,1.12,173.49.78,260.24,1q93.85.27,187.72.45Z"/><path class="cls-1" d="M0,751.21c28.66,0,57.33-.53,86,.09,30.3.65,60.55,3,90.85,3.51,50.21.9,100.47,2,150.66,1.14,67.25-1.12,134.45-5.74,201.68-5.84,276.6-.41,553.2.32,829.81.65,2.34,0,4.69.29,7,.45V768H0Z"/><path d="M0,604.55c34.79-12.87,69.64-10.13,102.82,2.43,21.18,8,40.67,19,60.14,29.56,29.24,15.82,59.23,30.12,94.16,36.86,35.84,6.92,72.18,7.41,108.71,5.54C431.89,675.56,494,659,556.59,643.81c54.18-13.17,108.91-24.93,163.16-37.91a429,429,0,0,0,51.58-15.71c30.33-11.46,61.89-12.81,94.43-9.82s63.16,10.6,91.6,23.87c25.17,11.75,53.07,14.38,81.74,12,34.34-2.91,68.59-6.51,102.93-9.44,39.54-3.37,78.31.76,117,7.2,32.12,5.35,64.66,9.19,97,13.62,3.24.45,6.61.34,9.92.49v14.55c-19.12-.9-38.42-.81-57.33-2.93-36.75-4.11-73.27-9.49-109.9-14.3a379.1,379.1,0,0,0-84.31-1.15c-34.32,3.17-68.48,7.64-102.88,10a273,273,0,0,1-54.37-2.07,92.91,92.91,0,0,1-33.9-11.89c-25.83-15.48-54.86-19.51-85.45-16-35.53,4.1-70.54,10.91-106,15.34-87.63,10.94-172,31.79-256.8,51.32-56.7,13.06-114.75,19.16-174,16.38-47.26-2.22-90.72-13.91-131.28-32.89-18.71-8.76-37.2-18.08-57-25.14-35.15-12.57-71.89-15.32-109.34-6a21,21,0,0,1-3.49.31Z"/><path d="M1366,484.76c-49.89,5.41-99.8,1.68-149.75.68-30.53-.61-61.15,0-91.65,1.22-54.62,2.24-109.14,6.13-163.77,7.86a216.06,216.06,0,0,1-80.19-12.27,87.08,87.08,0,0,1-21-11.13c-9.31-6.72-11.28-15.51-4.23-23.8s16.11-16,25.14-23.29c11.23-9.07,23.72-17.17,35-26.23,9.33-7.52,16.3-16.44,20-26.71,5.68-15.67-3.77-26.85-24.33-25.89a199.69,199.69,0,0,0-45.51,7.44c-49.92,14.46-99.18,30.32-149,45-42.61,12.54-84.72,25.91-124.45,43.43-28.3,12.48-56.26,25.45-84.06,38.61-24.12,11.41-41.73,27.73-55.9,46.77-6.52,8.77-15.08,16.61-22.85,24.79-4.67,4.93-10.52,9.3-14.27,14.6-11.64,16.46-30.6,22.6-52.86,24.14-54.48,3.78-96.77-13.34-128.51-47.52-20.68-22.28-40.61-45-61.09-67.39-17.56-19.21-41.12-31.38-71-34.69C77.14,437.66,53,441,29.33,446c-9.79,2.06-19.55,4.19-29.33,6.29V436.62c32-6.23,64-12.16,97.35-10.16,43.82,2.61,79.83,16.86,105.25,45.34,9.85,11.05,17.33,23.48,25.1,35.59,11.89,18.53,23.53,37.14,44.5,50.64,24,15.43,51.06,23,82.38,19.8,15.6-1.59,26.82-7.77,36.06-17.72,23.68-25.49,50-49.57,80.89-69.48,23.05-14.86,50.13-26,76-38,62.18-28.91,129.42-49,196.28-69.94,41.08-12.85,80.91-28.17,121.48-42,20.17-6.9,40.65-13.36,63.15-13.91,1.19,0,2.38-.05,3.56,0,24.39.29,35.91,11.89,30.42,30.57-4.51,15.37-15.12,28.1-28.47,39.39-9.82,8.32-20.89,15.71-31.1,23.76-7,5.52-14.21,11.06-20.08,17.31-12,12.74-8.87,24.19,8.31,32.56,16.3,7.95,34.69,10.78,53.39,12.15,40.77,3,81.44-.11,122.12-1.84,57.29-2.43,114.56-4.24,171.94-1.8,41,1.74,81.94,2.41,122.76-2a42.72,42.72,0,0,0,4.72-1Z"/><path d="M0,492.59c9.86-3.56,19.47-7.71,29.66-10.53,10-2.75,20.4-5.17,30.83-5.88,14-.95,25.46,4.81,35.38,12.22,41.6,31.05,83.55,61.82,124.62,93.29,35.82,27.44,78.19,40.84,128,41,40.68.13,79.5-5.56,116-20.11a98.83,98.83,0,0,0,45.82-36.36,40.89,40.89,0,0,0,7.63-24.12,119.77,119.77,0,0,1,.85-16.17c1.73-13.22,10.34-23.58,23.45-31.4,64.23-38.37,133.6-68.5,213.68-80.92a229.78,229.78,0,0,1,33.83-2.53c13-.07,16.23,4.86,9.65,13.58-4.59,6.09-10.08,11.74-14.78,17.78-14.18,18.24-11.35,32.21,9.87,45.6,20.7,13.07,45.13,20.31,70.39,25.65,53.73,11.37,108.67,14.88,164,12.82,46.34-1.72,92.55-5.8,138.89-7.65,28.12-1.13,56.38,0,84.58.1q54.7.21,109.42.39c1.41,0,2.82.08,4.23.11v11.2c-22,0-44,.26-66.06-.06-36.5-.53-73-2.33-109.47-1.91-31.93.36-63.84,2.89-95.73,4.73-41.19,2.37-82.33,3.33-123.6,1-39.74-2.3-79.08-6.3-117.49-14.85-27-6-52.94-14-76.26-26.59-14.27-7.66-26.14-16.93-28.18-31.35-.68-4.77-.14-9.66.17-14.49.57-9.18-3.83-14.28-15.35-13.45-15.64,1.13-31.59,3-46.42,6.88-46.84,12.26-88.26,32.37-126.32,56.91-16.53,10.65-23,24.49-19.57,40.81,6.07,28.77-8.8,49.28-39.41,63.74C472.07,616.27,438.8,624.13,404.4,629c-31.65,4.52-63.54,5.47-95.46,1.52-29.95-3.71-56.81-13.09-79.72-28.67-24.57-16.7-48.17-34.28-72.68-51-21.64-14.81-43.95-29-66-43.46-2.37-1.55-5-2.85-7.36-4.4-19.34-12.7-39.81-13-61.31-3.67-7.19,3.13-14.58,6-21.88,8.94Z"/><path d="M0,227.27c7.48-2.06,15.74-3.13,22.31-6.34,35.2-17.22,71.77-31.83,112.54-39,32.9-5.75,66-8.41,99.15-1.6a108.11,108.11,0,0,1,23.33,7.9c13.05,6,18.43,15.64,15.41,27.2-7.52,28.72,12.22,43.75,35.67,52.09,13.54,4.81,27.87,8.23,41.87,12.24,39.09,11.19,58.43,32.38,59.51,65.09a184.73,184.73,0,0,0,1.44,19.51c2.34,16.76,14.81,25.78,36.23,26.23,23.44.49,45.33-5,66.75-11.65,43.19-13.39,83.95-30.32,120.48-53.06,32.57-20.29,68.41-35.53,106.91-48,51.83-16.82,102.29-36.24,153.44-54.36,41.51-14.7,84.1-26.93,129-33.63,35.83-5.34,72.06-8.93,107.63-.44,43.47,10.37,71.76,33.26,81.13,68.77,4.12,15.63.35,31.22-6.64,46.12-4.92,10.47-10.6,20.72-15.78,31.12a77.25,77.25,0,0,0-4,10.12c-6.73,20.39,3.94,32.33,30.55,35.14,25.39,2.68,49.88-1.34,74.66-4.61s49.63-5.25,74.46-7.79v7.83c-29.43.58-58.26,4.3-87,9.34-26.62,4.67-53.66,7.77-81,3.21-26.08-4.37-36.15-16.13-28.95-36.23,6.92-19.31,15.93-38.16,24.22-57.15,8.17-18.73,11.39-37.58-.58-55.9-18.13-27.74-47.36-43.47-86.87-46.84-54.07-4.6-105.21,5.68-155.54,19.59-40.08,11.08-77.62,26.55-115.72,41.1q-52,19.87-105.09,38.07c-34.31,11.8-65.6,27.42-96.16,44.19-47.29,25.94-97.91,46.79-153.22,60a188,188,0,0,1-38.33,5c-29.4.75-44.16-11.18-44.9-34.27-.33-10.42.07-21-2.1-31.21-4.61-21.66-22.23-35.33-47.67-42.86C333,288,318.4,284.85,304,281.19c-2.7-.68-5.34-1.54-7.93-2.44-26.87-9.32-43-24.54-45.48-48.42-2.62-25-16-35-47.8-37.83-48.08-4.27-92.56,5.45-135,22.08-16.92,6.63-32.72,15-49.35,22.13-5.66,2.43-12.29,3.45-18.47,5.11Z"/><path d="M1366,713.14c-77.51-.42-155-1-232.55-1.23-57.34-.17-114.7-.24-172,.29-39.34.36-78.65,2.21-118,2.71-45.54.59-90.89-2.08-136.19-5.8-49-4-98.23-7.87-147.53-4.63-26.56,1.75-53,5.34-79.24,9.27C409,724.47,337.09,731,264.4,727.25c-38.86-2-77.52-7-116.12-11.43C102.09,710.47,56,704.88,9.06,707.61c-3,.18-6,.69-9.06,1V693c51.14-4.69,101.14,1.24,150.57,10.76,61.06,11.77,122.74,18.22,185.7,16.1,50-1.69,99.23-7.91,148.14-16.13,31.88-5.35,63.92-10.25,96.11-14.28,27.73-3.47,55.87-2.77,83.7-.3,40.69,3.59,81.16,8.92,121.91,11.87,29.9,2.17,60.13,2.71,90.16,2.19,51.4-.89,102.75-3.86,154.16-4.65,39.79-.6,79.62.77,119.44,1.31q93.85,1.29,187.71,2.65c9.47.14,18.93.37,28.4.56Z"/><path d="M0,109.71c13.77-2.43,27.71-4.37,41.27-7.38,36-8,72-15.37,109.15-19.37,71.47-7.69,140.5-1.73,207,21.17,29.88,10.28,60.55,19.14,91,28.32,23,6.92,43.93,16.58,64,27.56,3.9,2.13,7.93,4.1,11.81,6.23,21.33,11.73,44.39,13.65,67.24,4.44,22.48-9.06,44.07-19.6,65.35-30.35,19.72-10,40.42-17.37,63.92-18.36,25.06-1,50.19-1.82,75.26-1.54,37,.41,74,1.6,110.79-1.88,29.82-2.81,59.55-6.21,89.31-9.39,43-4.58,85.91-9.1,129.41-8.31,54.56,1,105.37,12.74,153.33,32.88,10.43,4.38,21.27,8.18,32,12.15,17.44,6.47,35.69,9.82,55.08,8.62v17.91c-24.46,1.74-45.33-6-65.45-15.52-27.18-12.88-53.85-26.44-83.85-35.22-37.89-11.08-77.14-14.54-117.22-13.58-52.45,1.25-103.84,9-155.38,15.8a1091.84,1091.84,0,0,1-140.67,9c-28.31,0-56.68,2.43-84.88,4.86-19.1,1.65-36,8.88-52.1,17-21.78,10.91-43.15,22.35-65.4,32.64A210.35,210.35,0,0,1,563,200.64c-14.93,3.64-29.19.66-40.78-8-8.39-6.31-16.55-12.81-24.64-19.37a197.73,197.73,0,0,0-62.78-34c-37.91-12.61-75.42-26-113.74-37.76C275,87.34,226.7,85.13,177.75,88,123.23,91.25,71.52,103.59,20,116.89c-6.39,1.65-13.33,2-20,2.9Z"/><path d="M1366,504.91c-33.14.34-66.28.94-99.42.94-32.44,0-64.91-1.35-97.33-.71-26,.52-52,2.68-77.85,4.89-54.51,4.66-109,7.79-163.73,2.54-29.18-2.8-58-7.4-84.66-17.57a121,121,0,0,1-24.41-12.29c-15.79-10.63-17.85-23.36-5.76-36.68,6.83-7.53,15.42-14.09,23.5-20.88,7.28-6.12,15.26-11.73,22.33-18,5-4.42,10.56-9.65,6.64-16-4.08-6.58-13.2-6.68-20.7-5.75-18.86,2.35-37.75,5-56.23,8.79-66.62,13.58-131.3,31.25-190.64,59.33-19.68,9.31-38.85,19.29-58.45,28.71-27.76,13.33-45.44,31.69-48.28,57.86a19.63,19.63,0,0,1-3,8.54c-18.18,27.41-41.28,50.13-82.52,57.53-47.34,8.5-93.31,7.45-136.44-11.27a186.86,186.86,0,0,1-40.93-24.72c-33.43-26.42-65.62-53.81-98.28-80.83-3.59-3-7.16-6-10.53-9.1-18.85-17.46-42.79-21.94-69.95-16-14.52,3.16-28.49,7.93-42.7,12-2.2.63-4.41,1.23-6.62,1.84V466.85c17.83-4.26,35.44-9.24,53.53-12.63,35.2-6.58,64.38.83,87.86,23.5,28.73,27.75,58.79,54.65,88.53,81.74,30.64,27.91,69.93,42,116.44,43.63,23.88.81,47.54-1.41,69-10.23,8.76-3.59,16.6-9.19,23.42-14.94a185.67,185.67,0,0,0,22.51-23c5.52-6.61,11-13.68,13.79-21.18,7.93-21.45,23.86-37.67,47.18-50,71.11-37.72,146.87-67.8,229.18-87.35,32.57-7.73,64.78-16.44,97.52-23.7,10.86-2.41,22.95-2.82,34.27-2.1,11.87.76,16.54,7.85,12,16.71a52.93,52.93,0,0,1-12.53,16c-9.82,8.31-21.11,15.53-31.33,23.56-7.69,6-15.49,12.17-21.8,19.08-11.8,12.9-9.46,24.8,6,35,15.85,10.42,35,15.48,54.55,19.37,41,8.14,82.85,9.75,124.86,7.19,49.1-3,98.07-7.75,147.22-9.7,35.18-1.39,70.58.44,105.87,1.12,32.69.62,65.37,2,97.92-1.77Z"/><path d="M1366,463.49c-12.92,1.16-25.8,2.81-38.76,3.38-24.11,1.05-48.27,2-72.41,2-63.77,0-127.55,0-191.3-1-36.44-.54-72.87-2.58-109.24-4.62-9-.5-18.15-2.86-26.47-5.73-15.52-5.35-19.42-15-10.54-26.48,5.37-6.93,12.66-13,19.27-19.28,13.08-12.49,27.07-24.46,39.19-37.49a71.7,71.7,0,0,0,18-35.48c4.1-20.76-9.33-33.8-36-34.24a149,149,0,0,0-52.46,8.6c-30,10.65-59.64,21.85-88.75,33.87-50.82,21-104.11,37.35-157.19,54.24-70,22.26-136.95,49.41-199.88,82.2-24.61,12.81-46.88,28.47-69.67,43.35a90.57,90.57,0,0,0-18.61,16.76C354.47,563,334.7,567.42,304.93,558c-25.9-8.23-40.71-24.88-50.18-44.79a140,140,0,0,1-8.34-20.74c-6.81-23.46-23.7-41-49.06-54-35.12-18.09-73-29.93-115.4-28.1-25.82,1.12-51.37,5.88-77,9-1.63.2-3.27.35-4.91.53V406.39c11.62-1.51,23.4-2.51,34.85-4.63,62.71-11.6,118.88.42,172.72,26.49,29.65,14.35,44.36,34.47,51.51,59.92A151.08,151.08,0,0,0,270.88,518c8.37,15.82,22.27,27.5,44.38,31.92a41.9,41.9,0,0,0,31.32-5.49c3.34-2,6.78-4.25,9.25-6.91,12.6-13.53,30-22.4,47.08-31.94,66.33-37.07,137.69-67.11,211.36-93.76,37.13-13.43,75.62-24.54,113.42-36.82,43-14,83.42-31.92,124-49.68,28.17-12.33,57.07-23.44,88.79-29.11,13.93-2.49,28-4,42.19-1.27,18.5,3.57,27.63,13.95,26.71,29.94s-7.86,30.42-18.62,43.45c-10.94,13.23-23.91,25.42-35.91,38.11-5.79,6.12-12.16,12-16.91,18.61-8,11.07-3.89,20.62,11.57,24.37,14.81,3.58,30.38,5.42,45.75,7.32,69.65,8.63,139.94,5.8,210,6.75,25.59.34,51.26.94,76.79-.17,28-1.21,56-4.25,84-6.5Z"/><path d="M0,525.06c7-3,14-5.95,21-9,14.36-6.25,29.13-7,43.31-.42,14.43,6.72,29,13.58,42,21.78q49.71,31.25,98,63.85c26.21,17.71,53.81,32.83,88.38,38.6,23.39,3.9,47,4.66,70.68,3.58A535.35,535.35,0,0,0,523.89,610.9a213.88,213.88,0,0,0,28.7-13.32c20.53-11.2,26.88-26.94,23.09-46-1.73-8.75-3.07-17.83-1.95-26.55.76-5.88,4.52-12.59,9.7-16.85a186.84,186.84,0,0,1,88.16-40.55c12.73-2.21,24.84-.52,34.84,6.15,57.49,38.33,126.47,54.67,198.75,64.87a1013.09,1013.09,0,0,0,175.39,9.82c30.76-1,61.45-3.73,92.21-4.45,29.34-.68,58.74-.07,88.1.5,35,.69,70.08,2,105.12,3v9c-15.84-.2-31.7,0-47.51-.65-38.57-1.44-77.1-4.22-115.68-4.55-29-.26-58.16,2.4-87.23,3.83-39.55,1.94-79,2.55-118.57-.63C945.89,550.3,895.29,544,845.46,534c-44.43-8.87-86.68-22.36-128.3-37.24-13.57-4.86-27.18-10-42.57-9.9-29.85.1-53.12,11.08-71.85,28.37-10,9.18-8.39,20.5-6.07,31.56,1.09,5.15,2.08,10.31,2.81,15.49,1.82,12.78-3.5,23.47-15.67,32C570,604,553.46,610.18,536.65,615.79c-46.57,15.53-94.64,27.21-145,32-41.57,4-83.12,4.6-123.69-6.16-22.18-5.88-41-16-59-27.41-34.09-21.69-68.09-43.48-102.66-64.68-15.47-9.49-32-17.93-51.14-22.62-12.57-3.07-24.27-2.23-35.63,2.58-6.65,2.82-13.07,6-19.59,9Z"/><path class="cls-1" d="M1366,7.84q-93.86-.22-187.72-.45c-86.75-.25-173.51.09-260.24-1C856,5.56,794,2.79,731.93.86A55.35,55.35,0,0,1,725.69,0H1366Z"/><path class="cls-1" d="M573.44,0c-12,1.08-23.88,2.31-35.85,3.2C508.39,5.39,479.22,8.3,450,9.25c-26.67.86-53.56.57-80.17-1.07C295.37,3.61,221,.74,146.29,2.86,97.55,4.25,48.77,4.72,0,5.6V0Z"/></svg>