<svg id="Calque_1" data-name="Calque 1" xmlns="http://www.w3.org/2000/svg" viewBox="0 0 1355.83 767.82"><defs><style>.cls-1{fill:none;}.cls-2{fill:#fff;}</style></defs><path class="cls-1" d="M1365.71,9.63V5.85A7.31,7.31,0,0,0,1365.71,9.63Z" transform="translate(-9.88 -0.18)"/><path class="cls-1" d="M1365.71,1.72V.18h-2.2A2.85,2.85,0,0,1,1365.71,1.72Z" transform="translate(-9.88 -0.18)"/><path class="cls-2" d="M325.7,187.52c20.46-2,41.05-3,61.44-5.41,27.69-3.25,49.56-14.88,63.39-36.66,10.61-16.72,10.7-34.49,5.46-52.34-8.88-30.26-30.54-53.88-53.58-76.73-5.16-5.12-9.6-10.79-14.38-16.2h-6.5c7.7,8.26,15.05,16.78,23.15,24.72,18.88,18.49,31.68,39.72,38.84,63.58,11.82,39.43-13,76-58.66,84.85-17.15,3.31-34.92,4.76-52.51,5.71-92.58,5-175.82,30.43-245.79,85C51.22,291.56,27.1,325.63,9.88,363.59v38.14c8.7-31.07,24.71-60.13,46.49-87C121.91,234,216.19,198.12,325.7,187.52Z" transform="translate(-9.88 -0.18)"/><path class="cls-2" d="M153.94,208.5c55.2-25,115.08-34.14,176.45-37.86,13.61-.83,27.4-2.15,40.59-5,49.2-10.78,72.06-48,56.72-90.4C417.07,45.85,396,22.46,372.86.18h-4.34c17.41,19.3,36.3,38.09,44.16,62.17,4.56,14,7.68,29,6.91,43.42-1.48,27.78-37.81,54.73-73.51,56.9-42.17,2.57-84.18,5.77-125.37,14.92-71.48,15.88-133.78,45.26-182.4,94.35C27.9,282.45,19.25,294.3,9.88,306.42v21.27c.23-.41.46-.82.71-1.23C42.87,272.51,93.47,235.91,153.94,208.5Z" transform="translate(-9.88 -0.18)"/><path class="cls-2" d="M9.88.18V7.4c17.71-2.13,35.33-4.78,53-7.22Z" transform="translate(-9.88 -0.18)"/><path class="cls-2" d="M103.19,47.15c17.35-2.52,34.91-5.23,51.47-10.16C174.71,31,188,17.83,195.1.18H179.93c-13.5,22-35.33,34-62.74,37.7-32.81,4.47-65.87,7.55-98.82,11.29-2.79.32-5.57.73-8.49,1.18v8.89c.44-.08.89-.14,1.36-.2C41.9,55.12,72.63,51.58,103.19,47.15Z" transform="translate(-9.88 -0.18)"/><path class="cls-2" d="M226.63,167.1c31.79-5.37,64.4-7.13,96.65-10.36,21.43-2.14,41.64-6.23,59-18.77,25.93-18.73,29.8-43,23.78-69.36C401.18,47.28,388.7,28.7,372.8,12,369.13,8.08,365.61,4.11,362,.18h-4.33c9.93,15.64,21.54,30.66,29.39,47.05,11.66,24.39,12.42,49.51-6.28,72-15.17,18.28-38.1,25.49-62.75,28.22-29.72,3.29-59.8,4.46-89.32,8.72C142,168.7,67.86,201.76,9.88,260.14v20.92c.54-.65,1.12-1.3,1.74-1.94C68.38,219.77,139.79,181.78,226.63,167.1Z" transform="translate(-9.88 -0.18)"/><path class="cls-2" d="M169.81,89c15.41-1.13,31-2.59,45.94-6C258,73.39,279.07,46.6,275.8,8.66c-.25-2.82-.33-5.65-.49-8.48H264.47c2.4,30.19-7.75,55.73-40.5,69.26-16.24,6.71-35,9.31-53,12.15-39,6.16-78.46,10.5-117.37,17.18-15,2.57-29.27,8.12-43.73,12.85v11q1.28-.63,2.73-1.23C62.46,100.93,115.53,93,169.81,89Z" transform="translate(-9.88 -0.18)"/><path class="cls-2" d="M138.47,60.7C161,58.91,182.34,54,200.28,40.53,214.76,29.71,223.4,16.64,225.45.18H210.28c-2.46,21.63-19,34.47-39.14,42.92-14,5.86-30.09,8.68-45.62,10.72-38.11,5-76.42,9-115.64,13.39V78.85c.51-.16,1-.31,1.61-.46C52.92,67.37,95.67,64.1,138.47,60.7Z" transform="translate(-9.88 -0.18)"/><path class="cls-2" d="M142,76.11c10.07-.71,20.1-1.92,30.13-3C216,68.29,252.56,44.79,251.46.18h-13c-7.15,38.93-32.93,61.2-79.07,66.88-31.41,3.87-63.18,5.67-94.5,10-18.52,2.58-36.62,7.41-55,11.64V99.88l2-.68C53.69,84.82,97.52,79.23,142,76.11Z" transform="translate(-9.88 -0.18)"/><path class="cls-2" d="M123.81,24.41c14.74-3.69,26.73-12.08,34.44-24.23H143.07C126.15,16,104.26,22.86,80.56,25.6c-23.38,2.71-46.9,4.55-70.68,6.7v7.89c19.91-1.9,39.52-3.52,59-6.06C87.33,31.71,105.89,28.9,123.81,24.41Z" transform="translate(-9.88 -0.18)"/><path class="cls-2" d="M183.36,104.4c19-1.53,38.13-3.07,56.92-6,46.7-7.27,67.29-42.24,62.48-79.09C301.91,12.83,299,6.55,297,.18H286.15c15.3,52.22-19,86.94-71.89,92.8-29,3.21-58.08,5.83-87,9.23-39.73,4.67-77.09,16.06-112.92,31.52-1.46.63-2.93,1.24-4.42,1.86V149.7l.66-.36C63.73,121.25,122.29,109.32,183.36,104.4Z" transform="translate(-9.88 -0.18)"/><path class="cls-2" d="M83.56,14.82C96,12.9,109.07,10.54,117.06.18H95.38C81.12,4.07,67.1,9.05,52.52,11.55c-14,2.39-28.37,3.06-42.64,4.15V24l.85-.11C35,21,59.43,18.55,83.56,14.82Z" transform="translate(-9.88 -0.18)"/><path class="cls-2" d="M11.84,237.68C68.05,189.93,135.19,161.36,212,150c31.28-4.62,63.06-6.6,94.61-9.83,25.27-2.58,46.55-11.94,61.28-30.21,15-18.63,16.34-40,8.14-60.62-6.78-17.06-17.83-32.83-27-49.17h-6.5c5.5,10.2,12.43,20,16.14,30.71,4.43,12.77,8.86,26.34,8.44,39.44-1,30.3-23.08,53.42-57.91,60.25-24.87,4.88-50.58,6.81-76,9.12-84.5,7.65-160.29,32.49-223.28,83.14v16.63C10.49,238.87,11.14,238.27,11.84,237.68Z" transform="translate(-9.88 -0.18)"/><path class="cls-2" d="M223,132.35c22.61-1.9,45.47-3,67.68-6.81C349.41,115.4,366.54,72.92,350,31c-4.2-10.63-10.7-20.56-16.14-30.81h-8.67c3.93,8.45,8.24,16.78,11.72,25.36,17.72,43.67-9.44,86-61.71,94.23-27.29,4.32-55.26,5.31-82.68,9.11-58.88,8.16-115.84,21.53-166,51.33-5.5,3.27-11,6.59-16.61,10v17c.42-.33.85-.66,1.31-1C72.81,161.66,144.18,139,223,132.35Z" transform="translate(-9.88 -0.18)"/><path class="cls-2" d="M205.9,117.57c18.68-1.43,37.46-2.82,55.87-5.77,48.94-7.86,74.38-41.71,63.52-84.16-2.4-9.4-7.24-18.32-11-27.46h-6.5c8.06,17.31,11.19,35.19,7.39,53.68-5.62,27.31-33.48,48.42-70.84,52.83-31.47,3.72-63.21,5.8-94.63,9.78C101.64,122.58,57,137.58,15.34,159.36c-1.8.94-3.62,1.85-5.46,2.77v13.09c.6-.4,1.23-.8,1.91-1.19C70.75,139.9,136,122.92,205.9,117.57Z" transform="translate(-9.88 -0.18)"/><path d="M253.89,534.68c26.69-87.61,89.18-148.59,182.87-186.52,57.88-23.43,119.53-30.18,182.13-33.84,33.11-1.93,61.2-11.57,77-39.68,7.86-14,8.9-28.47,5.76-43.3-5.51-26.07-19.57-48.52-39.32-68.46-22.66-22.87-45.8-45.42-67.43-69a90.15,90.15,0,0,1-18.35-30.61c-9.22-26.57,9.19-48.51,41-49.57a158.72,158.72,0,0,1,35.38,3.22c38,7.44,75.88,15.62,113.78,23.57C788.28,45,810,46.88,832.15,43.55,861.71,39.11,881.78,19.39,878,.18H865c-1.69,15.7-12.72,25-28.5,30.4-23.54,8.11-48.12,9-72.5,4.53-30-5.46-59.61-12.76-89.55-18.61-19.35-3.79-38.92-7-58.55-9.42-18.45-2.3-36,.69-47.2,15.07-11.56,14.79-10.07,31.06.05,45.65a400.78,400.78,0,0,0,35.7,43.74c15.2,16.4,31.84,31.79,48,47.54,20.92,20.44,32.35,44.69,36.33,71.5,5.59,37.73-23.47,67.71-72.25,74.07-27.12,3.53-54.66,4.57-81.8,8-85.5,10.82-160.76,40.15-220.46,96-46.87,43.87-71.9,96.84-82.16,155.51-8.36,47.88-8,96.08-6,144.32.8,19.83,1.1,39.67,1.63,59.5h13c-.64-36.85-1.9-73.69-1.75-110.54C239.05,616.14,241.65,574.86,253.89,534.68Z" transform="translate(-9.88 -0.18)"/><path d="M405.07,621.48C437.25,512.39,518.27,444.65,640,411.6c39.65-10.77,80.68-13.34,121.52-17.71,18.31-2,37.62-5.49,53.68-12.92,34.47-15.94,46.25-49.51,33.23-83.33-10.82-28.12-30.72-51-52.89-72.91-17.45-17.21-34.52-34.74-51-52.68a77.93,77.93,0,0,1-14.13-22.11c-12.27-29.24,8.1-54.81,43.71-53.28,21.83,1,43.61,4.94,65.13,8.8,35.32,6.33,70.2,14.78,105.71,20,15.13,2.24,31.9.55,47-2.63,35.3-7.4,49.43-37.06,30.28-64.05-13.24-18.65-29.66-35.58-44.64-53.28C976.18,3.78,974.78,2,973.34.18h-6.51c9.84,11.16,19.92,22.17,29.43,33.55a165.55,165.55,0,0,1,15.65,21.51c15.4,26-1.77,54.88-34.67,60.81-29.51,5.32-58.18,2.08-86.87-3.63-33.78-6.73-67.46-13.87-101.34-20.2a150.09,150.09,0,0,0-33.3-2.75c-30.65,1.28-49.29,22.66-40.63,48.29,4.15,12.29,12.1,24.35,21.31,34.44,22.47,24.63,47.42,47.53,70,72.1,20.21,22,34.38,46.76,33,76.13-1.28,27.81-20.66,51.79-51.66,58.86-24.25,5.52-49.63,8-74.7,9.89-75.58,5.81-144.6,26.72-205.4,66.61-69.44,45.56-107.07,107.73-121.55,181.4-8.2,41.76-10.28,83.9-7.66,126.2a35.43,35.43,0,0,0,.91,4.61h13C392.16,718.86,390.88,669.57,405.07,621.48Z" transform="translate(-9.88 -0.18)"/><path d="M340.42,712.26c.59-49.6,3.83-98.87,23.12-146.26,27.57-67.73,77.74-117.83,150-152.79,55-26.64,113.71-39.32,175.43-44.42,16.52-1.36,33.12-2.66,49.42-5.27,46.61-7.49,75.29-43.11,60.55-89.2-9.9-31-33.25-54.67-56.91-78.31-19.44-19.42-38.48-39.3-55.54-60.3-6.86-8.45-10.69-20.39-11.08-30.87-.77-20.51,19.47-36.54,45.1-36,17.52.37,35.17,3.22,52.39,6.48,32.81,6.21,65.29,13.72,98,20.29,23.4,4.69,46.93,7,70.73,1.22C976,88.53,990,61.36,972.92,34.06c-7.41-11.83-17-22.62-25.6-33.88h-6.5c6.53,9.06,13.72,17.81,19.45,27.23,15.58,25.62,3.32,51.48-28.4,60.25-22.66,6.27-45.73,5.26-68.59,1-36-6.77-71.77-14.52-107.87-20.86-17.91-3.14-36.44-6.18-54.49-5.48C673,63.36,656.76,82.19,662.8,106.1c3.08,12.15,10,24.58,18.78,34.42,23.53,26.3,49.83,50.72,73.49,76.94,20.09,22.27,35.52,46.79,34.23,76.73-1.1,25.43-15,43.57-40.67,54.87-27.61,12.14-58,11.9-87.8,14.23-77.1,6-147.15,28.06-208.3,70-72.85,50-111.37,116.86-120.18,196-5.12,45.94-3.56,92.45-5,138.7h13C340.36,749.42,340.2,730.84,340.42,712.26Z" transform="translate(-9.88 -0.18)"/><path d="M627.37,460.65c45.67-20.34,93.87-31.92,145-35.43,24.72-1.7,50-3.4,73.67-9.29,55.38-13.79,69.24-55.41,51.27-98.44-11.42-27.32-34.08-47.94-55.27-69.45-16.71-16.94-33.29-34-49.1-51.59-9.26-10.31-15.22-22.46-14.05-35.94,2.17-25.11,22.37-39.95,53.13-36.19,33.52,4.11,66.55,11.22,99.82,16.91,25.8,4.42,51.49,9.67,77.51,12.53,11.74,1.3,24.55-1.13,36.23-3.92,31.77-7.58,45.38-34.2,29.77-59.58-9-14.6-20.43-28.18-32-41.36-14.7-16.69-30.7-32.52-46.14-48.72h-6.5c17.4,18.47,35.06,36.77,52.09,55.51a166.29,166.29,0,0,1,17.75,23.67c17.75,28.4,3.55,56.42-32.4,64.67-27.54,6.33-54.35,1.63-81.3-3.64-41.87-8.19-83.65-17-125.92-23.32s-69,24.13-50.59,57.93c8.64,15.89,23.37,29.26,35.21,43.86,3.44,4.24,6.44,8.75,9.64,13.14l.83.71c1.35.27,3.2.13,4,.86,26.77,25.23,53.82,50.35,66.18,84.15,19.19,52.51-17,87.5-69.48,94.34-28.52,3.72-57.58,4.38-86,8.45C623,435.88,535.89,479.8,478.36,562.68c-33,47.54-44.7,100.57-48,155.29-1,16.64-.79,33.35-1.14,50h13c3-32.29,3.74-64.9,9.48-96.82C469,575.25,527.91,504.94,627.37,460.65Z" transform="translate(-9.88 -0.18)"/><path d="M1274.74,14.52c-23.08-3.62-46.28-6.78-69.55-9.28-16.66-1.79-33.53-.35-43.64,13.2-10.45,14-9.2,29.63,1.8,42.77,23.19,27.68,47.87,54.42,71.76,81.66,16.64,19,34.63,37.27,49.09,57.47,21.12,29.49,4.7,58.38-34.51,65.2-28.14,4.88-55.18.45-82.38-5.28-34.38-7.23-68.93-13.85-103.47-20.47a133,133,0,0,0-22.53-2.44c-36.12-.71-59,27.1-44.2,55.86,7.55,14.65,19.57,27.82,31.19,40.53,17.78,19.43,37.25,37.68,55.47,56.81,16.15,17,28.35,36.14,32.34,58,8.17,44.92-20.9,76.43-76.22,83-31.46,3.75-63.41,4.79-94.62,9.6C853.41,555.38,777,593,721.28,659.41c-27.22,32.48-43.92,69.32-53.6,108.59h15.17a291.05,291.05,0,0,1,39.34-85.64c31.22-46.61,77.45-78.85,131.75-103.55,48.67-22.13,100.59-32.28,154.76-36.22a540.18,540.18,0,0,0,61-7.47c47.67-9,71.86-47.79,57.4-88.37-11.81-33.12-37.59-57.63-63-82.64-14.13-13.89-28.57-27.73-40.72-42.91-7.83-9.79-14.84-21.56-16.82-33.14-4.69-27.62,21.48-47.47,56-43.11,26,3.28,51.74,8.57,77.54,13.2,30,5.39,59.75,12.39,90,16,14.38,1.72,30.38-1.05,44.54-4.9,28.64-7.77,41.26-34,25.43-56.29-17.23-24.22-38.14-46.49-58.06-69.19-18.65-21.26-38.33-41.82-57.1-63-9.6-10.82-17.06-22.62-16.6-37.1.5-15.93,10.6-26.69,28.39-30.09,24.49-4.68,48.07,1.28,71.84,4.58,32.41,4.5,64.75,9.43,97.12,14.18V24.76C1334.54,27,1304.89,19.25,1274.74,14.52Z" transform="translate(-9.88 -0.18)"/><path class="cls-2" d="M232,564.18c10.26-58.67,35.29-111.64,82.16-155.51,59.7-55.87,135-85.2,220.46-96,27.14-3.43,54.68-4.47,81.8-8,48.78-6.36,77.84-36.34,72.25-74.07-4-26.81-15.41-51.06-36.33-71.5-16.12-15.75-32.76-31.14-48-47.54A400.78,400.78,0,0,1,568.7,67.8c-10.12-14.59-11.61-30.86-.05-45.65C579.89,7.77,597.4,4.78,615.85,7.08c19.63,2.45,39.2,5.63,58.55,9.42,29.94,5.85,59.52,13.15,89.55,18.61,24.38,4.43,49,3.58,72.5-4.53,15.78-5.43,26.81-14.7,28.5-30.4H849.77C839.25,22.25,817.32,29.49,793,29.71c-21,.19-42.37-2.39-63-6.19C693.12,16.71,656.64,8.06,620,.18H576.63c-32.34,15.22-40.43,37-20,64.54,15.19,20.47,34.51,38.68,52.69,57.37,20.74,21.34,44.1,40.85,56.25,67.7,11.17,24.68,16,49.37.26,73.76-15,23.22-39,33.93-69.05,36.8-41.2,3.94-83.49,5.18-123.11,14.6-132.48,31.5-221.12,102.81-250.76,223.13-12.78,51.85-11.44,104.55-10.06,157.18.64,24.24,1.16,48.49,1.73,72.74h13c-.53-19.83-.83-39.67-1.63-59.5C224.05,660.26,223.66,612.06,232,564.18Z" transform="translate(-9.88 -0.18)"/><path d="M279,548.91c22.53-74.34,70.64-132.11,147-171.58,60.82-31.42,127.27-45,196.92-49.39,12.93-.81,26-1.74,38.62-4.23,58.07-11.47,77.4-45.23,58.88-95.67-6.85-18.63-20.75-35.93-34.47-51.86-18.6-21.6-40.48-41-60.2-61.93-8.19-8.68-15.76-18.2-21.3-28.3-17.75-32.32,4.12-61.26,45.2-59.16,18.59.95,37.11,4.74,55.39,8.3,33.45,6.53,66.65,14,100.06,20.78a135.41,135.41,0,0,0,62.08-1.45C895.27,47,907.25,30.31,902.31,4.86,902,3.32,902,1.74,901.8.18H891c2.12,27-12.49,43.2-43.2,48.92-32.67,6.07-63.69-1-95.06-7.5-36.84-7.62-73.93-14.33-111-21-5.83-1-12.32-.54-18.28.35-28,4.21-43.59,23.8-35.86,47.68,3.62,11.18,10.39,22.28,18.6,31.48,18.15,20.36,38,39.59,57.38,59.1,16.91,17,32,35,41.53,56.07,24,53.07-.87,93.26-61.66,102.53-25.89,3.95-52.44,4.51-78.53,7.63C472.13,336.5,391.79,369.34,330.2,432c-37.63,38.31-59.82,83.57-70.05,133.31-11.57,56.25-10.34,112.9-7.8,169.61.5,11,.86,22,1.28,33h13c-.73-30.52-2.1-61-2-91.57C264.73,633.56,266.31,590.67,279,548.91Z" transform="translate(-9.88 -0.18)"/><path class="cls-2" d="M314.73,580.71C340.8,479,411.37,410.28,522.24,372.62c45.58-15.48,93.33-21.37,141.82-24.64a255.32,255.32,0,0,0,52.85-9.07c35.34-10.18,55-43.61,46.67-77.08-5.66-22.91-17.89-43.24-35.05-61.13C706.29,177.51,683,155,661.19,131.57a109.07,109.07,0,0,1-19.66-29.15C629,74.47,647.72,49.5,682.16,47.79a135.49,135.49,0,0,1,32.21,2.63c38,7.42,76,15.48,113.86,23.44,23.74,5,47.55,8.33,71.77,3,39.3-8.7,53.17-36.64,33.69-67.6-1.91-3-3.91-6-5.88-9h-8.67c21.52,31.48,8,59.86-32.5,68.69-23.12,5-45.89,2.77-68.6-1.8-40.79-8.2-81.53-16.6-122.36-24.65-15.31-3-30.64-4-45.65,1.93-20,7.94-31.43,25.91-24.48,44.13A111.31,111.31,0,0,0,647,122.91c20.63,22.67,43.73,43.61,64.62,66.11,22.57,24.32,40.06,50.92,40,83.71,0,28.09-16.37,46.92-44.31,58.67-20.87,8.77-43.57,10.6-66.4,11.77-72.32,3.71-139.69,21.2-201.36,54.91C366.26,438.18,321.32,495.7,302,568.72c-14.79,56-15.05,113-12.87,170.14.37,9.7-.54,19.43-.85,29.14h15.17c-.12-11,.11-22-.42-33C300.58,683.16,301.72,631.43,314.73,580.71Z" transform="translate(-9.88 -0.18)"/><path d="M449.83,487.21c55.55-53.64,125-85.6,206.36-97.71,26.29-3.92,53.06-5.39,79.63-7.74,24.36-2.16,48.12-5.75,67.2-20.66,25.35-19.79,28.9-45,21-71.88-6.69-22.93-20.81-42.78-38.35-60.75-21.54-22.06-43.42-43.87-64.4-66.32A97.45,97.45,0,0,1,705,137.85c-13-27.11,5.5-54.59,39.11-55.56,19.14-.55,38.72,3,57.68,6.49,36.37,6.68,72.32,15.1,108.68,21.84,21.08,3.91,42.38,3.29,63-3.48,29.45-9.67,40.53-32.8,25.73-57.2-7.71-12.72-18.27-24.12-27.62-36.07-3.63-4.63-7.49-9.13-11.24-13.69h-6.5c10.68,13.44,22.5,26.3,31.78,40.44,16.74,25.47,2.4,54.17-29.93,62.17-25.49,6.31-50.72,3.78-76-1.47C839.3,93,798.86,84.75,758.32,77c-9.05-1.72-18.7-1.77-28-1.47-28.76.92-47.71,21.22-41.25,45.65a72.16,72.16,0,0,0,15.44,28.7c20.36,22.87,43.29,44,63.33,67.07,14.72,16.93,29.55,34.67,39,54,25,51.27-7.08,95.74-70.76,101.8-30.86,2.94-62,4.76-92.46,9.6C548.35,397.54,468.8,436.5,412.83,506.57c-32.75,41-48.44,88.32-55.35,137.84A585.39,585.39,0,0,0,353.35,768h13c.71-31.16-.17-62.43,2.46-93.47C374.69,605.35,394.84,540.32,449.83,487.21Z" transform="translate(-9.88 -0.18)"/><path class="cls-2" d="M476.57,520.41c51.79-56.89,120-92.27,200.94-107.44,36.91-6.92,75-9,112.53-13.47,28.44-3.38,53.07-12.85,67.71-35.77,11.94-18.7,11.74-38.76,4.57-58.66C851.17,274.15,827,250.56,803,226.89c-14.34-14.16-28.81-28.27-42.15-43.13-11.62-13-21.63-27.07-20.33-44.64,1.87-25.33,27.14-40.92,59.66-35.19,42.43,7.46,84.55,16.25,126.73,24.76,27.45,5.54,54.69,7.89,82.25.3,29.34-8.07,41.88-31.32,29.85-56.09-11.07-22.76-30-40.62-47.76-59.27-4.08-4.29-7.64-9-11.44-13.45h-6.5c1.44,1.79,2.84,3.6,4.33,5.36,15,17.7,31.4,34.63,44.64,53.28,19.15,27,5,56.65-30.28,64.05-15.12,3.18-31.89,4.87-47,2.63-35.51-5.26-70.39-13.71-105.71-20-21.52-3.86-43.3-7.85-65.13-8.8-35.61-1.53-56,24-43.71,53.28a77.93,77.93,0,0,0,14.13,22.11c16.44,17.94,33.51,35.47,51,52.68,22.17,21.86,42.07,44.79,52.89,72.91,13,33.82,1.24,67.39-33.23,83.33-16.06,7.43-35.37,11-53.68,12.92-40.84,4.37-81.87,6.94-121.52,17.71-121.74,33-202.76,100.79-234.94,209.88-14.19,48.09-12.91,97.38-12.7,146.52h10.84c1.48-26.71,2.1-53.49,4.6-80.13C413.55,626.78,432.17,569.18,476.57,520.41Z" transform="translate(-9.88 -0.18)"/><path class="cls-2" d="M1196.75,13.57c-17.79,3.4-27.89,14.16-28.39,30.09-.46,14.48,7,26.28,16.6,37.1,18.77,21.18,38.45,41.74,57.1,63,19.92,22.7,40.83,45,58.06,69.19,15.83,22.28,3.21,48.52-25.43,56.29-14.16,3.85-30.16,6.62-44.54,4.9-30.28-3.6-60-10.6-90-16-25.8-4.63-51.5-9.92-77.54-13.2-34.56-4.36-60.73,15.49-56,43.11,2,11.58,9,23.35,16.82,33.14,12.15,15.18,26.59,29,40.72,42.91,25.45,25,51.23,49.52,63,82.64,14.46,40.58-9.73,79.36-57.4,88.37a540.18,540.18,0,0,1-61,7.47c-54.17,3.94-106.09,14.09-154.76,36.22-54.3,24.7-100.53,56.94-131.75,103.55A291.05,291.05,0,0,0,682.85,768H698c26.71-93.08,93.91-155.15,193.15-193.27,49.22-18.9,101.24-24.39,154-27.75,21.29-1.36,41.48-5.36,60.93-14.63,37.24-17.75,42.93-52.37,33.15-80.87-10.24-29.79-32.68-52.87-55.9-75.55-16.82-16.43-33-33.36-48.88-50.5a60.61,60.61,0,0,1-11.45-18c-13.16-32.38,8.26-57.5,47.67-55.33,15.76.86,31.51,3.57,47,6.56,32.77,6.33,65.26,13.75,98,20,23.15,4.45,46.49,5.25,69.54-1.36,27.4-7.86,41.3-34.51,28.4-57.16a190.61,190.61,0,0,0-24.46-33.3c-25.31-27.91-51.69-55.06-77.29-82.77a252.35,252.35,0,0,1-21-26.33,56.33,56.33,0,0,1-8.17-17.35c-6.24-23,7.44-40.19,34.47-40.88,17.86-.45,36,2,53.72,4.48,26.72,3.74,53.2,8.74,79.82,13,4.9.79,10,.68,15,1V32.33c-32.37-4.75-64.71-9.68-97.12-14.18C1244.82,14.85,1221.24,8.89,1196.75,13.57Z" transform="translate(-9.88 -0.18)"/><path d="M289.17,738.86C287,681.76,287.25,624.75,302,568.72c19.28-73,64.22-130.54,137.58-170.64,61.67-33.71,129-51.2,201.36-54.91,22.83-1.17,45.53-3,66.4-11.77,27.94-11.75,44.28-30.58,44.31-58.67,0-32.79-17.46-59.39-40-83.71-20.89-22.5-44-43.44-64.62-66.11a111.31,111.31,0,0,1-21.49-34.43C618.6,70.26,630.07,52.29,650,44.35c15-6,30.34-5,45.65-1.93,40.83,8,81.57,16.45,122.36,24.65,22.71,4.57,45.48,6.85,68.6,1.8,40.51-8.83,54-37.21,32.5-68.69h-6.5a5.83,5.83,0,0,0,0,1.86c10.94,34.34-4.73,55.85-45.15,61.81-27.88,4.11-54.52-2.05-81.29-7.52q-52.73-10.8-105.65-20.88A107.64,107.64,0,0,0,655.78,34C620.9,35.61,601.56,62.38,616,90.37c6.13,11.89,15,23,24.41,33.25,22.84,24.79,47.87,48.1,69.83,73.44,17.74,20.48,30.4,43.48,29.18,70.62C738.13,296,717.83,320.9,686,327.16c-25.58,5-52,7.17-78.14,9.56-84.31,7.71-160,33.2-223.44,83-49.72,39-78.76,88.72-94,145C276,618,274.52,672.07,276.88,726.4c.6,13.86.42,27.73.6,41.6h10.84C288.63,758.29,289.54,748.56,289.17,738.86Z" transform="translate(-9.88 -0.18)"/><path class="cls-2" d="M290.41,564.75c15.21-56.31,44.25-106,94-145,63.46-49.8,139.13-75.29,223.44-83,26.16-2.39,52.56-4.54,78.14-9.56,31.87-6.26,52.17-31.19,53.45-59.48,1.22-27.14-11.44-50.14-29.18-70.62-22-25.34-47-48.65-69.83-73.44C631,113.39,622.12,102.26,616,90.37c-14.43-28,4.91-54.76,39.79-56.4a107.64,107.64,0,0,1,24.74,1.48q53,10,105.65,20.88c26.77,5.47,53.41,11.63,81.29,7.52,40.42-6,56.09-27.47,45.15-61.81a5.83,5.83,0,0,1,0-1.86H901.8c.16,1.56.21,3.14.51,4.68,4.94,25.45-7,42.15-35.12,49.56a135.41,135.41,0,0,1-62.08,1.45C771.7,49.14,738.5,41.62,705.05,35.09c-18.28-3.56-36.8-7.35-55.39-8.3-41.08-2.1-62.95,26.84-45.2,59.16,5.54,10.1,13.11,19.62,21.3,28.3,19.72,20.9,41.6,40.33,60.2,61.93,13.72,15.93,27.62,33.23,34.47,51.86,18.52,50.44-.81,84.2-58.88,95.67-12.6,2.49-25.69,3.42-38.62,4.23-69.65,4.39-136.1,18-196.92,49.39-76.4,39.47-124.51,97.24-147,171.58-12.66,41.76-14.24,84.65-14.35,127.52-.08,30.52,1.29,61.05,2,91.57h10.84c-.18-13.87,0-27.74-.6-41.6C274.52,672.07,276,618,290.41,564.75Z" transform="translate(-9.88 -0.18)"/><path class="cls-2" d="M452.53,433.27c61.15-41.92,131.2-63.95,208.3-70,29.76-2.33,60.19-2.09,87.8-14.23,25.69-11.3,39.57-29.44,40.67-54.87,1.29-29.94-14.14-54.46-34.23-76.73-23.66-26.22-50-50.64-73.49-76.94-8.8-9.84-15.7-22.27-18.78-34.42-6-23.91,10.21-42.74,38.12-43.81,18.05-.7,36.58,2.34,54.49,5.48,36.1,6.34,71.87,14.09,107.87,20.86,22.86,4.29,45.93,5.3,68.59-1,31.72-8.77,44-34.63,28.4-60.25C954.54,18,947.35,9.24,940.82.18h-6.5c4.23,6.23,8.9,12.27,12.61,18.73,17.83,31.06.62,59.41-38.84,65-30.09,4.26-58.84-1.37-87.74-7.48-34-7.2-68.13-14.33-102.48-20.2a99.46,99.46,0,0,0-36.29.44C655,62.34,642,87.76,652.84,109.86c11.77,24,32.8,42.05,52.07,61.18,24.08,23.92,49.63,47,63,77.37a104.42,104.42,0,0,1,8.25,28.19c6.33,48.17-37.13,71.9-73.94,75.77-38,4-76.52,6-113.67,13.33C505.91,382,434.17,415.91,383.25,476.87,348.69,518.23,328,565,320.49,616.16c-6.76,45.82-7.82,91.71-5.62,137.76.22,4.68-.34,9.39-.54,14.08h13c1.45-46.25-.11-92.76,5-138.7C341.16,550.13,379.68,483.22,452.53,433.27Z" transform="translate(-9.88 -0.18)"/><path class="cls-2" d="M752.42,538.43c54-26.83,112.53-38.28,173.7-42.58,19.68-1.38,39.86-2.85,58.62-7.75,51.68-13.5,71.66-52.23,52.14-96.34-10.49-23.69-27.63-43.27-46.83-61.91Q962.9,303.51,937.21,276A88.57,88.57,0,0,1,923,255c-14.52-29,5.7-57.1,41.84-56,21.8.63,43.6,4.91,65.11,8.77,35,6.27,69.47,14.92,104.67,19.75,16.5,2.27,34.8,0,51.19-3.81,30.7-7.13,43.72-34.24,28.47-58.49-9.65-15.35-21.87-29.62-34.32-43.44-27.21-30.21-56-59.38-82.63-89.94-7.72-8.85-10.54-21-15.61-31.57h-13c10,24,30.13,42.08,47.74,61.53,19.25,21.26,40.11,41.41,59.32,62.69,9.77,10.82,18.94,22.44,25.76,34.8,14.08,25.5-.11,50.63-31.33,58.61-26.65,6.82-52.92,3.52-79.24-1.57-42.28-8.18-84.43-17.09-127-23.72-12.25-1.9-26.47,1.47-38.72,5.14-15.72,4.71-25.46,22.85-19.6,39a119.88,119.88,0,0,0,22.94,37.91c21.68,24.36,45.54,47.24,68.29,70.89,16.52,17.18,27.47,36.74,33,58.79,8.35,33.08-5.38,59.72-41.69,71.77-19.89,6.6-41.83,8.91-63.07,11.91-28.48,4-57.66,5-85.71,10.47-86.38,16.88-158,54.9-209.07,119-29.05,36.47-45.51,77.79-53.41,121.64-1.74,9.65-3.1,19.35-4.63,29h13c5.56-23.41,9.16-47.33,17.05-70.12C627,626.86,679,575,752.42,538.43Z" transform="translate(-9.88 -0.18)"/><path d="M61.59,605.71C59,551.8,58.05,497.71,73.14,445c20.12-70.3,62.27-127.68,133.41-168.08,61.95-35.19,130-51.88,202.64-57.27,19.36-1.43,39.22-2.28,57.75-6.82,53.05-13,66.95-53,52.4-93.45C510,93.45,490.6,73.08,471,52.8c-3.41-3.54-6.32-7.45-9.47-11.18l.1.08L420.55.18h-8.67C432.42,20.9,454.33,40.72,473,62.65a223.7,223.7,0,0,1,32.26,50.94c19.06,41.22-5.53,82-54.93,92.39-16.37,3.44-33.5,4.49-50.37,5.66-61.45,4.27-120.45,15.92-175.33,41.44C120.83,301.35,64.39,377.26,51.36,478.47c-6.22,48.31-6.69,96.67-2.91,145.28A646.9,646.9,0,0,1,43.36,768H58.53C65.3,714,64.16,659.87,61.59,605.71Z" transform="translate(-9.88 -0.18)"/><path class="cls-2" d="M1239.67,26c-15.63-1.39-30.93,1.25-40.47,13.52-9.66,12.44-9,26.67.13,38.48,18.12,23.45,37.93,45.92,57.47,68.51,20.19,23.36,41.07,46.26,61.24,69.63,4,4.69,6.81,10.42,9.2,16,9.26,21.49-3.72,44.49-28.83,51.45-24.08,6.68-48.41,6.2-72.77,1.36-38-7.56-75.9-15.5-114-22.79a180.67,180.67,0,0,0-32.18-3.29c-38.88-.34-60.34,29-42,59.09,9,14.8,22.11,27.85,34.31,41,19,20.55,39.71,40,58.12,60.91,14.43,16.41,23.43,35.51,25.52,56.47,3.15,31.65-12.71,56.27-47.09,66.91-20.07,6.21-42,8.9-63.35,10.67-39.67,3.29-79.22,6.92-116.76,19.08-67.94,22-127.83,54.21-170.09,107.29C736.81,707.16,721.63,736.67,711,768h15.17c12.7-31.22,25.71-62.29,50-88.54,51.83-56,118.29-92.29,198.51-107.64,37.57-7.19,76.44-9.15,114.66-13.83,18-2.21,35.5-6.34,50-16.65,27.52-19.53,35.81-47,24.65-77.56-10.87-29.74-33-52.76-56.22-75.46-15.83-15.52-31.11-31.49-45.95-47.74a84.24,84.24,0,0,1-13.48-20.38c-13.59-28.31,6.3-56.13,41.27-54.92,24.67.86,49.27,5.84,73.61,10.18,30.75,5.49,61,13.53,91.91,17.86,16.28,2.27,34.11,1,50.31-2.21,35.14-7,49.28-35.81,29.67-62.09-18-24.19-39.62-46.38-59.78-69.36-18.22-20.76-37.16-41-54.67-62.25A79,79,0,0,1,1206.83,71c-5.64-17.88,5.5-33.85,26.44-36.36,14.74-1.77,30.3-1.13,45.09.78,29.26,3.78,58.25,9.17,87.35,13.9V43.68c-20.58-3.31-41.1-6.91-61.75-9.83C1282.6,30.83,1261.18,27.9,1239.67,26Z" transform="translate(-9.88 -0.18)"/><path class="cls-2" d="M709.25,442.7c35.84-9.75,73.11-11.08,110.15-14.07,16.71-1.34,33.91-3.74,49.5-8.86,40.25-13.24,58.19-49.09,45.74-85.15-10.92-31.62-35.28-55.11-59.14-79.28-19.75-20-38.71-40.68-56.65-61.93-5.14-6.09-7.48-15.2-7.71-23-.7-23.74,15.57-39.6,42.8-39.48,20.72.1,41.65,3.34,62.06,7,36.77,6.52,73.06,15.13,109.87,21.41,21.49,3.67,43.13,2,63.28-7.32,22.15-10.26,31.61-28,22.32-48.22A147.61,147.61,0,0,0,1067.78,68c-20.54-23.17-42.64-45.28-64.09-67.82h-6.51c15.44,16.2,31.44,32,46.14,48.72,11.61,13.18,23.06,26.76,32,41.36,15.61,25.38,2,52-29.77,59.58-11.68,2.79-24.49,5.22-36.23,3.92-26-2.86-51.71-8.11-77.51-12.53-33.27-5.69-66.3-12.8-99.82-16.91-30.76-3.76-51,11.08-53.13,36.19-1.17,13.48,4.79,25.63,14.05,35.94C808.76,214,825.34,231.1,842.05,248c21.19,21.51,43.85,42.13,55.27,69.45,18,43,4.11,84.65-51.27,98.44-23.66,5.89-48.95,7.59-73.67,9.29-51.14,3.51-99.34,15.09-145,35.43C527.91,504.94,469,575.25,451.71,671.18c-5.74,31.92-6.46,64.53-9.48,96.82h13c.29-47.15,4.67-93.8,22.39-138.82C516.39,530.67,598.27,472.89,709.25,442.7Z" transform="translate(-9.88 -0.18)"/><path d="M892.76,543.06c43-11.13,87.42-12.71,131.42-17.63,16.34-1.83,33.46-6.76,47.5-14.2,31.34-16.6,41-44.1,30.59-77.71-8.12-26.1-26.29-47.25-46.91-67.14-20.31-19.59-39.51-40.08-58.84-60.44-4.08-4.3-7-9.55-9.79-14.65-17.13-31.77,6.14-62.72,46.15-59,31.08,2.92,61.7,9.7,92.49,14.89,27.94,4.7,55.69,10.51,83.82,13.91,11.69,1.42,24.54-1,36.23-3.67,31.88-7.39,45.77-33,30-58.28-11.33-18.08-26-34.75-40.52-51.11-23.24-26.11-47.68-51.41-71.48-77.14a130.85,130.85,0,0,1-9.79-12.47c-16.87-23.3-13.55-41.53,10.5-58.27h-23.84c-12.85,15.26-13.4,31.86-1.76,46.8,18.63,23.92,39.29,46.64,59.42,69.65,20.76,23.74,43.63,46.24,62.42,71.1,20.63,27.3,4.68,57.24-32,64.65-23,4.64-46,2.54-68.71-1.91-40.49-7.91-80.83-16.4-121.42-23.85a103.34,103.34,0,0,0-32.17-.79c-29.28,4.09-44,24.48-35.55,49.31a77.06,77.06,0,0,0,15.44,26.73c18.4,20.19,38,39.54,57.63,58.88,17.33,17.12,32.25,35.42,42.46,56.63,16.6,34.47,6,71.47-29.51,88.26-17.17,8.12-38,12-57.74,14-40.49,4.2-81.36,6-120.49,17.12-126.22,36-209.59,106.7-236.38,223-.63,2.77-1.58,5.48-2.38,8.22h15.17c7.62-32.63,19.23-64.2,38.69-92.87C739.16,607.66,807,565.23,892.76,543.06Z" transform="translate(-9.88 -0.18)"/><path class="cls-2" d="M725.42,478.72c46.92-16.42,96.38-20.89,146.14-24.56,14.61-1.07,29.52-3.25,43.34-7.36,49.64-14.76,59.34-51.6,48.47-86.51-8.66-27.82-29-49.6-50.51-70.74-19.14-18.86-38.19-37.83-56-57.64-6.67-7.43-11.24-17-14-26.24-7.33-24.51,10.23-46.21,39.18-46.48,20.34-.19,41,2.81,61,6.31,30.42,5.31,60.54,12,90.65,18.65,23.92,5.26,47.65,6.1,71.75,1,32.63-6.92,48.68-34.88,33-60.88-8.15-13.55-18.7-26.2-29.66-38.22-24.05-26.37-49.08-52-73.62-78.09-2.2-2.34-3.73-5.17-5.57-7.77h-6.5c13.18,14.9,26.28,29.86,39.57,44.69,17.12,19.08,35.17,37.58,51.25,57.3,7.33,9,13.14,19.86,15.72,30.6,4.73,19.75-8.57,36.77-30.64,43.13-26.69,7.69-53.47,5.69-80.17.24-29.52-6-58.83-12.89-88.49-18.35a401.7,401.7,0,0,0-53.53-6.42c-36.17-1.74-57.36,22.79-44.73,52.15,4.84,11.27,12.57,22.08,21.24,31.53,21.63,23.58,45.88,45.42,66.49,69.63,12.91,15.18,23,32.77,31,50.42,8.6,18.9,4.78,38.67-5.54,56.77-10.13,17.75-29.4,26.62-49.91,30.42-27.77,5.14-56.34,7-84.61,10.09-88.81,9.56-167.68,37.77-229.28,96C533.26,594.07,507.93,649.48,499,710.65c-2.77,19-3.23,38.23-4.74,57.35H505.1c5.26-31.41,7.4-63.51,16.36-94.09C549.61,577.85,621.39,515.14,725.42,478.72Z" transform="translate(-9.88 -0.18)"/><path d="M637.24,537.08c42.5-30.91,90.71-53.16,145.3-62.27,37.12-6.19,74.92-9.39,112.52-13.19,19.9-2,38.31-6.86,54-17.76,29.19-20.33,37.77-48.55,25.38-80.63-8.94-23.13-24.78-42.63-42.66-60.93-18-18.46-37.06-36.19-54.77-54.88-7.49-7.91-14.22-16.91-18.67-26.36-14.21-30.22,8.66-58.34,46-56.12,19.35,1.15,38.64,4.61,57.65,8.25,29.62,5.66,58.7,13.83,88.54,18.14a246.42,246.42,0,0,0,63.33,1.17c36.24-4.29,53.23-34.78,35.3-62.57-11.42-17.71-26-34-40.4-50.08-21.39-23.77-44-46.72-65.92-70.13-2.68-2.85-4.45-6.35-6.64-9.54h-6.5c1.84,2.6,3.37,5.43,5.57,7.77,24.54,26,49.57,51.72,73.62,78.09,11,12,21.51,24.67,29.66,38.22,15.63,26-.42,54-33,60.88-24.1,5.11-47.83,4.27-71.75-1-30.11-6.63-60.23-13.34-90.65-18.65-20.07-3.5-40.7-6.5-61-6.31-28.95.27-46.51,22-39.18,46.48,2.76,9.23,7.33,18.81,14,26.24,17.79,19.81,36.84,38.78,56,57.64,21.47,21.14,41.85,42.92,50.51,70.74,10.87,34.91,1.17,71.75-48.47,86.51-13.82,4.11-28.73,6.29-43.34,7.36-49.76,3.67-99.22,8.14-146.14,24.56-104,36.42-175.81,99.13-204,195.19-9,30.58-11.1,62.68-16.36,94.09h13c4.37-25.51,7.37-51.27,13.38-76.48C546.26,629.58,581.47,577.64,637.24,537.08Z" transform="translate(-9.88 -0.18)"/><path d="M708.16,522.82c54.68-28.54,114.06-41.59,176.71-46.2,18-1.32,36-2.87,53.69-5.81,51.92-8.64,78.57-49.7,61.9-93.48-12.21-32.08-37.2-56.43-62.21-81-15.34-15-30.55-30.27-44.41-46.33a61.78,61.78,0,0,1-13.33-25.46c-6.58-28.21,18-49.83,53.08-46.37,22.53,2.21,44.82,6.56,67.06,10.63,32.47,6,64.54,14.06,97.28,18.2,16.48,2.08,34.77-.45,51-4.59,28.74-7.32,41.39-31.71,27.64-54.95-11.13-18.81-26.21-36-41.17-52.89-24.53-27.61-50.48-54.26-75.58-81.49-3.52-3.82-5.66-8.6-8.44-12.94h-8.67c20.33,22.44,40.76,44.83,61,67.35C1123,89.07,1143.44,110,1161,132.6c15.08,19.39,13.24,37.31-2.77,52-6.14,5.64-14.88,10.17-23.42,12.6-28.49,8.11-57,4-85.48-1.62q-61.77-12.2-123.71-23.7a61.06,61.06,0,0,0-40.69,6.27c-19.12,10.43-24.93,32.84-11.62,53,10.72,16.24,24.62,31,37.91,45.82,21.27,23.77,44.86,46.11,64.16,71,9.41,12.16,14.8,28.51,16,43.34,3,38-20.34,64.52-63.28,72-28.91,5.06-58.71,6.13-88,9.45-92.11,10.43-171,44.31-231.4,106.07-41.47,42.38-63.46,93.45-71.37,148.82-1.91,13.37-2.71,26.87-4,40.31h13C553.94,663,601.63,578.43,708.16,522.82Z" transform="translate(-9.88 -0.18)"/><path d="M314.87,753.92c-2.2-46-1.14-91.94,5.62-137.76,7.54-51.15,28.2-97.93,62.76-139.29,50.92-61,122.66-94.92,205.31-111.17,37.15-7.31,75.69-9.34,113.67-13.33,36.81-3.87,80.27-27.6,73.94-75.77a104.42,104.42,0,0,0-8.25-28.19C754.54,218,729,195,704.91,171c-19.27-19.13-40.3-37.18-52.07-61.18C642,87.76,655,62.34,681.58,56.67a99.46,99.46,0,0,1,36.29-.44c34.35,5.87,68.44,13,102.48,20.2,28.9,6.11,57.65,11.74,87.74,7.48,39.46-5.59,56.67-33.94,38.84-65-3.71-6.46-8.38-12.5-12.61-18.73h-6.51c2,3,4,6,5.88,9,19.48,31,5.61,58.9-33.69,67.6-24.22,5.37-48,2-71.77-3-37.91-8-75.81-16-113.86-23.44a135.49,135.49,0,0,0-32.21-2.63C647.72,49.5,629,74.47,641.53,102.42a109.07,109.07,0,0,0,19.66,29.15C683,155,706.29,177.51,728.53,200.7c17.16,17.89,29.39,38.22,35.05,61.13,8.29,33.47-11.33,66.9-46.67,77.08A255.32,255.32,0,0,1,664.06,348c-48.49,3.27-96.24,9.16-141.82,24.64C411.37,410.28,340.8,479,314.73,580.71c-13,50.72-14.15,102.45-11.66,154.25.53,11,.3,22,.42,33h10.84C314.53,763.31,315.09,758.6,314.87,753.92Z" transform="translate(-9.88 -0.18)"/><path d="M663.67,425.74c44.3-11.56,90-14.88,135.5-19.26,18.17-1.75,35.26-6.39,50.24-16.07,35.74-23.08,35.75-59.44,21.6-85.9-10.09-18.88-24.88-35.89-38.07-53.45-4.92-6.54-11.26-12.26-17-18.35l-.83-.71c-17.71-18.59-36.34-36.6-52.67-56.07-6.16-7.34-9.22-18-9.8-27.29-1.24-20.18,12.69-34.88,35.69-37.27a154.8,154.8,0,0,1,42.76,1.8c39.52,7.12,78.66,15.85,118.05,23.52,23.47,4.56,47.16,6,70.6-.42,34.3-9.37,47.82-37.2,27.92-63.45C1028.5,47.47,1005.51,24.3,984.18.18h-4.34c3.8,4.49,7.36,9.16,11.44,13.45C1009,32.28,1028,50.14,1039,72.9c12,24.77-.51,48-29.85,56.09-27.56,7.59-54.8,5.24-82.25-.3-42.18-8.51-84.3-17.3-126.73-24.76-32.52-5.73-57.79,9.86-59.66,35.19-1.3,17.57,8.71,31.68,20.33,44.64,13.34,14.86,27.81,29,42.15,43.13,24,23.67,48.14,47.26,59.29,78.18,7.17,19.9,7.37,40-4.57,58.66-14.64,22.92-39.27,32.39-67.71,35.77C752.51,404,714.42,406.05,677.51,413c-81,15.17-149.15,50.55-200.94,107.44-44.4,48.77-63,106.37-68.76,167.46-2.5,26.64-3.12,53.42-4.6,80.13h13c2.08-31.09,2.76-62.32,6.51-93.26C438,548.89,531.47,460.23,663.67,425.74Z" transform="translate(-9.88 -0.18)"/><path d="M1270.88,24c-17.75-2.49-35.86-4.93-53.72-4.48-27,.69-40.71,17.89-34.47,40.88a56.33,56.33,0,0,0,8.17,17.35,252.35,252.35,0,0,0,21,26.33c25.6,27.71,52,54.86,77.29,82.77a190.61,190.61,0,0,1,24.46,33.3c12.9,22.65-1,49.3-28.4,57.16-23,6.61-46.39,5.81-69.54,1.36-32.77-6.29-65.26-13.71-98-20-15.46-3-31.21-5.7-47-6.56-39.41-2.17-60.83,22.95-47.67,55.33a60.61,60.61,0,0,0,11.45,18c15.87,17.14,32.06,34.07,48.88,50.5,23.22,22.68,45.66,45.76,55.9,75.55,9.78,28.5,4.09,63.12-33.15,80.87-19.45,9.27-39.64,13.27-60.93,14.63-52.75,3.36-104.77,8.85-154,27.75C791.94,612.85,724.74,674.92,698,768h13c10.59-31.33,25.77-60.84,47.15-87.7C800.45,627.22,860.34,595,928.28,573c37.54-12.16,77.09-15.79,116.76-19.08,21.36-1.77,43.28-4.46,63.35-10.67,34.38-10.64,50.24-35.26,47.09-66.91-2.09-21-11.09-40.06-25.52-56.47-18.41-20.94-39.08-40.36-58.12-60.91-12.2-13.17-25.26-26.22-34.31-41-18.38-30.05,3.08-59.43,42-59.09a180.67,180.67,0,0,1,32.18,3.29c38.07,7.29,76,15.23,114,22.79,24.36,4.84,48.69,5.32,72.77-1.36,25.11-7,38.09-30,28.83-51.45-2.39-5.57-5.15-11.3-9.2-16-20.17-23.37-41-46.27-61.24-69.63-19.54-22.59-39.35-45.06-57.47-68.51-9.13-11.81-9.79-26-.13-38.48,9.54-12.27,24.84-14.91,40.47-13.52,21.51,1.9,42.93,4.83,64.29,7.85,20.65,2.92,41.17,6.52,61.75,9.83V38c-5-.31-10.11-.2-15-1C1324.08,32.73,1297.6,27.73,1270.88,24Z" transform="translate(-9.88 -0.18)"/><path d="M686.33,459.38c42-15.29,86.44-19.23,131.25-22.13,17.56-1.14,34.89-4.75,52.38-6.91,43.91-5.45,65.24-46.36,58.95-79.22-3.84-20.08-13.77-38-27.91-53.7-17.57-19.56-36.93-37.89-54.9-57.19-12.48-13.4-25.2-26.86-35.47-41.54-10.72-15.33-10.82-32.3,2-47.15,12.49-14.4,31.27-16.7,50-14.15,25.29,3.43,50.34,8.39,75.36,13.22,21.14,4.09,41.86,10.24,63.19,13,19.06,2.5,39,4,58,1.84,42.82-4.8,60.18-35.8,37.46-67.65-15.16-21.25-34.57-40.21-52.26-60.07-11.26-12.65-22.86-25.07-34.3-37.59h-6.5c21.45,22.54,43.55,44.65,64.09,67.82a147.61,147.61,0,0,1,23.69,35.77c9.29,20.25-.17,38-22.32,48.22-20.15,9.33-41.79,11-63.28,7.32C969.06,153,932.77,144.42,896,137.9c-20.41-3.63-41.34-6.87-62.06-7-27.23-.12-43.5,15.74-42.8,39.48.23,7.8,2.57,16.91,7.71,23,17.94,21.25,36.9,41.92,56.65,61.93,23.86,24.17,48.22,47.66,59.14,79.28,12.45,36.06-5.49,71.91-45.74,85.15-15.59,5.12-32.79,7.52-49.5,8.86-37,3-74.31,4.32-110.15,14.07-111,30.19-192.86,88-231.62,186.48-17.72,45-22.1,91.67-22.39,138.82h13c.32-66.8,12.46-131.2,52-189.75C558.86,521,617.28,484.49,686.33,459.38Z" transform="translate(-9.88 -0.18)"/><path class="cls-2" d="M1254.62,39.13c-29.29,2-43.87,22.5-33.38,46.45a75.32,75.32,0,0,0,12.51,19.75c28.15,31.55,57,62.65,85.15,94.18a332,332,0,0,1,27.2,34.07c19.3,28.4,6.18,55.88-30.36,64.42-28.19,6.59-55.77,1.75-83.44-3.68-40.8-8-81.64-16-122.78-22.49-18.35-2.9-35.33,2.83-46.36,17-10.85,13.9-10.63,29.55-.49,42.86,14.29,18.77,31.22,36,47.23,53.77,16.71,18.53,34.66,36.28,50.21,55.52,13.49,16.68,20.83,35.78,19.8,56.86-1.56,31.79-24.84,57.24-60.54,64.16a370.74,370.74,0,0,1-42.83,5.24c-45.08,3.33-90,7.8-132.54,22-92.74,31-161.92,83.76-198.14,166.21-1.8,4.1-3,8.4-4.48,12.6h15.18c43.82-102.61,131.51-160.53,250.72-184.54,34.26-6.89,70.29-6.83,104.93-12.56,18.66-3.09,38-9.19,53.7-18.33,28.53-16.66,35.78-48.67,22.29-79.93-13.06-30.25-38-53.17-61.92-76.75-14.83-14.6-29-29.74-42.88-45-4.43-4.85-7.65-10.69-10.58-16.41-14.36-28.09,4.31-56,39.58-56,21.72,0,43.61,4.44,65.11,8.25,35.34,6.25,70.33,14,105.67,20.25,9.69,1.71,20.15.84,30.16.17,22.4-1.52,41-9.1,52.37-27.11V251.71c-27.35-45.32-71-79.9-104.78-121-6.73-8.18-13.94-16.12-19.88-24.73-4.22-6.1-7.9-12.89-9.7-19.8-5.81-22.36,7.58-39.29,33.8-39.3,23.64,0,47.31,3.79,70.89,6.45,10,1.12,19.78,3.59,29.67,5.45V53.13c-26.26-4.12-52.46-8.54-78.79-12.22C1276.3,39.42,1265.28,38.39,1254.62,39.13Z" transform="translate(-9.88 -0.18)"/><path d="M192.88,553.72c7.57-56.88,29.77-108.53,71.49-152.62,41.18-43.53,95.24-71.63,155.41-91.2,45.56-14.82,93.3-18.65,141.23-22.23,14.54-1.08,29.92-3.25,42.92-8.6,46.1-19,57.34-42.87,44.08-86.32-6.78-22.23-21.18-41.29-38.26-58.69-20.9-21.28-42.28-42.21-62.81-63.76a139.06,139.06,0,0,1-18.17-24.52C519.53,30.42,519.53,15,531.11.18H513.77C502.55,21.67,512.45,39.72,527.34,56c20,21.87,41.74,42.58,62.19,64.18,21.64,22.87,42.7,46.06,48.65,76.69,7,35.85-14.09,68.18-54.73,76.92-27.81,6-56.94,7.58-85.57,10.33-70.82,6.79-135.25,27.65-192.6,64.82C238.52,392.18,200,450.49,184.44,521.05c-10,45.41-10.93,91.35-10.22,137.38.56,36.52.92,73.05,1.37,109.57h15.18C191,696.58,183.39,625.14,192.88,553.72Z" transform="translate(-9.88 -0.18)"/><path class="cls-2" d="M499.83,650.66c34.92-97.44,111.39-158.77,220.7-190.92,44.26-13,90.55-14.94,136.46-19.44,17.12-1.67,35-6.44,50-13.81,31.49-15.53,42.88-48.25,31.39-80.06-8.42-23.34-23.68-42.95-42-61.1-19.1-18.89-38.39-37.7-56.37-57.39-8.64-9.47-16.23-20.3-21.2-31.55-11.07-25,4.82-48.8,35.36-50.74,19.76-1.26,40.28,1.46,59.91,4.81,38.59,6.58,76.59,15.86,115.26,21.94a155.58,155.58,0,0,0,50.35-.9c34-6.08,50.76-37.56,32.44-63.2-16.89-23.63-38.39-44.76-58-66.88-12.29-13.85-24.89-27.5-37.35-41.24h-6.5c11.44,12.52,23,24.94,34.3,37.59,17.69,19.86,37.1,38.82,52.26,60.07,22.72,31.85,5.36,62.85-37.46,67.65-19,2.13-39,.66-58-1.84-21.33-2.8-42-9-63.19-13-25-4.83-50.07-9.79-75.36-13.22-18.77-2.55-37.55-.25-50,14.15-12.87,14.85-12.77,31.82-2,47.15,10.27,14.68,23,28.14,35.47,41.54,18,19.3,37.33,37.63,54.9,57.19,14.14,15.74,24.07,33.62,27.91,53.7,6.29,32.86-15,73.77-58.95,79.22-17.49,2.16-34.82,5.77-52.38,6.91-44.81,2.9-89.22,6.84-131.25,22.13C617.28,484.49,558.86,521,520.21,578.25c-39.51,58.55-51.65,123-52,189.75h13A319.92,319.92,0,0,1,499.83,650.66Z" transform="translate(-9.88 -0.18)"/><path class="cls-2" d="M357.48,644.41c6.91-49.52,22.6-96.84,55.35-137.84,56-70.07,135.52-109,230.74-124.15,30.48-4.84,61.6-6.66,92.46-9.6,63.68-6.06,95.71-50.53,70.76-101.8-9.42-19.36-24.25-37.1-39-54-20-23.06-43-44.2-63.33-67.07a72.16,72.16,0,0,1-15.44-28.7c-6.46-24.43,12.49-44.73,41.25-45.65,9.32-.3,19-.25,28,1.47,40.54,7.71,81,15.91,121.35,24.28,25.29,5.25,50.52,7.78,76,1.47,32.33-8,46.67-36.7,29.93-62.17-9.28-14.14-21.1-27-31.78-40.44h-6.51c8.6,11.26,18.19,22.05,25.6,33.88,17.12,27.3,3,54.47-31.3,62.78-23.8,5.76-47.33,3.47-70.73-1.22-32.73-6.57-65.21-14.08-98-20.29-17.22-3.26-34.87-6.11-52.39-6.48-25.63-.55-45.87,15.48-45.1,36,.39,10.48,4.22,22.42,11.08,30.87,17.06,21,36.1,40.88,55.54,60.3,23.66,23.64,47,47.34,56.91,78.31,14.74,46.09-13.94,81.71-60.55,89.2-16.3,2.61-32.9,3.91-49.42,5.27-61.72,5.1-120.4,17.78-175.43,44.42-72.23,35-122.4,85.06-150,152.79-19.29,47.39-22.53,96.66-23.12,146.26-.22,18.58-.06,37.16-.08,55.74h13A585.39,585.39,0,0,1,357.48,644.41Z" transform="translate(-9.88 -0.18)"/><path class="cls-2" d="M878.26,536.78c39.13-11.17,80-12.92,120.49-17.12,19.71-2,40.57-5.9,57.74-14,35.53-16.79,46.11-53.79,29.51-88.26-10.21-21.21-25.13-39.51-42.46-56.63-19.59-19.34-39.23-38.69-57.63-58.88a77.06,77.06,0,0,1-15.44-26.73c-8.46-24.83,6.27-45.22,35.55-49.31a103.34,103.34,0,0,1,32.17.79c40.59,7.45,80.93,15.94,121.42,23.85,22.73,4.45,45.7,6.55,68.71,1.91,36.7-7.41,52.65-37.35,32-64.65-18.79-24.86-41.66-47.36-62.42-71.1-20.13-23-40.79-45.73-59.42-69.65-11.64-14.94-11.09-31.54,1.76-46.8h-19.51c-7,22.05,2.81,40.38,17.75,56.93,26.81,29.69,54.69,58.64,81.51,88.32,10.69,11.83,21,24.18,29.29,37.33,17.34,27.39,4.11,53.37-30.38,61.85-22.81,5.6-45.78,4.58-68.59.08-39.78-7.86-79.38-16.46-119.29-23.76-15.68-2.87-31.88-5.63-47.93.59-22.05,8.54-33.12,27-25.34,47a91.83,91.83,0,0,0,17.84,28.84c22.94,24.71,47.3,48.41,70.9,72.66a132.2,132.2,0,0,1,31.24,52.4c15.2,47.08-22.39,81.84-65.35,87.87-28.1,3.95-56.8,4.54-85,8-99.37,12.07-183.19,49-243.59,120.59C651.51,677.12,634,721,626.49,768h13c.8-2.74,1.75-5.45,2.38-8.22C668.67,643.48,752,572.81,878.26,536.78Z" transform="translate(-9.88 -0.18)"/><path class="cls-2" d="M260.15,565.34c10.23-49.74,32.42-95,70.05-133.31,61.59-62.69,141.93-95.53,234.67-106.61,26.09-3.12,52.64-3.68,78.53-7.63,60.79-9.27,85.63-49.46,61.66-102.53-9.52-21.1-24.62-39.07-41.53-56.07-19.39-19.51-39.23-38.74-57.38-59.1-8.21-9.2-15-20.3-18.6-31.48-7.73-23.88,7.81-43.47,35.86-47.68,6-.89,12.45-1.4,18.28-.35,37.08,6.69,74.17,13.4,111,21,31.37,6.49,62.39,13.57,95.06,7.5C878.47,43.38,893.08,27.17,891,.18H878c3.83,19.21-16.24,38.93-45.8,43.37C810,46.88,788.28,45,766.66,40.47c-37.9-7.95-75.75-16.13-113.78-23.57a158.72,158.72,0,0,0-35.38-3.22c-31.78,1.06-50.19,23-41,49.57a90.15,90.15,0,0,0,18.35,30.61c21.63,23.6,44.77,46.15,67.43,69,19.75,19.94,33.81,42.39,39.32,68.46,3.14,14.83,2.1,29.3-5.76,43.3-15.78,28.11-43.87,37.75-77,39.68-62.6,3.66-124.25,10.41-182.13,33.84-93.69,37.93-156.18,98.91-182.87,186.52-12.24,40.18-14.84,81.46-15,122.78-.15,36.85,1.11,73.69,1.75,110.54h13c-.42-11-.78-22-1.28-33C249.81,678.24,248.58,621.59,260.15,565.34Z" transform="translate(-9.88 -0.18)"/><path class="cls-2" d="M1224.27,1.74c-1.33-.17-2.54-1-3.8-1.56H1164.1c-24,16.74-27.37,35-10.5,58.27a130.85,130.85,0,0,0,9.79,12.47c23.8,25.73,48.24,51,71.48,77.14,14.55,16.36,29.19,33,40.52,51.11,15.8,25.23,1.91,50.89-30,58.28-11.69,2.71-24.54,5.09-36.23,3.67-28.13-3.4-55.88-9.21-83.82-13.91-30.79-5.19-61.41-12-92.49-14.89-40-3.75-63.28,27.2-46.15,59,2.75,5.1,5.71,10.35,9.79,14.65,19.33,20.36,38.53,40.85,58.84,60.44,20.62,19.89,38.79,41,46.91,67.14,10.46,33.61.75,61.11-30.59,77.71-14,7.44-31.16,12.37-47.5,14.2-44,4.92-88.37,6.5-131.42,17.63-85.74,22.17-153.6,64.6-199.4,132.07C673.9,703.8,662.29,735.37,654.67,768h13c9.68-39.27,26.38-76.11,53.6-108.59,55.69-66.44,132.13-104,224-118.21,31.21-4.81,63.16-5.85,94.62-9.6,55.32-6.6,84.39-38.11,76.22-83-4-21.88-16.19-41.06-32.34-58-18.22-19.13-37.69-37.38-55.47-56.81-11.62-12.71-23.64-25.88-31.19-40.53-14.83-28.76,8.08-56.57,44.2-55.86a133,133,0,0,1,22.53,2.44c34.54,6.62,69.09,13.24,103.47,20.47,27.2,5.73,54.24,10.16,82.38,5.28,39.21-6.82,55.63-35.71,34.51-65.2-14.46-20.2-32.45-38.49-49.09-57.47-23.89-27.24-48.57-54-71.76-81.66-11-13.14-12.25-28.75-1.8-42.77,10.11-13.55,27-15,43.64-13.2,23.27,2.5,46.47,5.66,69.55,9.28,30.15,4.73,59.8,12.48,91,10.24V19.09C1317.22,21.61,1271.36,7.84,1224.27,1.74Z" transform="translate(-9.88 -0.18)"/><path class="cls-2" d="M773.28,506.75c49.93-17.83,102.56-22.68,155.66-25.81,19.68-1.16,38.61-5.37,55.37-14.74,28.86-16.12,40.19-45.25,30.41-77.49-6.59-21.7-19.19-40.6-36-57.51C956,308.39,933.23,285.56,911,262.37A92.49,92.49,0,0,1,897,242.28c-15.48-28.56,5.86-58.56,42-57.94,16.81.28,33.77,2.92,50.26,6.09,35.94,6.92,71.47,15.49,107.47,22.15a138.08,138.08,0,0,0,64.21-2.93c29-8.48,41.74-31.4,28.79-55.63-7.38-13.8-17.7-26.7-28.54-38.74-29.19-32.44-59.54-64.1-89-96.35-5.06-5.53-8.12-12.46-12.1-18.75h-8.67c2.78,4.34,4.92,9.12,8.44,12.94,25.1,27.23,51,53.88,75.58,81.49,15,16.84,30,34.08,41.17,52.89,13.75,23.24,1.1,47.63-27.64,54.95-16.23,4.14-34.52,6.67-51,4.59-32.74-4.14-64.81-12.24-97.28-18.2-22.24-4.07-44.53-8.42-67.06-10.63-35.12-3.46-59.66,18.16-53.08,46.37A61.78,61.78,0,0,0,893.84,250c13.86,16.06,29.07,31.29,44.41,46.33,25,24.53,50,48.88,62.21,81,16.67,43.78-10,84.84-61.9,93.48-17.68,2.94-35.73,4.49-53.69,5.81-62.65,4.61-122,17.66-176.71,46.2C601.63,578.43,553.94,663,546.28,768h13c3.89-35.9,11.38-71,27.29-104.6C622.63,587.36,687.25,537.45,773.28,506.75Z" transform="translate(-9.88 -0.18)"/><path d="M35.72,522.47c1.38-54.24,10.87-107.26,39.34-156.56,35.8-62,92.9-103.41,164.7-130.79,51-19.44,105-26.92,160-30.68,17.46-1.19,35.49-3.33,51.79-8.53,37.89-12.08,55.89-44.75,45.95-78.76C489.75,90.57,473.74,68,453.36,47.5c-12.79-12.83-26-25.39-38.78-38.2-2.74-2.74-4.71-6.07-7-9.12h-8.67c21,22.4,43.55,43.86,62.39,67.57C472,81.31,479.62,98,483.65,114.21c9.55,38.49-12.95,68.94-57,78.12-19.83,4.13-40.71,4.52-61.14,6.39-62.39,5.71-122,19.23-176.8,46.84Q55.58,312.61,30.15,444.71c-11.07,56.91-7.42,114.2-7,171.51.31,48.39-3.61,96.8-5.64,145.21-.09,2.19-.08,4.38-.12,6.57H32.52c1.75-44,4.4-88.1,5-132.17C38,598.06,34.76,560.23,35.72,522.47Z" transform="translate(-9.88 -0.18)"/><path class="cls-2" d="M608.66,578.87C669.1,517.11,748,483.23,840.06,472.8c29.33-3.32,59.13-4.39,88-9.45,42.94-7.51,66.33-34,63.28-72-1.19-14.83-6.58-31.18-16-43.34-19.3-24.9-42.89-47.24-64.16-71-13.29-14.85-27.19-29.58-37.91-45.82-13.31-20.16-7.5-42.57,11.62-53a61.06,61.06,0,0,1,40.69-6.27q61.95,11.44,123.71,23.7c28.44,5.62,57,9.73,85.48,1.62,8.54-2.43,17.28-7,23.42-12.6,16-14.69,17.85-32.61,2.77-52-17.57-22.6-38-43.53-57.32-65.07C1083.47,45,1063,22.62,1042.71.18h-6.51c2.19,3.19,4,6.69,6.64,9.54,21.93,23.41,44.53,46.36,65.92,70.13,14.44,16.05,29,32.37,40.4,50.08,17.93,27.79.94,58.28-35.3,62.57a246.42,246.42,0,0,1-63.33-1.17c-29.84-4.31-58.92-12.48-88.54-18.14-19-3.64-38.3-7.1-57.65-8.25-37.38-2.22-60.25,25.9-46,56.12,4.45,9.45,11.18,18.45,18.67,26.36,17.71,18.69,36.73,36.42,54.77,54.88,17.88,18.3,33.72,37.8,42.66,60.93,12.39,32.08,3.81,60.3-25.38,80.63-15.65,10.9-34.06,15.74-54,17.76-37.6,3.8-75.4,7-112.52,13.19-54.59,9.11-102.8,31.36-145.3,62.27-55.77,40.56-91,92.5-105.76,154.44-6,25.21-9,51-13.38,76.48h15.18c1.3-13.44,2.1-26.94,4-40.31C545.2,672.32,567.19,621.25,608.66,578.87Z" transform="translate(-9.88 -0.18)"/><path d="M581.55,548.4c61.6-58.25,140.47-86.46,229.28-96,28.27-3.05,56.84-4.95,84.61-10.09,20.51-3.8,39.78-12.67,49.91-30.42,10.32-18.1,14.14-37.87,5.54-56.77-8-17.65-18.07-35.24-31-50.42-20.61-24.21-44.86-46.05-66.49-69.63-8.67-9.45-16.4-20.26-21.24-31.53-12.63-29.36,8.56-53.89,44.73-52.15a401.7,401.7,0,0,1,53.53,6.42c29.66,5.46,59,12.33,88.49,18.35,26.7,5.45,53.48,7.45,80.17-.24,22.07-6.36,35.37-23.38,30.64-43.13-2.58-10.74-8.39-21.63-15.72-30.6-16.08-19.72-34.13-38.22-51.25-57.3C1049.48,30,1036.38,15.08,1023.2.18h-6.51c12.46,13.74,25.06,27.39,37.35,41.24,19.64,22.12,41.14,43.25,58,66.88,18.32,25.64,1.52,57.12-32.44,63.2a155.58,155.58,0,0,1-50.35.9C990.61,166.32,952.61,157,914,150.46c-19.63-3.35-40.15-6.07-59.91-4.81-30.54,1.94-46.43,25.7-35.36,50.74,5,11.25,12.56,22.08,21.2,31.55,18,19.69,37.27,38.5,56.37,57.39,18.35,18.15,33.61,37.76,42,61.1,11.49,31.81.1,64.53-31.39,80.06-14.94,7.37-32.85,12.14-50,13.81-45.91,4.5-92.2,6.42-136.46,19.44-109.31,32.15-185.78,93.48-220.7,190.92A319.92,319.92,0,0,0,481.25,768h13c1.51-19.12,2-38.36,4.74-57.35C507.93,649.48,533.26,594.07,581.55,548.4Z" transform="translate(-9.88 -0.18)"/><path d="M112.52,550.91c2.28-55.86,14.8-110.17,49-158.84C211.5,321,285.79,278.88,377.17,260c40.18-8.3,82-10.68,123-15.66,29.51-3.58,53.89-14.37,68.1-38.24,11.81-19.83,9.24-40.31.72-60.5C557.87,119.15,539.11,97,517.58,76.26c-17-16.32-33.71-32.84-49.69-49.9C460.44,18.39,455.06,9,448.73.18h-8.67c14.85,17,29.58,34,44.57,50.85,19.67,22.11,40.85,43.29,58.86,66.37,12.81,16.42,19.61,35.6,18.45,56.37-1.54,27.5-22.29,52.88-53.15,58.76-28.81,5.49-58.33,8.53-87.7,11.23-81.86,7.55-154.91,33.33-216.45,81C146,370.23,115.22,428.86,104,496.09c-9.88,59-6,118.21-4.86,177.43.6,31.47-1,63-1.55,94.48h13c1-24.51,2.9-49,2.92-73.52C113.53,646.62,110.58,598.7,112.52,550.91Z" transform="translate(-9.88 -0.18)"/><path class="cls-2" d="M386.11,637.19c14.48-73.67,52.11-135.84,121.55-181.4,60.8-39.89,129.82-60.8,205.4-66.61,25.07-1.93,50.45-4.37,74.7-9.89,31-7.07,50.38-31.05,51.66-58.86,1.34-29.37-12.83-54.12-33-76.13-22.55-24.57-47.5-47.47-70-72.1-9.21-10.09-17.16-22.15-21.31-34.44-8.66-25.63,10-47,40.63-48.29A150.09,150.09,0,0,1,789,92.22c33.88,6.33,67.56,13.47,101.34,20.2,28.69,5.71,57.36,9,86.87,3.63,32.9-5.93,50.07-34.8,34.67-60.81a165.55,165.55,0,0,0-15.65-21.51C986.75,22.35,976.67,11.34,966.83.18h-6.5c3.75,4.56,7.61,9.06,11.24,13.69,9.35,12,19.91,23.35,27.62,36.07,14.8,24.4,3.72,47.53-25.73,57.2-20.62,6.77-41.92,7.39-63,3.48-36.36-6.74-72.31-15.16-108.68-21.84-19-3.48-38.54-7-57.68-6.49-33.61,1-52.13,28.45-39.11,55.56a97.45,97.45,0,0,0,16.32,24.3c21,22.45,42.86,44.26,64.4,66.32,17.54,18,31.66,37.82,38.35,60.75,7.86,26.91,4.31,52.09-21,71.88-19.08,14.91-42.84,18.5-67.2,20.66-26.57,2.35-53.34,3.82-79.63,7.74-81.32,12.11-150.81,44.07-206.36,97.71-55,53.11-75.14,118.14-81,187.32-2.63,31-1.75,62.31-2.46,93.47h13a35.43,35.43,0,0,1-.91-4.61C375.83,721.09,377.91,679,386.11,637.19Z" transform="translate(-9.88 -0.18)"/><path d="M1233.27,34.67c-20.94,2.51-32.08,18.48-26.44,36.36a79,79,0,0,0,13.89,26.38c17.51,21.2,36.45,41.49,54.67,62.25,20.16,23,41.74,45.17,59.78,69.36,19.61,26.28,5.47,55.08-29.67,62.09-16.2,3.24-34,4.48-50.31,2.21C1224.26,289,1194,281,1163.28,275.46c-24.34-4.34-48.94-9.32-73.61-10.18-35-1.21-54.86,26.61-41.27,54.92a84.24,84.24,0,0,0,13.48,20.38c14.84,16.25,30.12,32.22,45.95,47.74,23.17,22.7,45.35,45.72,56.22,75.46,11.16,30.53,2.87,58-24.65,77.56-14.52,10.31-32,14.44-50,16.65-38.22,4.68-77.09,6.64-114.66,13.83C894.5,587.17,828,623.43,776.21,679.46c-24.29,26.25-37.3,57.32-50,88.54h15.17c1.48-4.2,2.68-8.5,4.48-12.6C782.08,673,851.26,620.16,944,589.19c42.52-14.19,87.46-18.66,132.54-22a370.74,370.74,0,0,0,42.83-5.24c35.7-6.92,59-32.37,60.54-64.16,1-21.08-6.31-40.18-19.8-56.86-15.55-19.24-33.5-37-50.21-55.52-16-17.76-32.94-35-47.23-53.77-10.14-13.31-10.36-29,.49-42.86,11-14.13,28-19.86,46.36-17,41.14,6.51,82,14.47,122.78,22.49,27.67,5.43,55.25,10.27,83.44,3.68,36.54-8.54,49.66-36,30.36-64.42a332,332,0,0,0-27.2-34.07c-28.17-31.53-57-62.63-85.15-94.18a75.32,75.32,0,0,1-12.51-19.75c-10.49-23.95,4.09-44.43,33.38-46.45,10.66-.74,21.68.29,32.3,1.78,26.33,3.68,52.53,8.1,78.79,12.22V49.35c-29.1-4.73-58.09-10.12-87.35-13.9C1263.57,33.54,1248,32.9,1233.27,34.67Z" transform="translate(-9.88 -0.18)"/><path d="M927.37,518.28c28.23-3.43,56.93-4,85-8,43-6,80.55-40.79,65.35-87.87a132.2,132.2,0,0,0-31.24-52.4c-23.6-24.25-48-48-70.9-72.66a91.83,91.83,0,0,1-17.84-28.84c-7.78-20,3.29-38.48,25.34-47,16-6.22,32.25-3.46,47.93-.59,39.91,7.3,79.51,15.9,119.29,23.76,22.81,4.5,45.78,5.52,68.59-.08,34.49-8.48,47.72-34.46,30.38-61.85-8.32-13.15-18.6-25.5-29.29-37.33-26.82-29.68-54.7-58.63-81.51-88.32-14.94-16.55-24.8-34.88-17.75-56.93h-15.18c-2.51,19.94,7,36.17,20.74,51.07,31.68,34.38,63.79,68.46,94.84,103.26,8.5,9.53,15.79,20.62,20.24,32,8.2,21-2.82,39.75-26.2,48.64-26.63,10.14-53.84,7.08-80.9,1.94-40.57-7.69-80.92-16.3-121.61-23.44a106,106,0,0,0-36.37-.09c-26.26,4.8-39.85,26-31.23,48.41a91.53,91.53,0,0,0,17.86,28.8c21.35,23,45.07,44.36,65.88,67.71,12.71,14.26,24.13,30.15,32,46.79,22.79,48.06-7.31,92.19-66.5,99.11-32.18,3.76-64.85,4.82-96.78,9.72-99.75,15.3-180,58.52-236.63,132.35-28,36.49-40.61,78.36-47.46,121.55h13c7.49-47,25-90.88,57.29-129.13C744.18,567.28,828,530.35,927.37,518.28Z" transform="translate(-9.88 -0.18)"/><path d="M692.23,592.69c37.64-32.72,82.41-55.85,132.66-71.17,41-12.51,83.45-17.29,126.41-20.12,12.23-.81,24.5-1.76,36.58-3.53,51.79-7.59,78.66-46.52,64.09-90.68-10.29-31.21-33.92-54.36-57.53-77.87-15.94-15.86-31.38-32.12-46.52-48.57a79.44,79.44,0,0,1-12-17.87c-15.67-31,6.12-60,44.91-58,22.18,1.19,44.19,5.91,66.07,9.91,32.84,6,65.24,14.19,98.32,18.69,16.56,2.25,34.76.39,51.26-3.09,31.51-6.65,44.93-33.78,29.43-58.58-9.1-14.55-20.57-28.12-32.33-41.21-27.16-30.25-55.37-59.78-82.69-89.92C1100.26,29,1092.24,15.9,1092.57.18h-10.84c5.07,10.61,7.89,22.72,15.61,31.57,26.68,30.56,55.42,59.73,82.63,89.94,12.45,13.82,24.67,28.09,34.32,43.44,15.25,24.25,2.23,51.36-28.47,58.49-16.39,3.81-34.69,6.08-51.19,3.81-35.2-4.83-69.69-13.48-104.67-19.75-21.51-3.86-43.31-8.14-65.11-8.77C928.71,197.85,908.49,226,923,255A88.57,88.57,0,0,0,937.21,276q25.71,27.42,52.84,53.81c19.2,18.64,36.34,38.22,46.83,61.91,19.52,44.11-.46,82.84-52.14,96.34-18.76,4.9-38.94,6.37-58.62,7.75-61.17,4.3-119.73,15.75-173.7,42.58C679,575,627,626.86,602.35,697.88c-7.89,22.79-11.49,46.71-17.05,70.12h15.18C609.36,700.92,636.68,641,692.23,592.69Z" transform="translate(-9.88 -0.18)"/><path d="M630.34,617.34c51-64.09,122.69-102.11,209.07-119,28.05-5.49,57.23-6.46,85.71-10.47,21.24-3,43.18-5.31,63.07-11.91,36.31-12.05,50-38.69,41.69-71.77-5.56-22.05-16.51-41.61-33-58.79-22.75-23.65-46.61-46.53-68.29-70.89a119.88,119.88,0,0,1-22.94-37.91c-5.86-16.1,3.88-34.24,19.6-39,12.25-3.67,26.47-7,38.72-5.14,42.6,6.63,84.75,15.54,127,23.72,26.32,5.09,52.59,8.39,79.24,1.57,31.22-8,45.41-33.11,31.33-58.61-6.82-12.36-16-24-25.76-34.8-19.21-21.28-40.07-41.43-59.32-62.69-17.61-19.45-37.75-37.54-47.74-61.53h-8.67c4,6.29,7,13.22,12.1,18.75,29.48,32.25,59.83,63.91,89,96.35,10.84,12,21.16,24.94,28.54,38.74,13,24.23.22,47.15-28.79,55.63a138.08,138.08,0,0,1-64.21,2.93c-36-6.66-71.53-15.23-107.47-22.15-16.49-3.17-33.45-5.81-50.26-6.09-36.17-.62-57.51,29.38-42,57.94A92.49,92.49,0,0,0,911,262.37c22.22,23.19,44.94,46,67.67,68.83,16.85,16.91,29.45,35.81,36,57.51,9.78,32.24-1.55,61.37-30.41,77.49-16.76,9.37-35.69,13.58-55.37,14.74-53.1,3.13-105.73,8-155.66,25.81-86,30.7-150.65,80.61-186.7,156.65C570.67,697,563.18,732.1,559.29,768h13c1.53-9.67,2.89-19.37,4.63-29C584.83,695.13,601.29,653.81,630.34,617.34Z" transform="translate(-9.88 -0.18)"/><path class="cls-2" d="M184.44,521.05C200,450.49,238.52,392.18,305.28,348.9c57.35-37.17,121.78-58,192.6-64.82,28.63-2.75,57.76-4.35,85.57-10.33,40.64-8.74,61.69-41.07,54.73-76.92-5.95-30.63-27-53.82-48.65-76.69C569.08,98.54,547.39,77.83,527.34,56,512.45,39.72,502.55,21.67,513.77.18H496.42c-3.15,16.6,2.18,31.68,13.83,44.27,25.15,27.2,51.67,53.43,77.09,80.43,18.32,19.46,32.5,41.11,37.09,66.33,7,38.27-17.25,70.08-60.82,77.71-27.5,4.82-55.75,6.41-83.68,9.35C397.68,286.91,324.28,313,263.34,362.9,207,409.08,178.33,467.25,167,533.13c-10.32,59.67-4.78,119.45-3.91,179.22.27,18.55-.28,37.1-.46,55.65h13c-.45-36.52-.81-73-1.37-109.57C173.51,612.4,174.42,566.46,184.44,521.05Z" transform="translate(-9.88 -0.18)"/><path class="cls-2" d="M897.57,514.1c31.93-4.9,64.6-6,96.78-9.72,59.19-6.92,89.29-51.05,66.5-99.11-7.9-16.64-19.32-32.53-32-46.79-20.81-23.35-44.53-44.7-65.88-67.71A91.53,91.53,0,0,1,945.08,262c-8.62-22.37,5-43.61,31.23-48.41a106,106,0,0,1,36.37.09c40.69,7.14,81,15.75,121.61,23.44,27.06,5.14,54.27,8.2,80.9-1.94,23.38-8.89,34.4-27.66,26.2-48.64-4.45-11.38-11.74-22.47-20.24-32-31.05-34.8-63.16-68.88-94.84-103.26-13.72-14.9-23.25-31.13-20.74-51.07h-13c-.33,15.72,7.69,28.78,18.33,40.52,27.32,30.14,55.53,59.67,82.69,89.92,11.76,13.09,23.23,26.66,32.33,41.21,15.5,24.8,2.08,51.93-29.43,58.58-16.5,3.48-34.7,5.34-51.26,3.09-33.08-4.5-65.48-12.67-98.32-18.69-21.88-4-43.89-8.72-66.07-9.91-38.79-2.07-60.58,27-44.91,58a79.44,79.44,0,0,0,12,17.87c15.14,16.45,30.58,32.71,46.52,48.57,23.61,23.51,47.24,46.66,57.53,77.87,14.57,44.16-12.3,83.09-64.09,90.68-12.08,1.77-24.35,2.72-36.58,3.53-43,2.83-85.4,7.61-126.41,20.12-50.25,15.32-95,38.45-132.66,71.17C636.68,641,609.36,700.92,600.48,768h13c6.85-43.19,19.49-85.06,47.46-121.55C717.54,572.62,797.82,529.4,897.57,514.1Z" transform="translate(-9.88 -0.18)"/><path d="M163,712.35c-.87-59.77-6.41-119.55,3.91-179.22,11.38-65.88,40-124,96.39-170.23,60.94-49.92,134.34-76,216.59-84.63,27.93-2.94,56.18-4.53,83.68-9.35,43.57-7.63,67.8-39.44,60.82-77.71-4.59-25.22-18.77-46.87-37.09-66.33-25.42-27-51.94-53.23-77.09-80.43-11.65-12.59-17-27.67-13.83-44.27H481.25c2,21.57,15.35,38.29,30.57,54.1,22.73,23.64,46.39,46.62,68.5,70.69,16.42,17.88,28.06,38.33,31.13,61.44,5.16,38.78-16.06,62.16-57.24,74-18.52,5.34-38.9,6.39-58.58,7.89-63.29,4.83-123.49,17.58-179.49,45.16-72,35.46-120.07,87.4-147,155-13.17,33.07-18,67.59-19.11,102.2-1.37,44,.21,88.14.27,132.21,0,21.72-.49,43.43-.76,65.15h13C162.76,749.45,163.31,730.9,163,712.35Z" transform="translate(-9.88 -0.18)"/><path class="cls-2" d="M23.1,616.22c-.37-57.31-4-114.6,7-171.51q25.71-132,158.59-199.15c54.82-27.61,114.41-41.13,176.8-46.84,20.43-1.87,41.31-2.26,61.14-6.39,44-9.18,66.52-39.63,57-78.12-4-16.22-11.62-32.9-22.39-46.46C442.42,44,419.87,22.58,398.87.18h-6.5c18.38,19.4,37.82,38.13,54.72,58.47,9.12,11,15.62,24.24,20.35,37.28,17.61,48.56-15.7,90.46-74.39,95-25.89,2-51.89,3.35-77.62,6.42-78.37,9.34-147.69,36.4-205.71,83.68-52.78,43-80.22,97.6-92.56,158.79a410,410,0,0,0-7.28,62.35v69.65c.34,11.93.76,23.86,1.09,35.79,1,34.73,1.16,69.42-1.09,104V768h7.46c0-2.19,0-4.38.12-6.57C19.49,713,23.41,664.61,23.1,616.22Z" transform="translate(-9.88 -0.18)"/><path d="M84.74,551.74C85.13,513.45,90.38,475.47,104,439c35.12-94.16,110.45-153.4,215.82-185.82,37.82-11.63,77.13-16,116.79-18.9,13.66-1,27.39-1.84,40.9-3.75,60.13-8.5,87.53-51.49,65-100.91-10.86-23.81-28-43.79-47.15-62.89C473.43,45,452.65,22.41,431.39.18h-6.5c10.88,11.89,21.79,23.75,32.6,35.68a64.31,64.31,0,0,1,4.36,6c32,27,61.84,55.73,72.51,94.76,12.13,44.38-15.05,74.73-60.68,84.66-22.89,5-47.13,5.47-70.83,7.42-53.46,4.4-104.53,16.21-151.89,38.41C149.82,314.54,91.59,388.24,78.43,487.78c-4.33,32.74-5.09,65.91-5.7,98.91-1.1,60.43-.87,120.87-1.19,181.31h13c.65-47.54,1.6-95.07,1.8-142.61C86.45,600.84,84.49,576.28,84.74,551.74Z" transform="translate(-9.88 -0.18)"/><path d="M136.3,635.84c-1.23-52.76-.83-105.36,15.53-156.6,30.75-96.37,102.16-159.94,208.64-195,45.53-15,93.08-19.57,141-23.24,15-1.15,30.33-2.86,44.7-6.65,42.47-11.21,63.39-47,51-85.62-8.43-26.36-25.62-48.47-45.57-69.06-19.35-20-39.4-39.39-58.55-59.49-11.1-11.64-21-24.15-22.67-40H459.57c6.4,10.46,11.15,22.06,19.5,31.15,22.58,24.57,47.13,47.74,70.05,72.08,21.92,23.29,36.47,49.16,38.78,80.36,2,26.77-24.21,56.4-51.54,62-24.07,4.94-49,7.34-73.66,9.39-64.58,5.39-125.34,20.38-181,50.29-83.92,45.1-132.45,110.74-149.5,194.66-9.06,44.56-9.11,89.58-8.2,134.71.89,44.38-.21,88.78-.44,133.17h13C136.55,723.94,137.32,679.88,136.3,635.84Z" transform="translate(-9.88 -0.18)"/><path class="cls-2" d="M99.1,673.52c-1.12-59.22-5-118.4,4.86-177.43C115.22,428.86,146,370.23,204.64,324.8c61.54-47.71,134.59-73.49,216.45-81,29.37-2.7,58.89-5.74,87.7-11.23,30.86-5.88,51.61-31.26,53.15-58.76,1.16-20.77-5.64-40-18.45-56.37-18-23.08-39.19-44.26-58.86-66.37-15-16.86-29.72-33.89-44.57-50.85h-8.67c21.26,22.23,42,44.82,63.91,66.58,19.19,19.1,36.29,39.08,47.15,62.89,22.56,49.42-4.84,92.41-65,100.91-13.51,1.91-27.24,2.74-40.9,3.75-39.66,2.93-79,7.27-116.79,18.9C214.42,285.63,139.09,344.87,104,439c-13.59,36.44-18.84,74.42-19.23,112.71-.25,24.54,1.71,49.1,1.6,73.65-.2,47.54-1.15,95.07-1.8,142.61h13C98.14,736.5,99.7,705,99.1,673.52Z" transform="translate(-9.88 -0.18)"/><path d="M222.94,538.08C252.58,417.76,341.22,346.45,473.7,315c39.62-9.42,81.91-10.66,123.11-14.6,30.07-2.87,54-13.58,69.05-36.8,15.77-24.39,10.91-49.08-.26-73.76-12.15-26.85-35.51-46.36-56.25-67.7-18.18-18.69-37.5-36.9-52.69-57.37C536.2,37.17,544.29,15.4,576.63.18H548.45c-18.8,23.62-20.26,39.7.06,63.64,21.45,25.25,45.64,48.76,69.12,72.66,18.77,19.11,33.9,39.66,42.56,64.05,13,36.61-5,72.58-46.44,85.15-18.46,5.6-38.66,7.87-58.29,9.2-55.94,3.77-110,13.05-161.21,34-93.48,38.27-153.84,100.81-180,187.68-11.8,39.15-14.75,79.58-14.43,120,.34,43.8,1.17,87.59,1.8,131.39h13c-.57-24.25-1.09-48.5-1.73-72.74C211.5,642.63,210.16,589.93,222.94,538.08Z" transform="translate(-9.88 -0.18)"/><path class="cls-2" d="M124,634.83c-.91-45.13-.86-90.15,8.2-134.71,17.05-83.92,65.58-149.56,149.5-194.66,55.66-29.91,116.42-44.9,181-50.29,24.69-2,49.59-4.45,73.66-9.39,27.33-5.61,53.52-35.24,51.54-62-2.31-31.2-16.86-57.07-38.78-80.36C526.2,79.07,501.65,55.9,479.07,31.33,470.72,22.24,466,10.64,459.57.18H448.73c6.33,8.77,11.71,18.21,19.16,26.18,16,17.06,32.73,33.58,49.69,49.9C539.11,97,557.87,119.15,569,145.61c8.52,20.19,11.09,40.67-.72,60.5-14.21,23.87-38.59,34.66-68.1,38.24-41.07,5-82.86,7.36-123,15.66C285.79,278.88,211.5,321,161.52,392.07c-34.2,48.67-46.72,103-49,158.84-1.94,47.79,1,95.71,1,143.57,0,24.51-1.89,49-2.92,73.52h13C123.79,723.61,124.89,679.21,124,634.83Z" transform="translate(-9.88 -0.18)"/><path class="cls-2" d="M78.43,487.78C91.59,388.24,149.82,314.54,251,267.12c47.36-22.2,98.43-34,151.89-38.41,23.7-2,47.94-2.43,70.83-7.42,45.63-9.93,72.81-40.28,60.68-84.66-10.67-39-40.49-67.73-72.51-94.76l.07.11-.27-.28-.1-.08c3.15,3.73,6.06,7.64,9.47,11.18,19.58,20.28,39,40.65,48.32,66.56,14.55,40.43.65,80.43-52.4,93.45-18.53,4.54-38.39,5.39-57.75,6.82C336.5,225,268.5,241.71,206.55,276.9,135.41,317.3,93.26,374.68,73.14,445,58.05,497.71,59,551.8,61.59,605.71,64.16,659.87,65.3,714,58.53,768h13c.32-60.44.09-120.88,1.19-181.31C73.34,553.69,74.1,520.52,78.43,487.78Z" transform="translate(-9.88 -0.18)"/><path d="M11,607.6c-.33-11.93-.75-23.86-1.09-35.79V711.64C12.13,677,11.93,642.33,11,607.6Z" transform="translate(-9.88 -0.18)"/><path d="M109.72,281c58-47.28,127.34-74.34,205.71-83.68,25.73-3.07,51.73-4.42,77.62-6.42,58.69-4.53,92-46.43,74.39-95-4.73-13-11.23-26.29-20.35-37.28C430.19,38.31,410.75,19.58,392.37.18H388c4.78,5.41,9.22,11.08,14.38,16.2,23,22.85,44.7,46.47,53.58,76.73,5.24,17.85,5.15,35.62-5.46,52.34-13.83,21.78-35.7,33.41-63.39,36.66-20.39,2.4-41,3.43-61.44,5.41C216.19,198.12,121.91,234,56.37,314.76c-21.78,26.84-37.79,55.9-46.49,87V502.16a410,410,0,0,1,7.28-62.35C29.5,378.62,56.94,324,109.72,281Z" transform="translate(-9.88 -0.18)"/><path class="cls-2" d="M48.45,623.75c-3.78-48.61-3.31-97,2.91-145.28,13-101.21,69.47-177.12,173.28-225.39,54.88-25.52,113.88-37.17,175.33-41.44,16.87-1.17,34-2.22,50.37-5.66,49.4-10.41,74-51.17,54.93-92.39A223.7,223.7,0,0,0,473,62.65C454.33,40.72,432.42,20.9,411.88.18h-4.34c2.33,3.05,4.3,6.38,7,9.12,12.82,12.81,26,25.37,38.78,38.2,20.38,20.46,36.39,43.07,44.16,69.65,9.94,34-8.06,66.68-45.95,78.76-16.3,5.2-34.33,7.34-51.79,8.53-55,3.76-109,11.24-160,30.68-71.8,27.38-128.9,68.8-164.7,130.79-28.47,49.3-38,102.32-39.34,156.56-1,37.76,2.3,75.59,1.8,113.36-.6,44.07-3.25,88.12-5,132.17H43.36A646.9,646.9,0,0,0,48.45,623.75Z" transform="translate(-9.88 -0.18)"/><path class="cls-2" d="M150.07,570.64c1.07-34.61,5.94-69.13,19.11-102.2,26.89-67.55,75-119.49,147-154.95,56-27.58,116.2-40.33,179.49-45.16,19.68-1.5,40.06-2.55,58.58-7.89,41.18-11.87,62.4-35.25,57.24-74-3.07-23.11-14.71-43.56-31.13-61.44-22.11-24.07-45.77-47-68.5-70.69C496.6,38.47,483.22,21.75,481.25.18H470.41c1.67,15.87,11.57,28.38,22.67,40,19.15,20.1,39.2,39.54,58.55,59.49,20,20.59,37.14,42.7,45.57,69.06,12.36,38.64-8.56,74.41-51,85.62-14.37,3.79-29.67,5.5-44.7,6.65-47.92,3.67-95.47,8.26-141,23.24-106.48,35-177.89,98.61-208.64,195-16.36,51.24-16.76,103.84-15.53,156.6,1,44,.25,88.1.27,132.16h13c.27-21.72.79-43.43.76-65.15C150.28,658.78,148.7,614.68,150.07,570.64Z" transform="translate(-9.88 -0.18)"/><path class="cls-2" d="M214.24,516.57c26.17-86.87,86.53-149.41,180-187.68,51.18-21,105.27-30.24,161.21-34,19.63-1.33,39.83-3.6,58.29-9.2,41.49-12.57,59.43-48.54,46.44-85.15-8.66-24.39-23.79-44.94-42.56-64.05-23.48-23.9-47.67-47.41-69.12-72.66-20.32-23.94-18.86-40-.06-63.64H531.11c-11.58,14.78-11.58,30.24-2.34,45.6A139.06,139.06,0,0,0,546.94,70.3c20.53,21.55,41.91,42.48,62.81,63.76,17.08,17.4,31.48,36.46,38.26,58.69,13.26,43.45,2,67.32-44.08,86.32-13,5.35-28.38,7.52-42.92,8.6-47.93,3.58-95.67,7.41-141.23,22.23-60.17,19.57-114.23,47.67-155.41,91.2-41.72,44.09-63.92,95.74-71.49,152.62C183.39,625.14,191,696.58,190.77,768h10.84c-.63-43.8-1.46-87.59-1.8-131.39C199.49,596.15,202.44,555.72,214.24,516.57Z" transform="translate(-9.88 -0.18)"/><path d="M1274.3,315.36C1240,308,1205.7,300.16,1171,294.27a147.32,147.32,0,0,0-45.87-.29c-22.52,3.44-35.34,20.25-31.23,39.92,2.2,10.5,6.61,21.82,14,30.09,21.7,24.33,45.21,47.43,68.32,70.78a164.64,164.64,0,0,1,33.92,50.17c21,47.68-6.76,90.28-64.78,97.56-31.07,3.9-62.67,4.92-93.52,9.73-99,15.45-181.21,55.69-238.59,129.52-11,14.12-17.67,30.77-26.34,46.25h17.34c11.19-18.12,19.75-38,34-54,60.52-67.93,142.58-103.58,238.88-116,28.54-3.68,57.51-5.16,85.8-9.84,61.26-10.14,77.61-58.64,59.79-98.92-12.8-28.93-36.19-51.2-59-74-16.81-16.8-33.36-34-47.45-52.57-6.47-8.52-10.06-20.82-9.2-31,1.94-23,22.65-36.91,50.42-33.28,35.62,4.66,70.76,12.1,106.1,18.39,18.73,3.33,37.29,8.23,56.21,9.72,15.08,1.19,30.59-1.71,45.91-2.79v-9.45C1335.43,325.2,1305,321.93,1274.3,315.36Z" transform="translate(-9.88 -0.18)"/><path d="M1313.34,307.18c-10,.67-20.47,1.54-30.16-.17-35.34-6.24-70.33-14-105.67-20.25-21.5-3.81-43.39-8.22-65.11-8.25-35.27-.06-53.94,27.87-39.58,56,2.93,5.72,6.15,11.56,10.58,16.41,13.92,15.27,28,30.41,42.88,45,24,23.58,48.86,46.5,61.92,76.75,13.49,31.26,6.24,63.27-22.29,79.93-15.67,9.14-35,15.24-53.7,18.33-34.64,5.73-70.67,5.67-104.93,12.56-119.21,24-206.9,81.93-250.72,184.54h15.17c19.53-44,48.24-82.3,90.53-112.35a382.43,382.43,0,0,1,167.18-67.51c29.13-4.35,58.78-6.06,88.16-9.21,23.19-2.49,45.46-7.12,63.56-21.41,23.85-18.84,28.75-42.61,21.44-68.26-8.78-30.81-31-55-54.79-78.26-16.58-16.2-32.88-32.66-48.54-49.55-10.53-11.35-18.83-23.93-18.1-39.48.87-18.42,12.09-32.18,32.91-34.64a170.16,170.16,0,0,1,48.22,1.44c41.39,7.21,82.18,17.14,123.62,24.1,27.64,4.64,55.56,3.92,79.79-12V280.07C1354.36,298.08,1335.74,305.66,1313.34,307.18Z" transform="translate(-9.88 -0.18)"/><path d="M1321.81,331.91c-38.23-6.6-76-15.38-114.12-22.32-15.4-2.81-31.53-4.93-47.12-4.15-34,1.71-52.82,29.18-37.4,55.67,9.36,16.07,23,30.4,36,44.66,17.93,19.72,38.21,37.88,55.3,58.12,15.24,18.07,26.43,38.41,27.42,61.72,1.27,29.8-16.28,52.87-48.13,64.2-26.35,9.37-54.36,9.35-82,11.75-90.69,7.89-170.63,36.67-235.91,93.23C851.37,716,831.47,740.35,817.26,768H834.6c46.45-81.35,125.27-126.66,222.84-149.16,33.22-7.66,68.38-8.74,102.45-13.89,18.68-2.83,38.24-5.43,55.07-12.42,34.76-14.46,48.06-47.93,35.68-81.44-8.31-22.51-22-42.23-39.62-60.17-22.29-22.71-44.59-45.45-65.51-69.1a58.5,58.5,0,0,1-13.16-27.47c-4.85-26.86,20.59-47.16,55.06-42.59s68.57,12.06,102.81,18.34c18,3.3,35.89,7.07,54,10,7,1.11,14.33.4,21.52.52V333C1351.05,332.77,1336,334.36,1321.81,331.91Z" transform="translate(-9.88 -0.18)"/><path class="cls-2" d="M1285.92,312.87c-41.44-7-82.23-16.89-123.62-24.1a170.16,170.16,0,0,0-48.22-1.44c-20.82,2.46-32,16.22-32.91,34.64-.73,15.55,7.57,28.13,18.1,39.48,15.66,16.89,32,33.35,48.54,49.55,23.77,23.22,46,47.45,54.79,78.26,7.31,25.65,2.41,49.42-21.44,68.26-18.1,14.29-40.37,18.92-63.56,21.41-29.38,3.15-59,4.86-88.16,9.21a382.43,382.43,0,0,0-167.18,67.51C820,685.7,791.26,724,771.73,768h15.18c8.67-15.48,15.37-32.13,26.34-46.25,57.38-73.83,139.55-114.07,238.59-129.52,30.85-4.81,62.45-5.83,93.52-9.73,58-7.28,85.82-49.88,64.78-97.56a164.64,164.64,0,0,0-33.92-50.17c-23.11-23.35-46.62-46.45-68.32-70.78-7.37-8.27-11.78-19.59-14-30.09-4.11-19.67,8.71-36.48,31.23-39.92a147.32,147.32,0,0,1,45.87.29c34.68,5.89,68.94,13.74,103.28,21.09,30.66,6.57,61.13,9.84,91.41-1.24V300.88C1341.48,316.79,1313.56,317.51,1285.92,312.87Z" transform="translate(-9.88 -0.18)"/><path class="cls-2" d="M1319.8,326.36c-18.92-1.49-37.48-6.39-56.21-9.72-35.34-6.29-70.48-13.73-106.1-18.39-27.77-3.63-48.48,10.3-50.42,33.28-.86,10.21,2.73,22.51,9.2,31,14.09,18.53,30.64,35.77,47.45,52.57,22.84,22.84,46.23,45.11,59,74,17.82,40.28,1.47,88.78-59.79,98.92-28.29,4.68-57.26,6.16-85.8,9.84C980.86,610.37,898.8,646,838.28,714c-14.28,16-22.84,35.93-34,54h13c14.21-27.65,34.11-52,58.62-73.21,65.28-56.56,145.22-85.34,235.91-93.23,27.59-2.4,55.6-2.38,82-11.75,31.85-11.33,49.4-34.4,48.13-64.2-1-23.31-12.18-43.65-27.42-61.72-17.09-20.24-37.37-38.4-55.3-58.12-13-14.26-26.62-28.59-36-44.66-15.42-26.49,3.4-54,37.4-55.67,15.59-.78,31.72,1.34,47.12,4.15,38.16,6.94,75.89,15.72,114.12,22.32,14.16,2.45,29.24.86,43.9,1.12v-9.46C1350.39,324.65,1334.88,327.55,1319.8,326.36Z" transform="translate(-9.88 -0.18)"/><path class="cls-2" d="M1344.19,340.07c-18.08-2.9-36-6.67-54-10-34.24-6.28-68.27-13.77-102.81-18.34s-59.91,15.73-55.06,42.59a58.5,58.5,0,0,0,13.16,27.47c20.92,23.65,43.22,46.39,65.51,69.1,17.62,17.94,31.31,37.66,39.62,60.17,12.38,33.51-.92,67-35.68,81.44-16.83,7-36.39,9.59-55.07,12.42-34.07,5.15-69.23,6.23-102.45,13.89C959.87,641.34,881.05,686.65,834.6,768h17.34c27.41-47.31,69.36-82.23,121.31-108.75,56-28.62,117-41.81,181.24-46.35,20.67-1.46,41.8-4.14,61.37-9.8,46.65-13.48,59.69-48.72,47.52-86.7-8.91-27.76-30.34-49-51.34-70.32-17.38-17.66-34.6-35.47-51.2-53.69-5.3-5.81-9-12.92-12.37-19.83-10.87-22.31,1.92-46.55,28.74-51.93a108.1,108.1,0,0,1,38.34-.73c34.31,5.87,68.17,13.74,102.32,20.42,15.82,3.09,31.88,5.25,47.84,7.84v-7.57C1358.52,340.47,1351.16,341.18,1344.19,340.07Z" transform="translate(-9.88 -0.18)"/><path class="cls-2" d="M478.36,562.68C535.89,479.8,623,435.88,730.64,420.51c28.44-4.07,57.5-4.73,86-8.45,52.44-6.84,88.67-41.83,69.48-94.34-12.36-33.8-39.41-58.92-66.18-84.15-.77-.73-2.62-.59-4-.86,5.69,6.09,12,11.81,17,18.35,13.19,17.56,28,34.57,38.07,53.45,14.15,26.46,14.14,62.82-21.6,85.9-15,9.68-32.07,14.32-50.24,16.07-45.55,4.38-91.2,7.7-135.5,19.26-132.2,34.49-225.69,123.15-240.94,249-3.75,30.94-4.43,62.17-6.51,93.26h13c.35-16.68.14-33.39,1.14-50C433.66,663.25,445.36,610.22,478.36,562.68Z" transform="translate(-9.88 -0.18)"/><path d="M1212.36,331.92c-37.75,3.71-55.32,32.29-35.18,61.28,13.91,20,32.73,37.44,49.49,55.93,13.87,15.29,28.74,29.94,41.68,45.8,12.45,15.25,20.8,32.46,22.61,51.47,3.15,33-14.87,59.43-51.07,69.63-20.33,5.72-42.25,8.27-63.68,9.69-59.16,3.89-115.29,16.3-167.62,41C957.07,691,914.4,723.57,884.46,768H904c12.82-21.17,30.55-38.9,51.24-54.34q85-63.45,196-76.24c25.77-3,51.74-4.61,77.44-7.89,29.61-3.77,54.7-14.41,67.72-39.87,8.73-17.09,9-34.77,3.43-52.68-9.64-30.9-32.9-54.13-56.3-77.48-17.1-17.05-33.71-34.55-49.2-52.72C1183.13,393.6,1179,378.2,1186,362c7.28-16.81,25.81-25.93,51.77-22.79,27.82,3.38,55.32,9,82.85,14.07,15.17,2.81,30.09,6.62,45.13,10V359.5c-46.09-9.06-92.15-18.19-138.28-27.07A53.53,53.53,0,0,0,1212.36,331.92Z" transform="translate(-9.88 -0.18)"/><path d="M1215.55,319.9a108.1,108.1,0,0,0-38.34.73c-26.82,5.38-39.61,29.62-28.74,51.93,3.36,6.91,7.07,14,12.37,19.83,16.6,18.22,33.82,36,51.2,53.69,21,21.33,42.43,42.56,51.34,70.32,12.17,38-.87,73.22-47.52,86.7-19.57,5.66-40.7,8.34-61.37,9.8-64.21,4.54-125.2,17.73-181.24,46.35-52,26.52-93.9,61.44-121.31,108.75h15.18c63.82-89.66,158.68-134.44,276.73-145.8,23-2.21,46-4.18,68.75-7.58,19.31-2.89,36.18-11.24,49.23-24.12,19.27-19,20.87-41.56,14-64.87-9.06-30.64-32.17-53.77-55.22-77-17.49-17.6-34.14-35.82-50.87-54a51.84,51.84,0,0,1-7.87-12.35c-15.2-30.7,6.86-59.65,44.9-56.88,25.06,1.83,49.9,6.72,74.61,11.22,28.25,5.15,56.24,11.38,84.35,17.14v-5.67c-16-2.59-32-4.75-47.84-7.84C1283.72,333.64,1249.86,325.77,1215.55,319.9Z" transform="translate(-9.88 -0.18)"/><path d="M1234.08,346.16c-28.77,2.2-45.74,22.33-38,46.63,3.46,10.9,10.1,21.76,18.15,30.69,20.51,22.77,43.6,43.79,63.74,66.79,12.36,14.11,23.44,29.76,31.15,46.13,21.28,45.2-5.93,88.19-61.06,96.94-32.64,5.19-66,6.88-98.7,11.9-89.42,13.7-164.21,50.21-222.26,111.68-3.15,3.34-5.32,7.37-8,11.08h19.51c31.87-38,73.63-65.23,121.43-86.27,53.28-23.45,110.14-33.43,169.16-36.36a284.1,284.1,0,0,0,34.31-4.16c47.53-8.24,73.8-44.64,62-85.58-6.46-22.39-18.5-42.31-35.73-59.82-18.12-18.4-36.65-36.51-54.38-55.19-8-8.45-15.62-17.48-21.53-27.13-19.5-31.86,3.61-64.42,44.65-60.77,30.71,2.73,60.91,10,91.33,15.24,5.29.91,10.56,1.92,15.84,2.89v-3.78c-34.18-6.56-68.28-13.41-102.56-19.51A117.37,117.37,0,0,0,1234.08,346.16Z" transform="translate(-9.88 -0.18)"/><path class="cls-2" d="M1206.75,325.47c-38-2.77-60.1,26.18-44.9,56.88a51.84,51.84,0,0,0,7.87,12.35c16.73,18.15,33.38,36.37,50.87,54,23.05,23.19,46.16,46.32,55.22,77,6.89,23.31,5.29,45.85-14,64.87-13,12.88-29.92,21.23-49.23,24.12-22.74,3.4-45.79,5.37-68.75,7.58-118,11.36-212.91,56.14-276.73,145.8h17.34c29.94-44.43,72.61-77,124.13-101.3,52.33-24.68,108.46-37.09,167.62-41,21.43-1.42,43.35-4,63.68-9.69,36.2-10.2,54.22-36.6,51.07-69.63-1.81-19-10.16-36.22-22.61-51.47-12.94-15.86-27.81-30.51-41.68-45.8-16.76-18.49-35.58-35.92-49.49-55.93-20.14-29-2.57-57.57,35.18-61.28a53.53,53.53,0,0,1,15.07.51c46.13,8.88,92.19,18,138.28,27.07v-5.67c-28.11-5.76-56.1-12-84.35-17.14C1256.65,332.19,1231.81,327.3,1206.75,325.47Z" transform="translate(-9.88 -0.18)"/><path d="M86.56,264c70-54.54,153.21-79.94,245.79-85,17.59-.95,35.36-2.4,52.51-5.71,45.64-8.82,70.48-45.42,58.66-84.85-7.16-23.86-20-45.09-38.84-63.58C396.58,17,389.23,8.44,381.53.18h-8.67c23.17,22.28,44.21,45.67,54.84,75,15.34,42.39-7.52,79.62-56.72,90.4-13.19,2.9-27,4.22-40.59,5C269,174.36,209.14,183.49,153.94,208.5c-60.47,27.41-111.07,64-143.35,118-.25.41-.48.82-.71,1.23v35.9C27.1,325.63,51.22,291.56,86.56,264Z" transform="translate(-9.88 -0.18)"/><path class="cls-2" d="M1237.73,339.23c-26-3.14-44.49,6-51.77,22.79-7,16.18-2.83,31.58,8.39,44.76,15.49,18.17,32.1,35.67,49.2,52.72,23.4,23.35,46.66,46.58,56.3,77.48,5.58,17.91,5.3,35.59-3.43,52.68-13,25.46-38.11,36.1-67.72,39.87-25.7,3.28-51.67,4.93-77.44,7.89q-110.94,12.71-196,76.24C934.52,729.1,916.79,746.83,904,768h15.17c2.63-3.71,4.8-7.74,8-11.08,58-61.47,132.84-98,222.26-111.68,32.69-5,66.06-6.71,98.7-11.9,55.13-8.75,82.34-51.74,61.06-96.94-7.71-16.37-18.79-32-31.15-46.13-20.14-23-43.23-44-63.74-66.79-8-8.93-14.69-19.79-18.15-30.69-7.73-24.3,9.24-44.43,38-46.63a117.37,117.37,0,0,1,29.07,1.4c34.28,6.1,68.38,12.95,102.56,19.51v-3.78c-15-3.37-30-7.18-45.13-10C1293.05,348.19,1265.55,342.61,1237.73,339.23Z" transform="translate(-9.88 -0.18)"/><path d="M1228.71,373.66c-12.77,15.19-11.93,32.18-.5,47,15,19.5,32.53,37.57,49.15,56.13,14.19,15.85,30.17,30.67,42.45,47.56,8.89,12.21,15,26.65,18.86,40.82,9.95,36.86-14,70.3-57.26,79.64-20.52,4.43-42,6.14-63.1,7.81-87.18,6.87-164.56,33.85-230.15,84.87C976.4,746.65,966.67,757.78,956,768h19.51c16-13.83,30.6-29.24,48.26-41.21,57.92-39.28,124.33-60.37,197.3-66.36,28.68-2.35,57.67-3.42,85-13,30.2-10.62,46.69-32.4,46.38-61-.34-31.9-18.22-57.13-40.15-80.63-20.49-22-42.19-43.08-62.72-65a74.39,74.39,0,0,1-13.82-21.2c-12.74-29.62,7.49-55.27,43.77-54.32,17.87.47,35.67,4.28,53.42,7,11,1.67,21.86,4.1,32.78,6.19v-3.79c-28.52-5.47-56.92-11.49-85.6-16.21C1260.24,355.14,1241.46,358.48,1228.71,373.66Z" transform="translate(-9.88 -0.18)"/><path class="cls-2" d="M1258.54,352.72c-41-3.65-64.15,28.91-44.65,60.77,5.91,9.65,13.52,18.68,21.53,27.13,17.73,18.68,36.26,36.79,54.38,55.19,17.23,17.51,29.27,37.43,35.73,59.82,11.82,40.94-14.45,77.34-62,85.58a284.1,284.1,0,0,1-34.31,4.16c-59,2.93-115.88,12.91-169.16,36.36-47.8,21-89.56,48.28-121.43,86.27H956c10.67-10.22,20.4-21.35,32.16-30.5,65.59-51,143-78,230.15-84.87,21.15-1.67,42.58-3.38,63.1-7.81,43.24-9.34,67.21-42.78,57.26-79.64-3.83-14.17-10-28.61-18.86-40.82-12.28-16.89-28.26-31.71-42.45-47.56-16.62-18.56-34.11-36.63-49.15-56.13-11.43-14.83-12.27-31.82.5-47s31.53-18.52,51.4-15.24c28.68,4.72,57.08,10.74,85.6,16.21v-3.78c-5.28-1-10.55-2-15.84-2.89C1319.45,362.7,1289.25,355.45,1258.54,352.72Z" transform="translate(-9.88 -0.18)"/><path class="cls-2" d="M1279.51,365.24c-36.28-.95-56.51,24.7-43.77,54.32a74.39,74.39,0,0,0,13.82,21.2c20.53,21.95,42.23,43.06,62.72,65,21.93,23.5,39.81,48.73,40.15,80.63.31,28.6-16.18,50.38-46.38,61-27.31,9.59-56.3,10.66-85,13-73,6-139.38,27.08-197.3,66.36-17.66,12-32.26,27.38-48.26,41.21h17.34c55.06-51.53,122.77-83.14,201.77-96.16,26.55-4.37,53.61-6.45,80.47-9.41,18.37-2,36-5.45,52.52-13.54,33.73-16.45,41.36-49.16,33.75-76-6.73-23.75-21.15-44-39.17-62.44-20.11-20.63-40.34-41.2-59.69-62.36a75.75,75.75,0,0,1-14.93-23.77c-11.51-30.57,10.77-55.21,47.73-52.26,20.78,1.66,41.28,5.94,61.9,9,2.83.43,5.67.77,8.51,1.15v-3.78c-10.92-2.09-21.78-4.52-32.78-6.19C1315.18,369.52,1297.38,365.71,1279.51,365.24Z" transform="translate(-9.88 -0.18)"/><path d="M1295.3,372c-37-2.95-59.24,21.69-47.73,52.26a75.75,75.75,0,0,0,14.93,23.77c19.35,21.16,39.58,41.73,59.69,62.36,18,18.48,32.44,38.69,39.17,62.44,7.61,26.87,0,59.58-33.75,76-16.57,8.09-34.15,11.51-52.52,13.54-26.86,3-53.92,5-80.47,9.41-79,13-146.71,44.63-201.77,96.16h19.51c41.5-38,92.27-62.9,148.78-79.55,35.13-10.35,71.59-14.77,108.33-16.86,37.22-2.12,71-9.92,96.24-36V556.19c-22.74-36.27-59.36-63-86.52-96.25-6.86-8.39-13.33-17.36-17.78-26.84-14-29.84,6.68-56.17,43.66-54.33,20.34,1,40.43,5.94,60.64,9.1V382.2c-2.84-.38-5.68-.72-8.51-1.15C1336.58,378,1316.08,373.69,1295.3,372Z" transform="translate(-9.88 -0.18)"/><path d="M220.71,177.59c41.19-9.15,83.2-12.35,125.37-14.92,35.7-2.17,72-29.12,73.51-56.9.77-14.39-2.35-29.46-6.91-43.42C404.82,38.27,385.93,19.48,368.52.18H362c3.59,3.93,7.11,7.9,10.78,11.77,15.9,16.75,28.38,35.33,33.26,56.66,6,26.32,2.15,50.63-23.78,69.36-17.36,12.54-37.57,16.63-59,18.77-32.25,3.23-64.86,5-96.65,10.36-86.84,14.68-158.25,52.67-215,112-.62.64-1.2,1.29-1.74,1.94v25.36c9.37-12.12,18-24,28.43-34.48C86.93,222.85,149.23,193.47,220.71,177.59Z" transform="translate(-9.88 -0.18)"/><path d="M228.73,156.21c29.52-4.26,59.6-5.43,89.32-8.72,24.65-2.73,47.58-9.94,62.75-28.22,18.7-22.53,17.94-47.65,6.28-72-7.85-16.39-19.46-31.41-29.39-47H349c9.16,16.34,20.21,32.11,27,49.17,8.2,20.61,6.88,42-8.14,60.62-14.73,18.27-36,27.63-61.28,30.21C275,143.41,243.25,145.39,212,150c-76.78,11.35-143.92,39.92-200.13,87.67-.7.59-1.35,1.19-2,1.79v20.67C67.86,201.76,142,168.7,228.73,156.21Z" transform="translate(-9.88 -0.18)"/><path d="M192.5,128.88c27.42-3.8,55.39-4.79,82.68-9.11,52.27-8.26,79.43-50.56,61.71-94.23C333.41,17,329.1,8.63,325.17.18H314.33c3.72,9.14,8.56,18.06,11,27.46,10.86,42.45-14.58,76.3-63.52,84.16-18.41,3-37.19,4.34-55.87,5.77C136,122.92,70.75,139.9,11.79,174c-.68.39-1.31.79-1.91,1.19v15c5.63-3.4,11.11-6.72,16.61-10C76.66,150.41,133.62,137,192.5,128.88Z" transform="translate(-9.88 -0.18)"/><path d="M309.18,130.58c34.83-6.83,56.95-30,57.91-60.25.42-13.1-4-26.67-8.44-39.44C354.94,20.21,348,10.38,342.51.18h-8.67C339.28,10.43,345.78,20.36,350,31c16.56,41.93-.57,84.41-59.26,94.55-22.21,3.83-45.07,4.91-67.68,6.81C144.18,139,72.81,161.66,11.19,206.17c-.46.34-.89.67-1.31,1v15.67c63-50.65,138.78-75.49,223.28-83.14C258.6,137.39,284.31,135.46,309.18,130.58Z" transform="translate(-9.88 -0.18)"/><path d="M149.75,116.47c31.42-4,63.16-6.06,94.63-9.78,37.36-4.41,65.22-25.52,70.84-52.83,3.8-18.49.67-36.37-7.39-53.68H297c2,6.37,4.92,12.65,5.77,19.14,4.81,36.85-15.78,71.82-62.48,79.09-18.79,2.92-37.89,4.46-56.92,6-61.07,4.92-119.63,16.85-172.82,44.94l-.66.36v12.43c1.84-.92,3.66-1.83,5.46-2.77C57,137.58,101.64,122.58,149.75,116.47Z" transform="translate(-9.88 -0.18)"/><path class="cls-2" d="M1019.79,136.27c-23.44,6.4-47.13,5-70.6.42-39.39-7.67-78.53-16.4-118.05-23.52a154.8,154.8,0,0,0-42.76-1.8c-23,2.39-36.93,17.09-35.69,37.27.58,9.32,3.64,20,9.8,27.29,16.33,19.47,35,37.48,52.67,56.07-3.2-4.39-6.2-8.9-9.64-13.14-11.84-14.6-26.57-28-35.21-43.86-18.37-33.8,8.28-64.23,50.59-57.93S905,132.2,946.82,140.39c26.95,5.27,53.76,10,81.3,3.64,36-8.25,50.15-36.27,32.4-64.67a166.29,166.29,0,0,0-17.75-23.67c-17-18.74-34.69-37-52.09-55.51h-6.5c21.33,24.12,44.32,47.29,63.53,72.64C1067.61,99.07,1054.09,126.9,1019.79,136.27Z" transform="translate(-9.88 -0.18)"/><path d="M127.22,102.21c29-3.4,58.05-6,87-9.23,52.86-5.86,87.19-40.58,71.89-92.8H275.31c.16,2.83.24,5.66.49,8.48C279.07,46.6,258,73.39,215.75,83c-14.9,3.4-30.53,4.86-45.94,6-54.28,4-107.35,11.92-157.2,32.39q-1.45.6-2.73,1.23v13c1.49-.62,3-1.23,4.42-1.86C50.13,118.27,87.49,106.88,127.22,102.21Z" transform="translate(-9.88 -0.18)"/><path d="M1225.41,683.39c-69.32,10.69-131,35.91-183.76,77-2.87,2.23-5.09,5.09-7.61,7.66h21.67c5.51-4.4,10.72-9.13,16.57-13.15,63.88-43.87,137.11-65.6,217.7-70.48,16.82-1,33.62-3.81,50.09-7.07,8.91-1.77,17.12-6.27,25.64-9.53V652.64c-14.57,12.51-33,17.85-52.48,20.39C1284,676.83,1254.47,678.9,1225.41,683.39Z" transform="translate(-9.88 -0.18)"/><path class="cls-2" d="M1269.47,671.59c-36.74,2.09-73.2,6.51-108.33,16.86C1104.63,705.1,1053.86,730,1012.36,768H1034c2.52-2.57,4.74-5.43,7.61-7.66,52.77-41,114.44-66.26,183.76-77,29.06-4.49,58.61-6.56,87.82-10.36,19.48-2.54,37.91-7.88,52.48-20.39v-17C1340.52,661.67,1306.69,669.47,1269.47,671.59Z" transform="translate(-9.88 -0.18)"/><path d="M171,81.59c18-2.84,36.75-5.44,53-12.15,32.75-13.53,42.9-39.07,40.5-69.26h-13c1.1,44.61-35.48,68.11-79.37,72.91-10,1.1-20.06,2.31-30.13,3C97.52,79.23,53.69,84.82,11.86,99.2l-2,.68v11.74c14.46-4.73,28.76-10.28,43.73-12.85C92.52,92.09,131.94,87.75,171,81.59Z" transform="translate(-9.88 -0.18)"/><path class="cls-2" d="M1290,684.37c-80.59,4.88-153.82,26.61-217.7,70.48-5.85,4-11.06,8.75-16.57,13.15h19.51c4.13-3.38,7.94-7.12,12.43-10.08,63-41.36,134.72-61.49,212.64-67.63,22-1.74,43.62-7.34,65.42-11.18V667.77c-8.52,3.26-16.73,7.76-25.64,9.53C1323.6,680.56,1306.8,683.36,1290,684.37Z" transform="translate(-9.88 -0.18)"/><path class="cls-2" d="M1106.23,759.52c-4,2.57-7.67,5.64-11.5,8.48h23.85c27-19.39,57.79-32.91,90.31-43.6,41.59-13.67,85.18-18.74,129-22.68,9.3-.84,18.52-2.44,27.78-3.69v-9.46c-23.43,3.21-46.76,7.34-70.32,9.46C1226.12,704.24,1162.71,723.66,1106.23,759.52Z" transform="translate(-9.88 -0.18)"/><path d="M159.39,67.06c46.14-5.68,71.92-27.95,79.07-66.88h-13c-2,16.46-10.69,29.53-25.17,40.35C182.34,54,161,58.91,138.47,60.7c-42.8,3.4-85.55,6.67-127,17.69-.56.15-1.1.3-1.61.46v9.87c18.39-4.23,36.49-9.06,55-11.64C96.21,72.73,128,70.93,159.39,67.06Z" transform="translate(-9.88 -0.18)"/><path d="M1087.65,757.92c-4.49,3-8.3,6.7-12.43,10.08h19.51c3.83-2.84,7.45-5.91,11.5-8.48,56.48-35.86,119.89-55.28,189.16-61.49,23.56-2.12,46.89-6.25,70.32-9.46v-9.46c-21.8,3.84-43.41,9.44-65.42,11.18C1222.37,696.43,1150.65,716.56,1087.65,757.92Z" transform="translate(-9.88 -0.18)"/><path d="M171.14,43.1c20.14-8.45,36.68-21.29,39.14-42.92H195.1C188,17.83,174.71,31,154.66,37c-16.56,4.93-34.12,7.64-51.47,10.16C72.63,51.58,41.9,55.12,11.24,59c-.47.06-.92.12-1.36.2v8C49.1,62.8,87.41,58.82,125.52,53.82,141.05,51.78,157.16,49,171.14,43.1Z" transform="translate(-9.88 -0.18)"/><path d="M1208.89,724.4c-32.52,10.69-63.29,24.21-90.31,43.6h21.68a376.72,376.72,0,0,1,136.43-50.5c29.37-4.77,59.32-6.77,89-10V698c-9.26,1.25-18.48,2.85-27.78,3.69C1294.07,705.66,1250.48,710.73,1208.89,724.4Z" transform="translate(-9.88 -0.18)"/><path d="M1265.15,46.91c-26.22,0-39.61,16.94-33.8,39.3,1.8,6.91,5.48,13.7,9.7,19.8,5.94,8.61,13.15,16.55,19.88,24.73,33.8,41.07,77.43,75.65,104.78,121V236.58c-18.77-19.79-37.76-39.42-56.23-59.41-16.74-18.11-33.35-36.35-49.13-55.1a81.52,81.52,0,0,1-14.24-24.14c-9.28-25.66,5.36-44,36.19-45.12,12.83-.46,25.86,1.4,38.68,3,15,1.84,29.82,4.51,44.73,6.82V58.81C1355.82,57,1346,54.48,1336,53.36,1312.46,50.7,1288.79,46.9,1265.15,46.91Z" transform="translate(-9.88 -0.18)"/><path d="M1295.05,59.27c-35,.62-51.85,24.42-34.79,51.12,10.64,16.65,23.86,32.2,37.32,47.29,22.11,24.81,45.36,48.86,68.13,73.22v-7.56c-28-30.76-56.47-61.15-83.47-92.54-7-8.14-11.37-19.1-13.21-29.28-3.73-20.71,9.41-34.7,33.49-35.23,17.46-.38,35,2.67,52.52,4.26,3.58.33,7.11,1,10.67,1.49V66.37c-18.16-2.1-36.32-4.28-54.49-6.26A126.67,126.67,0,0,0,1295.05,59.27Z" transform="translate(-9.88 -0.18)"/><path class="cls-2" d="M1140.26,768h23.84c39.45-23.37,83.25-37.59,129.76-45.19,23.67-3.86,47.88-5.25,71.85-7.76v-7.57c-29.7,3.25-59.65,5.25-89,10A376.72,376.72,0,0,0,1140.26,768Z" transform="translate(-9.88 -0.18)"/><path d="M117.19,37.88c27.41-3.73,49.24-15.74,62.74-37.7H158.25c-7.71,12.15-19.7,20.54-34.44,24.23-17.92,4.49-36.48,7.3-55,9.72-19.45,2.54-39.06,4.16-59,6.06V50.35c2.92-.45,5.7-.86,8.49-1.18C51.32,45.43,84.38,42.35,117.19,37.88Z" transform="translate(-9.88 -0.18)"/><path class="cls-2" d="M1261.41,433.1c4.45,9.48,10.92,18.45,17.78,26.84,27.16,33.22,63.78,60,86.52,96.25V544.84c-25.52-26.91-51.5-53.5-76.26-80.92-7.87-8.71-14.61-19.1-18.19-29.67-9.17-27.06,13-50.87,45.23-49,16.5.94,32.82,4.22,49.22,6.44v-3.78c-20.21-3.16-40.3-8.08-60.64-9.1C1268.09,376.93,1247.4,403.26,1261.41,433.1Z" transform="translate(-9.88 -0.18)"/><path class="cls-2" d="M1282.3,52.81c-30.83,1.11-45.47,19.46-36.19,45.12a81.52,81.52,0,0,0,14.24,24.14c15.78,18.75,32.39,37,49.13,55.1,18.47,20,37.46,39.62,56.23,59.41V230.9c-22.77-24.36-46-48.41-68.13-73.22-13.46-15.09-26.68-30.64-37.32-47.29-17.06-26.7-.18-50.5,34.79-51.12a126.67,126.67,0,0,1,16.17.84c18.17,2,36.33,4.16,54.49,6.26V62.59c-14.91-2.31-29.75-5-44.73-6.82C1308.16,54.21,1295.13,52.35,1282.3,52.81Z" transform="translate(-9.88 -0.18)"/><path d="M1271.26,434.25c3.58,10.57,10.32,21,18.19,29.67,24.76,27.42,50.74,54,76.26,80.92v-7.56c-22.86-23.88-46-47.54-68.37-71.79a67,67,0,0,1-12.82-21.6c-10.39-27.48,10.43-52.34,43.66-52,12.52.12,25,2.32,37.53,3.58v-3.79c-16.4-2.22-32.72-5.5-49.22-6.44C1284.28,383.38,1262.09,407.19,1271.26,434.25Z" transform="translate(-9.88 -0.18)"/><path d="M1313.26,74c-23,1-35.43,14.47-32.36,34.43,1.58,10.23,5.52,21.42,12.43,29.55,23.14,27.2,48.11,53.21,72.38,79.68V210.1c-6.37-6.27-13.12-12.28-19-18.88-13.93-15.58-28.25-31-40.79-47.38a71.31,71.31,0,0,1-12.6-27.55c-3.66-16.77,6.41-29.93,25.41-34.1,9.18-2,19.16-1.48,28.79-1.65,6-.11,12.13.61,18.2,1V77.72C1348.22,76.34,1330.63,73.27,1313.26,74Z" transform="translate(-9.88 -0.18)"/><path d="M1164.1,768H1188c24.31-9.86,48-21.27,73.08-29.18a359.5,359.5,0,0,1,104.68-16.21v-7.56c-24,2.51-48.18,3.9-71.85,7.76C1247.35,730.41,1203.55,744.63,1164.1,768Z" transform="translate(-9.88 -0.18)"/><path class="cls-2" d="M1302.52,66.29c-24.08.53-37.22,14.52-33.49,35.23,1.84,10.18,6.21,21.14,13.21,29.28,27,31.39,55.52,61.78,83.47,92.54v-5.67c-24.27-26.47-49.24-52.48-72.38-79.68-6.91-8.13-10.85-19.32-12.43-29.55-3.07-20,9.31-33.46,32.36-34.43,17.37-.74,35,2.33,52.45,3.71V72c-3.56-.5-7.09-1.16-10.67-1.49C1337.54,69,1320,65.91,1302.52,66.29Z" transform="translate(-9.88 -0.18)"/><path class="cls-2" d="M1284.52,443.89a67,67,0,0,0,12.82,21.6c22.33,24.25,45.51,47.91,68.37,71.79V531.6c-20.3-21.53-41.1-42.73-60.67-64.75a42.13,42.13,0,0,1-10.74-33.74c2.29-19.24,17.45-32.81,40.37-34.09,10.25-.57,20.69,1.32,31,2.09v-5.67c-12.51-1.26-25-3.46-37.53-3.58C1295,391.55,1274.13,416.41,1284.52,443.89Z" transform="translate(-9.88 -0.18)"/><path d="M1334.67,399c-22.92,1.28-38.08,14.85-40.37,34.09A42.13,42.13,0,0,0,1305,466.85c19.57,22,40.37,43.22,60.67,64.75V524c-17.47-19.06-37.8-36.65-51.75-57.5-21.9-32.72,2-63.19,45.34-61.35,2.12.09,4.27-.19,6.41-.3v-3.78C1355.36,400.34,1344.92,398.45,1334.67,399Z" transform="translate(-9.88 -0.18)"/><path class="cls-2" d="M1188,768h23.84c34.47-17.86,72.24-27.63,111.26-34.12,14.11-2.35,28.43-3.76,42.66-5.59v-5.68A359.5,359.5,0,0,0,1261,738.82C1235.92,746.73,1212.26,758.14,1188,768Z" transform="translate(-9.88 -0.18)"/><path class="cls-2" d="M1347.51,80.54c-9.63.17-19.61-.36-28.79,1.65-19,4.17-29.07,17.33-25.41,34.1a71.31,71.31,0,0,0,12.6,27.55c12.54,16.41,26.86,31.8,40.79,47.38,5.89,6.6,12.64,12.61,19,18.88v-5.67l-52.65-61.81a6.49,6.49,0,0,1-.53-.83c-19.23-32.8-2.87-55.6,39.19-54.65,4.66.11,9.32,0,14,0V81.5C1359.64,81.15,1353.56,80.43,1347.51,80.54Z" transform="translate(-9.88 -0.18)"/><path class="cls-2" d="M1359.3,405.19c-43.38-1.84-67.24,28.63-45.34,61.35,14,20.85,34.28,38.44,51.75,57.5v-5.68c-17.13-17.35-36.14-33.63-44.25-56.31-9.94-27.79,11.81-52,44.25-49.59v-7.57C1363.57,405,1361.42,405.28,1359.3,405.19Z" transform="translate(-9.88 -0.18)"/><path d="M793,29.71c24.3-.22,46.23-7.46,56.75-29.53H832.43c-4.1,11.77-15.92,15.53-27.29,19-22.83,7-46.34,6.2-69.43,1.42C705.65,14.38,675.89,7,646,.18H620c36.65,7.88,73.13,16.53,110,23.34C750.65,27.32,772,29.9,793,29.71Z" transform="translate(-9.88 -0.18)"/><path d="M1351.72,87.14c-42.06-1-58.42,21.85-39.19,54.65a6.49,6.49,0,0,0,.53.83l52.65,61.81v-7.57c-14.61-18.1-32.45-34.88-43.07-54.62-15.79-29.33,4.1-49.56,43.07-47.5V87.17C1361,87.17,1356.38,87.25,1351.72,87.14Z" transform="translate(-9.88 -0.18)"/><path d="M143.07.18h-26c-8,10.36-21.06,12.72-33.5,14.64C59.43,18.55,35,21,10.73,23.87L9.88,24V32.3c23.78-2.15,47.3-4,70.68-6.7C104.26,22.86,126.15,16,143.07.18Z" transform="translate(-9.88 -0.18)"/><path d="M1211.79,768H1240c22-7.6,43.61-16.48,66.22-22.4,19.23-5,39.63-6.63,59.51-9.75v-7.56c-14.23,1.83-28.55,3.24-42.66,5.59C1284,740.37,1246.26,750.14,1211.79,768Z" transform="translate(-9.88 -0.18)"/><path d="M1321.46,462.05c8.11,22.68,27.12,39,44.25,56.31v-5.67c-15-13.26-28.2-27.62-33.44-46.08-6.24-22,8.45-42,33.44-46.59v-7.56C1333.27,410,1311.52,434.26,1321.46,462.05Z" transform="translate(-9.88 -0.18)"/><path d="M1337.2,156.15c8.24,12.32,18.93,23.4,28.51,35v-9.46c-13-11.41-21.47-24.9-22.93-41.1-1.28-14.08,7.94-25.23,22.93-28.87V100.41C1330.59,107,1319,128.86,1337.2,156.15Z" transform="translate(-9.88 -0.18)"/><path class="cls-2" d="M1240,768h28.18c25.49-7,50.94-14.2,76.52-21,6.8-1.8,14-2.43,21-3.6v-7.56c-19.88,3.12-40.28,4.72-59.51,9.75C1283.59,751.52,1262,760.4,1240,768Z" transform="translate(-9.88 -0.18)"/><path class="cls-2" d="M805.14,19.18c11.37-3.47,23.19-7.23,27.29-19H815.09c-10.59,12.69-26.56,16.65-42.78,16.59a417.8,417.8,0,0,1-60-5.13C695.7,9.14,679.63,4.1,663.34.18H646C675.89,7,705.65,14.38,735.71,20.6,758.8,25.38,782.31,26.13,805.14,19.18Z" transform="translate(-9.88 -0.18)"/><path class="cls-2" d="M1322.64,142.24c10.62,19.74,28.46,36.52,43.07,54.62v-5.67c-9.58-11.64-20.27-22.72-28.51-35-18.22-27.29-6.61-49.13,28.51-55.74V94.74C1326.74,92.68,1306.85,112.91,1322.64,142.24Z" transform="translate(-9.88 -0.18)"/><path class="cls-2" d="M1332.27,466.61c5.24,18.46,18.48,32.82,33.44,46.08v-7.56c-13.26-11.32-21.68-24.94-22.5-41.13-.76-15.16,6-27.48,22.5-34.52V420C1340.72,424.6,1326,444.6,1332.27,466.61Z" transform="translate(-9.88 -0.18)"/><path d="M772.31,16.77c16.22.06,32.19-3.9,42.78-16.59H793.41c-12.91,3.29-25.62,8.33-38.79,9.49C730.09,11.84,706,7.93,682.85.18H663.34c16.29,3.92,32.36,9,48.93,11.46A417.8,417.8,0,0,0,772.31,16.77Z" transform="translate(-9.88 -0.18)"/><path d="M1343.21,464c.82,16.19,9.24,29.81,22.5,41.13v-7.57c-14.93-17.32-14.93-40.68,0-52.95V429.48C1349.22,436.52,1342.45,448.84,1343.21,464Z" transform="translate(-9.88 -0.18)"/><path class="cls-2" d="M754.62,9.67c13.17-1.16,25.88-6.2,38.79-9.49H682.85C706,7.93,730.09,11.84,754.62,9.67Z" transform="translate(-9.88 -0.18)"/><path d="M1250.81.18h-30.34c1.26.53,2.47,1.39,3.8,1.56,47.09,6.1,93,19.87,141.44,17.35V9.63C1326.34,16.33,1288.48,9.13,1250.81.18Z" transform="translate(-9.88 -0.18)"/><path d="M1268.16,768h30.35c18.56-5,37.1-10,55.7-14.93,3.73-1,7.66-1.41,11.5-2.09v-7.57c-7,1.17-14.23,1.8-21,3.6C1319.1,753.8,1293.65,761,1268.16,768Z" transform="translate(-9.88 -0.18)"/><path d="M95.38.18H62.87C45.21,2.62,27.59,5.27,9.88,7.4v8.3c14.27-1.09,28.65-1.76,42.64-4.15C67.1,9.05,81.12,4.07,95.38.18Z" transform="translate(-9.88 -0.18)"/><path class="cls-2" d="M1342.78,140.63c1.46,16.2,9.9,29.69,22.93,41.1v-7.56c-15.6-16.1-15.6-37.78,0-51.06V111.76C1350.72,115.4,1341.5,126.55,1342.78,140.63Z" transform="translate(-9.88 -0.18)"/><path class="cls-2" d="M1365.71,5.85V1.72a2.85,2.85,0,0,0-2.2-1.54h-4.31c-21.53,7.19-43.62,6-65.76,3.16-4.88-.63-9.63-2.09-14.44-3.16h-28.19c37.67,9,75.53,16.15,114.9,9.45A7.31,7.31,0,0,1,1365.71,5.85Z" transform="translate(-9.88 -0.18)"/><path class="cls-2" d="M1298.51,768h30.34l36.86-9.46V751c-3.84.68-7.77,1.11-11.5,2.09C1335.61,758,1317.07,763,1298.51,768Z" transform="translate(-9.88 -0.18)"/><path class="cls-2" d="M1365.71,497.56V444.61C1350.78,456.88,1350.78,480.24,1365.71,497.56Z" transform="translate(-9.88 -0.18)"/><path d="M1365.71,174.17V123.11C1350.11,136.39,1350.11,158.07,1365.71,174.17Z" transform="translate(-9.88 -0.18)"/><path d="M1359.2.18H1279c4.81,1.07,9.56,2.53,14.44,3.16C1315.58,6.16,1337.67,7.37,1359.2.18Z" transform="translate(-9.88 -0.18)"/><path d="M1365.71,768v-9.46L1328.85,768Z" transform="translate(-9.88 -0.18)"/><path class="cls-2" d="M461.92,42l-.07-.11a64.31,64.31,0,0,0-4.36-6C446.68,23.93,435.77,12.07,424.89.18h-4.34l41.1,41.52Z" transform="translate(-9.88 -0.18)"/></svg>