<svg id="Calque_1" data-name="Calque 1" xmlns="http://www.w3.org/2000/svg" viewBox="0 0 1366 768"><defs><style>.cls-1{fill:#fff;}</style></defs><path d="M587.4,768H521.84V684.28L507.05,697c-24-23.16-47.87-45.42-70.74-68.58-8.44-8.54-16.83-8.87-31.35-5.4,32.66,30.52,63.13,58.74,93.17,87.38,3.78,3.61,7.12,9.37,7.41,14.32.85,14.39,0,28.87-.1,43.31H489.05c5.43-31.15-4.66-56-31.92-74.23-3.66-2.45-6.4-6.18-9.58-9.29-17.35-17-34.72-33.89-53.48-52.21-2.51,12.37-1.55,20.37,6.94,28.13,22.37,20.44,43.89,41.77,65.44,63,3.19,3.15,6.41,7.78,6.68,11.9.71,10.83-.2,21.77-.47,32.66H439.88l15.78-6V747.27L377,768H303.28c17-4.37,33.84-9,50.85-13.07,31.82-7.7,63.71-15.13,96.35-22.86-11.32-12.28-11.32-12.28-24.79-9.14-24.63,5.75-49.31,11.3-73.88,17.31-37.16,9.09-74.25,18.49-111.36,27.76H161.22V629.4l-16.39.74V768H128.44V630.06H112.81c0,6.3,0,11.87,0,17.44q-.37,60.25-.76,120.5h-41c5.06-5,10.05-10.06,15.19-15,11.17-10.66,11.4-11.36,7-28.63L51.94,768H27.36c2.67-3.37,5-7.07,8.06-10.06C52.33,741.43,69,724.62,86.64,708.88c8.79-7.84,10.72-16.11,7.53-29.43C85.75,688,78.75,695.2,71.63,702.3Q38.6,735.18,5.5,768c-1.82-1.32-5.17-2.58-5.22-4C-.14,752.22,0,740.38,0,728.55c13.24,2.15,24.76.27,32-13.15H0V697l28.07,1.39c-7.4-12-15.87-17.11-28.07-14.54V647l49,52.62c1.1-1.58,2.2-3.17,3.31-4.75L62.9,688,0,626V602.3l73.75,73.31L88,664.81C67.2,645.18,47.85,628,30,609.56c-8.79-9.07-17.83-12.49-29.92-9.89V581.26H250l1.34-4c-6.39-3.19-12.76-9.1-19.17-9.14-77.38-.5-154.77-.13-232.15,0v-52.6c10.18,9,21.05,17.35,30.34,27.12,7.79,8.21,16.06,9.44,28.85,6.15-18.86-17.84-36.4-34.51-54.12-51-1-.93-3.35-.48-5.07-.67V481.32H106.13V465.53H0V449.75H106.85c-.4-6.82-.64-10.92-.93-15.78H0V405c69.37-15.64,138.67-31.58,208.18-46.64,12.29-2.66,16.51-7.08,11.88-18.75L0,389.26V284.05c3.48,2.53,7.32,4.71,10.39,7.63,19,18.1,38.29,36,56.56,54.76,8,8.23,15.22,9.9,26.28,3-19.06-17.93-37.43-35.36-56-52.61C25,285.41,12.46,274.27,0,263V239.34c2.76,2.14,5.76,4,8.26,6.44,32.55,31.22,65.19,62.36,97.4,93.91,6.39,6.25,12,8.46,21.06,1.82-2.86-3.61-5.32-7.52-8.56-10.69Q85.6,299,52.7,267.52C35.31,251,17.6,234.7,0,218.3V194.63l10.88,2.72c0-38.63-.08-75.51.06-112.38C11,76.17,5.44,78,0,78.9V60.49c41.23.32,82.47.26,123.69,1.21,11.68.27,18.65-3.33,22.34-14.36H0V28.93c19.5.41,39,1.05,58.5,1.17,32.54.19,65.08,0,98.92,0-7.32-10.83-15.32-15-27.77-14.77-43.2.82-86.43.37-129.65.4V0H153l55.14,48.67L96.29,195.43c17.32,2.38,17.29,2.35,25.33-8.25,9.9-13.06,19.89-26.06,29.8-39.11q36.86-48.55,73.88-97.41L174.88,0h24.59L251.2,45.48l5.49-8.6L221.32,0h38.25l-4.24,11.5,11.44,10L278.69,0h19.13c-1.5,3.94-3,7.87-4.71,12.34l11,5L311.24,6l-8-6h30.05c-1.6,3.51-2.62,7.44-4.92,10.45C320.18,21.19,318,33,318.28,46.19q1,51.87,0,103.76c-.18,10.47,3.16,15.36,15.33,15,0-5.06,0-9.8,0-14.55.1-37.65,0-75.31.5-112.95.12-8,2.71-16,4.33-24.89l144.3,41.6c4-10.35,1.13-15.43-8.69-17.37-6.64-1.31-13.1-3.51-19.58-5.49q-51-15.58-102-31.25h60.1l69.66,22.63c4.84-11.48,1.6-17.16-9.28-19.2C470,2.88,467.28,1.18,464.46,0h38.25l-1.89,38.63,3.58.31L513.64,0h19.12c-9.4,31.76-18.89,63.5-28.1,95.32-1.53,5.3-1.82,10.93-2.68,16.4l4.76,1C535,80.37,536.82,38.26,549.15,0h19.13c-6.62,22.35-13.23,44.7-20.73,70,14.07-11.43,24.75-20.56,27.4-36.2,1.95-11.48,6.39-22.57,9.72-33.84h16.39c-1.36,7.36-2.72,14.71-4.57,24.75L620.18,0h30.06l22.28,23.47,4-2.41L672.09,0H694c-.27,9.94,0,19.93-.94,29.82-1,11,4.89,17,14.6,22V0H724V41.69C746,31.52,739.49,14.63,740.39,0H792.3L723.53,69.33,734,78.9c20.37-19.6,40.43-38,59.25-57.47,8.2-8.49,16.66-11.21,28.35-11,39.92.64,79.86,0,119.78.43,8.75.09,12.61-2.5,12.08-10.84h16.39c0,34.17.42,68.35-.36,102.51-.26,11.4,3.38,19.09,15.51,25.33,0-5.77,0-10.37,0-15q.6-56.43,1.23-112.86h16.39c0,46-.27,92,.07,138.06,0,5.07,3.2,10.11,4.92,15.17l4.53-.28c1.72-3.69,4.93-7.38,4.93-11.07,0-47.29-.45-94.59-.79-141.88h41c-3.78,4.24-7,9.22-11.46,12.56-10.12,7.53-13.31,16.67-9.08,30.59L1079.15,0h24.59c-20.61,20.27-41.4,40.36-61.65,61-4,4.1-6,10.11-8.86,15.25l3.49,3.18c3.88-1.24,8.88-1.39,11.47-3.87,26-25,51.66-50.28,77.4-75.51h43.71c6,4.71,11.65,12.62,18.25,13.5,15.27,2,31,.64,47.32.64V0H1254c-.25,5.24-.72,10.47-.72,15.71,0,63.54.2,127.09-.41,190.63-.06,6.5-3.56,14.55-8.3,19.18-63.94,62.37-128.39,124.25-192.69,186.28-3.1,3-6,6.17-9.44,9.74l10.56,9.08c70.53-67.72,140.49-134.79,210.15-202.15,3-2.9,4.47-8.51,4.49-12.86.21-71.87.08-143.74,0-215.61h19.12c-.42,4.76-1.2,9.52-1.21,14.28-.09,68.34.14,136.68-.44,205-.06,6.52-3.31,14.66-8,19.26q-90.6,88.4-182.17,175.85c-9.85,9.46-20.32,18.33-31,28l11.92,10.33a45.87,45.87,0,0,0,3.93-2.91q107.57-103.65,214.87-207.53c3.56-3.45,5.63-9.86,5.66-14.9.32-75.79.18-151.57.15-227.36h16.4c.3,4.19.6,8.37,1,13.15H1366V55.23c-6.58-5.75-13.71-11-19.59-17.39-7.77-8.38-16.32-7.58-27.69-4.74L1366,76.27V100l-47.25-43.17-3.25,1.73c1.91,6.84,1.74,15.48,6.12,20.18C1335.5,93.58,1351.08,107,1366,121v31.56h-49c.41,5.44.69,9.13,1,13.15h48v18.41h-49c.42,5.31.71,9,1,13.15H1366v36.82l-33.12,29.26,11.23,9.26L1366,255.12v60.5l-62.75-57.53-9.56,9.64,4-2.13L1366,336.66v23.67L1280.14,280l-6.89,7.41,92.75,94v36.82l-66.26.84c.07,1.48.14,3,.22,4.42h66v15.78c-5.39.42-10.79,1.18-16.18,1.19-75.06.12-150.11.41-225.16-.11-12-.09-17.4,5.55-23.63,14.7h265v15.78c-5.41.37-10.81,1-16.22,1q-118.76.09-237.51,0h-15.61c7.27,11.17,15.41,15.11,27.76,15,80.52-.55,161-.3,241.58-.31v15.78c-6.06,1.18-13.71.53-17.88,3.88-13,10.51-24.78,22.53-37.58,34.49l11.74,9.81L1366,510.25v23.67l-31.92,29,10.74,9.84c7.73-6.52,14.46-12.17,21.18-17.83v60.49c-3.42-2.73-7.09-5.23-10.23-8.24-33.47-32.14-67.1-64.14-100.1-96.73-7.76-7.67-15.46-8.93-27.19-6,4,4.23,6.69,7.45,9.73,10.39,20.52,19.86,41,39.76,61.69,59.45,21.91,20.84,44.06,41.46,66.1,62.18v23.67c-3.37-2.83-6.94-5.49-10.1-8.53q-57.36-55.17-114.63-110.42c-3.2-3.09-6.63-6-9.87-8.84-5.41,13.81,1,21.78,9.75,30,41.88,39.36,83.28,79.18,124.85,118.85v28.93H1229.59c.33,5.11.56,8.82.84,13.15H1366V768h-43.71l26.37-29.24c-10.15,1.62-18.58.65-23.36,4.21-9.36,7-16.69,16.54-24.87,25h-24.58l24.61-26.43c-8.24-1.23-16.77-1.55-22,2.29-9.2,6.7-16.39,15.95-24.43,24.14h-41V503.63h-15.69v14.85c0,42.47.1,84.95,0,127.42-.12,40.7-.45,81.4-.69,122.1h-16.39V510.36c-11.88,7.08-16.16,14.88-15.9,26.8.81,37.16.4,74.34.27,111.52-.14,39.77-.5,79.55-.76,119.32h-16.39c-2.59-4.7-4.19-10.33-7.91-14-38-37.13-76.56-73.74-114.34-111.07-4.68-4.62-7.94-12.59-8.09-19.09-.79-34.6-.91-69.24-.08-103.83.28-11.71-5.08-18.07-15.39-24.54,0,47.52-.2,93.47.31,139.41,0,4.51,3.43,9.86,6.89,13.32,18,18,36.6,35.38,54.79,53.18,22.58,22.09,45,44.37,67.42,66.57h-24.58c-3.76-4.25-7.24-8.77-11.31-12.72-34-32.92-68.26-65.52-101.8-98.84-4.72-4.69-8.23-12.64-8.35-19.16-.75-39.82-.36-79.66-.35-119.5V502.83c-12,6.84-15.53,15.12-15.31,26.8.7,38.07-.08,76.17.6,114.24a28.42,28.42,0,0,0,7.65,18.06c32.59,32.37,65.88,64.07,98.86,96.08,3.08,3,5.45,6.64,8.15,10h-38.25c2-3.11,4.05-6.22,6.28-9.67l-10.44-9.17L1024.51,768H999.92l30.65-31.23c-4.2-3.45-7.46-6.15-9.15-7.54L978.07,768H931.62V684l-16.39,1v83H898.84V684.89H882.45V768H713.07l-16.18-17.63-11,9,5.36,8.64H655.7c2.67-3.36,5-7.07,8.07-10,29-27.71,58.11-55.28,88.62-84.25l-11.25-11.05c-20.91,20.14-40.32,38.57-59.41,57.29-16.15,15.83-31.94,32-47.89,48H609.26c19.27-19.09,38.31-38.42,57.89-57.22,20.54-19.73,41.6-39,62.89-58.83L717.9,639c-10.92,11.16-20.37,21.15-30.18,30.8Q637.67,719,587.4,768Zm10.44-178.5H581.61c-87.3,0-174.61.19-261.92-.31-6.71,0-14.81-3.41-19.84-7.81-15.8-13.81-30.52-28.78-45.52-43.43-20.93-20.44-41.74-41-64.29-63.17-2.49,13.43-1.26,21.59,7.5,29.73,32.69,30.41,64.25,61.94,96.82,92.47A30.2,30.2,0,0,0,313,604.44c90.48.47,181,.32,271.47.32h13.4Zm-162.22-431c-43.29,41.7-85.78,82.44-128,123.45-8,7.78-5.76,33.71,2.85,42.06q62.42,60.62,124.9,121.18c22.6,21.9,45.27,43.73,68.93,66.57,2.62-12.74.05-21.12-8.89-29.46-31.66-29.56-62.1-60.32-93.52-90.11s-63.38-58.89-97.08-90.12l141-134.45ZM594,558.16H579.18c-81.91,0-163.83.2-245.74-.38-7.11,0-15.69-3.75-21-8.44-17.42-15.38-33.67-32-50.34-48.15q-35.38-34.32-70.71-68.68l-4.72,2.28c2.72,7.47,3.31,16.92,8.5,22.09,37.3,37.17,75.36,73.63,113.71,109.79,4.18,3.93,11.77,6.32,17.79,6.35,79.18.41,158.37,0,237.55.5C576.67,573.6,586.3,571.13,594,558.16Zm342.48-367.8c-13,7.41-15.93,16.76-15.83,29.33q.9,113.49,0,227c-.08,11.94,5.53,17.79,15.81,22.69ZM613.26,314.17H870.79V299.89H858c-72.39,0-144.79.29-217.18-.26C628.5,299.54,619.82,302.71,613.26,314.17ZM871.1,332.39H616c6.33,12,16.22,14.14,28.59,14.06,70.5-.44,141-.19,211.5-.18h15ZM639.53,12.78,448.74,195.93c9.71,1.72,18.67-2,27.52-10.77,37.37-37,75.48-73.25,113.56-109.54C608.77,57.55,628.23,40,648.23,21.48,643,16.2,639.88,13.12,639.53,12.78ZM873.19,136.32c-7.4-12.43-16.44-15.7-29.19-15.57-66.83.64-133.68.29-200.51.29h-15c2.17,11.29,7,15.73,18.48,15.56,45.91-.65,91.84-.27,137.77-.28ZM492.68,194.13l.33,3.51c8.22-2.21,18.8-2,24.29-7,52.25-47.52,103.63-95.92,156.17-144.9L658.81,33.21ZM903.16,441.32V222c-12.63,7-14.91,16.89-14.77,29.33q.93,82.8,0,165.6C888.23,428.53,891.76,436.11,903.16,441.32Zm72.4,27.51L815,622.84l8.2,7.42,161.51-154Zm-468.35-2.75c-2.34-8.14-2.08-17.35-6.73-21.92-51.94-50.87-104.64-101-158.11-152.3l-10.48,10.06ZM645.47,152.81c1.45,11.73,7.72,14.65,18.66,14.55,55-.5,110-.65,164.94.08,12.57.16,20.19-4.11,26.83-14.63Zm589.32-25.62h-199.2v13.95h199.2Zm-199-17.51h198.75V95.82H1035.82Zm-63,285.56L1123.4,539.75l9-9.26c-44.85-42.94-89.19-84.87-132.78-127.53C991.17,394.64,982.83,393.22,972.84,395.24ZM239.89,223.07V438.82l13.35-.84a35.86,35.86,0,0,0,.87-5c0-66.09-.11-132.17.29-198.26C254.46,224.44,248.44,223.65,239.89,223.07Zm-19,5.28c2.63-17.29-9.6-14.86-18.07-14.92C147,213,91.1,213.15,35.22,213.1H22.59c7.3,12,15.82,16.24,28.74,15.57,21.29-1.1,42.68-.31,64-.32ZM832.69,534H818.22c-53.11,0-106.23.44-159.33-.32-12.63-.18-20.08,4.56-27.46,15.51h14.46c53.11,0,106.23-.42,159.32.31C817.77,549.71,825.36,545.15,832.69,534ZM597.24,241.64,456.29,376.74l8.28,9.16L603.39,253.23ZM435.07,469.76c-7.21-9.84-13.37-15.18-25.25-15-52.81.65-105.63.25-158.44.29-3.33,0-6.65.55-10,.84-.45,1.37-.9,2.75-1.34,4.13,7.68,3.26,15.32,9.23,23.06,9.34C319.54,470.14,376,469.76,435.07,469.76ZM863.71,695.47c-41-41.12-80.88-81.17-120.8-121.2-10.44-10.47-10.48-10.44-27.34-6.76,3.18,3.44,6.07,6.72,9.14,9.84,35.62,36.16,71.57,72,106.7,108.62C840.31,695.25,849.18,699.74,863.71,695.47Zm-7.26-181.64c.08-1.53.17-3.06.25-4.59-6.7-2.12-13.38-6-20.1-6.09-48.16-.52-96.33.15-144.48-.54-12.77-.18-21.1,3.83-28.07,15.5,61.82,0,122.11.07,182.4-.18C849.79,517.92,853.11,515.26,856.45,513.83ZM488.66,408.92c41.54-40,81.75-79.15,122.53-117.72,8.13-7.69,7.68-13.36,1.62-19.18L479.62,399.37Zm605.53-250.26c-13.51-3.53-22.46,1.52-31.46,10.58Q1013.28,219,962.22,267.3c-8.66,8.18-9.77,16.19-8,25.19Zm-915.41,599c42.91-40.87,85.23-81,127.15-121.47,3.35-3.24,3.86-9.2,5.69-13.89l-4.26-3.15c-4.84,3.08-10.37,5.49-14.4,9.35-34.81,33.24-69.06,67-104.16,100C179.83,736.91,175,745.18,178.78,757.68ZM56.21,195.49c13.32,3.82,20.41-.54,26.63-9.83,9.08-13.56,19.66-26.2,29.54-39.27Q147.51,100,182.5,53.58C175.86,45.2,170.44,45,164.72,53c-5.42,7.54-11.28,14.79-16.91,22.18C117.56,114.88,87.32,154.62,56.21,195.49ZM286.9,259.56c-11.52,7.08-15.93,14.81-15.74,26.77.73,45.57.28,91.15.27,136.72v12.82c12.89-6.8,16-15.41,15.77-27.17-.75-37.67-.29-75.36-.3-113ZM682.41,564.61l-4.23,3.87c3,5.27,4.89,11.45,9,15.68,33.82,34.88,68.29,69.18,102,104.19,8.06,8.37,16.14,10.68,28,6.85-41.58-42.28-82.42-83.91-123.53-125.31C690.94,567.17,686.2,566.33,682.41,564.61Zm119,44.58,127.48-122-10.74-8.75-126,120.79ZM692.49,282.09,609.8,125.17l-12,10.37c24.89,46.85,49.35,92.21,73,138C675.58,282.77,681.07,286,692.49,282.09ZM751,375.89l-3.54,1.47c1.73,6.64,1.19,15.58,5.54,19.55,38.12,34.8,77.11,68.71,114.85,102l14.13-9ZM250.57,600H45.51c6,10.34,13.72,13.56,25,13.44q77-.85,154,0C236.05,613.54,244.5,610.75,250.57,600ZM763.23,364.17,893.36,477.39l11.93-10.5c-36.87-31.73-73-62.24-108.3-93.6C787.46,364.83,778.09,360.48,763.23,364.17ZM55.39,244.87c7.07,12.19,16.63,15,29.14,14.74,38.64-.7,77.29-.32,115.94-.35h20.34V244.87ZM28.59,415.33l.72,3.55c22.1-1.36,44.59-.69,66.2-4.55,38.22-6.82,75.81-16.88,113.89-24.56,11.23-2.26,14.87-6.13,10.45-17.14ZM868.16,58.82c40.29,38.54,80.16,76.69,120.72,115.51l9-9.38c-34.15-32.65-67.74-64.14-100.46-96.44C888.92,60.11,880.43,56.09,868.16,58.82Zm-697,91.86c48.8,14.54,95.66,28.12,142.2,42.67,11.06,3.45,17.59,1.63,22.79-8.67l-155-47.54Zm864.19,381.71,23.88-21L953.92,408.7c-.55,14.93-.6,15,11.54,26.74,14.39,13.94,28.31,28.41,43.5,41.51,16.78,14.47,31,29.32,25.69,53.35A2.74,2.74,0,0,0,1035.31,532.39Zm-498.53,9v-154c-12.4,7-15.53,16.47-15,29.1,1,26.7.3,53.46.29,80.2v44.71Zm33.64-.09V528.63c0-38.56-.47-77.12.3-115.66.23-11.5-5.86-17.14-15.23-24V541.34ZM412.59,136.93c-35.23,33.84-70.22,66.85-104.21,100.79-4.61,4.61-4.22,13.88-6.59,22.64L422.36,145.48ZM794.35,285.09c8.58-1.76,17.88-.93,22.34-5,35.43-32.42,69.94-65.77,105.15-99.23L912,172.12ZM310.52,209.63c-47.36-14.12-93.66-27.5-139.62-41.92-11.43-3.59-15.47.42-18.73,10,44.69,13.66,88.81,26.8,132.63,40.81C295.85,222,303.87,221.59,310.52,209.63ZM954.08,347.06H968.8c37.71,0,75.43-.49,113.12.27,12.61.26,19.62-4.92,25.72-14.6H954.08ZM616.2,565.88v148.2c12.75-7,15.17-16.79,14.88-29.22-.83-34.93-.28-69.89-.28-104.83V565.88Zm40.27-283.36L585.33,148.46c-4.85,5-8.17,8.4-11.64,12,19.86,37.49,39.86,74.23,58.72,111.51C637.53,282.07,643.62,285.85,656.47,282.52ZM566,243.59c-54.73,0-107.37.33-160-.25-11.92-.13-19.37,4-25.69,14.73,54.34,0,107.34-.31,160.32.25C551.93,258.44,559.38,254.94,566,243.59ZM823.84,60.19,934.27,166.71c1.67-6.47,2.3-14.91-1.78-19C900.2,115.34,867,83.79,833.58,51.48ZM429.59,487.39h-156c6.7,11.07,15.38,14.49,27.54,14.23q50.42-1.11,100.88-.09C414.15,501.78,422.94,498.4,429.59,487.39ZM865.53,745.67h-148c7,11.45,16,14.84,28.75,14.52,35-.88,69.94-.3,104.91-.3h14.36ZM587.19,226.24c-.94-10.68-6.14-13.83-16.19-13.73-44.16.42-88.33.59-132.48-.07-11.85-.17-19.58,3.46-25.43,13.8ZM721.35,727.56H866.21c-.4-5.13-.72-9.29-1.1-14.29-39.58,0-78.16.51-116.72-.3C735.94,712.71,728,716.92,721.35,727.56ZM156.67,418.75V549.43h14.61V414.86Zm118,183.13c-29.4,28.3-58,56.48-87.43,83.76-8.91,8.25-11.6,16.42-8.81,26.37L283.77,611.24C281.54,608.93,278.79,606.09,274.7,601.88Zm507-336.94L896.45,156.66,887,148.32c-32.58,31.33-64.08,62.19-96.35,92.28C782.16,248.54,779.34,256.5,781.71,264.94ZM139,423.49c-11.69-1.52-15.55,2.57-14.91,13.15.89,14.85.13,29.78.12,44.68,0,22.67,0,45.34,0,68.33H139Zm559.59,62.66V362.67l-14,.9V486.15Zm18.49-122.63V485.89h14.31V363.52ZM351.73,169.17c11-7.58,16.56-14.36,15.95-26.69-1.52-31-1.72-62-1.34-93.06.14-10.94-4-14.94-14.61-14.76ZM29.5,78.56v118l4.44,1.3c3.19-6.61,8.94-13.16,9.13-19.85.92-31.91.34-63.85.2-95.78,0-1.12-1-2.25-1.64-3.62ZM648.75,565.94V682.88c12.35-7.13,15.7-16.76,14.87-29.32-1-16.09-.25-32.31-.24-48.47V565.94ZM954.32,378.56c32.7,0,64.77-.46,96.82.23,12.31.26,18.11-6,23.8-14.83H954.32ZM481.89,133.77l10.88-9.42C471,103.73,449,84.12,428.58,63.15c-10.94-11.22-24.12-14.84-38.9-18ZM328.54,621.19V728.68L342.37,725V621.19Zm337-195.26c-23.19,22.37-45.07,44.29-68,65.17-9.15,8.34-12.85,16.72-8.6,30.36,22.86-22.29,44.36-44,66.73-64.74C664.59,448.45,669.82,440.09,665.52,425.93ZM731.29,283V183.79l-14.19.89V283Zm18.2,0H764v-98.4H749.49Zm299.63-124c-13.38-3.38-21.52.71-29.47,8.84-18.35,18.78-37.28,37.11-56.89,54.68-8.77,7.86-10.6,16-8.66,25Zm125.74-1.22-13.89.75V280.2c6.44-4,13.24-9.34,13.39-14.82C1175.34,230.09,1174.86,194.77,1174.86,157.73Zm-222-116c-.39-5.42-.69-9.48-1-14.54-30.65,0-60.07-.61-89.43.52-5.67.21-11.07,7.17-16.59,11l2.1,3Zm-1.84,626.23V653.85H848c4.65,6.36,10.18,13.32,16,13.55C892.94,668.55,921.93,667.93,951.05,667.93Zm182.4-358.19c2.62-2.78,5.54-5.87,7.87-8.32l-84.42-81.8-9.37,8.81Zm-6-151.21c0,31.51.51,62-.26,92.49-.29,11.19,5,17.49,14.53,24V158.53ZM745.27,90.93l9.09,7.65,78.38-74.13C822.1,27.5,812.93,27.59,807.88,32,786.71,50.59,766.78,70.46,745.27,90.93Zm278.41,161.91c19.67,18.3,39.64,36.06,58.52,54.84,8.38,8.33,16.85,9.19,27.29,6.87l-74.08-71.41ZM1222.17,78.08,1146,4,1135.57,14.3c20.25,19,39.92,36.46,58.43,55.05C1202.49,77.87,1211.2,80.78,1222.17,78.08Zm-583,350.1c-24.9-24.08-48.7-47.08-72.9-70.49-2.24,2.28-5.23,5.35-7,7.2l72.49,70.83Zm23.36-22.25L589.36,335.2c-2.29,2.49-5.19,5.61-6.33,6.85l71.57,70.07ZM466.43,150.08l-85-83.51c1.68,7.62.86,16.19,4.92,20.35,23.22,23.81,47.6,46.57,72.54,70.61Zm782.43,163.33-3.12-1.17c-3.69,5.14-10.42,10.19-10.58,15.43-1,31.73-.5,63.5-.5,96.32l14.2-.73Zm-150.63,230c-20.39,19.65-40.77,38.31-59.7,58.25-4.24,4.47-3.43,13.39-5.38,22.24l75-71.71ZM1282,423.74c0-29.54-.56-57.86.28-86.13.34-11.5-3.87-18.71-14.16-24V423.74ZM1058,648.49l-1.8,2.43c5.48,4,10.78,11.08,16.47,11.37,24.72,1.27,49.55.55,75.26.55-.3-5.61-.52-9.71-.77-14.35Zm-683-28-14,1V720l3.28,2.34c3.57-3.74,10.13-7.4,10.24-11.23C375.3,681.53,374.91,651.89,374.91,620.52ZM666.56,474.11l-70.08,67.54c10.45,2.67,19.64-1.34,27.95-10.57a296.69,296.69,0,0,1,31.78-30.62C665.6,492.71,669,484.09,666.56,474.11Zm285,148.28c-27.49,0-53.73.55-79.93-.25-12-.36-19.08,4.23-24.78,14H951.54Zm397.72,69.16c-6.27-10.69-14.11-14.18-25.39-13.57a467,467,0,0,1-50.34,0c-11.42-.62-18.68,3.58-24.61,13.56ZM28.42,498.53c16.36,15,31.57,27.93,45.43,42.07,8.67,8.85,17.59,12.29,31.57,8.37-16.09-15.29-31.69-29.07-45.94-44.05C51.28,496.3,42.67,495.12,28.42,498.53ZM469.06,275.9H454.3v74.86c6.7-4.24,13.75-9.7,14.2-15.63C470,315.68,469.06,296.06,469.06,275.9ZM506.52,673l55-54.06c-9.43,2.1-18.69,1.64-23.95,5.83-14.55,11.57-27.43,25.08-41.87,38.68C500.22,667.46,503.48,670.35,506.52,673Zm770.15-54.17c-13.68,13.15-25,25.08-37.51,35.67-9.26,7.84-11.45,16.32-8.73,26.36l55.44-52.34ZM1113.06,36.05c13.35,12.46,26.11,23.12,37.24,35.18,8.29,9,17,8.45,24.29,7.06l-52.1-51.44ZM353.22,389.49l-55.36,50.87c8.46-1.85,17-1.35,21.71-5.18,14.58-11.71,27.72-25.08,41.81-38.18Zm458-311.07-29.16,25.91h56.23ZM1103.83,50.3l-30.58,27.58h59.12ZM218.15,128.22l1.78,4.5h80.88c-.23-4-.44-7.76-.71-12.54-23.83,0-46.85-.39-69.83.36C226.15,120.68,222.19,125.54,218.15,128.22Zm-74.84,148.2v65.94c6.46-4.41,14.08-7.07,14.27-10.15,1.13-18.49.56-37.08.56-55.79ZM670.9,64.47c12.83,11.87,25,22.26,36.06,33.65,7.92,8.17,16.2,7.85,24.84,5.72L681.63,54.43ZM178.48,629.85v38l38.5-38ZM402.19,540l.39,2.8c6.83-1.21,15.54-.27,20.14-4,15.08-12.27,28.66-26.25,42.09-38.89l-7.89-12Zm743.57,92.77,3.92-4.44c-9.75-19.28-26.62-33.87-39.36-52.5l-12,10.42c12,14.76,22.51,28.37,34,41.16C1135.16,630.52,1141.2,631,1145.76,632.73Zm-71.45-112.56c-11.39,21.05-43.18,27.69-39.85,57.14l50.13-47.66ZM598.25,728c-.29-5.41-.5-9.55-.74-14.13h-57.9V728ZM433.11,273.9c-3.2,2.83-7.8,5.08-9.34,8.59-5.09,11.6-9.11,23.64-13.47,35.53-4.44,12.09-4.41,12.1,8.83,20.84C423.46,317.4,438.22,299.23,433.11,273.9Zm-242.24,2.65h-15.2v54.73c15.1-1,15.14-1,15.19-14S190.87,291.18,190.87,276.55Zm397,199.28,29.08-27.49-29.08-26.49Zm605.65-317c2.52,25.45,26.61,34.14,41.26,50.67.28-7.69.93-16.66-3.42-20.94C1220.11,177.52,1211,163.43,1193.5,158.86Zm106,243h59.83c-11.33-15.11-34-19.53-59.83-12.1ZM949.6,683.67c-4.66,11.94.19,17.26,10.45,20.75,11.93,4.06,23.32,9.58,35.2,13.77,3.25,1.15,7.44-.18,13.63-.5C992.19,695.57,968.86,693.49,949.6,683.67Zm2.26-589.48V58.89h-38.3Zm264.25,252.36-72.85,68.91c21.19-14.55,41.56-30.31,62.77-44.94C1216,363.64,1219.82,356.19,1216.11,346.55Zm102.84-97L1354.21,215H1319ZM1147.3,680.16h-58.64c16.29,23.54,38.9,11,58.64,14.19ZM265.21,700.27c10.78,9.66,20.8,19.14,31.49,27.88,3.18,2.61,8.22,3.12,12.41,4.6-.78-5.13.23-11.64-2.68-15.11-8.75-10.43-19-19.68-29.27-29.95Zm35.23-611.2c-17.77,0-34.53-.77-51.13.52-4.42.34-8.32,7-14.8,12.89h65.93ZM541.91,664.74c34.45,35.93,30.55,35.27,48.19,30.52l-39.31-40ZM125.14,277.18H91l34.18,33.29ZM11.85,370.28c5.61-2.45,12.28-3.25,14.38-6.66,6.89-11.22-1.51-36.32-14.38-44.85Zm1150.68,53.07c30.93,2,57.55-18.87,52.1-38.71Zm135.14,101.48,24.79-21.33h-47.35ZM706.49,628.22l-25.32-25.8v49.49Zm440.35-33.78V542.79l-23.6,22.65C1130.54,574.4,1138,583.54,1146.84,594.44Zm170.93-460.18h32.79l-32.79-33.21Zm-1097,188.05V275.78L208.32,277v48ZM539.2,760.15c16.79-1.48,34.51,5.3,43.54-14.75H539.2ZM597,673.41c7.58-21.29-11.56-27.83-22.21-40.46l-10.47,9.52ZM486.71,319.6c22.57-9.49,12-28.13,15.16-44H486.71Zm743.55,316.55,32.44-29.44-8.92-10.42C1242.37,609.55,1223.7,616.68,1230.26,636.15Zm-783.9-95.69c22.64,6.72,30.29-9.76,41.94-20.65l-10.55-9.49C467.24,520.4,457.34,529.91,446.36,540.46ZM253.62,711.11l-12.7,10.08c15,7.19,19.39,29.25,40.82,17.46ZM344.3,437.72c20,6.46,27.5-9,39.69-19.65l-10.75-10.22Zm679.41-161.58V314.9h14C1038.32,300.27,1042.6,285.09,1023.71,276.14ZM481.45,648.77l31.89-27c-20.05-6.61-27.57,9.09-39.2,19.55Zm-59.06,57.74L393.9,678.64v34.49ZM407.66,275.82c-8.74-1.18-16.66-3.39-18.73,7.19s-15.18,22.71,4.48,31.46C398.14,301.63,402.74,289.15,407.66,275.82Zm462.81,7.31V258.25l-29.76,24.88Zm333.9-251.35,30.17,28.56V31.78Zm-1133.1,47,28.83,31,8.34-11.37C96.83,88.47,89.48,72.06,71.27,78.79ZM1074.71,609.64c10.38,11.88,15.88,28.15,37.24,20.11l-25.47-31.07ZM987.82,733.58,949.56,718c-7,19.35,9.59,18.74,19.08,24.16C978.7,747.86,981.75,739.89,987.82,733.58ZM795.47,457.46l-26.42,28c17.82,2.78,20.88,1.21,35.94-19.41C802.05,463.39,799.08,460.72,795.47,457.46Zm209.67-185.27c-20.57,10.95-13.3,27.42-13.77,42.39h13.77Zm104.72-28.79V215.26h-31.13ZM950.8,591.81c6.94-19.9-8-27.93-20.29-38.27l-10,10.18C930.71,573.18,940.36,582.14,950.8,591.81ZM1220.3,226c-9.78-10.42-18.38-19.59-27.28-29.06-1.12,19.66-1.12,19.66,19.73,37.09ZM781,445.06l-9.2-8.3c-24.24,18.42-25.3,20.35-21.2,37.81ZM658.68,77.42l-8.47,8.7c17.51,20.37,17.85,20.53,35.45,17.38ZM310.16,695.66V660.8l-20.25,15.31ZM61.3,98.79c-6.19,18.49,7,26.79,19.42,36.37,2.89-4,5.38-7.45,8-11.09ZM897.2,584.62c11.95,10.67,19.11,26.12,39.94,18.54l-29.76-26.92C904.39,578.71,901,581.47,897.2,584.62ZM220.94,435.82V404.21l-26.67,6.12ZM105.85,526.27v-28.6H77ZM213.51,550l-23.86-27.22V550ZM337.82,377.44c-8.87-17.52-21.32-14.55-34.51-12.65.31,4.73.58,8.83.93,14.14ZM759,566.12l19.19,18.45,19.61-18.45ZM954.45,170.53v35l19.22-17.2Zm-90.82,193c-15.66-5.25-24.18,5.49-33.41,16.33l9.25,8ZM255.42,71.13h44.29l.5-2.07L266.66,53.38Zm-49.9,686.81L247,748l-15.92-14.54ZM190.33,124.85c6.69-1.25,11.57-.8,12.75-2.6,11.24-17.12,21.86-34.63,32.65-52l-2.55-1.6Zm591.11,59.61c.23,4,.42,7.31.66,11.63,14.53-2.16,30.77,6.09,40.89-11.63Zm300.88,12.77h27.26V171.55Zm41.34,513.92L1147,733.51V711.15ZM561,172.87,542.77,195h29.67C568.38,187.09,565,180.62,561,172.87Zm100,11.54c5.24,10.38,22.54,15.72,34,10.9,2.62-1.1,3.28-6.5,5.29-10.9ZM342.45,541.31V518.44H328.5v22.87Zm888.29,199.13v21.2c7.44-6.7,15.39-13.86,23.56-21.2ZM1299.18,644c-4.8,4.76-10.5,10.43-16.37,16.27h33.44ZM275.59,38.86,299.33,50c6.09-15.79-4.82-19.17-16.19-23ZM483.75,92.6c1.45-23.17.05-24.44-28.8-27.69Zm841.87,277.8,2.05-4.19-28-13V370.4ZM374.45,518.57c-16.08-1-16.55-.12-12.77,22.34h12.77Zm21.6-391.85c-3.8-5.62-7.52-11.14-12.41-18.39v30.3Zm731.62,376.5,15.91,15.71-2.21-4.07,19.39-11.64ZM698.75,213.46H676.83c2.27,13.11,9.94,15.8,21.92,12.36Zm173.83,171L855.2,401.4l13.28,10.8ZM95.12,630.27H79L95.12,647Zm948.87-235h-25.17c3.56,4.44,7.21,9,11.26,14Zm-393.49-32,15.66,16.85V363.22Z" transform="translate(0)"/><path class="cls-1" d="M1300.43,0c0,75.79.17,151.57-.15,227.36,0,5-2.1,11.45-5.66,14.9q-107.1,104.07-214.87,207.53a45.87,45.87,0,0,1-3.93,2.91l-11.92-10.33c10.71-9.63,21.18-18.5,31-28q91.33-87.69,182.17-175.85c4.71-4.6,8-12.74,8-19.26.58-68.34.35-136.68.44-205,0-4.76.79-9.52,1.21-14.28Z" transform="translate(0)"/><path class="cls-1" d="M1267.65,0c.06,71.87.19,143.74,0,215.61,0,4.35-1.49,10-4.49,12.86C1193.48,295.83,1123.52,362.9,1053,430.62l-10.56-9.08c3.45-3.57,6.34-6.76,9.44-9.74,64.3-62,128.75-123.91,192.69-186.28,4.74-4.63,8.24-12.68,8.3-19.18.61-63.54.36-127.09.41-190.63,0-5.24.47-10.47.72-15.71Z" transform="translate(0)"/><path class="cls-1" d="M1131.05,768c-22.46-22.2-44.84-44.48-67.42-66.57-18.19-17.8-36.81-35.19-54.79-53.18-3.46-3.46-6.84-8.81-6.89-13.32-.51-45.94-.31-91.89-.31-139.41,10.31,6.47,15.67,12.83,15.39,24.54-.83,34.59-.71,69.23.08,103.83.15,6.5,3.41,14.47,8.09,19.09,37.78,37.33,76.34,73.94,114.34,111.07,3.72,3.62,5.32,9.25,7.91,14Z" transform="translate(0)"/><path class="cls-1" d="M1084.61,768c-2.7-3.35-5.07-7-8.15-10-33-32-66.27-63.71-98.86-96.08A28.42,28.42,0,0,1,970,643.87c-.68-38.07.1-76.17-.6-114.24-.22-11.68,3.31-20,15.31-26.8v14.95c0,39.84-.4,79.68.35,119.5.12,6.52,3.63,14.47,8.35,19.16,33.54,33.32,67.84,65.92,101.8,98.84,4.07,4,7.55,8.47,11.31,12.72Z" transform="translate(0)"/><path class="cls-1" d="M352.46,0q51,15.63,102,31.25c6.48,2,12.94,4.18,19.58,5.49,9.82,1.94,12.72,7,8.69,17.37l-144.3-41.6c-1.62,8.92-4.21,16.89-4.33,24.89-.54,37.64-.4,75.3-.5,113,0,4.75,0,9.49,0,14.55-12.17.41-15.51-4.48-15.33-15q.91-51.87,0-103.76c-.24-13.18,1.9-25,10.13-35.74,2.3-3,3.32-6.94,4.92-10.45Z" transform="translate(0)"/><path class="cls-1" d="M1196.62,768c.24-40.7.57-81.4.69-122.1.11-42.47,0-84.95,0-127.42V503.63H1213V768Z" transform="translate(0)"/><path class="cls-1" d="M1366,486.58c-80.53,0-161.06-.24-241.58.31-12.35.08-20.49-3.86-27.76-15h15.61q118.76,0,237.51,0c5.41,0,10.81-.68,16.22-1Z" transform="translate(0)"/><path class="cls-1" d="M1163.84,768c.26-39.77.62-79.55.76-119.32.13-37.18.54-74.36-.27-111.52-.26-11.92,4-19.72,15.9-26.8V768Z" transform="translate(0)"/><path class="cls-1" d="M1366,455H1101c6.23-9.15,11.65-14.79,23.63-14.7,75,.52,150.1.23,225.16.11,5.39,0,10.79-.77,16.18-1.19Z" transform="translate(0)"/><path class="cls-1" d="M174.88,0,225.3,50.66q-37.16,49-73.88,97.41c-9.91,13.05-19.9,26.05-29.8,39.11-8,10.6-8,10.63-25.33,8.25L208.17,48.67,153,0Z" transform="translate(0)"/><path class="cls-1" d="M0,389.26,220.1,339.65c4.63,11.67.41,16.09-11.88,18.75C138.71,373.46,69.41,389.4,0,405Z" transform="translate(0)"/><path class="cls-1" d="M0,568.11c77.38-.15,154.77-.52,232.15,0,6.41,0,12.78,5.95,19.17,9.14l-1.34,4H0Z" transform="translate(0)"/><path class="cls-1" d="M505.44,768c.15-14.44.95-28.92.1-43.31-.29-5-3.63-10.71-7.41-14.32-30-28.64-60.51-56.86-93.17-87.38,14.52-3.47,22.91-3.14,31.35,5.4C459.18,651.55,483,673.81,507.05,697l14.79-12.69V768Z" transform="translate(0)"/><path class="cls-1" d="M953.48,0c.53,8.34-3.33,10.93-12.08,10.84-39.92-.44-79.86.21-119.78-.43-11.69-.19-20.15,2.53-28.35,11C774.45,40.91,754.39,59.3,734,78.9l-10.49-9.57L792.3,0Z" transform="translate(0)"/><path class="cls-1" d="M1366,681.21c-41.57-39.67-83-79.49-124.85-118.85-8.73-8.21-15.16-16.18-9.75-30,3.24,2.89,6.67,5.75,9.87,8.84q57.33,55.2,114.63,110.42c3.16,3,6.73,5.7,10.1,8.53Z" transform="translate(0)"/><path class="cls-1" d="M1366,636.49c-22-20.72-44.19-41.34-66.1-62.18-20.7-19.69-41.17-39.59-61.69-59.45-3-2.94-5.78-6.16-9.73-10.39,11.73-2.92,19.43-1.66,27.19,6,33,32.59,66.63,64.59,100.1,96.73,3.14,3,6.81,5.51,10.23,8.24Z" transform="translate(0)"/><path class="cls-1" d="M240.45,768c37.11-9.27,74.2-18.67,111.36-27.76,24.57-6,49.25-11.56,73.88-17.31,13.47-3.14,13.47-3.14,24.79,9.14-32.64,7.73-64.53,15.16-96.35,22.86-17,4.12-33.9,8.7-50.85,13.07Z" transform="translate(0)"/><path class="cls-1" d="M587.4,768q50.18-49.1,100.32-98.22c9.81-9.65,19.26-19.64,30.18-30.8L730,652c-21.29,19.87-42.35,39.1-62.89,58.83-19.58,18.8-38.62,38.13-57.89,57.22Z" transform="translate(0)"/><path class="cls-1" d="M0,218.3C17.6,234.7,35.31,251,52.7,267.52q33,31.43,65.5,63.3c3.24,3.17,5.7,7.08,8.56,10.69-9.07,6.64-14.67,4.43-21.06-1.82C73.49,308.14,40.85,277,8.3,245.78c-2.5-2.4-5.5-4.3-8.26-6.44Z" transform="translate(0)"/><path class="cls-1" d="M472.66,768c.27-10.89,1.18-21.83.47-32.66-.27-4.12-3.49-8.75-6.68-11.9-21.55-21.27-43.07-42.6-65.44-63-8.49-7.76-9.45-15.76-6.94-28.13,18.76,18.32,36.13,35.26,53.48,52.21,3.18,3.11,5.92,6.84,9.58,9.29C484.39,712,494.48,736.85,489.05,768Z" transform="translate(0)"/><path class="cls-1" d="M144.83,768V630.14l16.39-.74V768Z" transform="translate(0)"/><path class="cls-1" d="M112.05,768q.38-60.25.76-120.5c0-5.57,0-11.14,0-17.44h15.63V768Z" transform="translate(0)"/><path class="cls-1" d="M633.84,768c15.95-16,31.74-32.2,47.89-48,19.09-18.72,38.5-37.15,59.41-57.29l11.25,11.05c-30.51,29-59.63,56.54-88.62,84.25-3.09,2.95-5.4,6.66-8.07,10Z" transform="translate(0)"/><path class="cls-1" d="M1016.31,0c.34,47.29.8,94.59.79,141.88,0,3.69-3.21,7.38-4.93,11.07l-4.53.28c-1.72-5.06-4.89-10.1-4.92-15.17-.34-46-.12-92-.07-138.06Z" transform="translate(0)"/><path class="cls-1" d="M986.26,0q-.62,56.43-1.23,112.86c0,4.61,0,9.21,0,15-12.13-6.24-15.77-13.93-15.51-25.33.78-34.16.33-68.34.36-102.51Z" transform="translate(0)"/><path class="cls-1" d="M0,15.78c43.22,0,86.45.42,129.65-.4,12.45-.24,20.45,3.94,27.77,14.77-33.84,0-66.38.14-98.92,0C39,30,19.54,29.34,0,28.93Z" transform="translate(0)"/><path class="cls-1" d="M1366,381.37l-92.75-94,6.89-7.41L1366,360.33Z" transform="translate(0)"/><path class="cls-1" d="M0,47.34h146c-3.69,11-10.66,14.63-22.34,14.36-41.22-1-82.46-.89-123.69-1.21Z" transform="translate(0)"/><path class="cls-1" d="M549.15,0C536.82,38.26,535,80.37,506.74,112.77l-4.76-1c.86-5.47,1.15-11.1,2.68-16.4,9.21-31.82,18.7-63.56,28.1-95.32Z" transform="translate(0)"/><path class="cls-1" d="M1366,723.29H1230.43c-.28-4.33-.51-8-.84-13.15H1366Z" transform="translate(0)"/><path class="cls-1" d="M0,263c12.42,11.26,25,22.4,37.24,33.81,18.56,17.25,36.93,34.68,56,52.61-11.06,6.91-18.28,5.24-26.28-3-18.27-18.77-37.55-36.66-56.56-54.76-3.07-2.92-6.91-5.1-10.39-7.63Z" transform="translate(0)"/><path class="cls-1" d="M5.5,768q33.08-32.85,66.13-65.7c7.12-7.1,14.12-14.31,22.54-22.85,3.19,13.32,1.26,21.59-7.53,29.43C69,724.62,52.33,741.43,35.42,757.94c-3.07,3-5.39,6.69-8.06,10.06Z" transform="translate(0)"/><path class="cls-1" d="M0,434H105.92c.29,4.86.53,9,.93,15.78H0Z" transform="translate(0)"/><path class="cls-1" d="M0,465.53H106.13v15.79H0Z" transform="translate(0)"/><path class="cls-1" d="M1125.59,0c-25.74,25.23-51.37,50.56-77.4,75.51-2.59,2.48-7.59,2.63-11.47,3.87l-3.49-3.18c2.9-5.14,4.83-11.15,8.86-15.25,20.25-20.59,41-40.68,61.65-60.95Z" transform="translate(0)"/><path class="cls-1" d="M0,599.67c12.09-2.6,21.13.82,29.92,9.89C47.85,628,67.2,645.18,88,664.81l-14.21,10.8L0,602.3Z" transform="translate(0)"/><path class="cls-1" d="M1366,336.66l-68.28-71.06-4,2.13,9.56-9.64L1366,315.62Z" transform="translate(0)"/><path class="cls-1" d="M915.23,768V685l16.39-1v84Z" transform="translate(0)"/><path class="cls-1" d="M882.45,768V684.89h16.39V768Z" transform="translate(0)"/><path class="cls-1" d="M0,78.9C5.44,78,11,76.17,11,85c-.14,36.87-.06,73.75-.06,112.38L0,194.63Z" transform="translate(0)"/><path class="cls-1" d="M0,626,62.9,688l-10.56,6.87c-1.11,1.58-2.21,3.17-3.31,4.75L0,647Z" transform="translate(0)"/><path class="cls-1" d="M1366,121c-14.92-14-30.5-27.41-44.38-42.3-4.38-4.7-4.21-13.34-6.12-20.18l3.25-1.73L1366,100Z" transform="translate(0)"/><path class="cls-1" d="M0,497.1c1.72.19,4.08-.26,5.07.67,17.72,16.5,35.26,33.17,54.12,51-12.79,3.29-21.06,2.06-28.85-6.15C21.09,532.86,10.22,524.49,0,515.51Z" transform="translate(0)"/><path class="cls-1" d="M584.67,0c-3.33,11.27-7.77,22.36-9.72,33.84-2.65,15.64-13.33,24.77-27.4,36.2,7.5-25.34,14.11-47.69,20.73-70Z" transform="translate(0)"/><path class="cls-1" d="M221.32,0l35.37,36.88-5.49,8.6L199.47,0Z" transform="translate(0)"/><path class="cls-1" d="M1366,510.25l-43.72,40.29-11.74-9.81c12.8-12,24.54-24,37.58-34.49,4.17-3.35,11.82-2.7,17.88-3.88Z" transform="translate(0)"/><path class="cls-1" d="M377,768l78.62-20.73V762l-15.78,6Z" transform="translate(0)"/><path class="cls-1" d="M1234.87,0V14.14c-16.29,0-32,1.38-47.32-.64-6.6-.88-12.2-8.79-18.25-13.5Z" transform="translate(0)"/><path class="cls-1" d="M978.07,768l43.35-38.77c1.69,1.39,4.95,4.09,9.15,7.54L999.92,768Z" transform="translate(0)"/><path class="cls-1" d="M1366,76.27,1318.72,33.1c11.37-2.84,19.92-3.64,27.69,4.74,5.88,6.36,13,11.64,19.59,17.39Z" transform="translate(0)"/><path class="cls-1" d="M464.46,0c2.82,1.18,5.54,2.88,8.48,3.43,10.88,2,14.12,7.72,9.28,19.2L412.56,0Z" transform="translate(0)"/><path class="cls-1" d="M1079.15,0l-42.4,43.15c-4.23-13.92-1-23.06,9.08-30.59,4.49-3.34,7.68-8.32,11.46-12.56Z" transform="translate(0)"/><path class="cls-1" d="M51.94,768l41.3-43.61c4.42,17.27,4.19,18-7,28.63-5.14,4.92-10.13,10-15.19,15Z" transform="translate(0)"/><path class="cls-1" d="M1366,165.7h-48c-.31-4-.59-7.71-1-13.15h49Z" transform="translate(0)"/><path class="cls-1" d="M707.61,0V51.81c-9.71-5-15.6-10.94-14.6-22,.9-9.89.67-19.88.94-29.82Z" transform="translate(0)"/><path class="cls-1" d="M1366,197.26h-47.92c-.33-4.15-.62-7.84-1-13.15h49Z" transform="translate(0)"/><path class="cls-1" d="M1366,13.15h-48.22c-.35-4.78-.65-9-1-13.15H1366Z" transform="translate(0)"/><path class="cls-1" d="M1300.43,768c8.18-8.49,15.51-18,24.87-25,4.78-3.56,13.21-2.59,23.36-4.21L1322.29,768Z" transform="translate(0)"/><path class="cls-1" d="M1254,768c8-8.19,15.23-17.44,24.43-24.14,5.27-3.84,13.8-3.52,22-2.29L1275.85,768Z" transform="translate(0)"/><path class="cls-1" d="M740.39,0C739.49,14.63,746,31.52,724,41.69V0Z" transform="translate(0)"/><path class="cls-1" d="M1366,255.12l-21.89,17.48-11.23-9.26L1366,234.08Z" transform="translate(0)"/><path class="cls-1" d="M1366,555c-6.72,5.66-13.45,11.31-21.18,17.83L1334.08,563l31.92-29Z" transform="translate(0)"/><path class="cls-1" d="M0,715.4h32c-7.27,13.42-18.79,15.3-32,13.15Z" transform="translate(0)"/><path class="cls-1" d="M1366,423.45h-66c-.08-1.47-.15-2.94-.22-4.42l66.26-.84Z" transform="translate(0)"/><path class="cls-1" d="M513.64,0,504.4,38.94l-3.58-.31L502.71,0Z" transform="translate(0)"/><path class="cls-1" d="M672.09,0l4.41,21.06-4,2.41L650.24,0Z" transform="translate(0)"/><path class="cls-1" d="M0,683.84c12.2-2.57,20.67,2.5,28.07,14.54L0,697Z" transform="translate(0)"/><path class="cls-1" d="M1024.51,768l17.69-18.84,10.44,9.17c-2.23,3.45-4.25,6.56-6.28,9.67Z" transform="translate(0)"/><path class="cls-1" d="M278.69,0,266.77,21.46l-11.44-10L259.57,0Z" transform="translate(0)"/><path class="cls-1" d="M691.21,768l-5.36-8.64,11-9L713.07,768Z" transform="translate(0)"/><path class="cls-1" d="M620.18,0,596.49,24.75c1.85-10,3.21-17.39,4.57-24.75Z" transform="translate(0)"/><path class="cls-1" d="M303.28,0l8,6L304.12,17.3l-11-5c1.71-4.47,3.21-8.4,4.71-12.34Z" transform="translate(0)"/><path class="cls-1" d="M597.84,589.5v15.26h-13.4c-90.49,0-181,.15-271.47-.32A30.2,30.2,0,0,1,294.36,597c-32.57-30.53-64.13-62.06-96.82-92.47-8.76-8.14-10-16.3-7.5-29.73C212.59,497,233.4,517.51,254.33,538c15,14.65,29.72,29.62,45.52,43.43,5,4.4,13.13,7.77,19.84,7.81,87.31.5,174.62.32,261.92.31Z" transform="translate(0)"/><path class="cls-1" d="M435.62,158.52l10.2,9.12-141,134.45c33.7,31.23,65.7,60.37,97.08,90.12s61.86,60.55,93.52,90.11c8.94,8.34,11.51,16.72,8.89,29.46-23.66-22.84-46.33-44.67-68.93-66.57Q372.9,384.66,310.49,324c-8.61-8.35-10.86-34.28-2.85-42.06C349.84,241,392.33,200.22,435.62,158.52Z" transform="translate(0)"/><path class="cls-1" d="M594,558.16c-7.66,13-17.29,15.44-29.75,15.36-79.18-.47-158.37-.09-237.55-.5-6,0-13.61-2.42-17.79-6.35-38.35-36.16-76.41-72.62-113.71-109.79-5.19-5.17-5.78-14.62-8.5-22.09l4.72-2.28q35.35,34.35,70.71,68.68C278.76,517.35,295,534,312.43,549.34c5.32,4.69,13.9,8.39,21,8.44,81.91.58,163.83.38,245.74.38Z" transform="translate(0)"/><path class="cls-1" d="M936.44,190.36v279c-10.28-4.9-15.89-10.75-15.81-22.69q.76-113.49,0-227C920.51,207.12,923.48,197.77,936.44,190.36Z" transform="translate(0)"/><path class="cls-1" d="M613.26,314.17c6.56-11.46,15.24-14.63,27.54-14.54,72.39.55,144.79.26,217.18.26h12.81v14.28Z" transform="translate(0)"/><path class="cls-1" d="M871.1,332.39v13.88h-15c-70.5,0-141-.26-211.5.18-12.37.08-22.26-2-28.59-14.06Z" transform="translate(0)"/><path class="cls-1" d="M639.53,12.78c.35.34,3.43,3.42,8.7,8.7-20,18.5-39.46,36.07-58.41,54.14-38.08,36.29-76.19,72.57-113.56,109.54-8.85,8.75-17.81,12.49-27.52,10.77Z" transform="translate(0)"/><path class="cls-1" d="M873.19,136.32H784.73c-45.93,0-91.86-.37-137.77.28-11.51.17-16.31-4.27-18.48-15.56h15c66.83,0,133.68.35,200.51-.29C856.75,120.62,865.79,123.89,873.19,136.32Z" transform="translate(0)"/><path class="cls-1" d="M492.68,194.13,658.81,33.21l14.66,12.52c-52.54,49-103.92,97.38-156.17,144.9-5.49,5-16.07,4.8-24.29,7Z" transform="translate(0)"/><path class="cls-1" d="M903.16,441.32c-11.4-5.21-14.93-12.79-14.8-24.35q1-82.79,0-165.6c-.14-12.44,2.14-22.36,14.77-29.33Z" transform="translate(0)"/><path class="cls-1" d="M975.56,468.83l9.12,7.44-161.51,154-8.2-7.42Z" transform="translate(0)"/><path class="cls-1" d="M507.21,466.08,331.89,301.92l10.48-10.06c53.47,51.28,106.17,101.43,158.11,152.3C505.13,448.73,504.87,457.94,507.21,466.08Z" transform="translate(0)"/><path class="cls-1" d="M645.47,152.81H855.9c-6.64,10.52-14.26,14.79-26.83,14.63-55-.73-110-.58-164.94-.08C653.19,167.46,646.92,164.54,645.47,152.81Z" transform="translate(0)"/><path class="cls-1" d="M1234.79,127.19v13.95h-199.2V127.19Z" transform="translate(0)"/><path class="cls-1" d="M1035.82,109.68V95.82h198.75v13.86Z" transform="translate(0)"/><path class="cls-1" d="M972.84,395.24c10-2,18.33-.6,26.82,7.72,43.59,42.66,87.93,84.59,132.78,127.53l-9,9.26Z" transform="translate(0)"/><path class="cls-1" d="M239.89,223.07c8.55.58,14.57,1.37,14.51,11.66-.4,66.09-.24,132.17-.29,198.26a35.86,35.86,0,0,1-.87,5l-13.35.84Z" transform="translate(0)"/><path class="cls-1" d="M220.93,228.35H115.37c-21.36,0-42.75-.78-64,.32-12.92.67-21.44-3.6-28.74-15.57H35.22c55.88.05,111.76-.06,167.64.33C211.33,213.49,223.56,211.06,220.93,228.35Z" transform="translate(0)"/><path class="cls-1" d="M832.69,534c-7.33,11.12-14.92,15.68-27.48,15.5-53.09-.73-106.21-.31-159.32-.31H631.43c7.38-11,14.83-15.69,27.46-15.51,53.1.76,106.22.32,159.33.32Z" transform="translate(0)"/><path class="cls-1" d="M597.24,241.64l6.15,11.59L464.57,385.9l-8.28-9.16Z" transform="translate(0)"/><path class="cls-1" d="M435.07,469.76c-59.1,0-115.53.38-171.94-.43-7.74-.11-15.38-6.08-23.06-9.34.44-1.38.89-2.76,1.34-4.13,3.32-.29,6.64-.83,10-.84,52.81,0,105.63.36,158.44-.29C421.7,454.58,427.86,459.92,435.07,469.76Z" transform="translate(0)"/><path class="cls-1" d="M863.71,695.47c-14.53,4.27-23.4-.22-32.3-9.5-35.13-36.6-71.08-72.46-106.7-108.62-3.07-3.12-6-6.4-9.14-9.84,16.86-3.68,16.9-3.71,27.34,6.76C782.83,614.3,822.73,654.35,863.71,695.47Z" transform="translate(0)"/><path class="cls-1" d="M856.45,513.83c-3.34,1.43-6.66,4.09-10,4.1-60.29.25-120.58.18-182.4.18,7-11.67,15.3-15.68,28.07-15.5,48.15.69,96.32,0,144.48.54,6.72.07,13.4,4,20.1,6.09C856.62,510.77,856.53,512.3,856.45,513.83Z" transform="translate(0)"/><path class="cls-1" d="M488.66,408.92l-9-9.55L612.81,272c6.06,5.82,6.51,11.49-1.62,19.18C570.41,329.77,530.2,368.9,488.66,408.92Z" transform="translate(0)"/><path class="cls-1" d="M1094.19,158.66l-140,133.83c-1.75-9-.64-17,8-25.19q51.09-48.21,100.51-98.06C1071.73,160.18,1080.68,155.13,1094.19,158.66Z" transform="translate(0)"/><path class="cls-1" d="M178.78,757.68c-3.8-12.5,1.05-20.77,10-29.19,35.1-33,69.35-66.73,104.16-100,4-3.86,9.56-6.27,14.4-9.35l4.26,3.15c-1.83,4.69-2.34,10.65-5.69,13.89C264,676.71,221.69,716.81,178.78,757.68Z" transform="translate(0)"/><path class="cls-1" d="M56.21,195.49c31.11-40.87,61.35-80.61,91.6-120.34,5.63-7.39,11.49-14.64,16.91-22.18,5.72-8,11.14-7.77,17.78.61q-35,46.32-70.12,92.81c-9.88,13.07-20.46,25.71-29.54,39.27C76.62,195,69.53,199.31,56.21,195.49Z" transform="translate(0)"/><path class="cls-1" d="M286.9,259.56v36.09c0,37.69-.45,75.38.3,113.05.23,11.76-2.88,20.37-15.77,27.17V423.05c0-45.57.46-91.15-.27-136.72C271,274.37,275.38,266.64,286.9,259.56Z" transform="translate(0)"/><path class="cls-1" d="M682.41,564.61c3.79,1.72,8.53,2.56,11.23,5.28,41.11,41.4,82,83,123.53,125.31-11.89,3.83-20,1.52-28-6.85-33.68-35-68.15-69.31-102-104.19-4.1-4.23-6-10.41-9-15.68Z" transform="translate(0)"/><path class="cls-1" d="M801.38,609.19l-9.24-10,126-120.79,10.74,8.75Z" transform="translate(0)"/><path class="cls-1" d="M692.49,282.09c-11.42,3.87-16.91.68-21.7-8.59-23.64-45.75-48.1-91.11-73-138l12-10.37Z" transform="translate(0)"/><path class="cls-1" d="M751,375.89l131,114-14.13,9c-37.74-33.3-76.73-67.21-114.85-102-4.35-4-3.81-12.91-5.54-19.55Z" transform="translate(0)"/><path class="cls-1" d="M250.57,600c-6.07,10.76-14.52,13.55-26.1,13.43q-77-.82-154,0c-11.28.12-19-3.1-25-13.44Z" transform="translate(0)"/><path class="cls-1" d="M763.23,364.17c14.86-3.69,24.23.66,33.76,9.12,35.31,31.36,71.43,61.87,108.3,93.6l-11.93,10.5Z" transform="translate(0)"/><path class="cls-1" d="M55.39,244.87H220.81v14.39H200.47c-38.65,0-77.3-.35-115.94.35C72,259.84,62.46,257.06,55.39,244.87Z" transform="translate(0)"/><path class="cls-1" d="M28.59,415.33l191.26-42.7c4.42,11,.78,14.88-10.45,17.14-38.08,7.68-75.67,17.74-113.89,24.56-21.61,3.86-44.1,3.19-66.2,4.55Z" transform="translate(0)"/><path class="cls-1" d="M868.16,58.82c12.27-2.73,20.76,1.29,29.27,9.69,32.72,32.3,66.31,63.79,100.46,96.44l-9,9.38C948.32,135.51,908.45,97.36,868.16,58.82Z" transform="translate(0)"/><path class="cls-1" d="M171.12,150.68l10-13.54,155,47.54c-5.2,10.3-11.73,12.12-22.79,8.67C266.78,178.8,219.92,165.22,171.12,150.68Z" transform="translate(0)"/><path class="cls-1" d="M1035.31,532.39a2.74,2.74,0,0,1-.66-2.09c5.3-24-8.91-38.88-25.69-53.35-15.19-13.1-29.11-27.57-43.5-41.51-12.14-11.76-12.09-11.81-11.54-26.74l105.27,102.68Z" transform="translate(0)"/><path class="cls-1" d="M536.78,541.43H522V496.72c0-26.74.72-53.5-.29-80.2-.48-12.63,2.65-22.12,15-29.1Z" transform="translate(0)"/><path class="cls-1" d="M570.42,541.34H555.49V389c9.37,6.83,15.46,12.47,15.23,24-.77,38.54-.29,77.1-.3,115.66Z" transform="translate(0)"/><path class="cls-1" d="M412.59,136.93l9.77,8.55L301.79,260.36c2.37-8.76,2-18,6.59-22.64C342.37,203.78,377.36,170.77,412.59,136.93Z" transform="translate(0)"/><path class="cls-1" d="M794.35,285.09,912,172.12l9.86,8.73c-35.21,33.46-69.72,66.81-105.15,99.23C812.23,284.16,802.93,283.33,794.35,285.09Z" transform="translate(0)"/><path class="cls-1" d="M310.52,209.63c-6.65,12-14.67,12.38-25.72,8.85-43.82-14-87.94-27.15-132.63-40.81,3.26-9.54,7.3-13.55,18.73-10C216.86,182.13,263.16,195.51,310.52,209.63Z" transform="translate(0)"/><path class="cls-1" d="M954.08,347.06V332.73h153.56c-6.1,9.68-13.11,14.86-25.72,14.6-37.69-.76-75.41-.27-113.12-.27Z" transform="translate(0)"/><path class="cls-1" d="M616.2,565.88h14.6V580c0,34.94-.55,69.9.28,104.83.29,12.43-2.13,22.18-14.88,29.22Z" transform="translate(0)"/><path class="cls-1" d="M656.47,282.52c-12.85,3.33-18.94-.45-24.06-10.57-18.86-37.28-38.86-74-58.72-111.51,3.47-3.58,6.79-7,11.64-12Z" transform="translate(0)"/><path class="cls-1" d="M566,243.59c-6.57,11.35-14,14.85-25.36,14.73-53-.56-106-.25-160.32-.25,6.32-10.72,13.77-14.86,25.69-14.73C458.58,243.92,511.22,243.59,566,243.59Z" transform="translate(0)"/><path class="cls-1" d="M823.84,60.19l9.74-8.71c33.44,32.31,66.62,63.86,98.91,96.23,4.08,4.09,3.45,12.53,1.78,19Z" transform="translate(0)"/><path class="cls-1" d="M429.59,487.39c-6.65,11-15.44,14.39-27.63,14.14q-50.43-1-100.88.09c-12.16.26-20.84-3.16-27.54-14.23Z" transform="translate(0)"/><path class="cls-1" d="M865.53,745.67v14.22H851.17c-35,0-70-.58-104.91.3-12.73.32-21.75-3.07-28.75-14.52Z" transform="translate(0)"/><path class="cls-1" d="M587.19,226.24H413.09c5.85-10.34,13.58-14,25.43-13.8,44.15.66,88.32.49,132.48.07C581.05,212.41,586.25,215.56,587.19,226.24Z" transform="translate(0)"/><path class="cls-1" d="M721.35,727.56c6.64-10.64,14.59-14.85,27-14.59,38.56.81,77.14.3,116.72.3.38,5,.7,9.16,1.1,14.29Z" transform="translate(0)"/><path class="cls-1" d="M156.67,418.75l14.61-3.89V549.43H156.67Z" transform="translate(0)"/><path class="cls-1" d="M274.7,601.88c4.09,4.21,6.84,7,9.07,9.36L178.46,712c-2.79-10-.1-18.12,8.81-26.37C216.72,658.36,245.3,630.18,274.7,601.88Z" transform="translate(0)"/><path class="cls-1" d="M781.71,264.94c-2.37-8.44.45-16.4,9-24.34C823,210.51,854.46,179.65,887,148.32l9.41,8.34Z" transform="translate(0)"/><path class="cls-1" d="M139,423.49V549.65h-14.8c0-23,0-45.66,0-68.33,0-14.9.77-29.83-.12-44.68C123.43,426.06,127.29,422,139,423.49Z" transform="translate(0)"/><path class="cls-1" d="M698.57,486.15h-14V363.57l14-.9Z" transform="translate(0)"/><path class="cls-1" d="M717.06,363.52h14.31V485.89H717.06Z" transform="translate(0)"/><path class="cls-1" d="M351.73,169.17V34.66c10.58-.18,14.75,3.82,14.61,14.76-.38,31-.18,62.08,1.34,93.06C368.29,154.81,362.77,161.59,351.73,169.17Z" transform="translate(0)"/><path class="cls-1" d="M29.5,78.56H41.63c.64,1.37,1.64,2.5,1.64,3.62.14,31.93.72,63.87-.2,95.78-.19,6.69-5.94,13.24-9.13,19.85l-4.44-1.3Z" transform="translate(0)"/><path class="cls-1" d="M648.75,565.94h14.63v39.15c0,16.16-.81,32.38.24,48.47.83,12.56-2.52,22.19-14.87,29.32Z" transform="translate(0)"/><path class="cls-1" d="M954.32,378.56V364h120.62c-5.69,8.85-11.49,15.09-23.8,14.83C1019.09,378.1,987,378.56,954.32,378.56Z" transform="translate(0)"/><path class="cls-1" d="M481.89,133.77,389.68,45.15c14.78,3.16,28,6.78,38.9,18,20.46,21,42.4,40.58,64.19,61.2Z" transform="translate(0)"/><path class="cls-1" d="M328.54,621.19h13.83V725l-13.83,3.66Z" transform="translate(0)"/><path class="cls-1" d="M665.52,425.93c4.3,14.16-.93,22.52-9.83,30.79-22.37,20.79-43.87,42.45-66.73,64.74-4.25-13.64-.55-22,8.6-30.36C620.45,470.22,642.33,448.3,665.52,425.93Z" transform="translate(0)"/><path class="cls-1" d="M731.29,283H717.1v-98.3l14.19-.89Z" transform="translate(0)"/><path class="cls-1" d="M749.49,283v-98.4H764V283Z" transform="translate(0)"/><path class="cls-1" d="M1049.12,159l-95,88.51c-1.94-9-.11-17.13,8.66-25,19.61-17.57,38.54-35.9,56.89-54.68C1027.6,159.66,1035.74,155.57,1049.12,159Z" transform="translate(0)"/><path class="cls-1" d="M1174.86,157.73c0,37,.48,72.36-.5,107.65-.15,5.48-6.95,10.8-13.39,14.82V158.48Z" transform="translate(0)"/><path class="cls-1" d="M952.89,41.7h-105l-2.1-3c5.52-3.85,10.92-10.81,16.59-11,29.36-1.13,58.78-.52,89.43-.52C952.2,32.22,952.5,36.28,952.89,41.7Z" transform="translate(0)"/><path class="cls-1" d="M951.05,667.93c-29.12,0-58.11.62-87-.53-5.82-.23-11.35-7.19-16-13.55h103Z" transform="translate(0)"/><path class="cls-1" d="M1133.45,309.74l-85.92-81.31,9.37-8.81,84.42,81.8C1139,303.87,1136.07,307,1133.45,309.74Z" transform="translate(0)"/><path class="cls-1" d="M1127.46,158.53h14.27V275c-9.53-6.53-14.82-12.83-14.53-24C1128,220.55,1127.46,190,1127.46,158.53Z" transform="translate(0)"/><path class="cls-1" d="M745.27,90.93c21.51-20.47,41.44-40.34,62.61-58.9,5-4.44,14.22-4.53,24.86-7.58L754.36,98.58Z" transform="translate(0)"/><path class="cls-1" d="M1023.68,252.84l11.73-9.7,74.08,71.41c-10.44,2.32-18.91,1.46-27.29-6.87C1063.32,288.9,1043.35,271.14,1023.68,252.84Z" transform="translate(0)"/><path class="cls-1" d="M1222.17,78.08c-11,2.7-19.68-.21-28.17-8.73-18.51-18.59-38.18-36.1-58.43-55L1146,4Z" transform="translate(0)"/><path class="cls-1" d="M639.17,428.18l-7.45,7.54-72.49-70.83c1.81-1.85,4.8-4.92,7-7.2C590.47,381.1,614.27,404.1,639.17,428.18Z" transform="translate(0)"/><path class="cls-1" d="M662.53,405.93l-7.93,6.19L583,342.05c1.14-1.24,4-4.36,6.33-6.85Z" transform="translate(0)"/><path class="cls-1" d="M466.43,150.08l-7.53,7.45c-24.94-24-49.32-46.8-72.54-70.61-4.06-4.16-3.24-12.73-4.92-20.35Z" transform="translate(0)"/><path class="cls-1" d="M1248.86,313.41V423.26l-14.2.73c0-32.82-.5-64.59.5-96.32.16-5.24,6.89-10.29,10.58-15.43Z" transform="translate(0)"/><path class="cls-1" d="M1098.23,543.41l9.88,8.78-75,71.71c1.95-8.85,1.14-17.77,5.38-22.24C1057.46,581.72,1077.84,563.06,1098.23,543.41Z" transform="translate(0)"/><path class="cls-1" d="M1282,423.74h-13.88V313.6c10.29,5.3,14.5,12.51,14.16,24C1281.41,365.88,1282,394.2,1282,423.74Z" transform="translate(0)"/><path class="cls-1" d="M1058,648.49h89.16c.25,4.64.47,8.74.77,14.35-25.71,0-50.54.72-75.26-.55-5.69-.29-11-7.4-16.47-11.37Z" transform="translate(0)"/><path class="cls-1" d="M374.91,620.52c0,31.37.39,61-.47,90.62-.11,3.83-6.67,7.49-10.24,11.23L360.92,720V621.49Z" transform="translate(0)"/><path class="cls-1" d="M666.56,474.11c2.42,10-1,18.6-10.35,26.35a296.69,296.69,0,0,0-31.78,30.62c-8.31,9.23-17.5,13.24-27.95,10.57Z" transform="translate(0)"/><path class="cls-1" d="M951.54,622.39v13.74H846.83c5.7-9.76,12.82-14.35,24.78-14C897.81,622.94,924.05,622.39,951.54,622.39Z" transform="translate(0)"/><path class="cls-1" d="M1349.26,691.55H1248.92c5.93-10,13.19-14.18,24.61-13.56a467,467,0,0,0,50.34,0C1335.15,677.37,1343,680.86,1349.26,691.55Z" transform="translate(0)"/><path class="cls-1" d="M28.42,498.53c14.25-3.41,22.86-2.23,31.06,6.39,14.25,15,29.85,28.76,45.94,44.05-14,3.92-22.9.48-31.57-8.37C60,526.46,44.78,513.54,28.42,498.53Z" transform="translate(0)"/><path class="cls-1" d="M469.06,275.9c0,20.16.92,39.78-.56,59.23-.45,5.93-7.5,11.39-14.2,15.63V275.9Z" transform="translate(0)"/><path class="cls-1" d="M506.52,673c-3-2.68-6.3-5.57-10.79-9.55,14.44-13.6,27.32-27.11,41.87-38.68,5.26-4.19,14.52-3.73,23.95-5.83Z" transform="translate(0)"/><path class="cls-1" d="M1276.67,618.86l9.2,9.69-55.44,52.34c-2.72-10-.53-18.52,8.73-26.36C1251.68,643.94,1263,632,1276.67,618.86Z" transform="translate(0)"/><path class="cls-1" d="M1113.06,36.05l9.43-9.2,52.1,51.44c-7.31,1.39-16,1.93-24.29-7.06C1139.17,59.17,1126.41,48.51,1113.06,36.05Z" transform="translate(0)"/><path class="cls-1" d="M353.22,389.49l8.16,7.51c-14.09,13.1-27.23,26.47-41.81,38.18-4.75,3.83-13.25,3.33-21.71,5.18Z" transform="translate(0)"/><path class="cls-1" d="M811.25,78.42l27.07,25.91H782.09Z" transform="translate(0)"/><path class="cls-1" d="M1103.83,50.3l28.54,27.58h-59.12Z" transform="translate(0)"/><path class="cls-1" d="M218.15,128.22c4-2.68,8-7.54,12.12-7.68,23-.75,46-.36,69.83-.36.27,4.78.48,8.51.71,12.54H219.93Z" transform="translate(0)"/><path class="cls-1" d="M143.31,276.42h14.83c0,18.71.57,37.3-.56,55.79-.19,3.08-7.81,5.74-14.27,10.15Z" transform="translate(0)"/><path class="cls-1" d="M670.9,64.47l10.73-10,50.17,49.41c-8.64,2.13-16.92,2.45-24.84-5.72C695.91,86.73,683.73,76.34,670.9,64.47Z" transform="translate(0)"/><path class="cls-1" d="M178.48,629.85H217l-38.5,38Z" transform="translate(0)"/><path class="cls-1" d="M402.19,540l54.73-52.11,7.89,12c-13.43,12.64-27,26.62-42.09,38.89-4.6,3.75-13.31,2.81-20.14,4Z" transform="translate(0)"/><path class="cls-1" d="M1145.76,632.73c-4.56-1.72-10.6-2.21-13.43-5.36-11.46-12.79-21.94-26.4-34-41.16l12-10.42c12.74,18.63,29.61,33.22,39.36,52.5Z" transform="translate(0)"/><path class="cls-1" d="M1074.31,520.17l10.28,9.48-50.13,47.66C1031.13,547.86,1062.92,541.22,1074.31,520.17Z" transform="translate(0)"/><path class="cls-1" d="M598.25,728H539.61V713.87h57.9C597.75,718.45,598,722.59,598.25,728Z" transform="translate(0)"/><path class="cls-1" d="M433.11,273.9c5.11,25.33-9.65,43.5-14,65-13.24-8.74-13.27-8.75-8.83-20.84,4.36-11.89,8.38-23.93,13.47-35.53C425.31,279,429.91,276.73,433.11,273.9Z" transform="translate(0)"/><path class="cls-1" d="M190.87,276.55c0,14.63,0,27.68,0,40.72s-.09,13-15.19,14V276.55Z" transform="translate(0)"/><path class="cls-1" d="M587.85,475.83v-54l29.08,26.49Z" transform="translate(0)"/><path class="cls-1" d="M1193.5,158.86c17.53,4.57,26.61,18.66,37.84,29.73,4.35,4.28,3.7,13.25,3.42,20.94C1220.11,193,1196,184.31,1193.5,158.86Z" transform="translate(0)"/><path class="cls-1" d="M1299.52,401.83v-12.1c25.87-7.43,48.5-3,59.83,12.1Z" transform="translate(0)"/><path class="cls-1" d="M949.6,683.67c19.26,9.82,42.59,11.9,59.28,34-6.19.32-10.38,1.65-13.63.5-11.88-4.19-23.27-9.71-35.2-13.77C949.79,700.93,944.94,695.61,949.6,683.67Z" transform="translate(0)"/><path class="cls-1" d="M951.86,94.19l-38.3-35.3h38.3Z" transform="translate(0)"/><path class="cls-1" d="M1216.11,346.55c3.71,9.64-.12,17.09-10.08,24-21.21,14.63-41.58,30.39-62.77,44.94Z" transform="translate(0)"/><path class="cls-1" d="M1319,249.55V215h35.26Z" transform="translate(0)"/><path class="cls-1" d="M1147.3,680.16v14.19c-19.74-3.21-42.35,9.35-58.64-14.19Z" transform="translate(0)"/><path class="cls-1" d="M265.21,700.27l12-12.58c10.24,10.27,20.52,19.52,29.27,29.95,2.91,3.47,1.9,10,2.68,15.11-4.19-1.48-9.23-2-12.41-4.6C286,719.41,276,709.93,265.21,700.27Z" transform="translate(0)"/><path class="cls-1" d="M300.44,89.07v13.41H234.51c6.48-5.89,10.38-12.55,14.8-12.89C265.91,88.3,282.67,89.07,300.44,89.07Z" transform="translate(0)"/><path class="cls-1" d="M541.91,664.74l8.88-9.46,39.31,40C572.46,700,576.36,700.67,541.91,664.74Z" transform="translate(0)"/><path class="cls-1" d="M125.14,277.18v33.29L91,277.18Z" transform="translate(0)"/><path class="cls-1" d="M11.85,370.28V318.77c12.87,8.53,21.27,33.63,14.38,44.85C24.13,367,17.46,367.83,11.85,370.28Z" transform="translate(0)"/><path class="cls-1" d="M1162.53,423.35l52.1-38.71C1220.08,404.48,1193.46,425.31,1162.53,423.35Z" transform="translate(0)"/><path class="cls-1" d="M1297.67,524.83l-22.56-21.33h47.35Z" transform="translate(0)"/><path class="cls-1" d="M706.49,628.22l-25.32,23.69V602.42Z" transform="translate(0)"/><path class="cls-1" d="M1146.84,594.44c-8.86-10.9-16.3-20-23.6-29l23.6-22.65Z" transform="translate(0)"/><path class="cls-1" d="M1317.77,134.26V101.05l32.79,33.21Z" transform="translate(0)"/><path class="cls-1" d="M220.73,322.31l-12.41,2.63V277l12.41-1.18Z" transform="translate(0)"/><path class="cls-1" d="M539.2,760.15V745.4h43.54C573.71,765.45,556,758.67,539.2,760.15Z" transform="translate(0)"/><path class="cls-1" d="M597,673.41l-32.68-30.94L574.74,633C585.39,645.58,604.53,652.12,597,673.41Z" transform="translate(0)"/><path class="cls-1" d="M486.71,319.6v-44h15.16C498.73,291.47,509.28,310.11,486.71,319.6Z" transform="translate(0)"/><path class="cls-1" d="M1230.26,636.15c-6.56-19.47,12.11-26.6,23.52-39.86l8.92,10.42Z" transform="translate(0)"/><path class="cls-1" d="M446.36,540.46c11-10.55,20.88-20.06,31.39-30.14l10.55,9.49C476.65,530.7,469,547.18,446.36,540.46Z" transform="translate(0)"/><path class="cls-1" d="M253.62,711.11l28.12,27.54c-21.43,11.79-25.79-10.27-40.82-17.46Z" transform="translate(0)"/><path class="cls-1" d="M344.3,437.72l28.94-29.87L384,418.07C371.8,428.68,364.27,444.18,344.3,437.72Z" transform="translate(0)"/><path class="cls-1" d="M1023.71,276.14c18.89,8.95,14.61,24.13,14,38.76h-14Z" transform="translate(0)"/><path class="cls-1" d="M481.45,648.77l-7.31-7.42c11.63-10.46,19.15-26.16,39.2-19.55Z" transform="translate(0)"/><path class="cls-1" d="M422.39,706.51l-28.49,6.62V678.64Z" transform="translate(0)"/><path class="cls-1" d="M407.66,275.82c-4.92,13.33-9.52,25.81-14.25,38.65-19.66-8.75-6.56-20.87-4.48-31.46S398.92,274.64,407.66,275.82Z" transform="translate(0)"/><path class="cls-1" d="M870.47,283.13H840.71l29.76-24.88Z" transform="translate(0)"/><path class="cls-1" d="M1204.37,31.78h30.17V60.34Z" transform="translate(0)"/><path class="cls-1" d="M71.27,78.79c18.21-6.73,25.56,9.68,37.17,19.62l-8.34,11.37Z" transform="translate(0)"/><path class="cls-1" d="M1074.71,609.64l11.77-11L1112,629.75C1090.59,637.79,1085.09,621.52,1074.71,609.64Z" transform="translate(0)"/><path class="cls-1" d="M987.82,733.58c-6.07,6.31-9.12,14.28-19.18,8.55-9.49-5.42-26.13-4.81-19.08-24.16Z" transform="translate(0)"/><path class="cls-1" d="M795.47,457.46c3.61,3.26,6.58,5.93,9.52,8.57-15.06,20.62-18.12,22.19-35.94,19.41Z" transform="translate(0)"/><path class="cls-1" d="M1005.14,272.19v42.39H991.37C991.84,299.61,984.57,283.14,1005.14,272.19Z" transform="translate(0)"/><path class="cls-1" d="M1109.86,243.4l-31.13-28.14h31.13Z" transform="translate(0)"/><path class="cls-1" d="M950.8,591.81c-10.44-9.67-20.09-18.63-30.29-28.09l10-10.18C942.77,563.88,957.74,571.91,950.8,591.81Z" transform="translate(0)"/><path class="cls-1" d="M1220.3,226l-7.55,8c-20.85-17.43-20.85-17.43-19.73-37.09C1201.92,206.37,1210.52,215.54,1220.3,226Z" transform="translate(0)"/><path class="cls-1" d="M781,445.06l-30.4,29.51c-4.1-17.46-3-19.39,21.2-37.81Z" transform="translate(0)"/><path class="cls-1" d="M658.68,77.42l27,26.08c-17.6,3.15-17.94,3-35.45-17.38Z" transform="translate(0)"/><path class="cls-1" d="M310.16,695.66l-20.25-19.55,20.25-15.31Z" transform="translate(0)"/><path class="cls-1" d="M61.3,98.79l27.44,25.28c-2.64,3.64-5.13,7.09-8,11.09C68.32,125.58,55.11,117.28,61.3,98.79Z" transform="translate(0)"/><path class="cls-1" d="M897.2,584.62c3.84-3.15,7.19-5.91,10.18-8.38l29.76,26.92C916.31,610.74,909.15,595.29,897.2,584.62Z" transform="translate(0)"/><path class="cls-1" d="M220.94,435.82l-26.67-25.49,26.67-6.12Z" transform="translate(0)"/><path class="cls-1" d="M105.85,526.27,77,497.67h28.81Z" transform="translate(0)"/><path class="cls-1" d="M213.51,550H189.65V522.81Z" transform="translate(0)"/><path class="cls-1" d="M337.82,377.44l-33.58,1.49c-.35-5.31-.62-9.41-.93-14.14C316.5,362.89,329,359.92,337.82,377.44Z" transform="translate(0)"/><path class="cls-1" d="M759,566.12h38.8l-19.61,18.45Z" transform="translate(0)"/><path class="cls-1" d="M954.45,170.53l19.22,17.82-19.22,17.2Z" transform="translate(0)"/><path class="cls-1" d="M863.63,363.51l-24.16,24.32-9.25-8C839.45,369,848,358.26,863.63,363.51Z" transform="translate(0)"/><path class="cls-1" d="M255.42,71.13l11.24-17.75,33.55,15.68-.5,2.07Z" transform="translate(0)"/><path class="cls-1" d="M205.52,757.94l25.57-24.48L247,748Z" transform="translate(0)"/><path class="cls-1" d="M190.33,124.85l42.85-56.22,2.55,1.6c-10.79,17.39-21.41,34.9-32.65,52C201.9,124.05,197,123.6,190.33,124.85Z" transform="translate(0)"/><path class="cls-1" d="M781.44,184.46H823c-10.12,17.72-26.36,9.47-40.89,11.63C781.86,191.77,781.67,188.48,781.44,184.46Z" transform="translate(0)"/><path class="cls-1" d="M1082.32,197.23l27.26-25.68v25.68Z" transform="translate(0)"/><path class="cls-1" d="M1123.66,711.15H1147v22.36Z" transform="translate(0)"/><path class="cls-1" d="M561,172.87c4,7.75,7.36,14.22,11.42,22.08H542.77Z" transform="translate(0)"/><path class="cls-1" d="M661,184.41h39.32c-2,4.4-2.67,9.8-5.29,10.9C683.58,200.13,666.28,194.79,661,184.41Z" transform="translate(0)"/><path class="cls-1" d="M342.45,541.31H328.5V518.44h13.95Z" transform="translate(0)"/><path class="cls-1" d="M1230.74,740.44h23.56c-8.17,7.34-16.12,14.5-23.56,21.2Z" transform="translate(0)"/><path class="cls-1" d="M1299.18,644l17.07,16.27h-33.44C1288.68,654.46,1294.38,648.79,1299.18,644Z" transform="translate(0)"/><path class="cls-1" d="M275.59,38.86l7.55-11.93c11.37,3.88,22.28,7.26,16.19,23Z" transform="translate(0)"/><path class="cls-1" d="M483.75,92.6,455,64.91C483.8,68.16,485.2,69.43,483.75,92.6Z" transform="translate(0)"/><path class="cls-1" d="M1325.62,370.4h-26V353.17l28,13Z" transform="translate(0)"/><path class="cls-1" d="M374.45,518.57v22.34H361.68C357.9,518.45,358.37,517.54,374.45,518.57Z" transform="translate(0)"/><path class="cls-1" d="M396.05,126.72l-12.41,11.91v-30.3C388.53,115.58,392.25,121.1,396.05,126.72Z" transform="translate(0)"/><path class="cls-1" d="M1127.67,503.22h33.09l-19.39,11.64,2.21,4.07Z" transform="translate(0)"/><path class="cls-1" d="M698.75,213.46v12.36c-12,3.44-19.65.75-21.92-12.36Z" transform="translate(0)"/><path class="cls-1" d="M872.58,384.48l-4.1,27.72L855.2,401.4Z" transform="translate(0)"/><path class="cls-1" d="M95.12,630.27V647L79,630.27Z" transform="translate(0)"/><path class="cls-1" d="M1044,395.24l-13.91,14c-4-5-7.7-9.57-11.26-14Z" transform="translate(0)"/><path class="cls-1" d="M650.5,363.22h15.66v16.85Z" transform="translate(0)"/></svg>